M48
; DRILL file {KiCad (5.1.6)-1} date 10/15/20 11:20:44
; FORMAT={3:3/ absolute / metric / suppress leading zeros}
; #@! TF.CreationDate,2020-10-15T11:20:44+02:00
; #@! TF.GenerationSoftware,Kicad,Pcbnew,(5.1.6)-1
; #@! TF.FileFunction,Plated,1,4,PTH
FMAT,2
METRIC,TZ
T1C0.300
T2C0.500
T3C1.000
T4C2.500
%
G90
G05
T1
X122072Y-83998
X122784Y-95199
X122784Y-97739
X122784Y-100279
X123292Y-85801
X123317Y-82448
X124562Y-85801
X125832Y-85801
X127102Y-85801
X128372Y-85801
X129642Y-85801
X130912Y-85801
X132182Y-85801
X133452Y-85801
X134027Y-106426
X134722Y-85801
X135992Y-85801
X137262Y-85801
X138532Y-85801
X139802Y-85801
X141072Y-85801
X142367Y-82499
X142367Y-85852
X143637Y-85776
X144882Y-85801
X146152Y-85801
X147447Y-85776
X148438Y-87579
T2
X115489Y-84858
X116038Y-83532
X116038Y-86184
X117364Y-82983
X117364Y-86733
X118690Y-83532
X118690Y-86184
X119239Y-84858
X115489Y-120843
X116038Y-119517
X116038Y-122169
X117364Y-118968
X117364Y-122718
X118690Y-119517
X118690Y-122169
X119239Y-120843
X151491Y-120853
X152040Y-119527
X152040Y-122179
X153366Y-118978
X153366Y-122728
X154692Y-119527
X154692Y-122179
X155241Y-120853
X151491Y-84858
X152040Y-83532
X152040Y-86184
X153366Y-82983
X153366Y-86733
X154692Y-83532
X154692Y-86184
X155241Y-84858
T3
X124054Y-93929
X124054Y-96469
X124054Y-99009
X124054Y-101549
X124054Y-104089
X124054Y-106629
X124054Y-109169
X124054Y-111709
X124054Y-114249
X124054Y-116789
X126594Y-93929
X126594Y-96469
X126594Y-99009
X126594Y-101549
X126594Y-104089
X126594Y-106629
X126594Y-109169
X126594Y-111709
X126594Y-114249
X126594Y-116789
X144120Y-93929
X144120Y-96469
X144120Y-99009
X144120Y-101549
X144120Y-104089
X144120Y-106629
X144120Y-109169
X144120Y-111709
X144120Y-114249
X144120Y-116789
X146660Y-93929
X146660Y-96469
X146660Y-99009
X146660Y-101549
X146660Y-104089
X146660Y-106629
X146660Y-109169
X146660Y-111709
X146660Y-114249
X146660Y-116789
T4
X117364Y-84858
X117364Y-120843
X153366Y-120853
X153366Y-84858
T0
M30
