G04 #@! TF.GenerationSoftware,KiCad,Pcbnew,(5.1.6)-1*
G04 #@! TF.CreationDate,2020-10-15T11:20:42+02:00*
G04 #@! TF.ProjectId,DynOSSAT-EDU-HeaderAdapter,44796e4f-5353-4415-942d-4544552d4865,rev?*
G04 #@! TF.SameCoordinates,Original*
G04 #@! TF.FileFunction,Copper,L4,Bot*
G04 #@! TF.FilePolarity,Positive*
%FSLAX46Y46*%
G04 Gerber Fmt 4.6, Leading zero omitted, Abs format (unit mm)*
G04 Created by KiCad (PCBNEW (5.1.6)-1) date 2020-10-15 11:20:42*
%MOMM*%
%LPD*%
G01*
G04 APERTURE LIST*
G04 #@! TA.AperFunction,ComponentPad*
%ADD10C,5.000000*%
G04 #@! TD*
G04 #@! TA.AperFunction,ComponentPad*
%ADD11C,0.800000*%
G04 #@! TD*
G04 #@! TA.AperFunction,SMDPad,CuDef*
%ADD12R,0.750000X2.100000*%
G04 #@! TD*
G04 #@! TA.AperFunction,ComponentPad*
%ADD13R,1.700000X1.700000*%
G04 #@! TD*
G04 #@! TA.AperFunction,ComponentPad*
%ADD14O,1.700000X1.700000*%
G04 #@! TD*
G04 #@! TA.AperFunction,ViaPad*
%ADD15C,0.400000*%
G04 #@! TD*
G04 #@! TA.AperFunction,ViaPad*
%ADD16C,0.450000*%
G04 #@! TD*
G04 #@! TA.AperFunction,Conductor*
%ADD17C,0.250000*%
G04 #@! TD*
G04 #@! TA.AperFunction,Conductor*
%ADD18C,0.200000*%
G04 #@! TD*
G04 #@! TA.AperFunction,Conductor*
%ADD19C,0.500000*%
G04 #@! TD*
G04 #@! TA.AperFunction,Conductor*
%ADD20C,0.400000*%
G04 #@! TD*
G04 APERTURE END LIST*
D10*
X153366000Y-84858200D03*
D11*
X155241000Y-84858200D03*
X154691825Y-86184025D03*
X153366000Y-86733200D03*
X152040175Y-86184025D03*
X151491000Y-84858200D03*
X152040175Y-83532375D03*
X153366000Y-82983200D03*
X154691825Y-83532375D03*
D10*
X153366000Y-120853200D03*
D11*
X155241000Y-120853200D03*
X154691825Y-122179025D03*
X153366000Y-122728200D03*
X152040175Y-122179025D03*
X151491000Y-120853200D03*
X152040175Y-119527375D03*
X153366000Y-118978200D03*
X154691825Y-119527375D03*
X118689825Y-119517375D03*
X117364000Y-118968200D03*
X116038175Y-119517375D03*
X115489000Y-120843200D03*
X116038175Y-122169025D03*
X117364000Y-122718200D03*
X118689825Y-122169025D03*
X119239000Y-120843200D03*
D10*
X117364000Y-120843200D03*
D11*
X118689825Y-83532375D03*
X117364000Y-82983200D03*
X116038175Y-83532375D03*
X115489000Y-84858200D03*
X116038175Y-86184025D03*
X117364000Y-86733200D03*
X118689825Y-86184025D03*
X119239000Y-84858200D03*
D10*
X117364000Y-84858200D03*
D12*
X123317000Y-87601200D03*
X123317000Y-84001200D03*
X124587000Y-87601200D03*
X124587000Y-84001200D03*
X125857000Y-87601200D03*
X125857000Y-84001200D03*
X127127000Y-87601200D03*
X127127000Y-84001200D03*
X128397000Y-87601200D03*
X128397000Y-84001200D03*
X129667000Y-87601200D03*
X129667000Y-84001200D03*
X130937000Y-87601200D03*
X130937000Y-84001200D03*
X132207000Y-87601200D03*
X132207000Y-84001200D03*
X133477000Y-87601200D03*
X133477000Y-84001200D03*
X134747000Y-87601200D03*
X134747000Y-84001200D03*
X136017000Y-87601200D03*
X136017000Y-84001200D03*
X137287000Y-87601200D03*
X137287000Y-84001200D03*
X138557000Y-87601200D03*
X138557000Y-84001200D03*
X139827000Y-87601200D03*
X139827000Y-84001200D03*
X141097000Y-87601200D03*
X141097000Y-84001200D03*
X142367000Y-87601200D03*
X142367000Y-84001200D03*
X143637000Y-87601200D03*
X143637000Y-84001200D03*
X144907000Y-87601200D03*
X144907000Y-84001200D03*
X146177000Y-87601200D03*
X146177000Y-84001200D03*
X147447000Y-87601200D03*
X147447000Y-84001200D03*
D13*
X126593600Y-116789200D03*
D14*
X124053600Y-116789200D03*
X126593600Y-114249200D03*
X124053600Y-114249200D03*
X126593600Y-111709200D03*
X124053600Y-111709200D03*
X126593600Y-109169200D03*
X124053600Y-109169200D03*
X126593600Y-106629200D03*
X124053600Y-106629200D03*
X126593600Y-104089200D03*
X124053600Y-104089200D03*
X126593600Y-101549200D03*
X124053600Y-101549200D03*
X126593600Y-99009200D03*
X124053600Y-99009200D03*
X126593600Y-96469200D03*
X124053600Y-96469200D03*
X126593600Y-93929200D03*
X124053600Y-93929200D03*
X144119600Y-93929200D03*
X146659600Y-93929200D03*
X144119600Y-96469200D03*
X146659600Y-96469200D03*
X144119600Y-99009200D03*
X146659600Y-99009200D03*
X144119600Y-101549200D03*
X146659600Y-101549200D03*
X144119600Y-104089200D03*
X146659600Y-104089200D03*
X144119600Y-106629200D03*
X146659600Y-106629200D03*
X144119600Y-109169200D03*
X146659600Y-109169200D03*
X144119600Y-111709200D03*
X146659600Y-111709200D03*
X144119600Y-114249200D03*
X146659600Y-114249200D03*
X144119600Y-116789200D03*
D13*
X146659600Y-116789200D03*
D15*
X125831600Y-85801200D03*
X122783600Y-95199200D03*
X122783600Y-97739200D03*
X122783600Y-100279200D03*
X148437600Y-87579200D03*
X127101600Y-85801200D03*
X142367000Y-82499200D03*
X128371600Y-85801200D03*
X129641600Y-85801200D03*
X130911600Y-85801200D03*
X132181600Y-85801200D03*
X133451600Y-85801200D03*
X134721600Y-85801200D03*
X135991600Y-85801200D03*
X137261600Y-85801200D03*
X138531600Y-85801200D03*
X139801600Y-85801200D03*
X141071600Y-85801200D03*
X143637000Y-85775800D03*
X144881600Y-85801200D03*
X146151600Y-85801200D03*
X147447000Y-85775800D03*
X123291600Y-85801200D03*
X142367000Y-85852000D03*
X122072400Y-83997800D03*
X123317000Y-82448400D03*
X124561600Y-85801200D03*
D16*
X134027000Y-106426000D03*
D17*
X125857000Y-88901200D02*
X128345000Y-91389200D01*
X125857000Y-87601200D02*
X125857000Y-88901200D01*
X128345000Y-91389200D02*
X128371600Y-91389200D01*
X128371600Y-91389200D02*
X128879600Y-91897200D01*
X128879600Y-91897200D02*
X128879600Y-107137200D01*
X124903599Y-108319201D02*
X124053600Y-109169200D01*
X125228601Y-107994199D02*
X124903599Y-108319201D01*
X128022601Y-107994199D02*
X125228601Y-107994199D01*
X128879600Y-107137200D02*
X128022601Y-107994199D01*
X125857000Y-84001200D02*
X125857000Y-85775800D01*
X125857000Y-85775800D02*
X125831600Y-85801200D01*
D18*
X136017000Y-87751200D02*
X136017000Y-87751192D01*
X147447000Y-87601200D02*
X148415600Y-87601200D01*
X148415600Y-87601200D02*
X148437600Y-87579200D01*
D17*
X127127000Y-84001200D02*
X127127000Y-85775800D01*
X127127000Y-85775800D02*
X127101600Y-85801200D01*
X123066442Y-95199200D02*
X122783600Y-95199200D01*
X124522602Y-95199200D02*
X123066442Y-95199200D01*
X124942603Y-95619201D02*
X124522602Y-95199200D01*
X125743601Y-95619201D02*
X124942603Y-95619201D01*
X126593600Y-96469200D02*
X125743601Y-95619201D01*
X125323600Y-97739200D02*
X126593600Y-96469200D01*
X122783600Y-97739200D02*
X125323600Y-97739200D01*
D18*
X142367000Y-84001200D02*
X142367000Y-82499200D01*
D17*
X136017000Y-88901200D02*
X136017000Y-87601200D01*
X136017000Y-109922641D02*
X136017000Y-88901200D01*
X144119600Y-116789200D02*
X142883559Y-116789200D01*
X142883559Y-116789200D02*
X136017000Y-109922641D01*
X128397000Y-89128600D02*
X128397000Y-87601200D01*
X125323600Y-110439200D02*
X128371600Y-110439200D01*
X124053600Y-111709200D02*
X125323600Y-110439200D01*
X128371600Y-110439200D02*
X129953590Y-108857210D01*
X129953590Y-90685190D02*
X128397000Y-89128600D01*
X129953590Y-108857210D02*
X129953590Y-90685190D01*
X128397000Y-84001200D02*
X128397000Y-85775800D01*
X128397000Y-85775800D02*
X128371600Y-85801200D01*
X129667000Y-89636600D02*
X129667000Y-87601200D01*
X130403600Y-90373200D02*
X129667000Y-89636600D01*
X130403600Y-109169200D02*
X130403600Y-90373200D01*
X126593600Y-111709200D02*
X127863600Y-111709200D01*
X127863600Y-111709200D02*
X130403600Y-109169200D01*
X129641600Y-84026600D02*
X129667000Y-84001200D01*
X129641600Y-85801200D02*
X129641600Y-84026600D01*
X125323600Y-112979200D02*
X124053600Y-114249200D01*
X127863600Y-112979200D02*
X125323600Y-112979200D01*
X130937000Y-87601200D02*
X130937000Y-109905800D01*
X130937000Y-109905800D02*
X127863600Y-112979200D01*
X130937000Y-84001200D02*
X130937000Y-85775800D01*
X130937000Y-85775800D02*
X130911600Y-85801200D01*
X132207000Y-109905800D02*
X132207000Y-87601200D01*
X126593600Y-114249200D02*
X127863600Y-114249200D01*
X127863600Y-114249200D02*
X132207000Y-109905800D01*
X132181600Y-84026600D02*
X132207000Y-84001200D01*
X132181600Y-85801200D02*
X132181600Y-84026600D01*
X127863600Y-115519200D02*
X133477000Y-109905800D01*
X124053600Y-116789200D02*
X125323600Y-115519200D01*
X133477000Y-109905800D02*
X133477000Y-87601200D01*
X125323600Y-115519200D02*
X127863600Y-115519200D01*
X133451600Y-84026600D02*
X133477000Y-84001200D01*
X133451600Y-85801200D02*
X133451600Y-84026600D01*
D18*
X134747000Y-87601200D02*
X134747000Y-87751200D01*
D17*
X134747000Y-87601200D02*
X134747000Y-109905800D01*
X127863600Y-116789200D02*
X126593600Y-116789200D01*
X134747000Y-109905800D02*
X127863600Y-116789200D01*
X134747000Y-84001200D02*
X134747000Y-85775800D01*
X134747000Y-85775800D02*
X134721600Y-85801200D01*
X136017000Y-84001200D02*
X136017000Y-85775800D01*
X136017000Y-85775800D02*
X135991600Y-85801200D01*
X142849600Y-114249200D02*
X144119600Y-114249200D01*
X138557000Y-87601200D02*
X138557000Y-109956600D01*
X138557000Y-109956600D02*
X142849600Y-114249200D01*
X137287000Y-84001200D02*
X137287000Y-85775800D01*
X137287000Y-85775800D02*
X137261600Y-85801200D01*
X145809601Y-113399201D02*
X146659600Y-114249200D01*
X145389600Y-112979200D02*
X145809601Y-113399201D01*
X142849600Y-112979200D02*
X145389600Y-112979200D01*
X139827000Y-87601200D02*
X139827000Y-109956600D01*
X139827000Y-109956600D02*
X142849600Y-112979200D01*
X138557000Y-84001200D02*
X138557000Y-85775800D01*
X138557000Y-85775800D02*
X138531600Y-85801200D01*
X142595600Y-92913200D02*
X146177000Y-89331800D01*
X144119600Y-106629200D02*
X142595600Y-105105200D01*
X146177000Y-89331800D02*
X146177000Y-87601200D01*
X142595600Y-105105200D02*
X142595600Y-92913200D01*
X139827000Y-84001200D02*
X139827000Y-85775800D01*
X139827000Y-85775800D02*
X139801600Y-85801200D01*
X141097000Y-84001200D02*
X141097000Y-85775800D01*
X141097000Y-85775800D02*
X141071600Y-85801200D01*
D19*
X143637000Y-87601200D02*
X143637000Y-87751200D01*
D17*
X141325600Y-107391200D02*
X143103600Y-109169200D01*
X141325600Y-91897200D02*
X141325600Y-107391200D01*
X143637000Y-87601200D02*
X143637000Y-89585800D01*
X143103600Y-109169200D02*
X144119600Y-109169200D01*
X143637000Y-89585800D02*
X141325600Y-91897200D01*
X143637000Y-84001200D02*
X143637000Y-85775800D01*
X141833600Y-106866200D02*
X141850600Y-106883200D01*
X141833600Y-92659200D02*
X141833600Y-106866200D01*
X144907000Y-87601200D02*
X144907000Y-89585800D01*
X144907000Y-89585800D02*
X141833600Y-92659200D01*
X142866600Y-107899200D02*
X141850600Y-106883200D01*
X146659600Y-109169200D02*
X145389600Y-107899200D01*
X145389600Y-107899200D02*
X142866600Y-107899200D01*
X144907000Y-84001200D02*
X144907000Y-85775800D01*
X144907000Y-85775800D02*
X144881600Y-85801200D01*
X146177000Y-84001200D02*
X146177000Y-85775800D01*
X146177000Y-85775800D02*
X146151600Y-85801200D01*
X147447000Y-84001200D02*
X147447000Y-85775800D01*
D20*
X121767600Y-105613200D02*
X122783600Y-106629200D01*
X122783600Y-106629200D02*
X124053600Y-106629200D01*
X121767600Y-90450600D02*
X121767600Y-105613200D01*
X123317000Y-87601200D02*
X123317000Y-88901200D01*
X123317000Y-88901200D02*
X121767600Y-90450600D01*
X124587000Y-88901200D02*
X124587000Y-87601200D01*
X127609600Y-106629200D02*
X128117600Y-106121200D01*
X126593600Y-106629200D02*
X127609600Y-106629200D01*
X128117600Y-92913200D02*
X124587000Y-89382600D01*
X128117600Y-106121200D02*
X128117600Y-92913200D01*
X124587000Y-89382600D02*
X124587000Y-88901200D01*
D19*
X123317000Y-87601200D02*
X124587000Y-87601200D01*
D20*
X123317000Y-84001200D02*
X123317000Y-85775800D01*
D17*
X123317000Y-85775800D02*
X123291600Y-85801200D01*
X140309600Y-108915200D02*
X143103600Y-111709200D01*
X141097000Y-87601200D02*
X141097000Y-88901200D01*
X143103600Y-111709200D02*
X144119600Y-111709200D01*
X141097000Y-88901200D02*
X140309600Y-89688600D01*
X140309600Y-89688600D02*
X140309600Y-108915200D01*
X145809601Y-110859201D02*
X146659600Y-111709200D01*
X145389600Y-110439200D02*
X145809601Y-110859201D01*
X142367000Y-89585800D02*
X140817600Y-91135200D01*
X142367000Y-87601200D02*
X142367000Y-89585800D01*
X140817600Y-91135200D02*
X140817600Y-108407200D01*
X142849600Y-110439200D02*
X145389600Y-110439200D01*
X140817600Y-108407200D02*
X142849600Y-110439200D01*
D19*
X141097000Y-87601200D02*
X142367000Y-87601200D01*
X142367000Y-87601200D02*
X142367000Y-85852000D01*
X123317000Y-84001200D02*
X122075800Y-84001200D01*
X122075800Y-84001200D02*
X122072400Y-83997800D01*
X123317000Y-84001200D02*
X123317000Y-82448400D01*
D17*
X124587000Y-85775800D02*
X124561600Y-85801200D01*
D20*
X124587000Y-84001200D02*
X124587000Y-85775800D01*
D19*
X123317000Y-84001200D02*
X124587000Y-84001200D01*
D17*
X129387600Y-91135200D02*
X127127000Y-88874600D01*
X129387600Y-108153200D02*
X129387600Y-91135200D01*
X126593600Y-109169200D02*
X128371600Y-109169200D01*
X127127000Y-88874600D02*
X127127000Y-87601200D01*
X128371600Y-109169200D02*
X129387600Y-108153200D01*
X146659600Y-116789200D02*
X145389600Y-115519200D01*
X137287000Y-109956600D02*
X137287000Y-87601200D01*
X142849600Y-115519200D02*
X137287000Y-109956600D01*
X145389600Y-115519200D02*
X142849600Y-115519200D01*
D18*
G36*
X152039703Y-82376872D02*
G01*
X151581104Y-82683298D01*
X151191098Y-83073304D01*
X150884672Y-83531903D01*
X150673602Y-84041470D01*
X150566000Y-84582424D01*
X150566000Y-85133976D01*
X150673602Y-85674930D01*
X150884672Y-86184497D01*
X151191098Y-86643096D01*
X151581104Y-87033102D01*
X152039703Y-87339528D01*
X152549270Y-87550598D01*
X153090224Y-87658200D01*
X153641776Y-87658200D01*
X154182730Y-87550598D01*
X154692297Y-87339528D01*
X155150896Y-87033102D01*
X155540902Y-86643096D01*
X155847328Y-86184497D01*
X155973000Y-85881099D01*
X155973001Y-119830304D01*
X155847328Y-119526903D01*
X155540902Y-119068304D01*
X155150896Y-118678298D01*
X154692297Y-118371872D01*
X154182730Y-118160802D01*
X153641776Y-118053200D01*
X153090224Y-118053200D01*
X152549270Y-118160802D01*
X152039703Y-118371872D01*
X151581104Y-118678298D01*
X151191098Y-119068304D01*
X150884672Y-119526903D01*
X150673602Y-120036470D01*
X150566000Y-120577424D01*
X150566000Y-121128976D01*
X150673602Y-121669930D01*
X150884672Y-122179497D01*
X151191098Y-122638096D01*
X151581104Y-123028102D01*
X152039703Y-123334528D01*
X152345033Y-123461000D01*
X151666292Y-123461000D01*
X151628092Y-123337594D01*
X151614920Y-123306259D01*
X151602189Y-123274749D01*
X151599731Y-123270125D01*
X151506907Y-123098449D01*
X151487900Y-123070270D01*
X151469289Y-123041830D01*
X151465980Y-123037772D01*
X151341576Y-122887394D01*
X151317430Y-122863416D01*
X151293679Y-122839163D01*
X151289645Y-122835825D01*
X151138403Y-122712475D01*
X151110090Y-122693664D01*
X151082050Y-122674464D01*
X151077444Y-122671974D01*
X150905121Y-122580348D01*
X150873686Y-122567392D01*
X150842459Y-122554008D01*
X150837457Y-122552459D01*
X150650621Y-122496050D01*
X150617273Y-122489447D01*
X150584035Y-122482382D01*
X150578827Y-122481835D01*
X150384594Y-122462790D01*
X150366419Y-122461000D01*
X148939600Y-122461000D01*
X148939600Y-118746019D01*
X148941414Y-118727600D01*
X148934174Y-118654087D01*
X148912731Y-118583400D01*
X148877909Y-118518253D01*
X148831048Y-118461152D01*
X148773947Y-118414291D01*
X148708800Y-118379469D01*
X148638113Y-118358026D01*
X148583019Y-118352600D01*
X148564600Y-118350786D01*
X148546181Y-118352600D01*
X122294019Y-118352600D01*
X122275600Y-118350786D01*
X122257181Y-118352600D01*
X122202087Y-118358026D01*
X122131400Y-118379469D01*
X122066253Y-118414291D01*
X122009152Y-118461152D01*
X121962291Y-118518253D01*
X121927469Y-118583400D01*
X121906026Y-118654087D01*
X121898786Y-118727600D01*
X121900600Y-118746019D01*
X121900601Y-122459711D01*
X120327525Y-122461018D01*
X120311599Y-122462600D01*
X120307031Y-122462568D01*
X120301820Y-122463078D01*
X120107723Y-122483479D01*
X120074359Y-122490328D01*
X120041045Y-122496683D01*
X120036036Y-122498195D01*
X120036030Y-122498196D01*
X120036024Y-122498198D01*
X119849594Y-122555908D01*
X119818259Y-122569080D01*
X119786749Y-122581811D01*
X119782125Y-122584269D01*
X119610449Y-122677093D01*
X119582270Y-122696100D01*
X119553830Y-122714711D01*
X119549772Y-122718020D01*
X119399394Y-122842424D01*
X119375416Y-122866570D01*
X119351163Y-122890321D01*
X119347825Y-122894355D01*
X119224475Y-123045597D01*
X119205664Y-123073910D01*
X119186464Y-123101950D01*
X119183974Y-123106556D01*
X119092348Y-123278879D01*
X119079392Y-123310314D01*
X119066008Y-123341541D01*
X119064459Y-123346543D01*
X119029902Y-123461000D01*
X118360825Y-123461000D01*
X118690297Y-123324528D01*
X119148896Y-123018102D01*
X119538902Y-122628096D01*
X119845328Y-122169497D01*
X120056398Y-121659930D01*
X120164000Y-121118976D01*
X120164000Y-120567424D01*
X120056398Y-120026470D01*
X119845328Y-119516903D01*
X119538902Y-119058304D01*
X119148896Y-118668298D01*
X118690297Y-118361872D01*
X118180730Y-118150802D01*
X117639776Y-118043200D01*
X117088224Y-118043200D01*
X116547270Y-118150802D01*
X116037703Y-118361872D01*
X115579104Y-118668298D01*
X115189098Y-119058304D01*
X114882672Y-119516903D01*
X114723000Y-119902385D01*
X114723000Y-85799015D01*
X114882672Y-86184497D01*
X115189098Y-86643096D01*
X115579104Y-87033102D01*
X116037703Y-87339528D01*
X116547270Y-87550598D01*
X117088224Y-87658200D01*
X117639776Y-87658200D01*
X118180730Y-87550598D01*
X118690297Y-87339528D01*
X119148896Y-87033102D01*
X119538902Y-86643096D01*
X119845328Y-86184497D01*
X120056398Y-85674930D01*
X120164000Y-85133976D01*
X120164000Y-84582424D01*
X120056398Y-84041470D01*
X119845328Y-83531903D01*
X119538902Y-83073304D01*
X119148896Y-82683298D01*
X118690297Y-82376872D01*
X118289859Y-82211005D01*
X122820254Y-82211004D01*
X122806409Y-82236906D01*
X122774959Y-82340581D01*
X122767001Y-82421382D01*
X122767001Y-82706726D01*
X122728842Y-82738042D01*
X122691353Y-82783723D01*
X122663496Y-82835840D01*
X122646341Y-82892390D01*
X122640549Y-82951200D01*
X122640549Y-83451200D01*
X122133929Y-83451200D01*
X122072400Y-83445140D01*
X121964582Y-83455759D01*
X121860906Y-83487209D01*
X121765358Y-83538279D01*
X121681610Y-83607010D01*
X121612879Y-83690758D01*
X121561809Y-83786306D01*
X121530359Y-83889982D01*
X121519740Y-83997800D01*
X121530359Y-84105618D01*
X121561809Y-84209294D01*
X121612879Y-84304842D01*
X121664387Y-84367604D01*
X121667787Y-84371004D01*
X121685010Y-84391990D01*
X121768758Y-84460721D01*
X121864306Y-84511792D01*
X121967981Y-84543242D01*
X122048782Y-84551200D01*
X122048791Y-84551200D01*
X122075799Y-84553860D01*
X122102807Y-84551200D01*
X122640549Y-84551200D01*
X122640549Y-85051200D01*
X122646341Y-85110010D01*
X122663496Y-85166560D01*
X122691353Y-85218677D01*
X122728842Y-85264358D01*
X122774523Y-85301847D01*
X122817001Y-85324552D01*
X122817001Y-85640421D01*
X122810815Y-85655355D01*
X122791600Y-85751954D01*
X122791600Y-85850446D01*
X122810815Y-85947045D01*
X122848506Y-86038039D01*
X122903225Y-86119931D01*
X122972869Y-86189575D01*
X123054761Y-86244294D01*
X123067931Y-86249749D01*
X122942000Y-86249749D01*
X122883190Y-86255541D01*
X122826640Y-86272696D01*
X122774523Y-86300553D01*
X122728842Y-86338042D01*
X122691353Y-86383723D01*
X122663496Y-86435840D01*
X122646341Y-86492390D01*
X122640549Y-86551200D01*
X122640549Y-88651200D01*
X122646341Y-88710010D01*
X122663496Y-88766560D01*
X122691353Y-88818677D01*
X122691832Y-88819261D01*
X121431424Y-90079671D01*
X121412336Y-90095336D01*
X121349854Y-90171471D01*
X121303425Y-90258334D01*
X121293854Y-90289886D01*
X121274835Y-90352583D01*
X121265181Y-90450600D01*
X121267600Y-90475160D01*
X121267601Y-105588630D01*
X121265181Y-105613200D01*
X121274835Y-105711217D01*
X121303426Y-105805467D01*
X121349855Y-105892329D01*
X121412337Y-105968464D01*
X121431419Y-105984124D01*
X122412675Y-106965381D01*
X122428336Y-106984464D01*
X122504471Y-107046946D01*
X122591333Y-107093375D01*
X122656992Y-107113292D01*
X122685582Y-107121965D01*
X122783600Y-107131619D01*
X122808160Y-107129200D01*
X123015956Y-107129200D01*
X123034484Y-107173929D01*
X123160337Y-107362282D01*
X123320518Y-107522463D01*
X123508871Y-107648316D01*
X123718157Y-107735006D01*
X123940335Y-107779200D01*
X124166865Y-107779200D01*
X124389043Y-107735006D01*
X124598329Y-107648316D01*
X124786682Y-107522463D01*
X124946863Y-107362282D01*
X125072716Y-107173929D01*
X125159406Y-106964643D01*
X125203600Y-106742465D01*
X125203600Y-106515935D01*
X125159406Y-106293757D01*
X125072716Y-106084471D01*
X124946863Y-105896118D01*
X124786682Y-105735937D01*
X124598329Y-105610084D01*
X124389043Y-105523394D01*
X124166865Y-105479200D01*
X123940335Y-105479200D01*
X123718157Y-105523394D01*
X123508871Y-105610084D01*
X123320518Y-105735937D01*
X123160337Y-105896118D01*
X123034484Y-106084471D01*
X123015956Y-106129200D01*
X122990706Y-106129200D01*
X122267600Y-105406095D01*
X122267600Y-103975935D01*
X122903600Y-103975935D01*
X122903600Y-104202465D01*
X122947794Y-104424643D01*
X123034484Y-104633929D01*
X123160337Y-104822282D01*
X123320518Y-104982463D01*
X123508871Y-105108316D01*
X123718157Y-105195006D01*
X123940335Y-105239200D01*
X124166865Y-105239200D01*
X124389043Y-105195006D01*
X124598329Y-105108316D01*
X124786682Y-104982463D01*
X124946863Y-104822282D01*
X125072716Y-104633929D01*
X125159406Y-104424643D01*
X125203600Y-104202465D01*
X125203600Y-103975935D01*
X125159406Y-103753757D01*
X125072716Y-103544471D01*
X124946863Y-103356118D01*
X124786682Y-103195937D01*
X124598329Y-103070084D01*
X124389043Y-102983394D01*
X124166865Y-102939200D01*
X123940335Y-102939200D01*
X123718157Y-102983394D01*
X123508871Y-103070084D01*
X123320518Y-103195937D01*
X123160337Y-103356118D01*
X123034484Y-103544471D01*
X122947794Y-103753757D01*
X122903600Y-103975935D01*
X122267600Y-103975935D01*
X122267600Y-101435935D01*
X122903600Y-101435935D01*
X122903600Y-101662465D01*
X122947794Y-101884643D01*
X123034484Y-102093929D01*
X123160337Y-102282282D01*
X123320518Y-102442463D01*
X123508871Y-102568316D01*
X123718157Y-102655006D01*
X123940335Y-102699200D01*
X124166865Y-102699200D01*
X124389043Y-102655006D01*
X124598329Y-102568316D01*
X124786682Y-102442463D01*
X124946863Y-102282282D01*
X125072716Y-102093929D01*
X125159406Y-101884643D01*
X125203600Y-101662465D01*
X125203600Y-101435935D01*
X125159406Y-101213757D01*
X125072716Y-101004471D01*
X124946863Y-100816118D01*
X124786682Y-100655937D01*
X124598329Y-100530084D01*
X124389043Y-100443394D01*
X124166865Y-100399200D01*
X123940335Y-100399200D01*
X123718157Y-100443394D01*
X123508871Y-100530084D01*
X123320518Y-100655937D01*
X123160337Y-100816118D01*
X123034484Y-101004471D01*
X122947794Y-101213757D01*
X122903600Y-101435935D01*
X122267600Y-101435935D01*
X122267600Y-98895935D01*
X122903600Y-98895935D01*
X122903600Y-99122465D01*
X122947794Y-99344643D01*
X123034484Y-99553929D01*
X123160337Y-99742282D01*
X123320518Y-99902463D01*
X123508871Y-100028316D01*
X123718157Y-100115006D01*
X123940335Y-100159200D01*
X124166865Y-100159200D01*
X124389043Y-100115006D01*
X124598329Y-100028316D01*
X124786682Y-99902463D01*
X124946863Y-99742282D01*
X125072716Y-99553929D01*
X125159406Y-99344643D01*
X125203600Y-99122465D01*
X125203600Y-98895935D01*
X125159406Y-98673757D01*
X125072716Y-98464471D01*
X124946863Y-98276118D01*
X124786682Y-98115937D01*
X124598329Y-97990084D01*
X124389043Y-97903394D01*
X124166865Y-97859200D01*
X123940335Y-97859200D01*
X123718157Y-97903394D01*
X123508871Y-97990084D01*
X123320518Y-98115937D01*
X123160337Y-98276118D01*
X123034484Y-98464471D01*
X122947794Y-98673757D01*
X122903600Y-98895935D01*
X122267600Y-98895935D01*
X122267600Y-93815935D01*
X122903600Y-93815935D01*
X122903600Y-94042465D01*
X122947794Y-94264643D01*
X123034484Y-94473929D01*
X123160337Y-94662282D01*
X123320518Y-94822463D01*
X123508871Y-94948316D01*
X123718157Y-95035006D01*
X123940335Y-95079200D01*
X124166865Y-95079200D01*
X124389043Y-95035006D01*
X124598329Y-94948316D01*
X124786682Y-94822463D01*
X124946863Y-94662282D01*
X125072716Y-94473929D01*
X125159406Y-94264643D01*
X125203600Y-94042465D01*
X125203600Y-93815935D01*
X125159406Y-93593757D01*
X125072716Y-93384471D01*
X124946863Y-93196118D01*
X124786682Y-93035937D01*
X124598329Y-92910084D01*
X124389043Y-92823394D01*
X124166865Y-92779200D01*
X123940335Y-92779200D01*
X123718157Y-92823394D01*
X123508871Y-92910084D01*
X123320518Y-93035937D01*
X123160337Y-93196118D01*
X123034484Y-93384471D01*
X122947794Y-93593757D01*
X122903600Y-93815935D01*
X122267600Y-93815935D01*
X122267600Y-90657705D01*
X123653187Y-89272120D01*
X123672264Y-89256464D01*
X123734746Y-89180329D01*
X123781175Y-89093467D01*
X123809765Y-88999217D01*
X123817000Y-88925760D01*
X123817000Y-88925751D01*
X123817125Y-88924485D01*
X123859477Y-88901847D01*
X123905158Y-88864358D01*
X123942647Y-88818677D01*
X123952000Y-88801179D01*
X123961353Y-88818677D01*
X123998842Y-88864358D01*
X124044523Y-88901847D01*
X124087000Y-88924551D01*
X124087000Y-88925759D01*
X124087001Y-88925768D01*
X124087000Y-89358039D01*
X124084581Y-89382600D01*
X124094235Y-89480617D01*
X124098667Y-89495226D01*
X124122825Y-89574866D01*
X124169254Y-89661729D01*
X124231736Y-89737864D01*
X124250824Y-89753529D01*
X127617601Y-93120308D01*
X127617601Y-93396264D01*
X127612716Y-93384471D01*
X127486863Y-93196118D01*
X127326682Y-93035937D01*
X127138329Y-92910084D01*
X126929043Y-92823394D01*
X126706865Y-92779200D01*
X126480335Y-92779200D01*
X126258157Y-92823394D01*
X126048871Y-92910084D01*
X125860518Y-93035937D01*
X125700337Y-93196118D01*
X125574484Y-93384471D01*
X125487794Y-93593757D01*
X125443600Y-93815935D01*
X125443600Y-94042465D01*
X125487794Y-94264643D01*
X125574484Y-94473929D01*
X125700337Y-94662282D01*
X125860518Y-94822463D01*
X126048871Y-94948316D01*
X126258157Y-95035006D01*
X126439598Y-95071097D01*
X126439598Y-95171349D01*
X126214689Y-95061291D01*
X125947300Y-95162265D01*
X125704748Y-95313464D01*
X125496354Y-95509078D01*
X125330127Y-95741589D01*
X125212454Y-96002061D01*
X125185697Y-96090290D01*
X125296710Y-96315198D01*
X125195497Y-96315198D01*
X125159406Y-96133757D01*
X125072716Y-95924471D01*
X124946863Y-95736118D01*
X124786682Y-95575937D01*
X124598329Y-95450084D01*
X124389043Y-95363394D01*
X124166865Y-95319200D01*
X123940335Y-95319200D01*
X123718157Y-95363394D01*
X123508871Y-95450084D01*
X123320518Y-95575937D01*
X123160337Y-95736118D01*
X123034484Y-95924471D01*
X122947794Y-96133757D01*
X122903600Y-96355935D01*
X122903600Y-96582465D01*
X122947794Y-96804643D01*
X123034484Y-97013929D01*
X123160337Y-97202282D01*
X123320518Y-97362463D01*
X123508871Y-97488316D01*
X123718157Y-97575006D01*
X123940335Y-97619200D01*
X124166865Y-97619200D01*
X124389043Y-97575006D01*
X124598329Y-97488316D01*
X124786682Y-97362463D01*
X124946863Y-97202282D01*
X125072716Y-97013929D01*
X125159406Y-96804643D01*
X125195497Y-96623202D01*
X125296710Y-96623202D01*
X125185697Y-96848110D01*
X125212454Y-96936339D01*
X125330127Y-97196811D01*
X125496354Y-97429322D01*
X125704748Y-97624936D01*
X125947300Y-97776135D01*
X126214689Y-97877109D01*
X126439598Y-97767051D01*
X126439598Y-97867303D01*
X126258157Y-97903394D01*
X126048871Y-97990084D01*
X125860518Y-98115937D01*
X125700337Y-98276118D01*
X125574484Y-98464471D01*
X125487794Y-98673757D01*
X125443600Y-98895935D01*
X125443600Y-99122465D01*
X125487794Y-99344643D01*
X125574484Y-99553929D01*
X125700337Y-99742282D01*
X125860518Y-99902463D01*
X126048871Y-100028316D01*
X126258157Y-100115006D01*
X126480335Y-100159200D01*
X126706865Y-100159200D01*
X126929043Y-100115006D01*
X127138329Y-100028316D01*
X127326682Y-99902463D01*
X127486863Y-99742282D01*
X127612716Y-99553929D01*
X127617600Y-99542137D01*
X127617600Y-101016263D01*
X127612716Y-101004471D01*
X127486863Y-100816118D01*
X127326682Y-100655937D01*
X127138329Y-100530084D01*
X126929043Y-100443394D01*
X126706865Y-100399200D01*
X126480335Y-100399200D01*
X126258157Y-100443394D01*
X126048871Y-100530084D01*
X125860518Y-100655937D01*
X125700337Y-100816118D01*
X125574484Y-101004471D01*
X125487794Y-101213757D01*
X125443600Y-101435935D01*
X125443600Y-101662465D01*
X125487794Y-101884643D01*
X125574484Y-102093929D01*
X125700337Y-102282282D01*
X125860518Y-102442463D01*
X126048871Y-102568316D01*
X126258157Y-102655006D01*
X126480335Y-102699200D01*
X126706865Y-102699200D01*
X126929043Y-102655006D01*
X127138329Y-102568316D01*
X127326682Y-102442463D01*
X127486863Y-102282282D01*
X127612716Y-102093929D01*
X127617600Y-102082137D01*
X127617600Y-103556262D01*
X127612716Y-103544471D01*
X127486863Y-103356118D01*
X127326682Y-103195937D01*
X127138329Y-103070084D01*
X126929043Y-102983394D01*
X126706865Y-102939200D01*
X126480335Y-102939200D01*
X126258157Y-102983394D01*
X126048871Y-103070084D01*
X125860518Y-103195937D01*
X125700337Y-103356118D01*
X125574484Y-103544471D01*
X125487794Y-103753757D01*
X125443600Y-103975935D01*
X125443600Y-104202465D01*
X125487794Y-104424643D01*
X125574484Y-104633929D01*
X125700337Y-104822282D01*
X125860518Y-104982463D01*
X126048871Y-105108316D01*
X126258157Y-105195006D01*
X126480335Y-105239200D01*
X126706865Y-105239200D01*
X126929043Y-105195006D01*
X127138329Y-105108316D01*
X127326682Y-104982463D01*
X127486863Y-104822282D01*
X127612716Y-104633929D01*
X127617600Y-104622138D01*
X127617600Y-105914094D01*
X127546429Y-105985265D01*
X127486863Y-105896118D01*
X127326682Y-105735937D01*
X127138329Y-105610084D01*
X126929043Y-105523394D01*
X126706865Y-105479200D01*
X126480335Y-105479200D01*
X126258157Y-105523394D01*
X126048871Y-105610084D01*
X125860518Y-105735937D01*
X125700337Y-105896118D01*
X125574484Y-106084471D01*
X125487794Y-106293757D01*
X125443600Y-106515935D01*
X125443600Y-106742465D01*
X125487794Y-106964643D01*
X125574484Y-107173929D01*
X125700337Y-107362282D01*
X125860518Y-107522463D01*
X125930464Y-107569199D01*
X125249467Y-107569199D01*
X125228600Y-107567144D01*
X125207733Y-107569199D01*
X125207727Y-107569199D01*
X125153699Y-107574520D01*
X125145286Y-107575349D01*
X125120984Y-107582721D01*
X125065174Y-107599651D01*
X124991341Y-107639115D01*
X124926627Y-107692225D01*
X124913322Y-107708437D01*
X124617843Y-108003917D01*
X124617838Y-108003921D01*
X124508771Y-108112988D01*
X124389043Y-108063394D01*
X124166865Y-108019200D01*
X123940335Y-108019200D01*
X123718157Y-108063394D01*
X123508871Y-108150084D01*
X123320518Y-108275937D01*
X123160337Y-108436118D01*
X123034484Y-108624471D01*
X122947794Y-108833757D01*
X122903600Y-109055935D01*
X122903600Y-109282465D01*
X122947794Y-109504643D01*
X123034484Y-109713929D01*
X123160337Y-109902282D01*
X123320518Y-110062463D01*
X123508871Y-110188316D01*
X123718157Y-110275006D01*
X123940335Y-110319200D01*
X124166865Y-110319200D01*
X124389043Y-110275006D01*
X124598329Y-110188316D01*
X124786682Y-110062463D01*
X124946863Y-109902282D01*
X125072716Y-109713929D01*
X125159406Y-109504643D01*
X125203600Y-109282465D01*
X125203600Y-109055935D01*
X125159406Y-108833757D01*
X125109812Y-108714029D01*
X125218879Y-108604962D01*
X125218883Y-108604957D01*
X125404642Y-108419199D01*
X125717256Y-108419199D01*
X125700337Y-108436118D01*
X125574484Y-108624471D01*
X125487794Y-108833757D01*
X125443600Y-109055935D01*
X125443600Y-109282465D01*
X125487794Y-109504643D01*
X125574484Y-109713929D01*
X125700337Y-109902282D01*
X125812255Y-110014200D01*
X125344466Y-110014200D01*
X125323599Y-110012145D01*
X125302732Y-110014200D01*
X125302726Y-110014200D01*
X125248698Y-110019521D01*
X125240285Y-110020350D01*
X125215983Y-110027722D01*
X125160173Y-110044652D01*
X125086340Y-110084116D01*
X125021626Y-110137226D01*
X125008321Y-110153438D01*
X124508772Y-110652988D01*
X124389043Y-110603394D01*
X124166865Y-110559200D01*
X123940335Y-110559200D01*
X123718157Y-110603394D01*
X123508871Y-110690084D01*
X123320518Y-110815937D01*
X123160337Y-110976118D01*
X123034484Y-111164471D01*
X122947794Y-111373757D01*
X122903600Y-111595935D01*
X122903600Y-111822465D01*
X122947794Y-112044643D01*
X123034484Y-112253929D01*
X123160337Y-112442282D01*
X123320518Y-112602463D01*
X123508871Y-112728316D01*
X123718157Y-112815006D01*
X123940335Y-112859200D01*
X124166865Y-112859200D01*
X124389043Y-112815006D01*
X124598329Y-112728316D01*
X124786682Y-112602463D01*
X124946863Y-112442282D01*
X125072716Y-112253929D01*
X125159406Y-112044643D01*
X125203600Y-111822465D01*
X125203600Y-111595935D01*
X125159406Y-111373757D01*
X125109812Y-111254028D01*
X125499641Y-110864200D01*
X125812255Y-110864200D01*
X125700337Y-110976118D01*
X125574484Y-111164471D01*
X125487794Y-111373757D01*
X125443600Y-111595935D01*
X125443600Y-111822465D01*
X125487794Y-112044643D01*
X125574484Y-112253929D01*
X125700337Y-112442282D01*
X125812255Y-112554200D01*
X125344466Y-112554200D01*
X125323599Y-112552145D01*
X125302732Y-112554200D01*
X125302726Y-112554200D01*
X125248698Y-112559521D01*
X125240285Y-112560350D01*
X125215983Y-112567722D01*
X125160173Y-112584652D01*
X125086340Y-112624116D01*
X125021626Y-112677226D01*
X125008321Y-112693438D01*
X124508772Y-113192988D01*
X124389043Y-113143394D01*
X124166865Y-113099200D01*
X123940335Y-113099200D01*
X123718157Y-113143394D01*
X123508871Y-113230084D01*
X123320518Y-113355937D01*
X123160337Y-113516118D01*
X123034484Y-113704471D01*
X122947794Y-113913757D01*
X122903600Y-114135935D01*
X122903600Y-114362465D01*
X122947794Y-114584643D01*
X123034484Y-114793929D01*
X123160337Y-114982282D01*
X123320518Y-115142463D01*
X123508871Y-115268316D01*
X123718157Y-115355006D01*
X123940335Y-115399200D01*
X124166865Y-115399200D01*
X124389043Y-115355006D01*
X124598329Y-115268316D01*
X124786682Y-115142463D01*
X124946863Y-114982282D01*
X125072716Y-114793929D01*
X125159406Y-114584643D01*
X125203600Y-114362465D01*
X125203600Y-114135935D01*
X125159406Y-113913757D01*
X125109812Y-113794028D01*
X125499641Y-113404200D01*
X125812255Y-113404200D01*
X125700337Y-113516118D01*
X125574484Y-113704471D01*
X125487794Y-113913757D01*
X125443600Y-114135935D01*
X125443600Y-114362465D01*
X125487794Y-114584643D01*
X125574484Y-114793929D01*
X125700337Y-114982282D01*
X125812255Y-115094200D01*
X125344466Y-115094200D01*
X125323599Y-115092145D01*
X125302732Y-115094200D01*
X125302726Y-115094200D01*
X125248698Y-115099521D01*
X125240285Y-115100350D01*
X125215983Y-115107722D01*
X125160173Y-115124652D01*
X125086340Y-115164116D01*
X125021626Y-115217226D01*
X125008321Y-115233438D01*
X124508772Y-115732988D01*
X124389043Y-115683394D01*
X124166865Y-115639200D01*
X123940335Y-115639200D01*
X123718157Y-115683394D01*
X123508871Y-115770084D01*
X123320518Y-115895937D01*
X123160337Y-116056118D01*
X123034484Y-116244471D01*
X122947794Y-116453757D01*
X122903600Y-116675935D01*
X122903600Y-116902465D01*
X122947794Y-117124643D01*
X123034484Y-117333929D01*
X123160337Y-117522282D01*
X123320518Y-117682463D01*
X123508871Y-117808316D01*
X123718157Y-117895006D01*
X123940335Y-117939200D01*
X124166865Y-117939200D01*
X124389043Y-117895006D01*
X124598329Y-117808316D01*
X124786682Y-117682463D01*
X124946863Y-117522282D01*
X125072716Y-117333929D01*
X125159406Y-117124643D01*
X125203600Y-116902465D01*
X125203600Y-116675935D01*
X125159406Y-116453757D01*
X125109812Y-116334028D01*
X125442149Y-116001692D01*
X125442149Y-117639200D01*
X125447941Y-117698010D01*
X125465096Y-117754560D01*
X125492953Y-117806677D01*
X125530442Y-117852358D01*
X125576123Y-117889847D01*
X125628240Y-117917704D01*
X125684790Y-117934859D01*
X125743600Y-117940651D01*
X127443600Y-117940651D01*
X127502410Y-117934859D01*
X127558960Y-117917704D01*
X127611077Y-117889847D01*
X127656758Y-117852358D01*
X127694247Y-117806677D01*
X127722104Y-117754560D01*
X127739259Y-117698010D01*
X127745051Y-117639200D01*
X127745051Y-117214200D01*
X127842733Y-117214200D01*
X127863600Y-117216255D01*
X127884467Y-117214200D01*
X127884474Y-117214200D01*
X127946914Y-117208050D01*
X128027027Y-117183748D01*
X128056284Y-117168110D01*
X142711697Y-117168110D01*
X142738454Y-117256339D01*
X142856127Y-117516811D01*
X143022354Y-117749322D01*
X143230748Y-117944936D01*
X143473300Y-118096135D01*
X143740689Y-118197109D01*
X143965600Y-118087050D01*
X143965600Y-116943200D01*
X142822711Y-116943200D01*
X142711697Y-117168110D01*
X128056284Y-117168110D01*
X128100860Y-117144284D01*
X128165574Y-117091174D01*
X128178884Y-117074956D01*
X135032756Y-110221084D01*
X135048974Y-110207774D01*
X135102084Y-110143060D01*
X135141548Y-110069227D01*
X135165850Y-109989114D01*
X135172000Y-109926674D01*
X135172000Y-109926667D01*
X135174055Y-109905800D01*
X135172000Y-109884933D01*
X135172000Y-89036899D01*
X135209999Y-89083201D01*
X135302579Y-89159180D01*
X135408203Y-89215637D01*
X135522811Y-89250403D01*
X135642000Y-89262142D01*
X135711000Y-89259200D01*
X135863000Y-89107200D01*
X135863000Y-87755200D01*
X135843000Y-87755200D01*
X135843000Y-87447200D01*
X135863000Y-87447200D01*
X135863000Y-87427200D01*
X136171000Y-87427200D01*
X136171000Y-87447200D01*
X136191000Y-87447200D01*
X136191000Y-87755200D01*
X136171000Y-87755200D01*
X136171000Y-89107200D01*
X136323000Y-89259200D01*
X136392000Y-89262142D01*
X136511189Y-89250403D01*
X136625797Y-89215637D01*
X136731421Y-89159180D01*
X136824001Y-89083201D01*
X136862001Y-89036898D01*
X136862000Y-109935733D01*
X136859945Y-109956600D01*
X136862000Y-109977467D01*
X136862000Y-109977473D01*
X136866223Y-110020350D01*
X136868150Y-110039914D01*
X136869588Y-110044653D01*
X136892452Y-110120026D01*
X136931916Y-110193859D01*
X136985026Y-110258574D01*
X137001244Y-110271884D01*
X142534319Y-115804960D01*
X142547626Y-115821174D01*
X142612340Y-115874284D01*
X142686173Y-115913748D01*
X142741983Y-115930678D01*
X142766285Y-115938050D01*
X142774698Y-115938879D01*
X142828726Y-115944200D01*
X142828732Y-115944200D01*
X142849599Y-115946255D01*
X142870466Y-115944200D01*
X142940051Y-115944200D01*
X142856127Y-116061589D01*
X142738454Y-116322061D01*
X142711697Y-116410290D01*
X142822711Y-116635200D01*
X143965600Y-116635200D01*
X143965600Y-116615200D01*
X144273600Y-116615200D01*
X144273600Y-116635200D01*
X144293600Y-116635200D01*
X144293600Y-116943200D01*
X144273600Y-116943200D01*
X144273600Y-118087050D01*
X144498511Y-118197109D01*
X144765900Y-118096135D01*
X145008452Y-117944936D01*
X145216846Y-117749322D01*
X145383073Y-117516811D01*
X145500746Y-117256339D01*
X145508149Y-117231928D01*
X145508149Y-117639200D01*
X145513941Y-117698010D01*
X145531096Y-117754560D01*
X145558953Y-117806677D01*
X145596442Y-117852358D01*
X145642123Y-117889847D01*
X145694240Y-117917704D01*
X145750790Y-117934859D01*
X145809600Y-117940651D01*
X147509600Y-117940651D01*
X147568410Y-117934859D01*
X147624960Y-117917704D01*
X147677077Y-117889847D01*
X147722758Y-117852358D01*
X147760247Y-117806677D01*
X147788104Y-117754560D01*
X147805259Y-117698010D01*
X147811051Y-117639200D01*
X147811051Y-115939200D01*
X147805259Y-115880390D01*
X147788104Y-115823840D01*
X147760247Y-115771723D01*
X147722758Y-115726042D01*
X147677077Y-115688553D01*
X147624960Y-115660696D01*
X147568410Y-115643541D01*
X147509600Y-115637749D01*
X146109189Y-115637749D01*
X145704883Y-115233443D01*
X145691574Y-115217226D01*
X145626860Y-115164116D01*
X145553027Y-115124652D01*
X145472914Y-115100350D01*
X145410474Y-115094200D01*
X145410467Y-115094200D01*
X145389600Y-115092145D01*
X145368733Y-115094200D01*
X144900945Y-115094200D01*
X145012863Y-114982282D01*
X145138716Y-114793929D01*
X145225406Y-114584643D01*
X145269600Y-114362465D01*
X145269600Y-114135935D01*
X145225406Y-113913757D01*
X145138716Y-113704471D01*
X145012863Y-113516118D01*
X144900945Y-113404200D01*
X145213560Y-113404200D01*
X145523840Y-113714481D01*
X145523845Y-113714485D01*
X145603388Y-113794028D01*
X145553794Y-113913757D01*
X145509600Y-114135935D01*
X145509600Y-114362465D01*
X145553794Y-114584643D01*
X145640484Y-114793929D01*
X145766337Y-114982282D01*
X145926518Y-115142463D01*
X146114871Y-115268316D01*
X146324157Y-115355006D01*
X146546335Y-115399200D01*
X146772865Y-115399200D01*
X146995043Y-115355006D01*
X147204329Y-115268316D01*
X147392682Y-115142463D01*
X147552863Y-114982282D01*
X147678716Y-114793929D01*
X147765406Y-114584643D01*
X147809600Y-114362465D01*
X147809600Y-114135935D01*
X147765406Y-113913757D01*
X147678716Y-113704471D01*
X147552863Y-113516118D01*
X147392682Y-113355937D01*
X147204329Y-113230084D01*
X146995043Y-113143394D01*
X146772865Y-113099200D01*
X146546335Y-113099200D01*
X146324157Y-113143394D01*
X146204428Y-113192988D01*
X146124885Y-113113445D01*
X146124881Y-113113440D01*
X145704883Y-112693443D01*
X145691574Y-112677226D01*
X145626860Y-112624116D01*
X145553027Y-112584652D01*
X145472914Y-112560350D01*
X145410474Y-112554200D01*
X145410467Y-112554200D01*
X145389600Y-112552145D01*
X145368733Y-112554200D01*
X144900945Y-112554200D01*
X145012863Y-112442282D01*
X145138716Y-112253929D01*
X145225406Y-112044643D01*
X145269600Y-111822465D01*
X145269600Y-111595935D01*
X145225406Y-111373757D01*
X145138716Y-111164471D01*
X145012863Y-110976118D01*
X144900945Y-110864200D01*
X145213560Y-110864200D01*
X145523840Y-111174481D01*
X145523845Y-111174485D01*
X145603388Y-111254028D01*
X145553794Y-111373757D01*
X145509600Y-111595935D01*
X145509600Y-111822465D01*
X145553794Y-112044643D01*
X145640484Y-112253929D01*
X145766337Y-112442282D01*
X145926518Y-112602463D01*
X146114871Y-112728316D01*
X146324157Y-112815006D01*
X146546335Y-112859200D01*
X146772865Y-112859200D01*
X146995043Y-112815006D01*
X147204329Y-112728316D01*
X147392682Y-112602463D01*
X147552863Y-112442282D01*
X147678716Y-112253929D01*
X147765406Y-112044643D01*
X147809600Y-111822465D01*
X147809600Y-111595935D01*
X147765406Y-111373757D01*
X147678716Y-111164471D01*
X147552863Y-110976118D01*
X147392682Y-110815937D01*
X147204329Y-110690084D01*
X146995043Y-110603394D01*
X146772865Y-110559200D01*
X146546335Y-110559200D01*
X146324157Y-110603394D01*
X146204428Y-110652988D01*
X146124885Y-110573445D01*
X146124881Y-110573440D01*
X145704883Y-110153443D01*
X145691574Y-110137226D01*
X145626860Y-110084116D01*
X145553027Y-110044652D01*
X145472914Y-110020350D01*
X145410474Y-110014200D01*
X145410467Y-110014200D01*
X145389600Y-110012145D01*
X145368733Y-110014200D01*
X144900945Y-110014200D01*
X145012863Y-109902282D01*
X145138716Y-109713929D01*
X145225406Y-109504643D01*
X145269600Y-109282465D01*
X145269600Y-109055935D01*
X145225406Y-108833757D01*
X145138716Y-108624471D01*
X145012863Y-108436118D01*
X144900945Y-108324200D01*
X145213560Y-108324200D01*
X145603388Y-108714028D01*
X145553794Y-108833757D01*
X145509600Y-109055935D01*
X145509600Y-109282465D01*
X145553794Y-109504643D01*
X145640484Y-109713929D01*
X145766337Y-109902282D01*
X145926518Y-110062463D01*
X146114871Y-110188316D01*
X146324157Y-110275006D01*
X146546335Y-110319200D01*
X146772865Y-110319200D01*
X146995043Y-110275006D01*
X147204329Y-110188316D01*
X147392682Y-110062463D01*
X147552863Y-109902282D01*
X147678716Y-109713929D01*
X147765406Y-109504643D01*
X147809600Y-109282465D01*
X147809600Y-109055935D01*
X147765406Y-108833757D01*
X147678716Y-108624471D01*
X147552863Y-108436118D01*
X147392682Y-108275937D01*
X147204329Y-108150084D01*
X146995043Y-108063394D01*
X146813602Y-108027303D01*
X146813602Y-107927051D01*
X147038511Y-108037109D01*
X147305900Y-107936135D01*
X147548452Y-107784936D01*
X147756846Y-107589322D01*
X147923073Y-107356811D01*
X148040746Y-107096339D01*
X148067503Y-107008110D01*
X147956489Y-106783200D01*
X146813600Y-106783200D01*
X146813600Y-106803200D01*
X146505600Y-106803200D01*
X146505600Y-106783200D01*
X146485600Y-106783200D01*
X146485600Y-106475200D01*
X146505600Y-106475200D01*
X146505600Y-106455200D01*
X146813600Y-106455200D01*
X146813600Y-106475200D01*
X147956489Y-106475200D01*
X148067503Y-106250290D01*
X148040746Y-106162061D01*
X147923073Y-105901589D01*
X147756846Y-105669078D01*
X147548452Y-105473464D01*
X147305900Y-105322265D01*
X147038511Y-105221291D01*
X146813602Y-105331349D01*
X146813602Y-105231097D01*
X146995043Y-105195006D01*
X147204329Y-105108316D01*
X147392682Y-104982463D01*
X147552863Y-104822282D01*
X147678716Y-104633929D01*
X147765406Y-104424643D01*
X147809600Y-104202465D01*
X147809600Y-103975935D01*
X147765406Y-103753757D01*
X147678716Y-103544471D01*
X147552863Y-103356118D01*
X147392682Y-103195937D01*
X147204329Y-103070084D01*
X146995043Y-102983394D01*
X146772865Y-102939200D01*
X146546335Y-102939200D01*
X146324157Y-102983394D01*
X146114871Y-103070084D01*
X145926518Y-103195937D01*
X145766337Y-103356118D01*
X145640484Y-103544471D01*
X145553794Y-103753757D01*
X145509600Y-103975935D01*
X145509600Y-104202465D01*
X145553794Y-104424643D01*
X145640484Y-104633929D01*
X145766337Y-104822282D01*
X145926518Y-104982463D01*
X146114871Y-105108316D01*
X146324157Y-105195006D01*
X146505598Y-105231097D01*
X146505598Y-105331349D01*
X146280689Y-105221291D01*
X146013300Y-105322265D01*
X145770748Y-105473464D01*
X145562354Y-105669078D01*
X145396127Y-105901589D01*
X145278454Y-106162061D01*
X145251697Y-106250290D01*
X145362710Y-106475198D01*
X145261497Y-106475198D01*
X145225406Y-106293757D01*
X145138716Y-106084471D01*
X145012863Y-105896118D01*
X144852682Y-105735937D01*
X144664329Y-105610084D01*
X144455043Y-105523394D01*
X144232865Y-105479200D01*
X144006335Y-105479200D01*
X143784157Y-105523394D01*
X143664428Y-105572988D01*
X143020600Y-104929160D01*
X143020600Y-104441074D01*
X143100484Y-104633929D01*
X143226337Y-104822282D01*
X143386518Y-104982463D01*
X143574871Y-105108316D01*
X143784157Y-105195006D01*
X144006335Y-105239200D01*
X144232865Y-105239200D01*
X144455043Y-105195006D01*
X144664329Y-105108316D01*
X144852682Y-104982463D01*
X145012863Y-104822282D01*
X145138716Y-104633929D01*
X145225406Y-104424643D01*
X145269600Y-104202465D01*
X145269600Y-103975935D01*
X145225406Y-103753757D01*
X145138716Y-103544471D01*
X145012863Y-103356118D01*
X144852682Y-103195937D01*
X144664329Y-103070084D01*
X144455043Y-102983394D01*
X144232865Y-102939200D01*
X144006335Y-102939200D01*
X143784157Y-102983394D01*
X143574871Y-103070084D01*
X143386518Y-103195937D01*
X143226337Y-103356118D01*
X143100484Y-103544471D01*
X143020600Y-103737326D01*
X143020600Y-101901074D01*
X143100484Y-102093929D01*
X143226337Y-102282282D01*
X143386518Y-102442463D01*
X143574871Y-102568316D01*
X143784157Y-102655006D01*
X144006335Y-102699200D01*
X144232865Y-102699200D01*
X144455043Y-102655006D01*
X144664329Y-102568316D01*
X144852682Y-102442463D01*
X145012863Y-102282282D01*
X145138716Y-102093929D01*
X145225406Y-101884643D01*
X145269600Y-101662465D01*
X145269600Y-101435935D01*
X145225406Y-101213757D01*
X145138716Y-101004471D01*
X145012863Y-100816118D01*
X144852682Y-100655937D01*
X144664329Y-100530084D01*
X144455043Y-100443394D01*
X144232865Y-100399200D01*
X144006335Y-100399200D01*
X143784157Y-100443394D01*
X143574871Y-100530084D01*
X143386518Y-100655937D01*
X143226337Y-100816118D01*
X143100484Y-101004471D01*
X143020600Y-101197326D01*
X143020600Y-99361074D01*
X143100484Y-99553929D01*
X143226337Y-99742282D01*
X143386518Y-99902463D01*
X143574871Y-100028316D01*
X143784157Y-100115006D01*
X144006335Y-100159200D01*
X144232865Y-100159200D01*
X144455043Y-100115006D01*
X144664329Y-100028316D01*
X144852682Y-99902463D01*
X145012863Y-99742282D01*
X145138716Y-99553929D01*
X145225406Y-99344643D01*
X145261497Y-99163202D01*
X145362710Y-99163202D01*
X145251697Y-99388110D01*
X145278454Y-99476339D01*
X145396127Y-99736811D01*
X145562354Y-99969322D01*
X145770748Y-100164936D01*
X146013300Y-100316135D01*
X146280689Y-100417109D01*
X146505598Y-100307051D01*
X146505598Y-100407303D01*
X146324157Y-100443394D01*
X146114871Y-100530084D01*
X145926518Y-100655937D01*
X145766337Y-100816118D01*
X145640484Y-101004471D01*
X145553794Y-101213757D01*
X145509600Y-101435935D01*
X145509600Y-101662465D01*
X145553794Y-101884643D01*
X145640484Y-102093929D01*
X145766337Y-102282282D01*
X145926518Y-102442463D01*
X146114871Y-102568316D01*
X146324157Y-102655006D01*
X146546335Y-102699200D01*
X146772865Y-102699200D01*
X146995043Y-102655006D01*
X147204329Y-102568316D01*
X147392682Y-102442463D01*
X147552863Y-102282282D01*
X147678716Y-102093929D01*
X147765406Y-101884643D01*
X147809600Y-101662465D01*
X147809600Y-101435935D01*
X147765406Y-101213757D01*
X147678716Y-101004471D01*
X147552863Y-100816118D01*
X147392682Y-100655937D01*
X147204329Y-100530084D01*
X146995043Y-100443394D01*
X146813602Y-100407303D01*
X146813602Y-100307051D01*
X147038511Y-100417109D01*
X147305900Y-100316135D01*
X147548452Y-100164936D01*
X147756846Y-99969322D01*
X147923073Y-99736811D01*
X148040746Y-99476339D01*
X148067503Y-99388110D01*
X147956489Y-99163200D01*
X146813600Y-99163200D01*
X146813600Y-99183200D01*
X146505600Y-99183200D01*
X146505600Y-99163200D01*
X146485600Y-99163200D01*
X146485600Y-98855200D01*
X146505600Y-98855200D01*
X146505600Y-98835200D01*
X146813600Y-98835200D01*
X146813600Y-98855200D01*
X147956489Y-98855200D01*
X148067503Y-98630290D01*
X148040746Y-98542061D01*
X147923073Y-98281589D01*
X147756846Y-98049078D01*
X147548452Y-97853464D01*
X147305900Y-97702265D01*
X147038511Y-97601291D01*
X146813602Y-97711349D01*
X146813602Y-97611097D01*
X146995043Y-97575006D01*
X147204329Y-97488316D01*
X147392682Y-97362463D01*
X147552863Y-97202282D01*
X147678716Y-97013929D01*
X147765406Y-96804643D01*
X147809600Y-96582465D01*
X147809600Y-96355935D01*
X147765406Y-96133757D01*
X147678716Y-95924471D01*
X147552863Y-95736118D01*
X147392682Y-95575937D01*
X147204329Y-95450084D01*
X146995043Y-95363394D01*
X146772865Y-95319200D01*
X146546335Y-95319200D01*
X146324157Y-95363394D01*
X146114871Y-95450084D01*
X145926518Y-95575937D01*
X145766337Y-95736118D01*
X145640484Y-95924471D01*
X145553794Y-96133757D01*
X145509600Y-96355935D01*
X145509600Y-96582465D01*
X145553794Y-96804643D01*
X145640484Y-97013929D01*
X145766337Y-97202282D01*
X145926518Y-97362463D01*
X146114871Y-97488316D01*
X146324157Y-97575006D01*
X146505598Y-97611097D01*
X146505598Y-97711349D01*
X146280689Y-97601291D01*
X146013300Y-97702265D01*
X145770748Y-97853464D01*
X145562354Y-98049078D01*
X145396127Y-98281589D01*
X145278454Y-98542061D01*
X145251697Y-98630290D01*
X145362710Y-98855198D01*
X145261497Y-98855198D01*
X145225406Y-98673757D01*
X145138716Y-98464471D01*
X145012863Y-98276118D01*
X144852682Y-98115937D01*
X144664329Y-97990084D01*
X144455043Y-97903394D01*
X144232865Y-97859200D01*
X144006335Y-97859200D01*
X143784157Y-97903394D01*
X143574871Y-97990084D01*
X143386518Y-98115937D01*
X143226337Y-98276118D01*
X143100484Y-98464471D01*
X143020600Y-98657326D01*
X143020600Y-96821074D01*
X143100484Y-97013929D01*
X143226337Y-97202282D01*
X143386518Y-97362463D01*
X143574871Y-97488316D01*
X143784157Y-97575006D01*
X144006335Y-97619200D01*
X144232865Y-97619200D01*
X144455043Y-97575006D01*
X144664329Y-97488316D01*
X144852682Y-97362463D01*
X145012863Y-97202282D01*
X145138716Y-97013929D01*
X145225406Y-96804643D01*
X145269600Y-96582465D01*
X145269600Y-96355935D01*
X145225406Y-96133757D01*
X145138716Y-95924471D01*
X145012863Y-95736118D01*
X144852682Y-95575937D01*
X144664329Y-95450084D01*
X144455043Y-95363394D01*
X144232865Y-95319200D01*
X144006335Y-95319200D01*
X143784157Y-95363394D01*
X143574871Y-95450084D01*
X143386518Y-95575937D01*
X143226337Y-95736118D01*
X143100484Y-95924471D01*
X143020600Y-96117326D01*
X143020600Y-94281074D01*
X143100484Y-94473929D01*
X143226337Y-94662282D01*
X143386518Y-94822463D01*
X143574871Y-94948316D01*
X143784157Y-95035006D01*
X144006335Y-95079200D01*
X144232865Y-95079200D01*
X144455043Y-95035006D01*
X144664329Y-94948316D01*
X144852682Y-94822463D01*
X145012863Y-94662282D01*
X145138716Y-94473929D01*
X145225406Y-94264643D01*
X145269600Y-94042465D01*
X145269600Y-93815935D01*
X145509600Y-93815935D01*
X145509600Y-94042465D01*
X145553794Y-94264643D01*
X145640484Y-94473929D01*
X145766337Y-94662282D01*
X145926518Y-94822463D01*
X146114871Y-94948316D01*
X146324157Y-95035006D01*
X146546335Y-95079200D01*
X146772865Y-95079200D01*
X146995043Y-95035006D01*
X147204329Y-94948316D01*
X147392682Y-94822463D01*
X147552863Y-94662282D01*
X147678716Y-94473929D01*
X147765406Y-94264643D01*
X147809600Y-94042465D01*
X147809600Y-93815935D01*
X147765406Y-93593757D01*
X147678716Y-93384471D01*
X147552863Y-93196118D01*
X147392682Y-93035937D01*
X147204329Y-92910084D01*
X146995043Y-92823394D01*
X146772865Y-92779200D01*
X146546335Y-92779200D01*
X146324157Y-92823394D01*
X146114871Y-92910084D01*
X145926518Y-93035937D01*
X145766337Y-93196118D01*
X145640484Y-93384471D01*
X145553794Y-93593757D01*
X145509600Y-93815935D01*
X145269600Y-93815935D01*
X145225406Y-93593757D01*
X145138716Y-93384471D01*
X145012863Y-93196118D01*
X144852682Y-93035937D01*
X144664329Y-92910084D01*
X144455043Y-92823394D01*
X144232865Y-92779200D01*
X144006335Y-92779200D01*
X143784157Y-92823394D01*
X143574871Y-92910084D01*
X143386518Y-93035937D01*
X143226337Y-93196118D01*
X143100484Y-93384471D01*
X143020600Y-93577326D01*
X143020600Y-93089240D01*
X146462763Y-89647078D01*
X146478974Y-89633774D01*
X146532084Y-89569060D01*
X146571548Y-89495227D01*
X146595850Y-89415114D01*
X146602000Y-89352674D01*
X146602000Y-89352668D01*
X146604055Y-89331801D01*
X146602000Y-89310934D01*
X146602000Y-89036899D01*
X146639999Y-89083201D01*
X146732579Y-89159180D01*
X146838203Y-89215637D01*
X146952811Y-89250403D01*
X147072000Y-89262142D01*
X147141000Y-89259200D01*
X147293000Y-89107200D01*
X147293000Y-87755200D01*
X147601000Y-87755200D01*
X147601000Y-89107200D01*
X147753000Y-89259200D01*
X147822000Y-89262142D01*
X147941189Y-89250403D01*
X148055797Y-89215637D01*
X148161421Y-89159180D01*
X148254001Y-89083201D01*
X148329980Y-88990621D01*
X148386437Y-88884997D01*
X148421203Y-88770389D01*
X148432942Y-88651200D01*
X148430000Y-87907200D01*
X148278000Y-87755200D01*
X147601000Y-87755200D01*
X147293000Y-87755200D01*
X147273000Y-87755200D01*
X147273000Y-87447200D01*
X147293000Y-87447200D01*
X147293000Y-87427200D01*
X147601000Y-87427200D01*
X147601000Y-87447200D01*
X148278000Y-87447200D01*
X148430000Y-87295200D01*
X148432942Y-86551200D01*
X148421203Y-86432011D01*
X148386437Y-86317403D01*
X148329980Y-86211779D01*
X148254001Y-86119199D01*
X148161421Y-86043220D01*
X148055797Y-85986763D01*
X147941189Y-85951997D01*
X147916231Y-85949539D01*
X147927785Y-85921645D01*
X147947000Y-85825046D01*
X147947000Y-85726554D01*
X147927785Y-85629955D01*
X147890094Y-85538961D01*
X147872000Y-85511882D01*
X147872000Y-85347727D01*
X147880810Y-85346859D01*
X147937360Y-85329704D01*
X147989477Y-85301847D01*
X148035158Y-85264358D01*
X148072647Y-85218677D01*
X148100504Y-85166560D01*
X148117659Y-85110010D01*
X148123451Y-85051200D01*
X148123451Y-82951200D01*
X148117659Y-82892390D01*
X148100504Y-82835840D01*
X148072647Y-82783723D01*
X148035158Y-82738042D01*
X147989477Y-82700553D01*
X147937360Y-82672696D01*
X147880810Y-82655541D01*
X147822000Y-82649749D01*
X147072000Y-82649749D01*
X147013190Y-82655541D01*
X146956640Y-82672696D01*
X146904523Y-82700553D01*
X146858842Y-82738042D01*
X146821353Y-82783723D01*
X146812000Y-82801221D01*
X146802647Y-82783723D01*
X146765158Y-82738042D01*
X146719477Y-82700553D01*
X146667360Y-82672696D01*
X146610810Y-82655541D01*
X146552000Y-82649749D01*
X145802000Y-82649749D01*
X145743190Y-82655541D01*
X145686640Y-82672696D01*
X145634523Y-82700553D01*
X145588842Y-82738042D01*
X145551353Y-82783723D01*
X145542000Y-82801221D01*
X145532647Y-82783723D01*
X145495158Y-82738042D01*
X145449477Y-82700553D01*
X145397360Y-82672696D01*
X145340810Y-82655541D01*
X145282000Y-82649749D01*
X144532000Y-82649749D01*
X144473190Y-82655541D01*
X144416640Y-82672696D01*
X144364523Y-82700553D01*
X144318842Y-82738042D01*
X144281353Y-82783723D01*
X144272000Y-82801221D01*
X144262647Y-82783723D01*
X144225158Y-82738042D01*
X144179477Y-82700553D01*
X144127360Y-82672696D01*
X144070810Y-82655541D01*
X144012000Y-82649749D01*
X143270275Y-82649749D01*
X143249980Y-82611779D01*
X143174001Y-82519199D01*
X143081421Y-82443220D01*
X142975797Y-82386763D01*
X142861189Y-82351997D01*
X142742000Y-82340258D01*
X142673000Y-82343200D01*
X142521000Y-82495200D01*
X142521000Y-83847200D01*
X142541000Y-83847200D01*
X142541000Y-84155200D01*
X142521000Y-84155200D01*
X142521000Y-84175200D01*
X142213000Y-84175200D01*
X142213000Y-84155200D01*
X142193000Y-84155200D01*
X142193000Y-83847200D01*
X142213000Y-83847200D01*
X142213000Y-82495200D01*
X142061000Y-82343200D01*
X141992000Y-82340258D01*
X141872811Y-82351997D01*
X141758203Y-82386763D01*
X141652579Y-82443220D01*
X141559999Y-82519199D01*
X141484020Y-82611779D01*
X141463725Y-82649749D01*
X140722000Y-82649749D01*
X140663190Y-82655541D01*
X140606640Y-82672696D01*
X140554523Y-82700553D01*
X140508842Y-82738042D01*
X140471353Y-82783723D01*
X140462000Y-82801221D01*
X140452647Y-82783723D01*
X140415158Y-82738042D01*
X140369477Y-82700553D01*
X140317360Y-82672696D01*
X140260810Y-82655541D01*
X140202000Y-82649749D01*
X139452000Y-82649749D01*
X139393190Y-82655541D01*
X139336640Y-82672696D01*
X139284523Y-82700553D01*
X139238842Y-82738042D01*
X139201353Y-82783723D01*
X139192000Y-82801221D01*
X139182647Y-82783723D01*
X139145158Y-82738042D01*
X139099477Y-82700553D01*
X139047360Y-82672696D01*
X138990810Y-82655541D01*
X138932000Y-82649749D01*
X138182000Y-82649749D01*
X138123190Y-82655541D01*
X138066640Y-82672696D01*
X138014523Y-82700553D01*
X137968842Y-82738042D01*
X137931353Y-82783723D01*
X137922000Y-82801221D01*
X137912647Y-82783723D01*
X137875158Y-82738042D01*
X137829477Y-82700553D01*
X137777360Y-82672696D01*
X137720810Y-82655541D01*
X137662000Y-82649749D01*
X136912000Y-82649749D01*
X136853190Y-82655541D01*
X136796640Y-82672696D01*
X136744523Y-82700553D01*
X136698842Y-82738042D01*
X136661353Y-82783723D01*
X136652000Y-82801221D01*
X136642647Y-82783723D01*
X136605158Y-82738042D01*
X136559477Y-82700553D01*
X136507360Y-82672696D01*
X136450810Y-82655541D01*
X136392000Y-82649749D01*
X135642000Y-82649749D01*
X135583190Y-82655541D01*
X135526640Y-82672696D01*
X135474523Y-82700553D01*
X135428842Y-82738042D01*
X135391353Y-82783723D01*
X135382000Y-82801221D01*
X135372647Y-82783723D01*
X135335158Y-82738042D01*
X135289477Y-82700553D01*
X135237360Y-82672696D01*
X135180810Y-82655541D01*
X135122000Y-82649749D01*
X134372000Y-82649749D01*
X134313190Y-82655541D01*
X134256640Y-82672696D01*
X134204523Y-82700553D01*
X134158842Y-82738042D01*
X134121353Y-82783723D01*
X134112000Y-82801221D01*
X134102647Y-82783723D01*
X134065158Y-82738042D01*
X134019477Y-82700553D01*
X133967360Y-82672696D01*
X133910810Y-82655541D01*
X133852000Y-82649749D01*
X133102000Y-82649749D01*
X133043190Y-82655541D01*
X132986640Y-82672696D01*
X132934523Y-82700553D01*
X132888842Y-82738042D01*
X132851353Y-82783723D01*
X132842000Y-82801221D01*
X132832647Y-82783723D01*
X132795158Y-82738042D01*
X132749477Y-82700553D01*
X132697360Y-82672696D01*
X132640810Y-82655541D01*
X132582000Y-82649749D01*
X131832000Y-82649749D01*
X131773190Y-82655541D01*
X131716640Y-82672696D01*
X131664523Y-82700553D01*
X131618842Y-82738042D01*
X131581353Y-82783723D01*
X131572000Y-82801221D01*
X131562647Y-82783723D01*
X131525158Y-82738042D01*
X131479477Y-82700553D01*
X131427360Y-82672696D01*
X131370810Y-82655541D01*
X131312000Y-82649749D01*
X130562000Y-82649749D01*
X130503190Y-82655541D01*
X130446640Y-82672696D01*
X130394523Y-82700553D01*
X130348842Y-82738042D01*
X130311353Y-82783723D01*
X130302000Y-82801221D01*
X130292647Y-82783723D01*
X130255158Y-82738042D01*
X130209477Y-82700553D01*
X130157360Y-82672696D01*
X130100810Y-82655541D01*
X130042000Y-82649749D01*
X129292000Y-82649749D01*
X129233190Y-82655541D01*
X129176640Y-82672696D01*
X129124523Y-82700553D01*
X129078842Y-82738042D01*
X129041353Y-82783723D01*
X129032000Y-82801221D01*
X129022647Y-82783723D01*
X128985158Y-82738042D01*
X128939477Y-82700553D01*
X128887360Y-82672696D01*
X128830810Y-82655541D01*
X128772000Y-82649749D01*
X128030275Y-82649749D01*
X128009980Y-82611779D01*
X127934001Y-82519199D01*
X127841421Y-82443220D01*
X127735797Y-82386763D01*
X127621189Y-82351997D01*
X127502000Y-82340258D01*
X127433000Y-82343200D01*
X127281000Y-82495200D01*
X127281000Y-83847200D01*
X127301000Y-83847200D01*
X127301000Y-84155200D01*
X127281000Y-84155200D01*
X127281000Y-85507200D01*
X127433000Y-85659200D01*
X127502000Y-85662142D01*
X127621189Y-85650403D01*
X127735797Y-85615637D01*
X127841421Y-85559180D01*
X127934001Y-85483201D01*
X127972001Y-85436898D01*
X127972001Y-85499267D01*
X127928506Y-85564361D01*
X127890815Y-85655355D01*
X127871600Y-85751954D01*
X127871600Y-85850446D01*
X127890815Y-85947045D01*
X127928506Y-86038039D01*
X127983225Y-86119931D01*
X128052869Y-86189575D01*
X128134761Y-86244294D01*
X128147931Y-86249749D01*
X128022000Y-86249749D01*
X127963190Y-86255541D01*
X127906640Y-86272696D01*
X127854523Y-86300553D01*
X127808842Y-86338042D01*
X127771353Y-86383723D01*
X127762000Y-86401221D01*
X127752647Y-86383723D01*
X127715158Y-86338042D01*
X127669477Y-86300553D01*
X127617360Y-86272696D01*
X127560810Y-86255541D01*
X127502000Y-86249749D01*
X126752000Y-86249749D01*
X126693190Y-86255541D01*
X126636640Y-86272696D01*
X126584523Y-86300553D01*
X126538842Y-86338042D01*
X126501353Y-86383723D01*
X126492000Y-86401221D01*
X126482647Y-86383723D01*
X126445158Y-86338042D01*
X126399477Y-86300553D01*
X126347360Y-86272696D01*
X126290810Y-86255541D01*
X126232000Y-86249749D01*
X126055269Y-86249749D01*
X126068439Y-86244294D01*
X126150331Y-86189575D01*
X126219975Y-86119931D01*
X126274694Y-86038039D01*
X126312385Y-85947045D01*
X126331600Y-85850446D01*
X126331600Y-85751954D01*
X126312385Y-85655355D01*
X126282000Y-85581999D01*
X126282000Y-85436899D01*
X126319999Y-85483201D01*
X126412579Y-85559180D01*
X126518203Y-85615637D01*
X126632811Y-85650403D01*
X126752000Y-85662142D01*
X126821000Y-85659200D01*
X126973000Y-85507200D01*
X126973000Y-84155200D01*
X126953000Y-84155200D01*
X126953000Y-83847200D01*
X126973000Y-83847200D01*
X126973000Y-82495200D01*
X126821000Y-82343200D01*
X126752000Y-82340258D01*
X126632811Y-82351997D01*
X126518203Y-82386763D01*
X126412579Y-82443220D01*
X126319999Y-82519199D01*
X126244020Y-82611779D01*
X126223725Y-82649749D01*
X125482000Y-82649749D01*
X125423190Y-82655541D01*
X125366640Y-82672696D01*
X125314523Y-82700553D01*
X125268842Y-82738042D01*
X125231353Y-82783723D01*
X125222000Y-82801221D01*
X125212647Y-82783723D01*
X125175158Y-82738042D01*
X125129477Y-82700553D01*
X125077360Y-82672696D01*
X125020810Y-82655541D01*
X124962000Y-82649749D01*
X124212000Y-82649749D01*
X124153190Y-82655541D01*
X124096640Y-82672696D01*
X124044523Y-82700553D01*
X123998842Y-82738042D01*
X123961353Y-82783723D01*
X123952000Y-82801221D01*
X123942647Y-82783723D01*
X123905158Y-82738042D01*
X123867000Y-82706727D01*
X123867000Y-82421382D01*
X123859042Y-82340581D01*
X123827592Y-82236906D01*
X123813747Y-82211004D01*
X152440155Y-82210999D01*
X152039703Y-82376872D01*
G37*
X152039703Y-82376872D02*
X151581104Y-82683298D01*
X151191098Y-83073304D01*
X150884672Y-83531903D01*
X150673602Y-84041470D01*
X150566000Y-84582424D01*
X150566000Y-85133976D01*
X150673602Y-85674930D01*
X150884672Y-86184497D01*
X151191098Y-86643096D01*
X151581104Y-87033102D01*
X152039703Y-87339528D01*
X152549270Y-87550598D01*
X153090224Y-87658200D01*
X153641776Y-87658200D01*
X154182730Y-87550598D01*
X154692297Y-87339528D01*
X155150896Y-87033102D01*
X155540902Y-86643096D01*
X155847328Y-86184497D01*
X155973000Y-85881099D01*
X155973001Y-119830304D01*
X155847328Y-119526903D01*
X155540902Y-119068304D01*
X155150896Y-118678298D01*
X154692297Y-118371872D01*
X154182730Y-118160802D01*
X153641776Y-118053200D01*
X153090224Y-118053200D01*
X152549270Y-118160802D01*
X152039703Y-118371872D01*
X151581104Y-118678298D01*
X151191098Y-119068304D01*
X150884672Y-119526903D01*
X150673602Y-120036470D01*
X150566000Y-120577424D01*
X150566000Y-121128976D01*
X150673602Y-121669930D01*
X150884672Y-122179497D01*
X151191098Y-122638096D01*
X151581104Y-123028102D01*
X152039703Y-123334528D01*
X152345033Y-123461000D01*
X151666292Y-123461000D01*
X151628092Y-123337594D01*
X151614920Y-123306259D01*
X151602189Y-123274749D01*
X151599731Y-123270125D01*
X151506907Y-123098449D01*
X151487900Y-123070270D01*
X151469289Y-123041830D01*
X151465980Y-123037772D01*
X151341576Y-122887394D01*
X151317430Y-122863416D01*
X151293679Y-122839163D01*
X151289645Y-122835825D01*
X151138403Y-122712475D01*
X151110090Y-122693664D01*
X151082050Y-122674464D01*
X151077444Y-122671974D01*
X150905121Y-122580348D01*
X150873686Y-122567392D01*
X150842459Y-122554008D01*
X150837457Y-122552459D01*
X150650621Y-122496050D01*
X150617273Y-122489447D01*
X150584035Y-122482382D01*
X150578827Y-122481835D01*
X150384594Y-122462790D01*
X150366419Y-122461000D01*
X148939600Y-122461000D01*
X148939600Y-118746019D01*
X148941414Y-118727600D01*
X148934174Y-118654087D01*
X148912731Y-118583400D01*
X148877909Y-118518253D01*
X148831048Y-118461152D01*
X148773947Y-118414291D01*
X148708800Y-118379469D01*
X148638113Y-118358026D01*
X148583019Y-118352600D01*
X148564600Y-118350786D01*
X148546181Y-118352600D01*
X122294019Y-118352600D01*
X122275600Y-118350786D01*
X122257181Y-118352600D01*
X122202087Y-118358026D01*
X122131400Y-118379469D01*
X122066253Y-118414291D01*
X122009152Y-118461152D01*
X121962291Y-118518253D01*
X121927469Y-118583400D01*
X121906026Y-118654087D01*
X121898786Y-118727600D01*
X121900600Y-118746019D01*
X121900601Y-122459711D01*
X120327525Y-122461018D01*
X120311599Y-122462600D01*
X120307031Y-122462568D01*
X120301820Y-122463078D01*
X120107723Y-122483479D01*
X120074359Y-122490328D01*
X120041045Y-122496683D01*
X120036036Y-122498195D01*
X120036030Y-122498196D01*
X120036024Y-122498198D01*
X119849594Y-122555908D01*
X119818259Y-122569080D01*
X119786749Y-122581811D01*
X119782125Y-122584269D01*
X119610449Y-122677093D01*
X119582270Y-122696100D01*
X119553830Y-122714711D01*
X119549772Y-122718020D01*
X119399394Y-122842424D01*
X119375416Y-122866570D01*
X119351163Y-122890321D01*
X119347825Y-122894355D01*
X119224475Y-123045597D01*
X119205664Y-123073910D01*
X119186464Y-123101950D01*
X119183974Y-123106556D01*
X119092348Y-123278879D01*
X119079392Y-123310314D01*
X119066008Y-123341541D01*
X119064459Y-123346543D01*
X119029902Y-123461000D01*
X118360825Y-123461000D01*
X118690297Y-123324528D01*
X119148896Y-123018102D01*
X119538902Y-122628096D01*
X119845328Y-122169497D01*
X120056398Y-121659930D01*
X120164000Y-121118976D01*
X120164000Y-120567424D01*
X120056398Y-120026470D01*
X119845328Y-119516903D01*
X119538902Y-119058304D01*
X119148896Y-118668298D01*
X118690297Y-118361872D01*
X118180730Y-118150802D01*
X117639776Y-118043200D01*
X117088224Y-118043200D01*
X116547270Y-118150802D01*
X116037703Y-118361872D01*
X115579104Y-118668298D01*
X115189098Y-119058304D01*
X114882672Y-119516903D01*
X114723000Y-119902385D01*
X114723000Y-85799015D01*
X114882672Y-86184497D01*
X115189098Y-86643096D01*
X115579104Y-87033102D01*
X116037703Y-87339528D01*
X116547270Y-87550598D01*
X117088224Y-87658200D01*
X117639776Y-87658200D01*
X118180730Y-87550598D01*
X118690297Y-87339528D01*
X119148896Y-87033102D01*
X119538902Y-86643096D01*
X119845328Y-86184497D01*
X120056398Y-85674930D01*
X120164000Y-85133976D01*
X120164000Y-84582424D01*
X120056398Y-84041470D01*
X119845328Y-83531903D01*
X119538902Y-83073304D01*
X119148896Y-82683298D01*
X118690297Y-82376872D01*
X118289859Y-82211005D01*
X122820254Y-82211004D01*
X122806409Y-82236906D01*
X122774959Y-82340581D01*
X122767001Y-82421382D01*
X122767001Y-82706726D01*
X122728842Y-82738042D01*
X122691353Y-82783723D01*
X122663496Y-82835840D01*
X122646341Y-82892390D01*
X122640549Y-82951200D01*
X122640549Y-83451200D01*
X122133929Y-83451200D01*
X122072400Y-83445140D01*
X121964582Y-83455759D01*
X121860906Y-83487209D01*
X121765358Y-83538279D01*
X121681610Y-83607010D01*
X121612879Y-83690758D01*
X121561809Y-83786306D01*
X121530359Y-83889982D01*
X121519740Y-83997800D01*
X121530359Y-84105618D01*
X121561809Y-84209294D01*
X121612879Y-84304842D01*
X121664387Y-84367604D01*
X121667787Y-84371004D01*
X121685010Y-84391990D01*
X121768758Y-84460721D01*
X121864306Y-84511792D01*
X121967981Y-84543242D01*
X122048782Y-84551200D01*
X122048791Y-84551200D01*
X122075799Y-84553860D01*
X122102807Y-84551200D01*
X122640549Y-84551200D01*
X122640549Y-85051200D01*
X122646341Y-85110010D01*
X122663496Y-85166560D01*
X122691353Y-85218677D01*
X122728842Y-85264358D01*
X122774523Y-85301847D01*
X122817001Y-85324552D01*
X122817001Y-85640421D01*
X122810815Y-85655355D01*
X122791600Y-85751954D01*
X122791600Y-85850446D01*
X122810815Y-85947045D01*
X122848506Y-86038039D01*
X122903225Y-86119931D01*
X122972869Y-86189575D01*
X123054761Y-86244294D01*
X123067931Y-86249749D01*
X122942000Y-86249749D01*
X122883190Y-86255541D01*
X122826640Y-86272696D01*
X122774523Y-86300553D01*
X122728842Y-86338042D01*
X122691353Y-86383723D01*
X122663496Y-86435840D01*
X122646341Y-86492390D01*
X122640549Y-86551200D01*
X122640549Y-88651200D01*
X122646341Y-88710010D01*
X122663496Y-88766560D01*
X122691353Y-88818677D01*
X122691832Y-88819261D01*
X121431424Y-90079671D01*
X121412336Y-90095336D01*
X121349854Y-90171471D01*
X121303425Y-90258334D01*
X121293854Y-90289886D01*
X121274835Y-90352583D01*
X121265181Y-90450600D01*
X121267600Y-90475160D01*
X121267601Y-105588630D01*
X121265181Y-105613200D01*
X121274835Y-105711217D01*
X121303426Y-105805467D01*
X121349855Y-105892329D01*
X121412337Y-105968464D01*
X121431419Y-105984124D01*
X122412675Y-106965381D01*
X122428336Y-106984464D01*
X122504471Y-107046946D01*
X122591333Y-107093375D01*
X122656992Y-107113292D01*
X122685582Y-107121965D01*
X122783600Y-107131619D01*
X122808160Y-107129200D01*
X123015956Y-107129200D01*
X123034484Y-107173929D01*
X123160337Y-107362282D01*
X123320518Y-107522463D01*
X123508871Y-107648316D01*
X123718157Y-107735006D01*
X123940335Y-107779200D01*
X124166865Y-107779200D01*
X124389043Y-107735006D01*
X124598329Y-107648316D01*
X124786682Y-107522463D01*
X124946863Y-107362282D01*
X125072716Y-107173929D01*
X125159406Y-106964643D01*
X125203600Y-106742465D01*
X125203600Y-106515935D01*
X125159406Y-106293757D01*
X125072716Y-106084471D01*
X124946863Y-105896118D01*
X124786682Y-105735937D01*
X124598329Y-105610084D01*
X124389043Y-105523394D01*
X124166865Y-105479200D01*
X123940335Y-105479200D01*
X123718157Y-105523394D01*
X123508871Y-105610084D01*
X123320518Y-105735937D01*
X123160337Y-105896118D01*
X123034484Y-106084471D01*
X123015956Y-106129200D01*
X122990706Y-106129200D01*
X122267600Y-105406095D01*
X122267600Y-103975935D01*
X122903600Y-103975935D01*
X122903600Y-104202465D01*
X122947794Y-104424643D01*
X123034484Y-104633929D01*
X123160337Y-104822282D01*
X123320518Y-104982463D01*
X123508871Y-105108316D01*
X123718157Y-105195006D01*
X123940335Y-105239200D01*
X124166865Y-105239200D01*
X124389043Y-105195006D01*
X124598329Y-105108316D01*
X124786682Y-104982463D01*
X124946863Y-104822282D01*
X125072716Y-104633929D01*
X125159406Y-104424643D01*
X125203600Y-104202465D01*
X125203600Y-103975935D01*
X125159406Y-103753757D01*
X125072716Y-103544471D01*
X124946863Y-103356118D01*
X124786682Y-103195937D01*
X124598329Y-103070084D01*
X124389043Y-102983394D01*
X124166865Y-102939200D01*
X123940335Y-102939200D01*
X123718157Y-102983394D01*
X123508871Y-103070084D01*
X123320518Y-103195937D01*
X123160337Y-103356118D01*
X123034484Y-103544471D01*
X122947794Y-103753757D01*
X122903600Y-103975935D01*
X122267600Y-103975935D01*
X122267600Y-101435935D01*
X122903600Y-101435935D01*
X122903600Y-101662465D01*
X122947794Y-101884643D01*
X123034484Y-102093929D01*
X123160337Y-102282282D01*
X123320518Y-102442463D01*
X123508871Y-102568316D01*
X123718157Y-102655006D01*
X123940335Y-102699200D01*
X124166865Y-102699200D01*
X124389043Y-102655006D01*
X124598329Y-102568316D01*
X124786682Y-102442463D01*
X124946863Y-102282282D01*
X125072716Y-102093929D01*
X125159406Y-101884643D01*
X125203600Y-101662465D01*
X125203600Y-101435935D01*
X125159406Y-101213757D01*
X125072716Y-101004471D01*
X124946863Y-100816118D01*
X124786682Y-100655937D01*
X124598329Y-100530084D01*
X124389043Y-100443394D01*
X124166865Y-100399200D01*
X123940335Y-100399200D01*
X123718157Y-100443394D01*
X123508871Y-100530084D01*
X123320518Y-100655937D01*
X123160337Y-100816118D01*
X123034484Y-101004471D01*
X122947794Y-101213757D01*
X122903600Y-101435935D01*
X122267600Y-101435935D01*
X122267600Y-98895935D01*
X122903600Y-98895935D01*
X122903600Y-99122465D01*
X122947794Y-99344643D01*
X123034484Y-99553929D01*
X123160337Y-99742282D01*
X123320518Y-99902463D01*
X123508871Y-100028316D01*
X123718157Y-100115006D01*
X123940335Y-100159200D01*
X124166865Y-100159200D01*
X124389043Y-100115006D01*
X124598329Y-100028316D01*
X124786682Y-99902463D01*
X124946863Y-99742282D01*
X125072716Y-99553929D01*
X125159406Y-99344643D01*
X125203600Y-99122465D01*
X125203600Y-98895935D01*
X125159406Y-98673757D01*
X125072716Y-98464471D01*
X124946863Y-98276118D01*
X124786682Y-98115937D01*
X124598329Y-97990084D01*
X124389043Y-97903394D01*
X124166865Y-97859200D01*
X123940335Y-97859200D01*
X123718157Y-97903394D01*
X123508871Y-97990084D01*
X123320518Y-98115937D01*
X123160337Y-98276118D01*
X123034484Y-98464471D01*
X122947794Y-98673757D01*
X122903600Y-98895935D01*
X122267600Y-98895935D01*
X122267600Y-93815935D01*
X122903600Y-93815935D01*
X122903600Y-94042465D01*
X122947794Y-94264643D01*
X123034484Y-94473929D01*
X123160337Y-94662282D01*
X123320518Y-94822463D01*
X123508871Y-94948316D01*
X123718157Y-95035006D01*
X123940335Y-95079200D01*
X124166865Y-95079200D01*
X124389043Y-95035006D01*
X124598329Y-94948316D01*
X124786682Y-94822463D01*
X124946863Y-94662282D01*
X125072716Y-94473929D01*
X125159406Y-94264643D01*
X125203600Y-94042465D01*
X125203600Y-93815935D01*
X125159406Y-93593757D01*
X125072716Y-93384471D01*
X124946863Y-93196118D01*
X124786682Y-93035937D01*
X124598329Y-92910084D01*
X124389043Y-92823394D01*
X124166865Y-92779200D01*
X123940335Y-92779200D01*
X123718157Y-92823394D01*
X123508871Y-92910084D01*
X123320518Y-93035937D01*
X123160337Y-93196118D01*
X123034484Y-93384471D01*
X122947794Y-93593757D01*
X122903600Y-93815935D01*
X122267600Y-93815935D01*
X122267600Y-90657705D01*
X123653187Y-89272120D01*
X123672264Y-89256464D01*
X123734746Y-89180329D01*
X123781175Y-89093467D01*
X123809765Y-88999217D01*
X123817000Y-88925760D01*
X123817000Y-88925751D01*
X123817125Y-88924485D01*
X123859477Y-88901847D01*
X123905158Y-88864358D01*
X123942647Y-88818677D01*
X123952000Y-88801179D01*
X123961353Y-88818677D01*
X123998842Y-88864358D01*
X124044523Y-88901847D01*
X124087000Y-88924551D01*
X124087000Y-88925759D01*
X124087001Y-88925768D01*
X124087000Y-89358039D01*
X124084581Y-89382600D01*
X124094235Y-89480617D01*
X124098667Y-89495226D01*
X124122825Y-89574866D01*
X124169254Y-89661729D01*
X124231736Y-89737864D01*
X124250824Y-89753529D01*
X127617601Y-93120308D01*
X127617601Y-93396264D01*
X127612716Y-93384471D01*
X127486863Y-93196118D01*
X127326682Y-93035937D01*
X127138329Y-92910084D01*
X126929043Y-92823394D01*
X126706865Y-92779200D01*
X126480335Y-92779200D01*
X126258157Y-92823394D01*
X126048871Y-92910084D01*
X125860518Y-93035937D01*
X125700337Y-93196118D01*
X125574484Y-93384471D01*
X125487794Y-93593757D01*
X125443600Y-93815935D01*
X125443600Y-94042465D01*
X125487794Y-94264643D01*
X125574484Y-94473929D01*
X125700337Y-94662282D01*
X125860518Y-94822463D01*
X126048871Y-94948316D01*
X126258157Y-95035006D01*
X126439598Y-95071097D01*
X126439598Y-95171349D01*
X126214689Y-95061291D01*
X125947300Y-95162265D01*
X125704748Y-95313464D01*
X125496354Y-95509078D01*
X125330127Y-95741589D01*
X125212454Y-96002061D01*
X125185697Y-96090290D01*
X125296710Y-96315198D01*
X125195497Y-96315198D01*
X125159406Y-96133757D01*
X125072716Y-95924471D01*
X124946863Y-95736118D01*
X124786682Y-95575937D01*
X124598329Y-95450084D01*
X124389043Y-95363394D01*
X124166865Y-95319200D01*
X123940335Y-95319200D01*
X123718157Y-95363394D01*
X123508871Y-95450084D01*
X123320518Y-95575937D01*
X123160337Y-95736118D01*
X123034484Y-95924471D01*
X122947794Y-96133757D01*
X122903600Y-96355935D01*
X122903600Y-96582465D01*
X122947794Y-96804643D01*
X123034484Y-97013929D01*
X123160337Y-97202282D01*
X123320518Y-97362463D01*
X123508871Y-97488316D01*
X123718157Y-97575006D01*
X123940335Y-97619200D01*
X124166865Y-97619200D01*
X124389043Y-97575006D01*
X124598329Y-97488316D01*
X124786682Y-97362463D01*
X124946863Y-97202282D01*
X125072716Y-97013929D01*
X125159406Y-96804643D01*
X125195497Y-96623202D01*
X125296710Y-96623202D01*
X125185697Y-96848110D01*
X125212454Y-96936339D01*
X125330127Y-97196811D01*
X125496354Y-97429322D01*
X125704748Y-97624936D01*
X125947300Y-97776135D01*
X126214689Y-97877109D01*
X126439598Y-97767051D01*
X126439598Y-97867303D01*
X126258157Y-97903394D01*
X126048871Y-97990084D01*
X125860518Y-98115937D01*
X125700337Y-98276118D01*
X125574484Y-98464471D01*
X125487794Y-98673757D01*
X125443600Y-98895935D01*
X125443600Y-99122465D01*
X125487794Y-99344643D01*
X125574484Y-99553929D01*
X125700337Y-99742282D01*
X125860518Y-99902463D01*
X126048871Y-100028316D01*
X126258157Y-100115006D01*
X126480335Y-100159200D01*
X126706865Y-100159200D01*
X126929043Y-100115006D01*
X127138329Y-100028316D01*
X127326682Y-99902463D01*
X127486863Y-99742282D01*
X127612716Y-99553929D01*
X127617600Y-99542137D01*
X127617600Y-101016263D01*
X127612716Y-101004471D01*
X127486863Y-100816118D01*
X127326682Y-100655937D01*
X127138329Y-100530084D01*
X126929043Y-100443394D01*
X126706865Y-100399200D01*
X126480335Y-100399200D01*
X126258157Y-100443394D01*
X126048871Y-100530084D01*
X125860518Y-100655937D01*
X125700337Y-100816118D01*
X125574484Y-101004471D01*
X125487794Y-101213757D01*
X125443600Y-101435935D01*
X125443600Y-101662465D01*
X125487794Y-101884643D01*
X125574484Y-102093929D01*
X125700337Y-102282282D01*
X125860518Y-102442463D01*
X126048871Y-102568316D01*
X126258157Y-102655006D01*
X126480335Y-102699200D01*
X126706865Y-102699200D01*
X126929043Y-102655006D01*
X127138329Y-102568316D01*
X127326682Y-102442463D01*
X127486863Y-102282282D01*
X127612716Y-102093929D01*
X127617600Y-102082137D01*
X127617600Y-103556262D01*
X127612716Y-103544471D01*
X127486863Y-103356118D01*
X127326682Y-103195937D01*
X127138329Y-103070084D01*
X126929043Y-102983394D01*
X126706865Y-102939200D01*
X126480335Y-102939200D01*
X126258157Y-102983394D01*
X126048871Y-103070084D01*
X125860518Y-103195937D01*
X125700337Y-103356118D01*
X125574484Y-103544471D01*
X125487794Y-103753757D01*
X125443600Y-103975935D01*
X125443600Y-104202465D01*
X125487794Y-104424643D01*
X125574484Y-104633929D01*
X125700337Y-104822282D01*
X125860518Y-104982463D01*
X126048871Y-105108316D01*
X126258157Y-105195006D01*
X126480335Y-105239200D01*
X126706865Y-105239200D01*
X126929043Y-105195006D01*
X127138329Y-105108316D01*
X127326682Y-104982463D01*
X127486863Y-104822282D01*
X127612716Y-104633929D01*
X127617600Y-104622138D01*
X127617600Y-105914094D01*
X127546429Y-105985265D01*
X127486863Y-105896118D01*
X127326682Y-105735937D01*
X127138329Y-105610084D01*
X126929043Y-105523394D01*
X126706865Y-105479200D01*
X126480335Y-105479200D01*
X126258157Y-105523394D01*
X126048871Y-105610084D01*
X125860518Y-105735937D01*
X125700337Y-105896118D01*
X125574484Y-106084471D01*
X125487794Y-106293757D01*
X125443600Y-106515935D01*
X125443600Y-106742465D01*
X125487794Y-106964643D01*
X125574484Y-107173929D01*
X125700337Y-107362282D01*
X125860518Y-107522463D01*
X125930464Y-107569199D01*
X125249467Y-107569199D01*
X125228600Y-107567144D01*
X125207733Y-107569199D01*
X125207727Y-107569199D01*
X125153699Y-107574520D01*
X125145286Y-107575349D01*
X125120984Y-107582721D01*
X125065174Y-107599651D01*
X124991341Y-107639115D01*
X124926627Y-107692225D01*
X124913322Y-107708437D01*
X124617843Y-108003917D01*
X124617838Y-108003921D01*
X124508771Y-108112988D01*
X124389043Y-108063394D01*
X124166865Y-108019200D01*
X123940335Y-108019200D01*
X123718157Y-108063394D01*
X123508871Y-108150084D01*
X123320518Y-108275937D01*
X123160337Y-108436118D01*
X123034484Y-108624471D01*
X122947794Y-108833757D01*
X122903600Y-109055935D01*
X122903600Y-109282465D01*
X122947794Y-109504643D01*
X123034484Y-109713929D01*
X123160337Y-109902282D01*
X123320518Y-110062463D01*
X123508871Y-110188316D01*
X123718157Y-110275006D01*
X123940335Y-110319200D01*
X124166865Y-110319200D01*
X124389043Y-110275006D01*
X124598329Y-110188316D01*
X124786682Y-110062463D01*
X124946863Y-109902282D01*
X125072716Y-109713929D01*
X125159406Y-109504643D01*
X125203600Y-109282465D01*
X125203600Y-109055935D01*
X125159406Y-108833757D01*
X125109812Y-108714029D01*
X125218879Y-108604962D01*
X125218883Y-108604957D01*
X125404642Y-108419199D01*
X125717256Y-108419199D01*
X125700337Y-108436118D01*
X125574484Y-108624471D01*
X125487794Y-108833757D01*
X125443600Y-109055935D01*
X125443600Y-109282465D01*
X125487794Y-109504643D01*
X125574484Y-109713929D01*
X125700337Y-109902282D01*
X125812255Y-110014200D01*
X125344466Y-110014200D01*
X125323599Y-110012145D01*
X125302732Y-110014200D01*
X125302726Y-110014200D01*
X125248698Y-110019521D01*
X125240285Y-110020350D01*
X125215983Y-110027722D01*
X125160173Y-110044652D01*
X125086340Y-110084116D01*
X125021626Y-110137226D01*
X125008321Y-110153438D01*
X124508772Y-110652988D01*
X124389043Y-110603394D01*
X124166865Y-110559200D01*
X123940335Y-110559200D01*
X123718157Y-110603394D01*
X123508871Y-110690084D01*
X123320518Y-110815937D01*
X123160337Y-110976118D01*
X123034484Y-111164471D01*
X122947794Y-111373757D01*
X122903600Y-111595935D01*
X122903600Y-111822465D01*
X122947794Y-112044643D01*
X123034484Y-112253929D01*
X123160337Y-112442282D01*
X123320518Y-112602463D01*
X123508871Y-112728316D01*
X123718157Y-112815006D01*
X123940335Y-112859200D01*
X124166865Y-112859200D01*
X124389043Y-112815006D01*
X124598329Y-112728316D01*
X124786682Y-112602463D01*
X124946863Y-112442282D01*
X125072716Y-112253929D01*
X125159406Y-112044643D01*
X125203600Y-111822465D01*
X125203600Y-111595935D01*
X125159406Y-111373757D01*
X125109812Y-111254028D01*
X125499641Y-110864200D01*
X125812255Y-110864200D01*
X125700337Y-110976118D01*
X125574484Y-111164471D01*
X125487794Y-111373757D01*
X125443600Y-111595935D01*
X125443600Y-111822465D01*
X125487794Y-112044643D01*
X125574484Y-112253929D01*
X125700337Y-112442282D01*
X125812255Y-112554200D01*
X125344466Y-112554200D01*
X125323599Y-112552145D01*
X125302732Y-112554200D01*
X125302726Y-112554200D01*
X125248698Y-112559521D01*
X125240285Y-112560350D01*
X125215983Y-112567722D01*
X125160173Y-112584652D01*
X125086340Y-112624116D01*
X125021626Y-112677226D01*
X125008321Y-112693438D01*
X124508772Y-113192988D01*
X124389043Y-113143394D01*
X124166865Y-113099200D01*
X123940335Y-113099200D01*
X123718157Y-113143394D01*
X123508871Y-113230084D01*
X123320518Y-113355937D01*
X123160337Y-113516118D01*
X123034484Y-113704471D01*
X122947794Y-113913757D01*
X122903600Y-114135935D01*
X122903600Y-114362465D01*
X122947794Y-114584643D01*
X123034484Y-114793929D01*
X123160337Y-114982282D01*
X123320518Y-115142463D01*
X123508871Y-115268316D01*
X123718157Y-115355006D01*
X123940335Y-115399200D01*
X124166865Y-115399200D01*
X124389043Y-115355006D01*
X124598329Y-115268316D01*
X124786682Y-115142463D01*
X124946863Y-114982282D01*
X125072716Y-114793929D01*
X125159406Y-114584643D01*
X125203600Y-114362465D01*
X125203600Y-114135935D01*
X125159406Y-113913757D01*
X125109812Y-113794028D01*
X125499641Y-113404200D01*
X125812255Y-113404200D01*
X125700337Y-113516118D01*
X125574484Y-113704471D01*
X125487794Y-113913757D01*
X125443600Y-114135935D01*
X125443600Y-114362465D01*
X125487794Y-114584643D01*
X125574484Y-114793929D01*
X125700337Y-114982282D01*
X125812255Y-115094200D01*
X125344466Y-115094200D01*
X125323599Y-115092145D01*
X125302732Y-115094200D01*
X125302726Y-115094200D01*
X125248698Y-115099521D01*
X125240285Y-115100350D01*
X125215983Y-115107722D01*
X125160173Y-115124652D01*
X125086340Y-115164116D01*
X125021626Y-115217226D01*
X125008321Y-115233438D01*
X124508772Y-115732988D01*
X124389043Y-115683394D01*
X124166865Y-115639200D01*
X123940335Y-115639200D01*
X123718157Y-115683394D01*
X123508871Y-115770084D01*
X123320518Y-115895937D01*
X123160337Y-116056118D01*
X123034484Y-116244471D01*
X122947794Y-116453757D01*
X122903600Y-116675935D01*
X122903600Y-116902465D01*
X122947794Y-117124643D01*
X123034484Y-117333929D01*
X123160337Y-117522282D01*
X123320518Y-117682463D01*
X123508871Y-117808316D01*
X123718157Y-117895006D01*
X123940335Y-117939200D01*
X124166865Y-117939200D01*
X124389043Y-117895006D01*
X124598329Y-117808316D01*
X124786682Y-117682463D01*
X124946863Y-117522282D01*
X125072716Y-117333929D01*
X125159406Y-117124643D01*
X125203600Y-116902465D01*
X125203600Y-116675935D01*
X125159406Y-116453757D01*
X125109812Y-116334028D01*
X125442149Y-116001692D01*
X125442149Y-117639200D01*
X125447941Y-117698010D01*
X125465096Y-117754560D01*
X125492953Y-117806677D01*
X125530442Y-117852358D01*
X125576123Y-117889847D01*
X125628240Y-117917704D01*
X125684790Y-117934859D01*
X125743600Y-117940651D01*
X127443600Y-117940651D01*
X127502410Y-117934859D01*
X127558960Y-117917704D01*
X127611077Y-117889847D01*
X127656758Y-117852358D01*
X127694247Y-117806677D01*
X127722104Y-117754560D01*
X127739259Y-117698010D01*
X127745051Y-117639200D01*
X127745051Y-117214200D01*
X127842733Y-117214200D01*
X127863600Y-117216255D01*
X127884467Y-117214200D01*
X127884474Y-117214200D01*
X127946914Y-117208050D01*
X128027027Y-117183748D01*
X128056284Y-117168110D01*
X142711697Y-117168110D01*
X142738454Y-117256339D01*
X142856127Y-117516811D01*
X143022354Y-117749322D01*
X143230748Y-117944936D01*
X143473300Y-118096135D01*
X143740689Y-118197109D01*
X143965600Y-118087050D01*
X143965600Y-116943200D01*
X142822711Y-116943200D01*
X142711697Y-117168110D01*
X128056284Y-117168110D01*
X128100860Y-117144284D01*
X128165574Y-117091174D01*
X128178884Y-117074956D01*
X135032756Y-110221084D01*
X135048974Y-110207774D01*
X135102084Y-110143060D01*
X135141548Y-110069227D01*
X135165850Y-109989114D01*
X135172000Y-109926674D01*
X135172000Y-109926667D01*
X135174055Y-109905800D01*
X135172000Y-109884933D01*
X135172000Y-89036899D01*
X135209999Y-89083201D01*
X135302579Y-89159180D01*
X135408203Y-89215637D01*
X135522811Y-89250403D01*
X135642000Y-89262142D01*
X135711000Y-89259200D01*
X135863000Y-89107200D01*
X135863000Y-87755200D01*
X135843000Y-87755200D01*
X135843000Y-87447200D01*
X135863000Y-87447200D01*
X135863000Y-87427200D01*
X136171000Y-87427200D01*
X136171000Y-87447200D01*
X136191000Y-87447200D01*
X136191000Y-87755200D01*
X136171000Y-87755200D01*
X136171000Y-89107200D01*
X136323000Y-89259200D01*
X136392000Y-89262142D01*
X136511189Y-89250403D01*
X136625797Y-89215637D01*
X136731421Y-89159180D01*
X136824001Y-89083201D01*
X136862001Y-89036898D01*
X136862000Y-109935733D01*
X136859945Y-109956600D01*
X136862000Y-109977467D01*
X136862000Y-109977473D01*
X136866223Y-110020350D01*
X136868150Y-110039914D01*
X136869588Y-110044653D01*
X136892452Y-110120026D01*
X136931916Y-110193859D01*
X136985026Y-110258574D01*
X137001244Y-110271884D01*
X142534319Y-115804960D01*
X142547626Y-115821174D01*
X142612340Y-115874284D01*
X142686173Y-115913748D01*
X142741983Y-115930678D01*
X142766285Y-115938050D01*
X142774698Y-115938879D01*
X142828726Y-115944200D01*
X142828732Y-115944200D01*
X142849599Y-115946255D01*
X142870466Y-115944200D01*
X142940051Y-115944200D01*
X142856127Y-116061589D01*
X142738454Y-116322061D01*
X142711697Y-116410290D01*
X142822711Y-116635200D01*
X143965600Y-116635200D01*
X143965600Y-116615200D01*
X144273600Y-116615200D01*
X144273600Y-116635200D01*
X144293600Y-116635200D01*
X144293600Y-116943200D01*
X144273600Y-116943200D01*
X144273600Y-118087050D01*
X144498511Y-118197109D01*
X144765900Y-118096135D01*
X145008452Y-117944936D01*
X145216846Y-117749322D01*
X145383073Y-117516811D01*
X145500746Y-117256339D01*
X145508149Y-117231928D01*
X145508149Y-117639200D01*
X145513941Y-117698010D01*
X145531096Y-117754560D01*
X145558953Y-117806677D01*
X145596442Y-117852358D01*
X145642123Y-117889847D01*
X145694240Y-117917704D01*
X145750790Y-117934859D01*
X145809600Y-117940651D01*
X147509600Y-117940651D01*
X147568410Y-117934859D01*
X147624960Y-117917704D01*
X147677077Y-117889847D01*
X147722758Y-117852358D01*
X147760247Y-117806677D01*
X147788104Y-117754560D01*
X147805259Y-117698010D01*
X147811051Y-117639200D01*
X147811051Y-115939200D01*
X147805259Y-115880390D01*
X147788104Y-115823840D01*
X147760247Y-115771723D01*
X147722758Y-115726042D01*
X147677077Y-115688553D01*
X147624960Y-115660696D01*
X147568410Y-115643541D01*
X147509600Y-115637749D01*
X146109189Y-115637749D01*
X145704883Y-115233443D01*
X145691574Y-115217226D01*
X145626860Y-115164116D01*
X145553027Y-115124652D01*
X145472914Y-115100350D01*
X145410474Y-115094200D01*
X145410467Y-115094200D01*
X145389600Y-115092145D01*
X145368733Y-115094200D01*
X144900945Y-115094200D01*
X145012863Y-114982282D01*
X145138716Y-114793929D01*
X145225406Y-114584643D01*
X145269600Y-114362465D01*
X145269600Y-114135935D01*
X145225406Y-113913757D01*
X145138716Y-113704471D01*
X145012863Y-113516118D01*
X144900945Y-113404200D01*
X145213560Y-113404200D01*
X145523840Y-113714481D01*
X145523845Y-113714485D01*
X145603388Y-113794028D01*
X145553794Y-113913757D01*
X145509600Y-114135935D01*
X145509600Y-114362465D01*
X145553794Y-114584643D01*
X145640484Y-114793929D01*
X145766337Y-114982282D01*
X145926518Y-115142463D01*
X146114871Y-115268316D01*
X146324157Y-115355006D01*
X146546335Y-115399200D01*
X146772865Y-115399200D01*
X146995043Y-115355006D01*
X147204329Y-115268316D01*
X147392682Y-115142463D01*
X147552863Y-114982282D01*
X147678716Y-114793929D01*
X147765406Y-114584643D01*
X147809600Y-114362465D01*
X147809600Y-114135935D01*
X147765406Y-113913757D01*
X147678716Y-113704471D01*
X147552863Y-113516118D01*
X147392682Y-113355937D01*
X147204329Y-113230084D01*
X146995043Y-113143394D01*
X146772865Y-113099200D01*
X146546335Y-113099200D01*
X146324157Y-113143394D01*
X146204428Y-113192988D01*
X146124885Y-113113445D01*
X146124881Y-113113440D01*
X145704883Y-112693443D01*
X145691574Y-112677226D01*
X145626860Y-112624116D01*
X145553027Y-112584652D01*
X145472914Y-112560350D01*
X145410474Y-112554200D01*
X145410467Y-112554200D01*
X145389600Y-112552145D01*
X145368733Y-112554200D01*
X144900945Y-112554200D01*
X145012863Y-112442282D01*
X145138716Y-112253929D01*
X145225406Y-112044643D01*
X145269600Y-111822465D01*
X145269600Y-111595935D01*
X145225406Y-111373757D01*
X145138716Y-111164471D01*
X145012863Y-110976118D01*
X144900945Y-110864200D01*
X145213560Y-110864200D01*
X145523840Y-111174481D01*
X145523845Y-111174485D01*
X145603388Y-111254028D01*
X145553794Y-111373757D01*
X145509600Y-111595935D01*
X145509600Y-111822465D01*
X145553794Y-112044643D01*
X145640484Y-112253929D01*
X145766337Y-112442282D01*
X145926518Y-112602463D01*
X146114871Y-112728316D01*
X146324157Y-112815006D01*
X146546335Y-112859200D01*
X146772865Y-112859200D01*
X146995043Y-112815006D01*
X147204329Y-112728316D01*
X147392682Y-112602463D01*
X147552863Y-112442282D01*
X147678716Y-112253929D01*
X147765406Y-112044643D01*
X147809600Y-111822465D01*
X147809600Y-111595935D01*
X147765406Y-111373757D01*
X147678716Y-111164471D01*
X147552863Y-110976118D01*
X147392682Y-110815937D01*
X147204329Y-110690084D01*
X146995043Y-110603394D01*
X146772865Y-110559200D01*
X146546335Y-110559200D01*
X146324157Y-110603394D01*
X146204428Y-110652988D01*
X146124885Y-110573445D01*
X146124881Y-110573440D01*
X145704883Y-110153443D01*
X145691574Y-110137226D01*
X145626860Y-110084116D01*
X145553027Y-110044652D01*
X145472914Y-110020350D01*
X145410474Y-110014200D01*
X145410467Y-110014200D01*
X145389600Y-110012145D01*
X145368733Y-110014200D01*
X144900945Y-110014200D01*
X145012863Y-109902282D01*
X145138716Y-109713929D01*
X145225406Y-109504643D01*
X145269600Y-109282465D01*
X145269600Y-109055935D01*
X145225406Y-108833757D01*
X145138716Y-108624471D01*
X145012863Y-108436118D01*
X144900945Y-108324200D01*
X145213560Y-108324200D01*
X145603388Y-108714028D01*
X145553794Y-108833757D01*
X145509600Y-109055935D01*
X145509600Y-109282465D01*
X145553794Y-109504643D01*
X145640484Y-109713929D01*
X145766337Y-109902282D01*
X145926518Y-110062463D01*
X146114871Y-110188316D01*
X146324157Y-110275006D01*
X146546335Y-110319200D01*
X146772865Y-110319200D01*
X146995043Y-110275006D01*
X147204329Y-110188316D01*
X147392682Y-110062463D01*
X147552863Y-109902282D01*
X147678716Y-109713929D01*
X147765406Y-109504643D01*
X147809600Y-109282465D01*
X147809600Y-109055935D01*
X147765406Y-108833757D01*
X147678716Y-108624471D01*
X147552863Y-108436118D01*
X147392682Y-108275937D01*
X147204329Y-108150084D01*
X146995043Y-108063394D01*
X146813602Y-108027303D01*
X146813602Y-107927051D01*
X147038511Y-108037109D01*
X147305900Y-107936135D01*
X147548452Y-107784936D01*
X147756846Y-107589322D01*
X147923073Y-107356811D01*
X148040746Y-107096339D01*
X148067503Y-107008110D01*
X147956489Y-106783200D01*
X146813600Y-106783200D01*
X146813600Y-106803200D01*
X146505600Y-106803200D01*
X146505600Y-106783200D01*
X146485600Y-106783200D01*
X146485600Y-106475200D01*
X146505600Y-106475200D01*
X146505600Y-106455200D01*
X146813600Y-106455200D01*
X146813600Y-106475200D01*
X147956489Y-106475200D01*
X148067503Y-106250290D01*
X148040746Y-106162061D01*
X147923073Y-105901589D01*
X147756846Y-105669078D01*
X147548452Y-105473464D01*
X147305900Y-105322265D01*
X147038511Y-105221291D01*
X146813602Y-105331349D01*
X146813602Y-105231097D01*
X146995043Y-105195006D01*
X147204329Y-105108316D01*
X147392682Y-104982463D01*
X147552863Y-104822282D01*
X147678716Y-104633929D01*
X147765406Y-104424643D01*
X147809600Y-104202465D01*
X147809600Y-103975935D01*
X147765406Y-103753757D01*
X147678716Y-103544471D01*
X147552863Y-103356118D01*
X147392682Y-103195937D01*
X147204329Y-103070084D01*
X146995043Y-102983394D01*
X146772865Y-102939200D01*
X146546335Y-102939200D01*
X146324157Y-102983394D01*
X146114871Y-103070084D01*
X145926518Y-103195937D01*
X145766337Y-103356118D01*
X145640484Y-103544471D01*
X145553794Y-103753757D01*
X145509600Y-103975935D01*
X145509600Y-104202465D01*
X145553794Y-104424643D01*
X145640484Y-104633929D01*
X145766337Y-104822282D01*
X145926518Y-104982463D01*
X146114871Y-105108316D01*
X146324157Y-105195006D01*
X146505598Y-105231097D01*
X146505598Y-105331349D01*
X146280689Y-105221291D01*
X146013300Y-105322265D01*
X145770748Y-105473464D01*
X145562354Y-105669078D01*
X145396127Y-105901589D01*
X145278454Y-106162061D01*
X145251697Y-106250290D01*
X145362710Y-106475198D01*
X145261497Y-106475198D01*
X145225406Y-106293757D01*
X145138716Y-106084471D01*
X145012863Y-105896118D01*
X144852682Y-105735937D01*
X144664329Y-105610084D01*
X144455043Y-105523394D01*
X144232865Y-105479200D01*
X144006335Y-105479200D01*
X143784157Y-105523394D01*
X143664428Y-105572988D01*
X143020600Y-104929160D01*
X143020600Y-104441074D01*
X143100484Y-104633929D01*
X143226337Y-104822282D01*
X143386518Y-104982463D01*
X143574871Y-105108316D01*
X143784157Y-105195006D01*
X144006335Y-105239200D01*
X144232865Y-105239200D01*
X144455043Y-105195006D01*
X144664329Y-105108316D01*
X144852682Y-104982463D01*
X145012863Y-104822282D01*
X145138716Y-104633929D01*
X145225406Y-104424643D01*
X145269600Y-104202465D01*
X145269600Y-103975935D01*
X145225406Y-103753757D01*
X145138716Y-103544471D01*
X145012863Y-103356118D01*
X144852682Y-103195937D01*
X144664329Y-103070084D01*
X144455043Y-102983394D01*
X144232865Y-102939200D01*
X144006335Y-102939200D01*
X143784157Y-102983394D01*
X143574871Y-103070084D01*
X143386518Y-103195937D01*
X143226337Y-103356118D01*
X143100484Y-103544471D01*
X143020600Y-103737326D01*
X143020600Y-101901074D01*
X143100484Y-102093929D01*
X143226337Y-102282282D01*
X143386518Y-102442463D01*
X143574871Y-102568316D01*
X143784157Y-102655006D01*
X144006335Y-102699200D01*
X144232865Y-102699200D01*
X144455043Y-102655006D01*
X144664329Y-102568316D01*
X144852682Y-102442463D01*
X145012863Y-102282282D01*
X145138716Y-102093929D01*
X145225406Y-101884643D01*
X145269600Y-101662465D01*
X145269600Y-101435935D01*
X145225406Y-101213757D01*
X145138716Y-101004471D01*
X145012863Y-100816118D01*
X144852682Y-100655937D01*
X144664329Y-100530084D01*
X144455043Y-100443394D01*
X144232865Y-100399200D01*
X144006335Y-100399200D01*
X143784157Y-100443394D01*
X143574871Y-100530084D01*
X143386518Y-100655937D01*
X143226337Y-100816118D01*
X143100484Y-101004471D01*
X143020600Y-101197326D01*
X143020600Y-99361074D01*
X143100484Y-99553929D01*
X143226337Y-99742282D01*
X143386518Y-99902463D01*
X143574871Y-100028316D01*
X143784157Y-100115006D01*
X144006335Y-100159200D01*
X144232865Y-100159200D01*
X144455043Y-100115006D01*
X144664329Y-100028316D01*
X144852682Y-99902463D01*
X145012863Y-99742282D01*
X145138716Y-99553929D01*
X145225406Y-99344643D01*
X145261497Y-99163202D01*
X145362710Y-99163202D01*
X145251697Y-99388110D01*
X145278454Y-99476339D01*
X145396127Y-99736811D01*
X145562354Y-99969322D01*
X145770748Y-100164936D01*
X146013300Y-100316135D01*
X146280689Y-100417109D01*
X146505598Y-100307051D01*
X146505598Y-100407303D01*
X146324157Y-100443394D01*
X146114871Y-100530084D01*
X145926518Y-100655937D01*
X145766337Y-100816118D01*
X145640484Y-101004471D01*
X145553794Y-101213757D01*
X145509600Y-101435935D01*
X145509600Y-101662465D01*
X145553794Y-101884643D01*
X145640484Y-102093929D01*
X145766337Y-102282282D01*
X145926518Y-102442463D01*
X146114871Y-102568316D01*
X146324157Y-102655006D01*
X146546335Y-102699200D01*
X146772865Y-102699200D01*
X146995043Y-102655006D01*
X147204329Y-102568316D01*
X147392682Y-102442463D01*
X147552863Y-102282282D01*
X147678716Y-102093929D01*
X147765406Y-101884643D01*
X147809600Y-101662465D01*
X147809600Y-101435935D01*
X147765406Y-101213757D01*
X147678716Y-101004471D01*
X147552863Y-100816118D01*
X147392682Y-100655937D01*
X147204329Y-100530084D01*
X146995043Y-100443394D01*
X146813602Y-100407303D01*
X146813602Y-100307051D01*
X147038511Y-100417109D01*
X147305900Y-100316135D01*
X147548452Y-100164936D01*
X147756846Y-99969322D01*
X147923073Y-99736811D01*
X148040746Y-99476339D01*
X148067503Y-99388110D01*
X147956489Y-99163200D01*
X146813600Y-99163200D01*
X146813600Y-99183200D01*
X146505600Y-99183200D01*
X146505600Y-99163200D01*
X146485600Y-99163200D01*
X146485600Y-98855200D01*
X146505600Y-98855200D01*
X146505600Y-98835200D01*
X146813600Y-98835200D01*
X146813600Y-98855200D01*
X147956489Y-98855200D01*
X148067503Y-98630290D01*
X148040746Y-98542061D01*
X147923073Y-98281589D01*
X147756846Y-98049078D01*
X147548452Y-97853464D01*
X147305900Y-97702265D01*
X147038511Y-97601291D01*
X146813602Y-97711349D01*
X146813602Y-97611097D01*
X146995043Y-97575006D01*
X147204329Y-97488316D01*
X147392682Y-97362463D01*
X147552863Y-97202282D01*
X147678716Y-97013929D01*
X147765406Y-96804643D01*
X147809600Y-96582465D01*
X147809600Y-96355935D01*
X147765406Y-96133757D01*
X147678716Y-95924471D01*
X147552863Y-95736118D01*
X147392682Y-95575937D01*
X147204329Y-95450084D01*
X146995043Y-95363394D01*
X146772865Y-95319200D01*
X146546335Y-95319200D01*
X146324157Y-95363394D01*
X146114871Y-95450084D01*
X145926518Y-95575937D01*
X145766337Y-95736118D01*
X145640484Y-95924471D01*
X145553794Y-96133757D01*
X145509600Y-96355935D01*
X145509600Y-96582465D01*
X145553794Y-96804643D01*
X145640484Y-97013929D01*
X145766337Y-97202282D01*
X145926518Y-97362463D01*
X146114871Y-97488316D01*
X146324157Y-97575006D01*
X146505598Y-97611097D01*
X146505598Y-97711349D01*
X146280689Y-97601291D01*
X146013300Y-97702265D01*
X145770748Y-97853464D01*
X145562354Y-98049078D01*
X145396127Y-98281589D01*
X145278454Y-98542061D01*
X145251697Y-98630290D01*
X145362710Y-98855198D01*
X145261497Y-98855198D01*
X145225406Y-98673757D01*
X145138716Y-98464471D01*
X145012863Y-98276118D01*
X144852682Y-98115937D01*
X144664329Y-97990084D01*
X144455043Y-97903394D01*
X144232865Y-97859200D01*
X144006335Y-97859200D01*
X143784157Y-97903394D01*
X143574871Y-97990084D01*
X143386518Y-98115937D01*
X143226337Y-98276118D01*
X143100484Y-98464471D01*
X143020600Y-98657326D01*
X143020600Y-96821074D01*
X143100484Y-97013929D01*
X143226337Y-97202282D01*
X143386518Y-97362463D01*
X143574871Y-97488316D01*
X143784157Y-97575006D01*
X144006335Y-97619200D01*
X144232865Y-97619200D01*
X144455043Y-97575006D01*
X144664329Y-97488316D01*
X144852682Y-97362463D01*
X145012863Y-97202282D01*
X145138716Y-97013929D01*
X145225406Y-96804643D01*
X145269600Y-96582465D01*
X145269600Y-96355935D01*
X145225406Y-96133757D01*
X145138716Y-95924471D01*
X145012863Y-95736118D01*
X144852682Y-95575937D01*
X144664329Y-95450084D01*
X144455043Y-95363394D01*
X144232865Y-95319200D01*
X144006335Y-95319200D01*
X143784157Y-95363394D01*
X143574871Y-95450084D01*
X143386518Y-95575937D01*
X143226337Y-95736118D01*
X143100484Y-95924471D01*
X143020600Y-96117326D01*
X143020600Y-94281074D01*
X143100484Y-94473929D01*
X143226337Y-94662282D01*
X143386518Y-94822463D01*
X143574871Y-94948316D01*
X143784157Y-95035006D01*
X144006335Y-95079200D01*
X144232865Y-95079200D01*
X144455043Y-95035006D01*
X144664329Y-94948316D01*
X144852682Y-94822463D01*
X145012863Y-94662282D01*
X145138716Y-94473929D01*
X145225406Y-94264643D01*
X145269600Y-94042465D01*
X145269600Y-93815935D01*
X145509600Y-93815935D01*
X145509600Y-94042465D01*
X145553794Y-94264643D01*
X145640484Y-94473929D01*
X145766337Y-94662282D01*
X145926518Y-94822463D01*
X146114871Y-94948316D01*
X146324157Y-95035006D01*
X146546335Y-95079200D01*
X146772865Y-95079200D01*
X146995043Y-95035006D01*
X147204329Y-94948316D01*
X147392682Y-94822463D01*
X147552863Y-94662282D01*
X147678716Y-94473929D01*
X147765406Y-94264643D01*
X147809600Y-94042465D01*
X147809600Y-93815935D01*
X147765406Y-93593757D01*
X147678716Y-93384471D01*
X147552863Y-93196118D01*
X147392682Y-93035937D01*
X147204329Y-92910084D01*
X146995043Y-92823394D01*
X146772865Y-92779200D01*
X146546335Y-92779200D01*
X146324157Y-92823394D01*
X146114871Y-92910084D01*
X145926518Y-93035937D01*
X145766337Y-93196118D01*
X145640484Y-93384471D01*
X145553794Y-93593757D01*
X145509600Y-93815935D01*
X145269600Y-93815935D01*
X145225406Y-93593757D01*
X145138716Y-93384471D01*
X145012863Y-93196118D01*
X144852682Y-93035937D01*
X144664329Y-92910084D01*
X144455043Y-92823394D01*
X144232865Y-92779200D01*
X144006335Y-92779200D01*
X143784157Y-92823394D01*
X143574871Y-92910084D01*
X143386518Y-93035937D01*
X143226337Y-93196118D01*
X143100484Y-93384471D01*
X143020600Y-93577326D01*
X143020600Y-93089240D01*
X146462763Y-89647078D01*
X146478974Y-89633774D01*
X146532084Y-89569060D01*
X146571548Y-89495227D01*
X146595850Y-89415114D01*
X146602000Y-89352674D01*
X146602000Y-89352668D01*
X146604055Y-89331801D01*
X146602000Y-89310934D01*
X146602000Y-89036899D01*
X146639999Y-89083201D01*
X146732579Y-89159180D01*
X146838203Y-89215637D01*
X146952811Y-89250403D01*
X147072000Y-89262142D01*
X147141000Y-89259200D01*
X147293000Y-89107200D01*
X147293000Y-87755200D01*
X147601000Y-87755200D01*
X147601000Y-89107200D01*
X147753000Y-89259200D01*
X147822000Y-89262142D01*
X147941189Y-89250403D01*
X148055797Y-89215637D01*
X148161421Y-89159180D01*
X148254001Y-89083201D01*
X148329980Y-88990621D01*
X148386437Y-88884997D01*
X148421203Y-88770389D01*
X148432942Y-88651200D01*
X148430000Y-87907200D01*
X148278000Y-87755200D01*
X147601000Y-87755200D01*
X147293000Y-87755200D01*
X147273000Y-87755200D01*
X147273000Y-87447200D01*
X147293000Y-87447200D01*
X147293000Y-87427200D01*
X147601000Y-87427200D01*
X147601000Y-87447200D01*
X148278000Y-87447200D01*
X148430000Y-87295200D01*
X148432942Y-86551200D01*
X148421203Y-86432011D01*
X148386437Y-86317403D01*
X148329980Y-86211779D01*
X148254001Y-86119199D01*
X148161421Y-86043220D01*
X148055797Y-85986763D01*
X147941189Y-85951997D01*
X147916231Y-85949539D01*
X147927785Y-85921645D01*
X147947000Y-85825046D01*
X147947000Y-85726554D01*
X147927785Y-85629955D01*
X147890094Y-85538961D01*
X147872000Y-85511882D01*
X147872000Y-85347727D01*
X147880810Y-85346859D01*
X147937360Y-85329704D01*
X147989477Y-85301847D01*
X148035158Y-85264358D01*
X148072647Y-85218677D01*
X148100504Y-85166560D01*
X148117659Y-85110010D01*
X148123451Y-85051200D01*
X148123451Y-82951200D01*
X148117659Y-82892390D01*
X148100504Y-82835840D01*
X148072647Y-82783723D01*
X148035158Y-82738042D01*
X147989477Y-82700553D01*
X147937360Y-82672696D01*
X147880810Y-82655541D01*
X147822000Y-82649749D01*
X147072000Y-82649749D01*
X147013190Y-82655541D01*
X146956640Y-82672696D01*
X146904523Y-82700553D01*
X146858842Y-82738042D01*
X146821353Y-82783723D01*
X146812000Y-82801221D01*
X146802647Y-82783723D01*
X146765158Y-82738042D01*
X146719477Y-82700553D01*
X146667360Y-82672696D01*
X146610810Y-82655541D01*
X146552000Y-82649749D01*
X145802000Y-82649749D01*
X145743190Y-82655541D01*
X145686640Y-82672696D01*
X145634523Y-82700553D01*
X145588842Y-82738042D01*
X145551353Y-82783723D01*
X145542000Y-82801221D01*
X145532647Y-82783723D01*
X145495158Y-82738042D01*
X145449477Y-82700553D01*
X145397360Y-82672696D01*
X145340810Y-82655541D01*
X145282000Y-82649749D01*
X144532000Y-82649749D01*
X144473190Y-82655541D01*
X144416640Y-82672696D01*
X144364523Y-82700553D01*
X144318842Y-82738042D01*
X144281353Y-82783723D01*
X144272000Y-82801221D01*
X144262647Y-82783723D01*
X144225158Y-82738042D01*
X144179477Y-82700553D01*
X144127360Y-82672696D01*
X144070810Y-82655541D01*
X144012000Y-82649749D01*
X143270275Y-82649749D01*
X143249980Y-82611779D01*
X143174001Y-82519199D01*
X143081421Y-82443220D01*
X142975797Y-82386763D01*
X142861189Y-82351997D01*
X142742000Y-82340258D01*
X142673000Y-82343200D01*
X142521000Y-82495200D01*
X142521000Y-83847200D01*
X142541000Y-83847200D01*
X142541000Y-84155200D01*
X142521000Y-84155200D01*
X142521000Y-84175200D01*
X142213000Y-84175200D01*
X142213000Y-84155200D01*
X142193000Y-84155200D01*
X142193000Y-83847200D01*
X142213000Y-83847200D01*
X142213000Y-82495200D01*
X142061000Y-82343200D01*
X141992000Y-82340258D01*
X141872811Y-82351997D01*
X141758203Y-82386763D01*
X141652579Y-82443220D01*
X141559999Y-82519199D01*
X141484020Y-82611779D01*
X141463725Y-82649749D01*
X140722000Y-82649749D01*
X140663190Y-82655541D01*
X140606640Y-82672696D01*
X140554523Y-82700553D01*
X140508842Y-82738042D01*
X140471353Y-82783723D01*
X140462000Y-82801221D01*
X140452647Y-82783723D01*
X140415158Y-82738042D01*
X140369477Y-82700553D01*
X140317360Y-82672696D01*
X140260810Y-82655541D01*
X140202000Y-82649749D01*
X139452000Y-82649749D01*
X139393190Y-82655541D01*
X139336640Y-82672696D01*
X139284523Y-82700553D01*
X139238842Y-82738042D01*
X139201353Y-82783723D01*
X139192000Y-82801221D01*
X139182647Y-82783723D01*
X139145158Y-82738042D01*
X139099477Y-82700553D01*
X139047360Y-82672696D01*
X138990810Y-82655541D01*
X138932000Y-82649749D01*
X138182000Y-82649749D01*
X138123190Y-82655541D01*
X138066640Y-82672696D01*
X138014523Y-82700553D01*
X137968842Y-82738042D01*
X137931353Y-82783723D01*
X137922000Y-82801221D01*
X137912647Y-82783723D01*
X137875158Y-82738042D01*
X137829477Y-82700553D01*
X137777360Y-82672696D01*
X137720810Y-82655541D01*
X137662000Y-82649749D01*
X136912000Y-82649749D01*
X136853190Y-82655541D01*
X136796640Y-82672696D01*
X136744523Y-82700553D01*
X136698842Y-82738042D01*
X136661353Y-82783723D01*
X136652000Y-82801221D01*
X136642647Y-82783723D01*
X136605158Y-82738042D01*
X136559477Y-82700553D01*
X136507360Y-82672696D01*
X136450810Y-82655541D01*
X136392000Y-82649749D01*
X135642000Y-82649749D01*
X135583190Y-82655541D01*
X135526640Y-82672696D01*
X135474523Y-82700553D01*
X135428842Y-82738042D01*
X135391353Y-82783723D01*
X135382000Y-82801221D01*
X135372647Y-82783723D01*
X135335158Y-82738042D01*
X135289477Y-82700553D01*
X135237360Y-82672696D01*
X135180810Y-82655541D01*
X135122000Y-82649749D01*
X134372000Y-82649749D01*
X134313190Y-82655541D01*
X134256640Y-82672696D01*
X134204523Y-82700553D01*
X134158842Y-82738042D01*
X134121353Y-82783723D01*
X134112000Y-82801221D01*
X134102647Y-82783723D01*
X134065158Y-82738042D01*
X134019477Y-82700553D01*
X133967360Y-82672696D01*
X133910810Y-82655541D01*
X133852000Y-82649749D01*
X133102000Y-82649749D01*
X133043190Y-82655541D01*
X132986640Y-82672696D01*
X132934523Y-82700553D01*
X132888842Y-82738042D01*
X132851353Y-82783723D01*
X132842000Y-82801221D01*
X132832647Y-82783723D01*
X132795158Y-82738042D01*
X132749477Y-82700553D01*
X132697360Y-82672696D01*
X132640810Y-82655541D01*
X132582000Y-82649749D01*
X131832000Y-82649749D01*
X131773190Y-82655541D01*
X131716640Y-82672696D01*
X131664523Y-82700553D01*
X131618842Y-82738042D01*
X131581353Y-82783723D01*
X131572000Y-82801221D01*
X131562647Y-82783723D01*
X131525158Y-82738042D01*
X131479477Y-82700553D01*
X131427360Y-82672696D01*
X131370810Y-82655541D01*
X131312000Y-82649749D01*
X130562000Y-82649749D01*
X130503190Y-82655541D01*
X130446640Y-82672696D01*
X130394523Y-82700553D01*
X130348842Y-82738042D01*
X130311353Y-82783723D01*
X130302000Y-82801221D01*
X130292647Y-82783723D01*
X130255158Y-82738042D01*
X130209477Y-82700553D01*
X130157360Y-82672696D01*
X130100810Y-82655541D01*
X130042000Y-82649749D01*
X129292000Y-82649749D01*
X129233190Y-82655541D01*
X129176640Y-82672696D01*
X129124523Y-82700553D01*
X129078842Y-82738042D01*
X129041353Y-82783723D01*
X129032000Y-82801221D01*
X129022647Y-82783723D01*
X128985158Y-82738042D01*
X128939477Y-82700553D01*
X128887360Y-82672696D01*
X128830810Y-82655541D01*
X128772000Y-82649749D01*
X128030275Y-82649749D01*
X128009980Y-82611779D01*
X127934001Y-82519199D01*
X127841421Y-82443220D01*
X127735797Y-82386763D01*
X127621189Y-82351997D01*
X127502000Y-82340258D01*
X127433000Y-82343200D01*
X127281000Y-82495200D01*
X127281000Y-83847200D01*
X127301000Y-83847200D01*
X127301000Y-84155200D01*
X127281000Y-84155200D01*
X127281000Y-85507200D01*
X127433000Y-85659200D01*
X127502000Y-85662142D01*
X127621189Y-85650403D01*
X127735797Y-85615637D01*
X127841421Y-85559180D01*
X127934001Y-85483201D01*
X127972001Y-85436898D01*
X127972001Y-85499267D01*
X127928506Y-85564361D01*
X127890815Y-85655355D01*
X127871600Y-85751954D01*
X127871600Y-85850446D01*
X127890815Y-85947045D01*
X127928506Y-86038039D01*
X127983225Y-86119931D01*
X128052869Y-86189575D01*
X128134761Y-86244294D01*
X128147931Y-86249749D01*
X128022000Y-86249749D01*
X127963190Y-86255541D01*
X127906640Y-86272696D01*
X127854523Y-86300553D01*
X127808842Y-86338042D01*
X127771353Y-86383723D01*
X127762000Y-86401221D01*
X127752647Y-86383723D01*
X127715158Y-86338042D01*
X127669477Y-86300553D01*
X127617360Y-86272696D01*
X127560810Y-86255541D01*
X127502000Y-86249749D01*
X126752000Y-86249749D01*
X126693190Y-86255541D01*
X126636640Y-86272696D01*
X126584523Y-86300553D01*
X126538842Y-86338042D01*
X126501353Y-86383723D01*
X126492000Y-86401221D01*
X126482647Y-86383723D01*
X126445158Y-86338042D01*
X126399477Y-86300553D01*
X126347360Y-86272696D01*
X126290810Y-86255541D01*
X126232000Y-86249749D01*
X126055269Y-86249749D01*
X126068439Y-86244294D01*
X126150331Y-86189575D01*
X126219975Y-86119931D01*
X126274694Y-86038039D01*
X126312385Y-85947045D01*
X126331600Y-85850446D01*
X126331600Y-85751954D01*
X126312385Y-85655355D01*
X126282000Y-85581999D01*
X126282000Y-85436899D01*
X126319999Y-85483201D01*
X126412579Y-85559180D01*
X126518203Y-85615637D01*
X126632811Y-85650403D01*
X126752000Y-85662142D01*
X126821000Y-85659200D01*
X126973000Y-85507200D01*
X126973000Y-84155200D01*
X126953000Y-84155200D01*
X126953000Y-83847200D01*
X126973000Y-83847200D01*
X126973000Y-82495200D01*
X126821000Y-82343200D01*
X126752000Y-82340258D01*
X126632811Y-82351997D01*
X126518203Y-82386763D01*
X126412579Y-82443220D01*
X126319999Y-82519199D01*
X126244020Y-82611779D01*
X126223725Y-82649749D01*
X125482000Y-82649749D01*
X125423190Y-82655541D01*
X125366640Y-82672696D01*
X125314523Y-82700553D01*
X125268842Y-82738042D01*
X125231353Y-82783723D01*
X125222000Y-82801221D01*
X125212647Y-82783723D01*
X125175158Y-82738042D01*
X125129477Y-82700553D01*
X125077360Y-82672696D01*
X125020810Y-82655541D01*
X124962000Y-82649749D01*
X124212000Y-82649749D01*
X124153190Y-82655541D01*
X124096640Y-82672696D01*
X124044523Y-82700553D01*
X123998842Y-82738042D01*
X123961353Y-82783723D01*
X123952000Y-82801221D01*
X123942647Y-82783723D01*
X123905158Y-82738042D01*
X123867000Y-82706727D01*
X123867000Y-82421382D01*
X123859042Y-82340581D01*
X123827592Y-82236906D01*
X123813747Y-82211004D01*
X152440155Y-82210999D01*
X152039703Y-82376872D01*
G36*
X126747600Y-96315200D02*
G01*
X126767600Y-96315200D01*
X126767600Y-96623200D01*
X126747600Y-96623200D01*
X126747600Y-96643200D01*
X126439600Y-96643200D01*
X126439600Y-96623200D01*
X126419600Y-96623200D01*
X126419600Y-96315200D01*
X126439600Y-96315200D01*
X126439600Y-96295200D01*
X126747600Y-96295200D01*
X126747600Y-96315200D01*
G37*
X126747600Y-96315200D02*
X126767600Y-96315200D01*
X126767600Y-96623200D01*
X126747600Y-96623200D01*
X126747600Y-96643200D01*
X126439600Y-96643200D01*
X126439600Y-96623200D01*
X126419600Y-96623200D01*
X126419600Y-96315200D01*
X126439600Y-96315200D01*
X126439600Y-96295200D01*
X126747600Y-96295200D01*
X126747600Y-96315200D01*
M02*
