G04 #@! TF.GenerationSoftware,KiCad,Pcbnew,(5.1.6)-1*
G04 #@! TF.CreationDate,2020-10-15T11:20:42+02:00*
G04 #@! TF.ProjectId,DynOSSAT-EDU-HeaderAdapter,44796e4f-5353-4415-942d-4544552d4865,rev?*
G04 #@! TF.SameCoordinates,Original*
G04 #@! TF.FileFunction,Soldermask,Bot*
G04 #@! TF.FilePolarity,Negative*
%FSLAX46Y46*%
G04 Gerber Fmt 4.6, Leading zero omitted, Abs format (unit mm)*
G04 Created by KiCad (PCBNEW (5.1.6)-1) date 2020-10-15 11:20:42*
%MOMM*%
%LPD*%
G01*
G04 APERTURE LIST*
%ADD10C,0.100000*%
G04 APERTURE END LIST*
D10*
G36*
X154110098Y-118400233D02*
G01*
X154550210Y-118582533D01*
X154574352Y-118592533D01*
X154992168Y-118871709D01*
X155347491Y-119227032D01*
X155626667Y-119644848D01*
X155626668Y-119644850D01*
X155818967Y-120109102D01*
X155917000Y-120601947D01*
X155917000Y-121104453D01*
X155818967Y-121597298D01*
X155701235Y-121881529D01*
X155626667Y-122061552D01*
X155347491Y-122479368D01*
X154992168Y-122834691D01*
X154574352Y-123113867D01*
X154574351Y-123113868D01*
X154574350Y-123113868D01*
X154110098Y-123306167D01*
X153617253Y-123404200D01*
X153114747Y-123404200D01*
X152621902Y-123306167D01*
X152157650Y-123113868D01*
X152157649Y-123113868D01*
X152157648Y-123113867D01*
X151739832Y-122834691D01*
X151384509Y-122479368D01*
X151105333Y-122061552D01*
X151030765Y-121881529D01*
X150913033Y-121597298D01*
X150815000Y-121104453D01*
X150815000Y-120601947D01*
X150913033Y-120109102D01*
X151105332Y-119644850D01*
X151105333Y-119644848D01*
X151384509Y-119227032D01*
X151739832Y-118871709D01*
X152157648Y-118592533D01*
X152181790Y-118582533D01*
X152621902Y-118400233D01*
X153114747Y-118302200D01*
X153617253Y-118302200D01*
X154110098Y-118400233D01*
G37*
G36*
X118108098Y-118390233D02*
G01*
X118572350Y-118582532D01*
X118572352Y-118582533D01*
X118990168Y-118861709D01*
X119345491Y-119217032D01*
X119475676Y-119411868D01*
X119624668Y-119634850D01*
X119816967Y-120099102D01*
X119915000Y-120591947D01*
X119915000Y-121094453D01*
X119816967Y-121587298D01*
X119664496Y-121955396D01*
X119624667Y-122051552D01*
X119345491Y-122469368D01*
X118990168Y-122824691D01*
X118572352Y-123103867D01*
X118572351Y-123103868D01*
X118572350Y-123103868D01*
X118108098Y-123296167D01*
X117615253Y-123394200D01*
X117112747Y-123394200D01*
X116619902Y-123296167D01*
X116155650Y-123103868D01*
X116155649Y-123103868D01*
X116155648Y-123103867D01*
X115737832Y-122824691D01*
X115382509Y-122469368D01*
X115103333Y-122051552D01*
X115063504Y-121955396D01*
X114911033Y-121587298D01*
X114813000Y-121094453D01*
X114813000Y-120591947D01*
X114911033Y-120099102D01*
X115103332Y-119634850D01*
X115252324Y-119411868D01*
X115382509Y-119217032D01*
X115737832Y-118861709D01*
X116155648Y-118582533D01*
X116155650Y-118582532D01*
X116619902Y-118390233D01*
X117112747Y-118292200D01*
X117615253Y-118292200D01*
X118108098Y-118390233D01*
G37*
G36*
X144233112Y-115893127D02*
G01*
X144382412Y-115922824D01*
X144546384Y-115990744D01*
X144693954Y-116089347D01*
X144819453Y-116214846D01*
X144918056Y-116362416D01*
X144985976Y-116526388D01*
X145020600Y-116700459D01*
X145020600Y-116877941D01*
X144985976Y-117052012D01*
X144918056Y-117215984D01*
X144819453Y-117363554D01*
X144693954Y-117489053D01*
X144546384Y-117587656D01*
X144382412Y-117655576D01*
X144233112Y-117685273D01*
X144208342Y-117690200D01*
X144030858Y-117690200D01*
X144006088Y-117685273D01*
X143856788Y-117655576D01*
X143692816Y-117587656D01*
X143545246Y-117489053D01*
X143419747Y-117363554D01*
X143321144Y-117215984D01*
X143253224Y-117052012D01*
X143218600Y-116877941D01*
X143218600Y-116700459D01*
X143253224Y-116526388D01*
X143321144Y-116362416D01*
X143419747Y-116214846D01*
X143545246Y-116089347D01*
X143692816Y-115990744D01*
X143856788Y-115922824D01*
X144006088Y-115893127D01*
X144030858Y-115888200D01*
X144208342Y-115888200D01*
X144233112Y-115893127D01*
G37*
G36*
X147560600Y-117690200D02*
G01*
X145758600Y-117690200D01*
X145758600Y-115888200D01*
X147560600Y-115888200D01*
X147560600Y-117690200D01*
G37*
G36*
X124167112Y-115893127D02*
G01*
X124316412Y-115922824D01*
X124480384Y-115990744D01*
X124627954Y-116089347D01*
X124753453Y-116214846D01*
X124852056Y-116362416D01*
X124919976Y-116526388D01*
X124954600Y-116700459D01*
X124954600Y-116877941D01*
X124919976Y-117052012D01*
X124852056Y-117215984D01*
X124753453Y-117363554D01*
X124627954Y-117489053D01*
X124480384Y-117587656D01*
X124316412Y-117655576D01*
X124167112Y-117685273D01*
X124142342Y-117690200D01*
X123964858Y-117690200D01*
X123940088Y-117685273D01*
X123790788Y-117655576D01*
X123626816Y-117587656D01*
X123479246Y-117489053D01*
X123353747Y-117363554D01*
X123255144Y-117215984D01*
X123187224Y-117052012D01*
X123152600Y-116877941D01*
X123152600Y-116700459D01*
X123187224Y-116526388D01*
X123255144Y-116362416D01*
X123353747Y-116214846D01*
X123479246Y-116089347D01*
X123626816Y-115990744D01*
X123790788Y-115922824D01*
X123940088Y-115893127D01*
X123964858Y-115888200D01*
X124142342Y-115888200D01*
X124167112Y-115893127D01*
G37*
G36*
X127494600Y-117690200D02*
G01*
X125692600Y-117690200D01*
X125692600Y-115888200D01*
X127494600Y-115888200D01*
X127494600Y-117690200D01*
G37*
G36*
X124167112Y-113353127D02*
G01*
X124316412Y-113382824D01*
X124480384Y-113450744D01*
X124627954Y-113549347D01*
X124753453Y-113674846D01*
X124852056Y-113822416D01*
X124919976Y-113986388D01*
X124954600Y-114160459D01*
X124954600Y-114337941D01*
X124919976Y-114512012D01*
X124852056Y-114675984D01*
X124753453Y-114823554D01*
X124627954Y-114949053D01*
X124480384Y-115047656D01*
X124316412Y-115115576D01*
X124167112Y-115145273D01*
X124142342Y-115150200D01*
X123964858Y-115150200D01*
X123940088Y-115145273D01*
X123790788Y-115115576D01*
X123626816Y-115047656D01*
X123479246Y-114949053D01*
X123353747Y-114823554D01*
X123255144Y-114675984D01*
X123187224Y-114512012D01*
X123152600Y-114337941D01*
X123152600Y-114160459D01*
X123187224Y-113986388D01*
X123255144Y-113822416D01*
X123353747Y-113674846D01*
X123479246Y-113549347D01*
X123626816Y-113450744D01*
X123790788Y-113382824D01*
X123940088Y-113353127D01*
X123964858Y-113348200D01*
X124142342Y-113348200D01*
X124167112Y-113353127D01*
G37*
G36*
X146773112Y-113353127D02*
G01*
X146922412Y-113382824D01*
X147086384Y-113450744D01*
X147233954Y-113549347D01*
X147359453Y-113674846D01*
X147458056Y-113822416D01*
X147525976Y-113986388D01*
X147560600Y-114160459D01*
X147560600Y-114337941D01*
X147525976Y-114512012D01*
X147458056Y-114675984D01*
X147359453Y-114823554D01*
X147233954Y-114949053D01*
X147086384Y-115047656D01*
X146922412Y-115115576D01*
X146773112Y-115145273D01*
X146748342Y-115150200D01*
X146570858Y-115150200D01*
X146546088Y-115145273D01*
X146396788Y-115115576D01*
X146232816Y-115047656D01*
X146085246Y-114949053D01*
X145959747Y-114823554D01*
X145861144Y-114675984D01*
X145793224Y-114512012D01*
X145758600Y-114337941D01*
X145758600Y-114160459D01*
X145793224Y-113986388D01*
X145861144Y-113822416D01*
X145959747Y-113674846D01*
X146085246Y-113549347D01*
X146232816Y-113450744D01*
X146396788Y-113382824D01*
X146546088Y-113353127D01*
X146570858Y-113348200D01*
X146748342Y-113348200D01*
X146773112Y-113353127D01*
G37*
G36*
X144233112Y-113353127D02*
G01*
X144382412Y-113382824D01*
X144546384Y-113450744D01*
X144693954Y-113549347D01*
X144819453Y-113674846D01*
X144918056Y-113822416D01*
X144985976Y-113986388D01*
X145020600Y-114160459D01*
X145020600Y-114337941D01*
X144985976Y-114512012D01*
X144918056Y-114675984D01*
X144819453Y-114823554D01*
X144693954Y-114949053D01*
X144546384Y-115047656D01*
X144382412Y-115115576D01*
X144233112Y-115145273D01*
X144208342Y-115150200D01*
X144030858Y-115150200D01*
X144006088Y-115145273D01*
X143856788Y-115115576D01*
X143692816Y-115047656D01*
X143545246Y-114949053D01*
X143419747Y-114823554D01*
X143321144Y-114675984D01*
X143253224Y-114512012D01*
X143218600Y-114337941D01*
X143218600Y-114160459D01*
X143253224Y-113986388D01*
X143321144Y-113822416D01*
X143419747Y-113674846D01*
X143545246Y-113549347D01*
X143692816Y-113450744D01*
X143856788Y-113382824D01*
X144006088Y-113353127D01*
X144030858Y-113348200D01*
X144208342Y-113348200D01*
X144233112Y-113353127D01*
G37*
G36*
X126707112Y-113353127D02*
G01*
X126856412Y-113382824D01*
X127020384Y-113450744D01*
X127167954Y-113549347D01*
X127293453Y-113674846D01*
X127392056Y-113822416D01*
X127459976Y-113986388D01*
X127494600Y-114160459D01*
X127494600Y-114337941D01*
X127459976Y-114512012D01*
X127392056Y-114675984D01*
X127293453Y-114823554D01*
X127167954Y-114949053D01*
X127020384Y-115047656D01*
X126856412Y-115115576D01*
X126707112Y-115145273D01*
X126682342Y-115150200D01*
X126504858Y-115150200D01*
X126480088Y-115145273D01*
X126330788Y-115115576D01*
X126166816Y-115047656D01*
X126019246Y-114949053D01*
X125893747Y-114823554D01*
X125795144Y-114675984D01*
X125727224Y-114512012D01*
X125692600Y-114337941D01*
X125692600Y-114160459D01*
X125727224Y-113986388D01*
X125795144Y-113822416D01*
X125893747Y-113674846D01*
X126019246Y-113549347D01*
X126166816Y-113450744D01*
X126330788Y-113382824D01*
X126480088Y-113353127D01*
X126504858Y-113348200D01*
X126682342Y-113348200D01*
X126707112Y-113353127D01*
G37*
G36*
X144233112Y-110813127D02*
G01*
X144382412Y-110842824D01*
X144546384Y-110910744D01*
X144693954Y-111009347D01*
X144819453Y-111134846D01*
X144918056Y-111282416D01*
X144985976Y-111446388D01*
X145020600Y-111620459D01*
X145020600Y-111797941D01*
X144985976Y-111972012D01*
X144918056Y-112135984D01*
X144819453Y-112283554D01*
X144693954Y-112409053D01*
X144546384Y-112507656D01*
X144382412Y-112575576D01*
X144233112Y-112605273D01*
X144208342Y-112610200D01*
X144030858Y-112610200D01*
X144006088Y-112605273D01*
X143856788Y-112575576D01*
X143692816Y-112507656D01*
X143545246Y-112409053D01*
X143419747Y-112283554D01*
X143321144Y-112135984D01*
X143253224Y-111972012D01*
X143218600Y-111797941D01*
X143218600Y-111620459D01*
X143253224Y-111446388D01*
X143321144Y-111282416D01*
X143419747Y-111134846D01*
X143545246Y-111009347D01*
X143692816Y-110910744D01*
X143856788Y-110842824D01*
X144006088Y-110813127D01*
X144030858Y-110808200D01*
X144208342Y-110808200D01*
X144233112Y-110813127D01*
G37*
G36*
X126707112Y-110813127D02*
G01*
X126856412Y-110842824D01*
X127020384Y-110910744D01*
X127167954Y-111009347D01*
X127293453Y-111134846D01*
X127392056Y-111282416D01*
X127459976Y-111446388D01*
X127494600Y-111620459D01*
X127494600Y-111797941D01*
X127459976Y-111972012D01*
X127392056Y-112135984D01*
X127293453Y-112283554D01*
X127167954Y-112409053D01*
X127020384Y-112507656D01*
X126856412Y-112575576D01*
X126707112Y-112605273D01*
X126682342Y-112610200D01*
X126504858Y-112610200D01*
X126480088Y-112605273D01*
X126330788Y-112575576D01*
X126166816Y-112507656D01*
X126019246Y-112409053D01*
X125893747Y-112283554D01*
X125795144Y-112135984D01*
X125727224Y-111972012D01*
X125692600Y-111797941D01*
X125692600Y-111620459D01*
X125727224Y-111446388D01*
X125795144Y-111282416D01*
X125893747Y-111134846D01*
X126019246Y-111009347D01*
X126166816Y-110910744D01*
X126330788Y-110842824D01*
X126480088Y-110813127D01*
X126504858Y-110808200D01*
X126682342Y-110808200D01*
X126707112Y-110813127D01*
G37*
G36*
X124167112Y-110813127D02*
G01*
X124316412Y-110842824D01*
X124480384Y-110910744D01*
X124627954Y-111009347D01*
X124753453Y-111134846D01*
X124852056Y-111282416D01*
X124919976Y-111446388D01*
X124954600Y-111620459D01*
X124954600Y-111797941D01*
X124919976Y-111972012D01*
X124852056Y-112135984D01*
X124753453Y-112283554D01*
X124627954Y-112409053D01*
X124480384Y-112507656D01*
X124316412Y-112575576D01*
X124167112Y-112605273D01*
X124142342Y-112610200D01*
X123964858Y-112610200D01*
X123940088Y-112605273D01*
X123790788Y-112575576D01*
X123626816Y-112507656D01*
X123479246Y-112409053D01*
X123353747Y-112283554D01*
X123255144Y-112135984D01*
X123187224Y-111972012D01*
X123152600Y-111797941D01*
X123152600Y-111620459D01*
X123187224Y-111446388D01*
X123255144Y-111282416D01*
X123353747Y-111134846D01*
X123479246Y-111009347D01*
X123626816Y-110910744D01*
X123790788Y-110842824D01*
X123940088Y-110813127D01*
X123964858Y-110808200D01*
X124142342Y-110808200D01*
X124167112Y-110813127D01*
G37*
G36*
X146773112Y-110813127D02*
G01*
X146922412Y-110842824D01*
X147086384Y-110910744D01*
X147233954Y-111009347D01*
X147359453Y-111134846D01*
X147458056Y-111282416D01*
X147525976Y-111446388D01*
X147560600Y-111620459D01*
X147560600Y-111797941D01*
X147525976Y-111972012D01*
X147458056Y-112135984D01*
X147359453Y-112283554D01*
X147233954Y-112409053D01*
X147086384Y-112507656D01*
X146922412Y-112575576D01*
X146773112Y-112605273D01*
X146748342Y-112610200D01*
X146570858Y-112610200D01*
X146546088Y-112605273D01*
X146396788Y-112575576D01*
X146232816Y-112507656D01*
X146085246Y-112409053D01*
X145959747Y-112283554D01*
X145861144Y-112135984D01*
X145793224Y-111972012D01*
X145758600Y-111797941D01*
X145758600Y-111620459D01*
X145793224Y-111446388D01*
X145861144Y-111282416D01*
X145959747Y-111134846D01*
X146085246Y-111009347D01*
X146232816Y-110910744D01*
X146396788Y-110842824D01*
X146546088Y-110813127D01*
X146570858Y-110808200D01*
X146748342Y-110808200D01*
X146773112Y-110813127D01*
G37*
G36*
X146773112Y-108273127D02*
G01*
X146922412Y-108302824D01*
X147086384Y-108370744D01*
X147233954Y-108469347D01*
X147359453Y-108594846D01*
X147458056Y-108742416D01*
X147525976Y-108906388D01*
X147560600Y-109080459D01*
X147560600Y-109257941D01*
X147525976Y-109432012D01*
X147458056Y-109595984D01*
X147359453Y-109743554D01*
X147233954Y-109869053D01*
X147086384Y-109967656D01*
X146922412Y-110035576D01*
X146773112Y-110065273D01*
X146748342Y-110070200D01*
X146570858Y-110070200D01*
X146546088Y-110065273D01*
X146396788Y-110035576D01*
X146232816Y-109967656D01*
X146085246Y-109869053D01*
X145959747Y-109743554D01*
X145861144Y-109595984D01*
X145793224Y-109432012D01*
X145758600Y-109257941D01*
X145758600Y-109080459D01*
X145793224Y-108906388D01*
X145861144Y-108742416D01*
X145959747Y-108594846D01*
X146085246Y-108469347D01*
X146232816Y-108370744D01*
X146396788Y-108302824D01*
X146546088Y-108273127D01*
X146570858Y-108268200D01*
X146748342Y-108268200D01*
X146773112Y-108273127D01*
G37*
G36*
X126707112Y-108273127D02*
G01*
X126856412Y-108302824D01*
X127020384Y-108370744D01*
X127167954Y-108469347D01*
X127293453Y-108594846D01*
X127392056Y-108742416D01*
X127459976Y-108906388D01*
X127494600Y-109080459D01*
X127494600Y-109257941D01*
X127459976Y-109432012D01*
X127392056Y-109595984D01*
X127293453Y-109743554D01*
X127167954Y-109869053D01*
X127020384Y-109967656D01*
X126856412Y-110035576D01*
X126707112Y-110065273D01*
X126682342Y-110070200D01*
X126504858Y-110070200D01*
X126480088Y-110065273D01*
X126330788Y-110035576D01*
X126166816Y-109967656D01*
X126019246Y-109869053D01*
X125893747Y-109743554D01*
X125795144Y-109595984D01*
X125727224Y-109432012D01*
X125692600Y-109257941D01*
X125692600Y-109080459D01*
X125727224Y-108906388D01*
X125795144Y-108742416D01*
X125893747Y-108594846D01*
X126019246Y-108469347D01*
X126166816Y-108370744D01*
X126330788Y-108302824D01*
X126480088Y-108273127D01*
X126504858Y-108268200D01*
X126682342Y-108268200D01*
X126707112Y-108273127D01*
G37*
G36*
X124167112Y-108273127D02*
G01*
X124316412Y-108302824D01*
X124480384Y-108370744D01*
X124627954Y-108469347D01*
X124753453Y-108594846D01*
X124852056Y-108742416D01*
X124919976Y-108906388D01*
X124954600Y-109080459D01*
X124954600Y-109257941D01*
X124919976Y-109432012D01*
X124852056Y-109595984D01*
X124753453Y-109743554D01*
X124627954Y-109869053D01*
X124480384Y-109967656D01*
X124316412Y-110035576D01*
X124167112Y-110065273D01*
X124142342Y-110070200D01*
X123964858Y-110070200D01*
X123940088Y-110065273D01*
X123790788Y-110035576D01*
X123626816Y-109967656D01*
X123479246Y-109869053D01*
X123353747Y-109743554D01*
X123255144Y-109595984D01*
X123187224Y-109432012D01*
X123152600Y-109257941D01*
X123152600Y-109080459D01*
X123187224Y-108906388D01*
X123255144Y-108742416D01*
X123353747Y-108594846D01*
X123479246Y-108469347D01*
X123626816Y-108370744D01*
X123790788Y-108302824D01*
X123940088Y-108273127D01*
X123964858Y-108268200D01*
X124142342Y-108268200D01*
X124167112Y-108273127D01*
G37*
G36*
X144233112Y-108273127D02*
G01*
X144382412Y-108302824D01*
X144546384Y-108370744D01*
X144693954Y-108469347D01*
X144819453Y-108594846D01*
X144918056Y-108742416D01*
X144985976Y-108906388D01*
X145020600Y-109080459D01*
X145020600Y-109257941D01*
X144985976Y-109432012D01*
X144918056Y-109595984D01*
X144819453Y-109743554D01*
X144693954Y-109869053D01*
X144546384Y-109967656D01*
X144382412Y-110035576D01*
X144233112Y-110065273D01*
X144208342Y-110070200D01*
X144030858Y-110070200D01*
X144006088Y-110065273D01*
X143856788Y-110035576D01*
X143692816Y-109967656D01*
X143545246Y-109869053D01*
X143419747Y-109743554D01*
X143321144Y-109595984D01*
X143253224Y-109432012D01*
X143218600Y-109257941D01*
X143218600Y-109080459D01*
X143253224Y-108906388D01*
X143321144Y-108742416D01*
X143419747Y-108594846D01*
X143545246Y-108469347D01*
X143692816Y-108370744D01*
X143856788Y-108302824D01*
X144006088Y-108273127D01*
X144030858Y-108268200D01*
X144208342Y-108268200D01*
X144233112Y-108273127D01*
G37*
G36*
X146773112Y-105733127D02*
G01*
X146922412Y-105762824D01*
X147086384Y-105830744D01*
X147233954Y-105929347D01*
X147359453Y-106054846D01*
X147458056Y-106202416D01*
X147525976Y-106366388D01*
X147560600Y-106540459D01*
X147560600Y-106717941D01*
X147525976Y-106892012D01*
X147458056Y-107055984D01*
X147359453Y-107203554D01*
X147233954Y-107329053D01*
X147086384Y-107427656D01*
X146922412Y-107495576D01*
X146773112Y-107525273D01*
X146748342Y-107530200D01*
X146570858Y-107530200D01*
X146546088Y-107525273D01*
X146396788Y-107495576D01*
X146232816Y-107427656D01*
X146085246Y-107329053D01*
X145959747Y-107203554D01*
X145861144Y-107055984D01*
X145793224Y-106892012D01*
X145758600Y-106717941D01*
X145758600Y-106540459D01*
X145793224Y-106366388D01*
X145861144Y-106202416D01*
X145959747Y-106054846D01*
X146085246Y-105929347D01*
X146232816Y-105830744D01*
X146396788Y-105762824D01*
X146546088Y-105733127D01*
X146570858Y-105728200D01*
X146748342Y-105728200D01*
X146773112Y-105733127D01*
G37*
G36*
X144233112Y-105733127D02*
G01*
X144382412Y-105762824D01*
X144546384Y-105830744D01*
X144693954Y-105929347D01*
X144819453Y-106054846D01*
X144918056Y-106202416D01*
X144985976Y-106366388D01*
X145020600Y-106540459D01*
X145020600Y-106717941D01*
X144985976Y-106892012D01*
X144918056Y-107055984D01*
X144819453Y-107203554D01*
X144693954Y-107329053D01*
X144546384Y-107427656D01*
X144382412Y-107495576D01*
X144233112Y-107525273D01*
X144208342Y-107530200D01*
X144030858Y-107530200D01*
X144006088Y-107525273D01*
X143856788Y-107495576D01*
X143692816Y-107427656D01*
X143545246Y-107329053D01*
X143419747Y-107203554D01*
X143321144Y-107055984D01*
X143253224Y-106892012D01*
X143218600Y-106717941D01*
X143218600Y-106540459D01*
X143253224Y-106366388D01*
X143321144Y-106202416D01*
X143419747Y-106054846D01*
X143545246Y-105929347D01*
X143692816Y-105830744D01*
X143856788Y-105762824D01*
X144006088Y-105733127D01*
X144030858Y-105728200D01*
X144208342Y-105728200D01*
X144233112Y-105733127D01*
G37*
G36*
X124167112Y-105733127D02*
G01*
X124316412Y-105762824D01*
X124480384Y-105830744D01*
X124627954Y-105929347D01*
X124753453Y-106054846D01*
X124852056Y-106202416D01*
X124919976Y-106366388D01*
X124954600Y-106540459D01*
X124954600Y-106717941D01*
X124919976Y-106892012D01*
X124852056Y-107055984D01*
X124753453Y-107203554D01*
X124627954Y-107329053D01*
X124480384Y-107427656D01*
X124316412Y-107495576D01*
X124167112Y-107525273D01*
X124142342Y-107530200D01*
X123964858Y-107530200D01*
X123940088Y-107525273D01*
X123790788Y-107495576D01*
X123626816Y-107427656D01*
X123479246Y-107329053D01*
X123353747Y-107203554D01*
X123255144Y-107055984D01*
X123187224Y-106892012D01*
X123152600Y-106717941D01*
X123152600Y-106540459D01*
X123187224Y-106366388D01*
X123255144Y-106202416D01*
X123353747Y-106054846D01*
X123479246Y-105929347D01*
X123626816Y-105830744D01*
X123790788Y-105762824D01*
X123940088Y-105733127D01*
X123964858Y-105728200D01*
X124142342Y-105728200D01*
X124167112Y-105733127D01*
G37*
G36*
X126707112Y-105733127D02*
G01*
X126856412Y-105762824D01*
X127020384Y-105830744D01*
X127167954Y-105929347D01*
X127293453Y-106054846D01*
X127392056Y-106202416D01*
X127459976Y-106366388D01*
X127494600Y-106540459D01*
X127494600Y-106717941D01*
X127459976Y-106892012D01*
X127392056Y-107055984D01*
X127293453Y-107203554D01*
X127167954Y-107329053D01*
X127020384Y-107427656D01*
X126856412Y-107495576D01*
X126707112Y-107525273D01*
X126682342Y-107530200D01*
X126504858Y-107530200D01*
X126480088Y-107525273D01*
X126330788Y-107495576D01*
X126166816Y-107427656D01*
X126019246Y-107329053D01*
X125893747Y-107203554D01*
X125795144Y-107055984D01*
X125727224Y-106892012D01*
X125692600Y-106717941D01*
X125692600Y-106540459D01*
X125727224Y-106366388D01*
X125795144Y-106202416D01*
X125893747Y-106054846D01*
X126019246Y-105929347D01*
X126166816Y-105830744D01*
X126330788Y-105762824D01*
X126480088Y-105733127D01*
X126504858Y-105728200D01*
X126682342Y-105728200D01*
X126707112Y-105733127D01*
G37*
G36*
X146773112Y-103193127D02*
G01*
X146922412Y-103222824D01*
X147086384Y-103290744D01*
X147233954Y-103389347D01*
X147359453Y-103514846D01*
X147458056Y-103662416D01*
X147525976Y-103826388D01*
X147560600Y-104000459D01*
X147560600Y-104177941D01*
X147525976Y-104352012D01*
X147458056Y-104515984D01*
X147359453Y-104663554D01*
X147233954Y-104789053D01*
X147086384Y-104887656D01*
X146922412Y-104955576D01*
X146773112Y-104985273D01*
X146748342Y-104990200D01*
X146570858Y-104990200D01*
X146546088Y-104985273D01*
X146396788Y-104955576D01*
X146232816Y-104887656D01*
X146085246Y-104789053D01*
X145959747Y-104663554D01*
X145861144Y-104515984D01*
X145793224Y-104352012D01*
X145758600Y-104177941D01*
X145758600Y-104000459D01*
X145793224Y-103826388D01*
X145861144Y-103662416D01*
X145959747Y-103514846D01*
X146085246Y-103389347D01*
X146232816Y-103290744D01*
X146396788Y-103222824D01*
X146546088Y-103193127D01*
X146570858Y-103188200D01*
X146748342Y-103188200D01*
X146773112Y-103193127D01*
G37*
G36*
X144233112Y-103193127D02*
G01*
X144382412Y-103222824D01*
X144546384Y-103290744D01*
X144693954Y-103389347D01*
X144819453Y-103514846D01*
X144918056Y-103662416D01*
X144985976Y-103826388D01*
X145020600Y-104000459D01*
X145020600Y-104177941D01*
X144985976Y-104352012D01*
X144918056Y-104515984D01*
X144819453Y-104663554D01*
X144693954Y-104789053D01*
X144546384Y-104887656D01*
X144382412Y-104955576D01*
X144233112Y-104985273D01*
X144208342Y-104990200D01*
X144030858Y-104990200D01*
X144006088Y-104985273D01*
X143856788Y-104955576D01*
X143692816Y-104887656D01*
X143545246Y-104789053D01*
X143419747Y-104663554D01*
X143321144Y-104515984D01*
X143253224Y-104352012D01*
X143218600Y-104177941D01*
X143218600Y-104000459D01*
X143253224Y-103826388D01*
X143321144Y-103662416D01*
X143419747Y-103514846D01*
X143545246Y-103389347D01*
X143692816Y-103290744D01*
X143856788Y-103222824D01*
X144006088Y-103193127D01*
X144030858Y-103188200D01*
X144208342Y-103188200D01*
X144233112Y-103193127D01*
G37*
G36*
X126707112Y-103193127D02*
G01*
X126856412Y-103222824D01*
X127020384Y-103290744D01*
X127167954Y-103389347D01*
X127293453Y-103514846D01*
X127392056Y-103662416D01*
X127459976Y-103826388D01*
X127494600Y-104000459D01*
X127494600Y-104177941D01*
X127459976Y-104352012D01*
X127392056Y-104515984D01*
X127293453Y-104663554D01*
X127167954Y-104789053D01*
X127020384Y-104887656D01*
X126856412Y-104955576D01*
X126707112Y-104985273D01*
X126682342Y-104990200D01*
X126504858Y-104990200D01*
X126480088Y-104985273D01*
X126330788Y-104955576D01*
X126166816Y-104887656D01*
X126019246Y-104789053D01*
X125893747Y-104663554D01*
X125795144Y-104515984D01*
X125727224Y-104352012D01*
X125692600Y-104177941D01*
X125692600Y-104000459D01*
X125727224Y-103826388D01*
X125795144Y-103662416D01*
X125893747Y-103514846D01*
X126019246Y-103389347D01*
X126166816Y-103290744D01*
X126330788Y-103222824D01*
X126480088Y-103193127D01*
X126504858Y-103188200D01*
X126682342Y-103188200D01*
X126707112Y-103193127D01*
G37*
G36*
X124167112Y-103193127D02*
G01*
X124316412Y-103222824D01*
X124480384Y-103290744D01*
X124627954Y-103389347D01*
X124753453Y-103514846D01*
X124852056Y-103662416D01*
X124919976Y-103826388D01*
X124954600Y-104000459D01*
X124954600Y-104177941D01*
X124919976Y-104352012D01*
X124852056Y-104515984D01*
X124753453Y-104663554D01*
X124627954Y-104789053D01*
X124480384Y-104887656D01*
X124316412Y-104955576D01*
X124167112Y-104985273D01*
X124142342Y-104990200D01*
X123964858Y-104990200D01*
X123940088Y-104985273D01*
X123790788Y-104955576D01*
X123626816Y-104887656D01*
X123479246Y-104789053D01*
X123353747Y-104663554D01*
X123255144Y-104515984D01*
X123187224Y-104352012D01*
X123152600Y-104177941D01*
X123152600Y-104000459D01*
X123187224Y-103826388D01*
X123255144Y-103662416D01*
X123353747Y-103514846D01*
X123479246Y-103389347D01*
X123626816Y-103290744D01*
X123790788Y-103222824D01*
X123940088Y-103193127D01*
X123964858Y-103188200D01*
X124142342Y-103188200D01*
X124167112Y-103193127D01*
G37*
G36*
X124167112Y-100653127D02*
G01*
X124316412Y-100682824D01*
X124480384Y-100750744D01*
X124627954Y-100849347D01*
X124753453Y-100974846D01*
X124852056Y-101122416D01*
X124919976Y-101286388D01*
X124954600Y-101460459D01*
X124954600Y-101637941D01*
X124919976Y-101812012D01*
X124852056Y-101975984D01*
X124753453Y-102123554D01*
X124627954Y-102249053D01*
X124480384Y-102347656D01*
X124316412Y-102415576D01*
X124167112Y-102445273D01*
X124142342Y-102450200D01*
X123964858Y-102450200D01*
X123940088Y-102445273D01*
X123790788Y-102415576D01*
X123626816Y-102347656D01*
X123479246Y-102249053D01*
X123353747Y-102123554D01*
X123255144Y-101975984D01*
X123187224Y-101812012D01*
X123152600Y-101637941D01*
X123152600Y-101460459D01*
X123187224Y-101286388D01*
X123255144Y-101122416D01*
X123353747Y-100974846D01*
X123479246Y-100849347D01*
X123626816Y-100750744D01*
X123790788Y-100682824D01*
X123940088Y-100653127D01*
X123964858Y-100648200D01*
X124142342Y-100648200D01*
X124167112Y-100653127D01*
G37*
G36*
X126707112Y-100653127D02*
G01*
X126856412Y-100682824D01*
X127020384Y-100750744D01*
X127167954Y-100849347D01*
X127293453Y-100974846D01*
X127392056Y-101122416D01*
X127459976Y-101286388D01*
X127494600Y-101460459D01*
X127494600Y-101637941D01*
X127459976Y-101812012D01*
X127392056Y-101975984D01*
X127293453Y-102123554D01*
X127167954Y-102249053D01*
X127020384Y-102347656D01*
X126856412Y-102415576D01*
X126707112Y-102445273D01*
X126682342Y-102450200D01*
X126504858Y-102450200D01*
X126480088Y-102445273D01*
X126330788Y-102415576D01*
X126166816Y-102347656D01*
X126019246Y-102249053D01*
X125893747Y-102123554D01*
X125795144Y-101975984D01*
X125727224Y-101812012D01*
X125692600Y-101637941D01*
X125692600Y-101460459D01*
X125727224Y-101286388D01*
X125795144Y-101122416D01*
X125893747Y-100974846D01*
X126019246Y-100849347D01*
X126166816Y-100750744D01*
X126330788Y-100682824D01*
X126480088Y-100653127D01*
X126504858Y-100648200D01*
X126682342Y-100648200D01*
X126707112Y-100653127D01*
G37*
G36*
X146773112Y-100653127D02*
G01*
X146922412Y-100682824D01*
X147086384Y-100750744D01*
X147233954Y-100849347D01*
X147359453Y-100974846D01*
X147458056Y-101122416D01*
X147525976Y-101286388D01*
X147560600Y-101460459D01*
X147560600Y-101637941D01*
X147525976Y-101812012D01*
X147458056Y-101975984D01*
X147359453Y-102123554D01*
X147233954Y-102249053D01*
X147086384Y-102347656D01*
X146922412Y-102415576D01*
X146773112Y-102445273D01*
X146748342Y-102450200D01*
X146570858Y-102450200D01*
X146546088Y-102445273D01*
X146396788Y-102415576D01*
X146232816Y-102347656D01*
X146085246Y-102249053D01*
X145959747Y-102123554D01*
X145861144Y-101975984D01*
X145793224Y-101812012D01*
X145758600Y-101637941D01*
X145758600Y-101460459D01*
X145793224Y-101286388D01*
X145861144Y-101122416D01*
X145959747Y-100974846D01*
X146085246Y-100849347D01*
X146232816Y-100750744D01*
X146396788Y-100682824D01*
X146546088Y-100653127D01*
X146570858Y-100648200D01*
X146748342Y-100648200D01*
X146773112Y-100653127D01*
G37*
G36*
X144233112Y-100653127D02*
G01*
X144382412Y-100682824D01*
X144546384Y-100750744D01*
X144693954Y-100849347D01*
X144819453Y-100974846D01*
X144918056Y-101122416D01*
X144985976Y-101286388D01*
X145020600Y-101460459D01*
X145020600Y-101637941D01*
X144985976Y-101812012D01*
X144918056Y-101975984D01*
X144819453Y-102123554D01*
X144693954Y-102249053D01*
X144546384Y-102347656D01*
X144382412Y-102415576D01*
X144233112Y-102445273D01*
X144208342Y-102450200D01*
X144030858Y-102450200D01*
X144006088Y-102445273D01*
X143856788Y-102415576D01*
X143692816Y-102347656D01*
X143545246Y-102249053D01*
X143419747Y-102123554D01*
X143321144Y-101975984D01*
X143253224Y-101812012D01*
X143218600Y-101637941D01*
X143218600Y-101460459D01*
X143253224Y-101286388D01*
X143321144Y-101122416D01*
X143419747Y-100974846D01*
X143545246Y-100849347D01*
X143692816Y-100750744D01*
X143856788Y-100682824D01*
X144006088Y-100653127D01*
X144030858Y-100648200D01*
X144208342Y-100648200D01*
X144233112Y-100653127D01*
G37*
G36*
X146773112Y-98113127D02*
G01*
X146922412Y-98142824D01*
X147086384Y-98210744D01*
X147233954Y-98309347D01*
X147359453Y-98434846D01*
X147458056Y-98582416D01*
X147525976Y-98746388D01*
X147560600Y-98920459D01*
X147560600Y-99097941D01*
X147525976Y-99272012D01*
X147458056Y-99435984D01*
X147359453Y-99583554D01*
X147233954Y-99709053D01*
X147086384Y-99807656D01*
X146922412Y-99875576D01*
X146773112Y-99905273D01*
X146748342Y-99910200D01*
X146570858Y-99910200D01*
X146546088Y-99905273D01*
X146396788Y-99875576D01*
X146232816Y-99807656D01*
X146085246Y-99709053D01*
X145959747Y-99583554D01*
X145861144Y-99435984D01*
X145793224Y-99272012D01*
X145758600Y-99097941D01*
X145758600Y-98920459D01*
X145793224Y-98746388D01*
X145861144Y-98582416D01*
X145959747Y-98434846D01*
X146085246Y-98309347D01*
X146232816Y-98210744D01*
X146396788Y-98142824D01*
X146546088Y-98113127D01*
X146570858Y-98108200D01*
X146748342Y-98108200D01*
X146773112Y-98113127D01*
G37*
G36*
X144233112Y-98113127D02*
G01*
X144382412Y-98142824D01*
X144546384Y-98210744D01*
X144693954Y-98309347D01*
X144819453Y-98434846D01*
X144918056Y-98582416D01*
X144985976Y-98746388D01*
X145020600Y-98920459D01*
X145020600Y-99097941D01*
X144985976Y-99272012D01*
X144918056Y-99435984D01*
X144819453Y-99583554D01*
X144693954Y-99709053D01*
X144546384Y-99807656D01*
X144382412Y-99875576D01*
X144233112Y-99905273D01*
X144208342Y-99910200D01*
X144030858Y-99910200D01*
X144006088Y-99905273D01*
X143856788Y-99875576D01*
X143692816Y-99807656D01*
X143545246Y-99709053D01*
X143419747Y-99583554D01*
X143321144Y-99435984D01*
X143253224Y-99272012D01*
X143218600Y-99097941D01*
X143218600Y-98920459D01*
X143253224Y-98746388D01*
X143321144Y-98582416D01*
X143419747Y-98434846D01*
X143545246Y-98309347D01*
X143692816Y-98210744D01*
X143856788Y-98142824D01*
X144006088Y-98113127D01*
X144030858Y-98108200D01*
X144208342Y-98108200D01*
X144233112Y-98113127D01*
G37*
G36*
X124167112Y-98113127D02*
G01*
X124316412Y-98142824D01*
X124480384Y-98210744D01*
X124627954Y-98309347D01*
X124753453Y-98434846D01*
X124852056Y-98582416D01*
X124919976Y-98746388D01*
X124954600Y-98920459D01*
X124954600Y-99097941D01*
X124919976Y-99272012D01*
X124852056Y-99435984D01*
X124753453Y-99583554D01*
X124627954Y-99709053D01*
X124480384Y-99807656D01*
X124316412Y-99875576D01*
X124167112Y-99905273D01*
X124142342Y-99910200D01*
X123964858Y-99910200D01*
X123940088Y-99905273D01*
X123790788Y-99875576D01*
X123626816Y-99807656D01*
X123479246Y-99709053D01*
X123353747Y-99583554D01*
X123255144Y-99435984D01*
X123187224Y-99272012D01*
X123152600Y-99097941D01*
X123152600Y-98920459D01*
X123187224Y-98746388D01*
X123255144Y-98582416D01*
X123353747Y-98434846D01*
X123479246Y-98309347D01*
X123626816Y-98210744D01*
X123790788Y-98142824D01*
X123940088Y-98113127D01*
X123964858Y-98108200D01*
X124142342Y-98108200D01*
X124167112Y-98113127D01*
G37*
G36*
X126707112Y-98113127D02*
G01*
X126856412Y-98142824D01*
X127020384Y-98210744D01*
X127167954Y-98309347D01*
X127293453Y-98434846D01*
X127392056Y-98582416D01*
X127459976Y-98746388D01*
X127494600Y-98920459D01*
X127494600Y-99097941D01*
X127459976Y-99272012D01*
X127392056Y-99435984D01*
X127293453Y-99583554D01*
X127167954Y-99709053D01*
X127020384Y-99807656D01*
X126856412Y-99875576D01*
X126707112Y-99905273D01*
X126682342Y-99910200D01*
X126504858Y-99910200D01*
X126480088Y-99905273D01*
X126330788Y-99875576D01*
X126166816Y-99807656D01*
X126019246Y-99709053D01*
X125893747Y-99583554D01*
X125795144Y-99435984D01*
X125727224Y-99272012D01*
X125692600Y-99097941D01*
X125692600Y-98920459D01*
X125727224Y-98746388D01*
X125795144Y-98582416D01*
X125893747Y-98434846D01*
X126019246Y-98309347D01*
X126166816Y-98210744D01*
X126330788Y-98142824D01*
X126480088Y-98113127D01*
X126504858Y-98108200D01*
X126682342Y-98108200D01*
X126707112Y-98113127D01*
G37*
G36*
X146773112Y-95573127D02*
G01*
X146922412Y-95602824D01*
X147086384Y-95670744D01*
X147233954Y-95769347D01*
X147359453Y-95894846D01*
X147458056Y-96042416D01*
X147525976Y-96206388D01*
X147560600Y-96380459D01*
X147560600Y-96557941D01*
X147525976Y-96732012D01*
X147458056Y-96895984D01*
X147359453Y-97043554D01*
X147233954Y-97169053D01*
X147086384Y-97267656D01*
X146922412Y-97335576D01*
X146773112Y-97365273D01*
X146748342Y-97370200D01*
X146570858Y-97370200D01*
X146546088Y-97365273D01*
X146396788Y-97335576D01*
X146232816Y-97267656D01*
X146085246Y-97169053D01*
X145959747Y-97043554D01*
X145861144Y-96895984D01*
X145793224Y-96732012D01*
X145758600Y-96557941D01*
X145758600Y-96380459D01*
X145793224Y-96206388D01*
X145861144Y-96042416D01*
X145959747Y-95894846D01*
X146085246Y-95769347D01*
X146232816Y-95670744D01*
X146396788Y-95602824D01*
X146546088Y-95573127D01*
X146570858Y-95568200D01*
X146748342Y-95568200D01*
X146773112Y-95573127D01*
G37*
G36*
X144233112Y-95573127D02*
G01*
X144382412Y-95602824D01*
X144546384Y-95670744D01*
X144693954Y-95769347D01*
X144819453Y-95894846D01*
X144918056Y-96042416D01*
X144985976Y-96206388D01*
X145020600Y-96380459D01*
X145020600Y-96557941D01*
X144985976Y-96732012D01*
X144918056Y-96895984D01*
X144819453Y-97043554D01*
X144693954Y-97169053D01*
X144546384Y-97267656D01*
X144382412Y-97335576D01*
X144233112Y-97365273D01*
X144208342Y-97370200D01*
X144030858Y-97370200D01*
X144006088Y-97365273D01*
X143856788Y-97335576D01*
X143692816Y-97267656D01*
X143545246Y-97169053D01*
X143419747Y-97043554D01*
X143321144Y-96895984D01*
X143253224Y-96732012D01*
X143218600Y-96557941D01*
X143218600Y-96380459D01*
X143253224Y-96206388D01*
X143321144Y-96042416D01*
X143419747Y-95894846D01*
X143545246Y-95769347D01*
X143692816Y-95670744D01*
X143856788Y-95602824D01*
X144006088Y-95573127D01*
X144030858Y-95568200D01*
X144208342Y-95568200D01*
X144233112Y-95573127D01*
G37*
G36*
X126707112Y-95573127D02*
G01*
X126856412Y-95602824D01*
X127020384Y-95670744D01*
X127167954Y-95769347D01*
X127293453Y-95894846D01*
X127392056Y-96042416D01*
X127459976Y-96206388D01*
X127494600Y-96380459D01*
X127494600Y-96557941D01*
X127459976Y-96732012D01*
X127392056Y-96895984D01*
X127293453Y-97043554D01*
X127167954Y-97169053D01*
X127020384Y-97267656D01*
X126856412Y-97335576D01*
X126707112Y-97365273D01*
X126682342Y-97370200D01*
X126504858Y-97370200D01*
X126480088Y-97365273D01*
X126330788Y-97335576D01*
X126166816Y-97267656D01*
X126019246Y-97169053D01*
X125893747Y-97043554D01*
X125795144Y-96895984D01*
X125727224Y-96732012D01*
X125692600Y-96557941D01*
X125692600Y-96380459D01*
X125727224Y-96206388D01*
X125795144Y-96042416D01*
X125893747Y-95894846D01*
X126019246Y-95769347D01*
X126166816Y-95670744D01*
X126330788Y-95602824D01*
X126480088Y-95573127D01*
X126504858Y-95568200D01*
X126682342Y-95568200D01*
X126707112Y-95573127D01*
G37*
G36*
X124167112Y-95573127D02*
G01*
X124316412Y-95602824D01*
X124480384Y-95670744D01*
X124627954Y-95769347D01*
X124753453Y-95894846D01*
X124852056Y-96042416D01*
X124919976Y-96206388D01*
X124954600Y-96380459D01*
X124954600Y-96557941D01*
X124919976Y-96732012D01*
X124852056Y-96895984D01*
X124753453Y-97043554D01*
X124627954Y-97169053D01*
X124480384Y-97267656D01*
X124316412Y-97335576D01*
X124167112Y-97365273D01*
X124142342Y-97370200D01*
X123964858Y-97370200D01*
X123940088Y-97365273D01*
X123790788Y-97335576D01*
X123626816Y-97267656D01*
X123479246Y-97169053D01*
X123353747Y-97043554D01*
X123255144Y-96895984D01*
X123187224Y-96732012D01*
X123152600Y-96557941D01*
X123152600Y-96380459D01*
X123187224Y-96206388D01*
X123255144Y-96042416D01*
X123353747Y-95894846D01*
X123479246Y-95769347D01*
X123626816Y-95670744D01*
X123790788Y-95602824D01*
X123940088Y-95573127D01*
X123964858Y-95568200D01*
X124142342Y-95568200D01*
X124167112Y-95573127D01*
G37*
G36*
X146773112Y-93033127D02*
G01*
X146922412Y-93062824D01*
X147086384Y-93130744D01*
X147233954Y-93229347D01*
X147359453Y-93354846D01*
X147458056Y-93502416D01*
X147525976Y-93666388D01*
X147560600Y-93840459D01*
X147560600Y-94017941D01*
X147525976Y-94192012D01*
X147458056Y-94355984D01*
X147359453Y-94503554D01*
X147233954Y-94629053D01*
X147086384Y-94727656D01*
X146922412Y-94795576D01*
X146773112Y-94825273D01*
X146748342Y-94830200D01*
X146570858Y-94830200D01*
X146546088Y-94825273D01*
X146396788Y-94795576D01*
X146232816Y-94727656D01*
X146085246Y-94629053D01*
X145959747Y-94503554D01*
X145861144Y-94355984D01*
X145793224Y-94192012D01*
X145758600Y-94017941D01*
X145758600Y-93840459D01*
X145793224Y-93666388D01*
X145861144Y-93502416D01*
X145959747Y-93354846D01*
X146085246Y-93229347D01*
X146232816Y-93130744D01*
X146396788Y-93062824D01*
X146546088Y-93033127D01*
X146570858Y-93028200D01*
X146748342Y-93028200D01*
X146773112Y-93033127D01*
G37*
G36*
X144233112Y-93033127D02*
G01*
X144382412Y-93062824D01*
X144546384Y-93130744D01*
X144693954Y-93229347D01*
X144819453Y-93354846D01*
X144918056Y-93502416D01*
X144985976Y-93666388D01*
X145020600Y-93840459D01*
X145020600Y-94017941D01*
X144985976Y-94192012D01*
X144918056Y-94355984D01*
X144819453Y-94503554D01*
X144693954Y-94629053D01*
X144546384Y-94727656D01*
X144382412Y-94795576D01*
X144233112Y-94825273D01*
X144208342Y-94830200D01*
X144030858Y-94830200D01*
X144006088Y-94825273D01*
X143856788Y-94795576D01*
X143692816Y-94727656D01*
X143545246Y-94629053D01*
X143419747Y-94503554D01*
X143321144Y-94355984D01*
X143253224Y-94192012D01*
X143218600Y-94017941D01*
X143218600Y-93840459D01*
X143253224Y-93666388D01*
X143321144Y-93502416D01*
X143419747Y-93354846D01*
X143545246Y-93229347D01*
X143692816Y-93130744D01*
X143856788Y-93062824D01*
X144006088Y-93033127D01*
X144030858Y-93028200D01*
X144208342Y-93028200D01*
X144233112Y-93033127D01*
G37*
G36*
X124167112Y-93033127D02*
G01*
X124316412Y-93062824D01*
X124480384Y-93130744D01*
X124627954Y-93229347D01*
X124753453Y-93354846D01*
X124852056Y-93502416D01*
X124919976Y-93666388D01*
X124954600Y-93840459D01*
X124954600Y-94017941D01*
X124919976Y-94192012D01*
X124852056Y-94355984D01*
X124753453Y-94503554D01*
X124627954Y-94629053D01*
X124480384Y-94727656D01*
X124316412Y-94795576D01*
X124167112Y-94825273D01*
X124142342Y-94830200D01*
X123964858Y-94830200D01*
X123940088Y-94825273D01*
X123790788Y-94795576D01*
X123626816Y-94727656D01*
X123479246Y-94629053D01*
X123353747Y-94503554D01*
X123255144Y-94355984D01*
X123187224Y-94192012D01*
X123152600Y-94017941D01*
X123152600Y-93840459D01*
X123187224Y-93666388D01*
X123255144Y-93502416D01*
X123353747Y-93354846D01*
X123479246Y-93229347D01*
X123626816Y-93130744D01*
X123790788Y-93062824D01*
X123940088Y-93033127D01*
X123964858Y-93028200D01*
X124142342Y-93028200D01*
X124167112Y-93033127D01*
G37*
G36*
X126707112Y-93033127D02*
G01*
X126856412Y-93062824D01*
X127020384Y-93130744D01*
X127167954Y-93229347D01*
X127293453Y-93354846D01*
X127392056Y-93502416D01*
X127459976Y-93666388D01*
X127494600Y-93840459D01*
X127494600Y-94017941D01*
X127459976Y-94192012D01*
X127392056Y-94355984D01*
X127293453Y-94503554D01*
X127167954Y-94629053D01*
X127020384Y-94727656D01*
X126856412Y-94795576D01*
X126707112Y-94825273D01*
X126682342Y-94830200D01*
X126504858Y-94830200D01*
X126480088Y-94825273D01*
X126330788Y-94795576D01*
X126166816Y-94727656D01*
X126019246Y-94629053D01*
X125893747Y-94503554D01*
X125795144Y-94355984D01*
X125727224Y-94192012D01*
X125692600Y-94017941D01*
X125692600Y-93840459D01*
X125727224Y-93666388D01*
X125795144Y-93502416D01*
X125893747Y-93354846D01*
X126019246Y-93229347D01*
X126166816Y-93130744D01*
X126330788Y-93062824D01*
X126480088Y-93033127D01*
X126504858Y-93028200D01*
X126682342Y-93028200D01*
X126707112Y-93033127D01*
G37*
G36*
X136443000Y-88702200D02*
G01*
X135591000Y-88702200D01*
X135591000Y-86500200D01*
X136443000Y-86500200D01*
X136443000Y-88702200D01*
G37*
G36*
X126283000Y-88702200D02*
G01*
X125431000Y-88702200D01*
X125431000Y-86500200D01*
X126283000Y-86500200D01*
X126283000Y-88702200D01*
G37*
G36*
X125013000Y-88702200D02*
G01*
X124161000Y-88702200D01*
X124161000Y-86500200D01*
X125013000Y-86500200D01*
X125013000Y-88702200D01*
G37*
G36*
X123743000Y-88702200D02*
G01*
X122891000Y-88702200D01*
X122891000Y-86500200D01*
X123743000Y-86500200D01*
X123743000Y-88702200D01*
G37*
G36*
X127553000Y-88702200D02*
G01*
X126701000Y-88702200D01*
X126701000Y-86500200D01*
X127553000Y-86500200D01*
X127553000Y-88702200D01*
G37*
G36*
X146603000Y-88702200D02*
G01*
X145751000Y-88702200D01*
X145751000Y-86500200D01*
X146603000Y-86500200D01*
X146603000Y-88702200D01*
G37*
G36*
X144063000Y-88702200D02*
G01*
X143211000Y-88702200D01*
X143211000Y-86500200D01*
X144063000Y-86500200D01*
X144063000Y-88702200D01*
G37*
G36*
X147873000Y-88702200D02*
G01*
X147021000Y-88702200D01*
X147021000Y-86500200D01*
X147873000Y-86500200D01*
X147873000Y-88702200D01*
G37*
G36*
X142793000Y-88702200D02*
G01*
X141941000Y-88702200D01*
X141941000Y-86500200D01*
X142793000Y-86500200D01*
X142793000Y-88702200D01*
G37*
G36*
X130093000Y-88702200D02*
G01*
X129241000Y-88702200D01*
X129241000Y-86500200D01*
X130093000Y-86500200D01*
X130093000Y-88702200D01*
G37*
G36*
X131363000Y-88702200D02*
G01*
X130511000Y-88702200D01*
X130511000Y-86500200D01*
X131363000Y-86500200D01*
X131363000Y-88702200D01*
G37*
G36*
X145333000Y-88702200D02*
G01*
X144481000Y-88702200D01*
X144481000Y-86500200D01*
X145333000Y-86500200D01*
X145333000Y-88702200D01*
G37*
G36*
X140253000Y-88702200D02*
G01*
X139401000Y-88702200D01*
X139401000Y-86500200D01*
X140253000Y-86500200D01*
X140253000Y-88702200D01*
G37*
G36*
X132633000Y-88702200D02*
G01*
X131781000Y-88702200D01*
X131781000Y-86500200D01*
X132633000Y-86500200D01*
X132633000Y-88702200D01*
G37*
G36*
X138983000Y-88702200D02*
G01*
X138131000Y-88702200D01*
X138131000Y-86500200D01*
X138983000Y-86500200D01*
X138983000Y-88702200D01*
G37*
G36*
X133903000Y-88702200D02*
G01*
X133051000Y-88702200D01*
X133051000Y-86500200D01*
X133903000Y-86500200D01*
X133903000Y-88702200D01*
G37*
G36*
X137713000Y-88702200D02*
G01*
X136861000Y-88702200D01*
X136861000Y-86500200D01*
X137713000Y-86500200D01*
X137713000Y-88702200D01*
G37*
G36*
X135173000Y-88702200D02*
G01*
X134321000Y-88702200D01*
X134321000Y-86500200D01*
X135173000Y-86500200D01*
X135173000Y-88702200D01*
G37*
G36*
X128823000Y-88702200D02*
G01*
X127971000Y-88702200D01*
X127971000Y-86500200D01*
X128823000Y-86500200D01*
X128823000Y-88702200D01*
G37*
G36*
X141523000Y-88702200D02*
G01*
X140671000Y-88702200D01*
X140671000Y-86500200D01*
X141523000Y-86500200D01*
X141523000Y-88702200D01*
G37*
G36*
X154110098Y-82405233D02*
G01*
X154574350Y-82597532D01*
X154574352Y-82597533D01*
X154992168Y-82876709D01*
X155347491Y-83232032D01*
X155482575Y-83434200D01*
X155626668Y-83649850D01*
X155818967Y-84114102D01*
X155917000Y-84606947D01*
X155917000Y-85109453D01*
X155818967Y-85602298D01*
X155697093Y-85896529D01*
X155626667Y-86066552D01*
X155347491Y-86484368D01*
X154992168Y-86839691D01*
X154574352Y-87118867D01*
X154574351Y-87118868D01*
X154574350Y-87118868D01*
X154110098Y-87311167D01*
X153617253Y-87409200D01*
X153114747Y-87409200D01*
X152621902Y-87311167D01*
X152157650Y-87118868D01*
X152157649Y-87118868D01*
X152157648Y-87118867D01*
X151739832Y-86839691D01*
X151384509Y-86484368D01*
X151105333Y-86066552D01*
X151034907Y-85896529D01*
X150913033Y-85602298D01*
X150815000Y-85109453D01*
X150815000Y-84606947D01*
X150913033Y-84114102D01*
X151105332Y-83649850D01*
X151249425Y-83434200D01*
X151384509Y-83232032D01*
X151739832Y-82876709D01*
X152157648Y-82597533D01*
X152157650Y-82597532D01*
X152621902Y-82405233D01*
X153114747Y-82307200D01*
X153617253Y-82307200D01*
X154110098Y-82405233D01*
G37*
G36*
X118108098Y-82405233D02*
G01*
X118572350Y-82597532D01*
X118572352Y-82597533D01*
X118990168Y-82876709D01*
X119345491Y-83232032D01*
X119480575Y-83434200D01*
X119624668Y-83649850D01*
X119816967Y-84114102D01*
X119915000Y-84606947D01*
X119915000Y-85109453D01*
X119816967Y-85602298D01*
X119695093Y-85896529D01*
X119624667Y-86066552D01*
X119345491Y-86484368D01*
X118990168Y-86839691D01*
X118572352Y-87118867D01*
X118572351Y-87118868D01*
X118572350Y-87118868D01*
X118108098Y-87311167D01*
X117615253Y-87409200D01*
X117112747Y-87409200D01*
X116619902Y-87311167D01*
X116155650Y-87118868D01*
X116155649Y-87118868D01*
X116155648Y-87118867D01*
X115737832Y-86839691D01*
X115382509Y-86484368D01*
X115103333Y-86066552D01*
X115032907Y-85896529D01*
X114911033Y-85602298D01*
X114813000Y-85109453D01*
X114813000Y-84606947D01*
X114911033Y-84114102D01*
X115103332Y-83649850D01*
X115247425Y-83434200D01*
X115382509Y-83232032D01*
X115737832Y-82876709D01*
X116155648Y-82597533D01*
X116155650Y-82597532D01*
X116619902Y-82405233D01*
X117112747Y-82307200D01*
X117615253Y-82307200D01*
X118108098Y-82405233D01*
G37*
G36*
X132633000Y-85102200D02*
G01*
X131781000Y-85102200D01*
X131781000Y-82900200D01*
X132633000Y-82900200D01*
X132633000Y-85102200D01*
G37*
G36*
X131363000Y-85102200D02*
G01*
X130511000Y-85102200D01*
X130511000Y-82900200D01*
X131363000Y-82900200D01*
X131363000Y-85102200D01*
G37*
G36*
X130093000Y-85102200D02*
G01*
X129241000Y-85102200D01*
X129241000Y-82900200D01*
X130093000Y-82900200D01*
X130093000Y-85102200D01*
G37*
G36*
X128823000Y-85102200D02*
G01*
X127971000Y-85102200D01*
X127971000Y-82900200D01*
X128823000Y-82900200D01*
X128823000Y-85102200D01*
G37*
G36*
X127553000Y-85102200D02*
G01*
X126701000Y-85102200D01*
X126701000Y-82900200D01*
X127553000Y-82900200D01*
X127553000Y-85102200D01*
G37*
G36*
X126283000Y-85102200D02*
G01*
X125431000Y-85102200D01*
X125431000Y-82900200D01*
X126283000Y-82900200D01*
X126283000Y-85102200D01*
G37*
G36*
X125013000Y-85102200D02*
G01*
X124161000Y-85102200D01*
X124161000Y-82900200D01*
X125013000Y-82900200D01*
X125013000Y-85102200D01*
G37*
G36*
X123743000Y-85102200D02*
G01*
X122891000Y-85102200D01*
X122891000Y-82900200D01*
X123743000Y-82900200D01*
X123743000Y-85102200D01*
G37*
G36*
X135173000Y-85102200D02*
G01*
X134321000Y-85102200D01*
X134321000Y-82900200D01*
X135173000Y-82900200D01*
X135173000Y-85102200D01*
G37*
G36*
X137713000Y-85102200D02*
G01*
X136861000Y-85102200D01*
X136861000Y-82900200D01*
X137713000Y-82900200D01*
X137713000Y-85102200D01*
G37*
G36*
X138983000Y-85102200D02*
G01*
X138131000Y-85102200D01*
X138131000Y-82900200D01*
X138983000Y-82900200D01*
X138983000Y-85102200D01*
G37*
G36*
X140253000Y-85102200D02*
G01*
X139401000Y-85102200D01*
X139401000Y-82900200D01*
X140253000Y-82900200D01*
X140253000Y-85102200D01*
G37*
G36*
X141523000Y-85102200D02*
G01*
X140671000Y-85102200D01*
X140671000Y-82900200D01*
X141523000Y-82900200D01*
X141523000Y-85102200D01*
G37*
G36*
X142793000Y-85102200D02*
G01*
X141941000Y-85102200D01*
X141941000Y-82900200D01*
X142793000Y-82900200D01*
X142793000Y-85102200D01*
G37*
G36*
X144063000Y-85102200D02*
G01*
X143211000Y-85102200D01*
X143211000Y-82900200D01*
X144063000Y-82900200D01*
X144063000Y-85102200D01*
G37*
G36*
X145333000Y-85102200D02*
G01*
X144481000Y-85102200D01*
X144481000Y-82900200D01*
X145333000Y-82900200D01*
X145333000Y-85102200D01*
G37*
G36*
X136443000Y-85102200D02*
G01*
X135591000Y-85102200D01*
X135591000Y-82900200D01*
X136443000Y-82900200D01*
X136443000Y-85102200D01*
G37*
G36*
X133903000Y-85102200D02*
G01*
X133051000Y-85102200D01*
X133051000Y-82900200D01*
X133903000Y-82900200D01*
X133903000Y-85102200D01*
G37*
G36*
X146603000Y-85102200D02*
G01*
X145751000Y-85102200D01*
X145751000Y-82900200D01*
X146603000Y-82900200D01*
X146603000Y-85102200D01*
G37*
G36*
X147873000Y-85102200D02*
G01*
X147021000Y-85102200D01*
X147021000Y-82900200D01*
X147873000Y-82900200D01*
X147873000Y-85102200D01*
G37*
M02*
