G04 #@! TF.GenerationSoftware,KiCad,Pcbnew,(5.1.6)-1*
G04 #@! TF.CreationDate,2020-11-06T20:31:41+01:00*
G04 #@! TF.ProjectId,DynOSSAT-EDU-HeaderAdapter,44796e4f-5353-4415-942d-4544552d4865,rev?*
G04 #@! TF.SameCoordinates,Original*
G04 #@! TF.FileFunction,Copper,L1,Top*
G04 #@! TF.FilePolarity,Positive*
%FSLAX46Y46*%
G04 Gerber Fmt 4.6, Leading zero omitted, Abs format (unit mm)*
G04 Created by KiCad (PCBNEW (5.1.6)-1) date 2020-11-06 20:31:41*
%MOMM*%
%LPD*%
G01*
G04 APERTURE LIST*
G04 #@! TA.AperFunction,ComponentPad*
%ADD10C,5.000000*%
G04 #@! TD*
G04 #@! TA.AperFunction,ComponentPad*
%ADD11C,0.800000*%
G04 #@! TD*
G04 #@! TA.AperFunction,ComponentPad*
%ADD12R,1.700000X1.700000*%
G04 #@! TD*
G04 #@! TA.AperFunction,ComponentPad*
%ADD13O,1.700000X1.700000*%
G04 #@! TD*
G04 #@! TA.AperFunction,ViaPad*
%ADD14C,0.400000*%
G04 #@! TD*
G04 #@! TA.AperFunction,ViaPad*
%ADD15C,0.450000*%
G04 #@! TD*
G04 #@! TA.AperFunction,Conductor*
%ADD16C,0.400000*%
G04 #@! TD*
G04 #@! TA.AperFunction,Conductor*
%ADD17C,0.250000*%
G04 #@! TD*
G04 #@! TA.AperFunction,Conductor*
%ADD18C,0.200000*%
G04 #@! TD*
G04 APERTURE END LIST*
D10*
X153366000Y-84858200D03*
D11*
X155241000Y-84858200D03*
X154691825Y-86184025D03*
X153366000Y-86733200D03*
X152040175Y-86184025D03*
X151491000Y-84858200D03*
X152040175Y-83532375D03*
X153366000Y-82983200D03*
X154691825Y-83532375D03*
D10*
X153366000Y-120853200D03*
D11*
X155241000Y-120853200D03*
X154691825Y-122179025D03*
X153366000Y-122728200D03*
X152040175Y-122179025D03*
X151491000Y-120853200D03*
X152040175Y-119527375D03*
X153366000Y-118978200D03*
X154691825Y-119527375D03*
X118689825Y-119517375D03*
X117364000Y-118968200D03*
X116038175Y-119517375D03*
X115489000Y-120843200D03*
X116038175Y-122169025D03*
X117364000Y-122718200D03*
X118689825Y-122169025D03*
X119239000Y-120843200D03*
D10*
X117364000Y-120843200D03*
D11*
X118689825Y-83532375D03*
X117364000Y-82983200D03*
X116038175Y-83532375D03*
X115489000Y-84858200D03*
X116038175Y-86184025D03*
X117364000Y-86733200D03*
X118689825Y-86184025D03*
X119239000Y-84858200D03*
D10*
X117364000Y-84858200D03*
D12*
X126593600Y-116789200D03*
D13*
X124053600Y-116789200D03*
X126593600Y-114249200D03*
X124053600Y-114249200D03*
X126593600Y-111709200D03*
X124053600Y-111709200D03*
X126593600Y-109169200D03*
X124053600Y-109169200D03*
X126593600Y-106629200D03*
X124053600Y-106629200D03*
X126593600Y-104089200D03*
X124053600Y-104089200D03*
X126593600Y-101549200D03*
X124053600Y-101549200D03*
X126593600Y-99009200D03*
X124053600Y-99009200D03*
X126593600Y-96469200D03*
X124053600Y-96469200D03*
X126593600Y-93929200D03*
X124053600Y-93929200D03*
X144119600Y-93929200D03*
X146659600Y-93929200D03*
X144119600Y-96469200D03*
X146659600Y-96469200D03*
X144119600Y-99009200D03*
X146659600Y-99009200D03*
X144119600Y-101549200D03*
X146659600Y-101549200D03*
X144119600Y-104089200D03*
X146659600Y-104089200D03*
X144119600Y-106629200D03*
X146659600Y-106629200D03*
X144119600Y-109169200D03*
X146659600Y-109169200D03*
X144119600Y-111709200D03*
X146659600Y-111709200D03*
X144119600Y-114249200D03*
X146659600Y-114249200D03*
X144119600Y-116789200D03*
D12*
X146659600Y-116789200D03*
G04 #@! TA.AperFunction,SMDPad,CuDef*
G36*
G01*
X133903000Y-109539250D02*
X133903000Y-109026750D01*
G75*
G02*
X134121750Y-108808000I218750J0D01*
G01*
X134559250Y-108808000D01*
G75*
G02*
X134778000Y-109026750I0J-218750D01*
G01*
X134778000Y-109539250D01*
G75*
G02*
X134559250Y-109758000I-218750J0D01*
G01*
X134121750Y-109758000D01*
G75*
G02*
X133903000Y-109539250I0J218750D01*
G01*
G37*
G04 #@! TD.AperFunction*
G04 #@! TA.AperFunction,SMDPad,CuDef*
G36*
G01*
X135478000Y-109539250D02*
X135478000Y-109026750D01*
G75*
G02*
X135696750Y-108808000I218750J0D01*
G01*
X136134250Y-108808000D01*
G75*
G02*
X136353000Y-109026750I0J-218750D01*
G01*
X136353000Y-109539250D01*
G75*
G02*
X136134250Y-109758000I-218750J0D01*
G01*
X135696750Y-109758000D01*
G75*
G02*
X135478000Y-109539250I0J218750D01*
G01*
G37*
G04 #@! TD.AperFunction*
G04 #@! TA.AperFunction,SMDPad,CuDef*
G36*
G01*
X134348000Y-107931500D02*
X134348000Y-107586500D01*
G75*
G02*
X134495500Y-107439000I147500J0D01*
G01*
X134790500Y-107439000D01*
G75*
G02*
X134938000Y-107586500I0J-147500D01*
G01*
X134938000Y-107931500D01*
G75*
G02*
X134790500Y-108079000I-147500J0D01*
G01*
X134495500Y-108079000D01*
G75*
G02*
X134348000Y-107931500I0J147500D01*
G01*
G37*
G04 #@! TD.AperFunction*
G04 #@! TA.AperFunction,SMDPad,CuDef*
G36*
G01*
X135318000Y-107931500D02*
X135318000Y-107586500D01*
G75*
G02*
X135465500Y-107439000I147500J0D01*
G01*
X135760500Y-107439000D01*
G75*
G02*
X135908000Y-107586500I0J-147500D01*
G01*
X135908000Y-107931500D01*
G75*
G02*
X135760500Y-108079000I-147500J0D01*
G01*
X135465500Y-108079000D01*
G75*
G02*
X135318000Y-107931500I0J147500D01*
G01*
G37*
G04 #@! TD.AperFunction*
D14*
X125831600Y-85801200D03*
X122783600Y-95199200D03*
X122783600Y-97739200D03*
X122783600Y-100279200D03*
X148437600Y-87579200D03*
X127101600Y-85801200D03*
X142367000Y-82499200D03*
X128371600Y-85801200D03*
X129641600Y-85801200D03*
X130911600Y-85801200D03*
X132181600Y-85801200D03*
X133451600Y-85801200D03*
X134721600Y-85801200D03*
X135991600Y-85801200D03*
X137261600Y-85801200D03*
X138531600Y-85801200D03*
X143637000Y-85775800D03*
X144881600Y-85801200D03*
X146151600Y-85801200D03*
X147447000Y-85775800D03*
X123291600Y-85801200D03*
X142367000Y-85852000D03*
X122072400Y-83997800D03*
X123317000Y-82448400D03*
X124561600Y-85801200D03*
D15*
X134027000Y-106426000D03*
D14*
X139801600Y-85801200D03*
X141071600Y-85801200D03*
D16*
X125831600Y-91135200D02*
X125831600Y-85801200D01*
X125323600Y-95199200D02*
X127355600Y-95199200D01*
X124053600Y-96469200D02*
X125323600Y-95199200D01*
X127355600Y-95199200D02*
X128117600Y-94437200D01*
X128117600Y-94437200D02*
X128117600Y-93421200D01*
X128117600Y-93421200D02*
X125831600Y-91135200D01*
D17*
X125323600Y-97739200D02*
X128371600Y-97739200D01*
X128371600Y-86084042D02*
X128371600Y-85801200D01*
X124053600Y-99009200D02*
X125323600Y-97739200D01*
X128879600Y-86592042D02*
X128371600Y-86084042D01*
X128371600Y-97739200D02*
X128879600Y-97231200D01*
X128879600Y-97231200D02*
X128879600Y-86592042D01*
X129641600Y-98247200D02*
X129641600Y-85801200D01*
X126593600Y-99009200D02*
X128879600Y-99009200D01*
X128879600Y-99009200D02*
X129641600Y-98247200D01*
X125323600Y-100279200D02*
X124903599Y-100699201D01*
X129387600Y-100279200D02*
X125323600Y-100279200D01*
X124903599Y-100699201D02*
X124053600Y-101549200D01*
X130911600Y-85801200D02*
X130911600Y-98755200D01*
X130911600Y-98755200D02*
X129387600Y-100279200D01*
X134226700Y-109169200D02*
X134340500Y-109283000D01*
X134340500Y-110007500D02*
X134340500Y-109283000D01*
X126593600Y-114249200D02*
X130098800Y-114249200D01*
X130098800Y-114249200D02*
X134340500Y-110007500D01*
X126593600Y-101549200D02*
X129387600Y-101549200D01*
X129387600Y-101549200D02*
X132181600Y-98755200D01*
X132181600Y-98755200D02*
X132181600Y-85801200D01*
X133451600Y-99009200D02*
X133451600Y-85801200D01*
X129641600Y-102819200D02*
X133451600Y-99009200D01*
X124053600Y-104089200D02*
X125323600Y-102819200D01*
X125323600Y-102819200D02*
X129641600Y-102819200D01*
X134721600Y-85801200D02*
X134721600Y-99009200D01*
X129641600Y-104089200D02*
X126593600Y-104089200D01*
X134721600Y-99009200D02*
X129641600Y-104089200D01*
X135991600Y-85801200D02*
X135991600Y-99009200D01*
X141071600Y-104089200D02*
X144119600Y-104089200D01*
X135991600Y-99009200D02*
X141071600Y-104089200D01*
X137261600Y-99263200D02*
X137261600Y-85801200D01*
X140817600Y-102819200D02*
X137261600Y-99263200D01*
X146659600Y-104089200D02*
X145389600Y-102819200D01*
X145389600Y-102819200D02*
X140817600Y-102819200D01*
X140817600Y-101549200D02*
X144119600Y-101549200D01*
X138531600Y-85801200D02*
X138531600Y-99263200D01*
X138531600Y-99263200D02*
X140817600Y-101549200D01*
X142849600Y-96469200D02*
X144119600Y-96469200D01*
X142087600Y-95707200D02*
X142849600Y-96469200D01*
X143637000Y-85775800D02*
X142087600Y-87325200D01*
X142087600Y-87325200D02*
X142087600Y-95707200D01*
X145809601Y-95619201D02*
X146659600Y-96469200D01*
X142849600Y-87833200D02*
X142849600Y-94691200D01*
X144881600Y-85801200D02*
X142849600Y-87833200D01*
X142849600Y-94691200D02*
X143357600Y-95199200D01*
X145389600Y-95199200D02*
X145809601Y-95619201D01*
X143357600Y-95199200D02*
X145389600Y-95199200D01*
X146151600Y-91897200D02*
X144119600Y-93929200D01*
X146151600Y-85801200D02*
X146151600Y-91897200D01*
X147447000Y-93141800D02*
X146659600Y-93929200D01*
X147447000Y-85775800D02*
X147447000Y-93141800D01*
D16*
X123291600Y-93167200D02*
X124053600Y-93929200D01*
X123291600Y-85801200D02*
X123291600Y-93167200D01*
X124561600Y-91897200D02*
X126593600Y-93929200D01*
X124561600Y-85801200D02*
X124561600Y-91897200D01*
D17*
X134643000Y-107759000D02*
X134643000Y-107042000D01*
X134643000Y-107042000D02*
X134027000Y-106426000D01*
X145809601Y-100699201D02*
X146659600Y-101549200D01*
X140817600Y-100279200D02*
X145389600Y-100279200D01*
X145389600Y-100279200D02*
X145809601Y-100699201D01*
X139801600Y-85801200D02*
X139801600Y-99263200D01*
X139801600Y-99263200D02*
X140817600Y-100279200D01*
X141579600Y-99009200D02*
X144119600Y-99009200D01*
X141071600Y-85801200D02*
X141071600Y-98501200D01*
X141071600Y-98501200D02*
X141579600Y-99009200D01*
X135763000Y-109130500D02*
X135915500Y-109283000D01*
X135613000Y-107759000D02*
X135763000Y-107909000D01*
X135763000Y-107909000D02*
X135763000Y-109130500D01*
D18*
G36*
X152039703Y-82376872D02*
G01*
X151581104Y-82683298D01*
X151191098Y-83073304D01*
X150884672Y-83531903D01*
X150673602Y-84041470D01*
X150566000Y-84582424D01*
X150566000Y-85133976D01*
X150673602Y-85674930D01*
X150884672Y-86184497D01*
X151191098Y-86643096D01*
X151581104Y-87033102D01*
X152039703Y-87339528D01*
X152549270Y-87550598D01*
X153090224Y-87658200D01*
X153641776Y-87658200D01*
X154182730Y-87550598D01*
X154692297Y-87339528D01*
X155150896Y-87033102D01*
X155540902Y-86643096D01*
X155847328Y-86184497D01*
X155973000Y-85881099D01*
X155973001Y-119830304D01*
X155847328Y-119526903D01*
X155540902Y-119068304D01*
X155150896Y-118678298D01*
X154692297Y-118371872D01*
X154182730Y-118160802D01*
X153641776Y-118053200D01*
X153090224Y-118053200D01*
X152549270Y-118160802D01*
X152039703Y-118371872D01*
X151581104Y-118678298D01*
X151191098Y-119068304D01*
X150884672Y-119526903D01*
X150673602Y-120036470D01*
X150566000Y-120577424D01*
X150566000Y-121128976D01*
X150673602Y-121669930D01*
X150884672Y-122179497D01*
X151191098Y-122638096D01*
X151581104Y-123028102D01*
X152039703Y-123334528D01*
X152345033Y-123461000D01*
X151666292Y-123461000D01*
X151628092Y-123337594D01*
X151614920Y-123306259D01*
X151602189Y-123274749D01*
X151599731Y-123270125D01*
X151506907Y-123098449D01*
X151487900Y-123070270D01*
X151469289Y-123041830D01*
X151465980Y-123037772D01*
X151341576Y-122887394D01*
X151317430Y-122863416D01*
X151293679Y-122839163D01*
X151289645Y-122835825D01*
X151138403Y-122712475D01*
X151110090Y-122693664D01*
X151082050Y-122674464D01*
X151077444Y-122671974D01*
X150905121Y-122580348D01*
X150873686Y-122567392D01*
X150842459Y-122554008D01*
X150837457Y-122552459D01*
X150650621Y-122496050D01*
X150617273Y-122489447D01*
X150584035Y-122482382D01*
X150578827Y-122481835D01*
X150384594Y-122462790D01*
X150366419Y-122461000D01*
X148939600Y-122461000D01*
X148939600Y-118746019D01*
X148941414Y-118727600D01*
X148934174Y-118654087D01*
X148912731Y-118583400D01*
X148877909Y-118518253D01*
X148831048Y-118461152D01*
X148773947Y-118414291D01*
X148708800Y-118379469D01*
X148638113Y-118358026D01*
X148583019Y-118352600D01*
X148564600Y-118350786D01*
X148546181Y-118352600D01*
X122294019Y-118352600D01*
X122275600Y-118350786D01*
X122257181Y-118352600D01*
X122202087Y-118358026D01*
X122131400Y-118379469D01*
X122066253Y-118414291D01*
X122009152Y-118461152D01*
X121962291Y-118518253D01*
X121927469Y-118583400D01*
X121906026Y-118654087D01*
X121898786Y-118727600D01*
X121900600Y-118746019D01*
X121900601Y-122459711D01*
X120327525Y-122461018D01*
X120311599Y-122462600D01*
X120307031Y-122462568D01*
X120301820Y-122463078D01*
X120107723Y-122483479D01*
X120074359Y-122490328D01*
X120041045Y-122496683D01*
X120036036Y-122498195D01*
X120036030Y-122498196D01*
X120036024Y-122498198D01*
X119849594Y-122555908D01*
X119818259Y-122569080D01*
X119786749Y-122581811D01*
X119782125Y-122584269D01*
X119610449Y-122677093D01*
X119582270Y-122696100D01*
X119553830Y-122714711D01*
X119549772Y-122718020D01*
X119399394Y-122842424D01*
X119375416Y-122866570D01*
X119351163Y-122890321D01*
X119347825Y-122894355D01*
X119224475Y-123045597D01*
X119205664Y-123073910D01*
X119186464Y-123101950D01*
X119183974Y-123106556D01*
X119092348Y-123278879D01*
X119079392Y-123310314D01*
X119066008Y-123341541D01*
X119064459Y-123346543D01*
X119029902Y-123461000D01*
X118360825Y-123461000D01*
X118690297Y-123324528D01*
X119148896Y-123018102D01*
X119538902Y-122628096D01*
X119845328Y-122169497D01*
X120056398Y-121659930D01*
X120164000Y-121118976D01*
X120164000Y-120567424D01*
X120056398Y-120026470D01*
X119845328Y-119516903D01*
X119538902Y-119058304D01*
X119148896Y-118668298D01*
X118690297Y-118361872D01*
X118180730Y-118150802D01*
X117639776Y-118043200D01*
X117088224Y-118043200D01*
X116547270Y-118150802D01*
X116037703Y-118361872D01*
X115579104Y-118668298D01*
X115189098Y-119058304D01*
X114882672Y-119516903D01*
X114723000Y-119902385D01*
X114723000Y-116675935D01*
X122903600Y-116675935D01*
X122903600Y-116902465D01*
X122947794Y-117124643D01*
X123034484Y-117333929D01*
X123160337Y-117522282D01*
X123320518Y-117682463D01*
X123508871Y-117808316D01*
X123718157Y-117895006D01*
X123940335Y-117939200D01*
X124166865Y-117939200D01*
X124389043Y-117895006D01*
X124598329Y-117808316D01*
X124786682Y-117682463D01*
X124946863Y-117522282D01*
X125072716Y-117333929D01*
X125159406Y-117124643D01*
X125203600Y-116902465D01*
X125203600Y-116675935D01*
X125159406Y-116453757D01*
X125072716Y-116244471D01*
X124946863Y-116056118D01*
X124829945Y-115939200D01*
X125442149Y-115939200D01*
X125442149Y-117639200D01*
X125447941Y-117698010D01*
X125465096Y-117754560D01*
X125492953Y-117806677D01*
X125530442Y-117852358D01*
X125576123Y-117889847D01*
X125628240Y-117917704D01*
X125684790Y-117934859D01*
X125743600Y-117940651D01*
X127443600Y-117940651D01*
X127502410Y-117934859D01*
X127558960Y-117917704D01*
X127611077Y-117889847D01*
X127656758Y-117852358D01*
X127694247Y-117806677D01*
X127722104Y-117754560D01*
X127739259Y-117698010D01*
X127745051Y-117639200D01*
X127745051Y-117168110D01*
X142711697Y-117168110D01*
X142738454Y-117256339D01*
X142856127Y-117516811D01*
X143022354Y-117749322D01*
X143230748Y-117944936D01*
X143473300Y-118096135D01*
X143740689Y-118197109D01*
X143965600Y-118087050D01*
X143965600Y-116943200D01*
X142822711Y-116943200D01*
X142711697Y-117168110D01*
X127745051Y-117168110D01*
X127745051Y-116410290D01*
X142711697Y-116410290D01*
X142822711Y-116635200D01*
X143965600Y-116635200D01*
X143965600Y-116615200D01*
X144273600Y-116615200D01*
X144273600Y-116635200D01*
X144293600Y-116635200D01*
X144293600Y-116943200D01*
X144273600Y-116943200D01*
X144273600Y-118087050D01*
X144498511Y-118197109D01*
X144765900Y-118096135D01*
X145008452Y-117944936D01*
X145216846Y-117749322D01*
X145383073Y-117516811D01*
X145500746Y-117256339D01*
X145508149Y-117231928D01*
X145508149Y-117639200D01*
X145513941Y-117698010D01*
X145531096Y-117754560D01*
X145558953Y-117806677D01*
X145596442Y-117852358D01*
X145642123Y-117889847D01*
X145694240Y-117917704D01*
X145750790Y-117934859D01*
X145809600Y-117940651D01*
X147509600Y-117940651D01*
X147568410Y-117934859D01*
X147624960Y-117917704D01*
X147677077Y-117889847D01*
X147722758Y-117852358D01*
X147760247Y-117806677D01*
X147788104Y-117754560D01*
X147805259Y-117698010D01*
X147811051Y-117639200D01*
X147811051Y-115939200D01*
X147805259Y-115880390D01*
X147788104Y-115823840D01*
X147760247Y-115771723D01*
X147722758Y-115726042D01*
X147677077Y-115688553D01*
X147624960Y-115660696D01*
X147568410Y-115643541D01*
X147509600Y-115637749D01*
X145809600Y-115637749D01*
X145750790Y-115643541D01*
X145694240Y-115660696D01*
X145642123Y-115688553D01*
X145596442Y-115726042D01*
X145558953Y-115771723D01*
X145531096Y-115823840D01*
X145513941Y-115880390D01*
X145508149Y-115939200D01*
X145508149Y-116346472D01*
X145500746Y-116322061D01*
X145383073Y-116061589D01*
X145216846Y-115829078D01*
X145008452Y-115633464D01*
X144765900Y-115482265D01*
X144498511Y-115381291D01*
X144273602Y-115491349D01*
X144273602Y-115391097D01*
X144455043Y-115355006D01*
X144664329Y-115268316D01*
X144852682Y-115142463D01*
X145012863Y-114982282D01*
X145138716Y-114793929D01*
X145225406Y-114584643D01*
X145269600Y-114362465D01*
X145269600Y-114135935D01*
X145509600Y-114135935D01*
X145509600Y-114362465D01*
X145553794Y-114584643D01*
X145640484Y-114793929D01*
X145766337Y-114982282D01*
X145926518Y-115142463D01*
X146114871Y-115268316D01*
X146324157Y-115355006D01*
X146546335Y-115399200D01*
X146772865Y-115399200D01*
X146995043Y-115355006D01*
X147204329Y-115268316D01*
X147392682Y-115142463D01*
X147552863Y-114982282D01*
X147678716Y-114793929D01*
X147765406Y-114584643D01*
X147809600Y-114362465D01*
X147809600Y-114135935D01*
X147765406Y-113913757D01*
X147678716Y-113704471D01*
X147552863Y-113516118D01*
X147392682Y-113355937D01*
X147204329Y-113230084D01*
X146995043Y-113143394D01*
X146772865Y-113099200D01*
X146546335Y-113099200D01*
X146324157Y-113143394D01*
X146114871Y-113230084D01*
X145926518Y-113355937D01*
X145766337Y-113516118D01*
X145640484Y-113704471D01*
X145553794Y-113913757D01*
X145509600Y-114135935D01*
X145269600Y-114135935D01*
X145225406Y-113913757D01*
X145138716Y-113704471D01*
X145012863Y-113516118D01*
X144852682Y-113355937D01*
X144664329Y-113230084D01*
X144455043Y-113143394D01*
X144232865Y-113099200D01*
X144006335Y-113099200D01*
X143784157Y-113143394D01*
X143574871Y-113230084D01*
X143386518Y-113355937D01*
X143226337Y-113516118D01*
X143100484Y-113704471D01*
X143013794Y-113913757D01*
X142969600Y-114135935D01*
X142969600Y-114362465D01*
X143013794Y-114584643D01*
X143100484Y-114793929D01*
X143226337Y-114982282D01*
X143386518Y-115142463D01*
X143574871Y-115268316D01*
X143784157Y-115355006D01*
X143965598Y-115391097D01*
X143965598Y-115491349D01*
X143740689Y-115381291D01*
X143473300Y-115482265D01*
X143230748Y-115633464D01*
X143022354Y-115829078D01*
X142856127Y-116061589D01*
X142738454Y-116322061D01*
X142711697Y-116410290D01*
X127745051Y-116410290D01*
X127745051Y-115939200D01*
X127739259Y-115880390D01*
X127722104Y-115823840D01*
X127694247Y-115771723D01*
X127656758Y-115726042D01*
X127611077Y-115688553D01*
X127558960Y-115660696D01*
X127502410Y-115643541D01*
X127443600Y-115637749D01*
X125743600Y-115637749D01*
X125684790Y-115643541D01*
X125628240Y-115660696D01*
X125576123Y-115688553D01*
X125530442Y-115726042D01*
X125492953Y-115771723D01*
X125465096Y-115823840D01*
X125447941Y-115880390D01*
X125442149Y-115939200D01*
X124829945Y-115939200D01*
X124786682Y-115895937D01*
X124598329Y-115770084D01*
X124389043Y-115683394D01*
X124166865Y-115639200D01*
X123940335Y-115639200D01*
X123718157Y-115683394D01*
X123508871Y-115770084D01*
X123320518Y-115895937D01*
X123160337Y-116056118D01*
X123034484Y-116244471D01*
X122947794Y-116453757D01*
X122903600Y-116675935D01*
X114723000Y-116675935D01*
X114723000Y-114135935D01*
X122903600Y-114135935D01*
X122903600Y-114362465D01*
X122947794Y-114584643D01*
X123034484Y-114793929D01*
X123160337Y-114982282D01*
X123320518Y-115142463D01*
X123508871Y-115268316D01*
X123718157Y-115355006D01*
X123940335Y-115399200D01*
X124166865Y-115399200D01*
X124389043Y-115355006D01*
X124598329Y-115268316D01*
X124786682Y-115142463D01*
X124946863Y-114982282D01*
X125072716Y-114793929D01*
X125159406Y-114584643D01*
X125203600Y-114362465D01*
X125203600Y-114135935D01*
X125443600Y-114135935D01*
X125443600Y-114362465D01*
X125487794Y-114584643D01*
X125574484Y-114793929D01*
X125700337Y-114982282D01*
X125860518Y-115142463D01*
X126048871Y-115268316D01*
X126258157Y-115355006D01*
X126480335Y-115399200D01*
X126706865Y-115399200D01*
X126929043Y-115355006D01*
X127138329Y-115268316D01*
X127326682Y-115142463D01*
X127486863Y-114982282D01*
X127612716Y-114793929D01*
X127662310Y-114674200D01*
X130077933Y-114674200D01*
X130098800Y-114676255D01*
X130119667Y-114674200D01*
X130119674Y-114674200D01*
X130182114Y-114668050D01*
X130262227Y-114643748D01*
X130336060Y-114604284D01*
X130400774Y-114551174D01*
X130414084Y-114534956D01*
X133353105Y-111595935D01*
X142969600Y-111595935D01*
X142969600Y-111822465D01*
X143013794Y-112044643D01*
X143100484Y-112253929D01*
X143226337Y-112442282D01*
X143386518Y-112602463D01*
X143574871Y-112728316D01*
X143784157Y-112815006D01*
X144006335Y-112859200D01*
X144232865Y-112859200D01*
X144455043Y-112815006D01*
X144664329Y-112728316D01*
X144852682Y-112602463D01*
X145012863Y-112442282D01*
X145138716Y-112253929D01*
X145225406Y-112044643D01*
X145269600Y-111822465D01*
X145269600Y-111595935D01*
X145509600Y-111595935D01*
X145509600Y-111822465D01*
X145553794Y-112044643D01*
X145640484Y-112253929D01*
X145766337Y-112442282D01*
X145926518Y-112602463D01*
X146114871Y-112728316D01*
X146324157Y-112815006D01*
X146546335Y-112859200D01*
X146772865Y-112859200D01*
X146995043Y-112815006D01*
X147204329Y-112728316D01*
X147392682Y-112602463D01*
X147552863Y-112442282D01*
X147678716Y-112253929D01*
X147765406Y-112044643D01*
X147809600Y-111822465D01*
X147809600Y-111595935D01*
X147765406Y-111373757D01*
X147678716Y-111164471D01*
X147552863Y-110976118D01*
X147392682Y-110815937D01*
X147204329Y-110690084D01*
X146995043Y-110603394D01*
X146772865Y-110559200D01*
X146546335Y-110559200D01*
X146324157Y-110603394D01*
X146114871Y-110690084D01*
X145926518Y-110815937D01*
X145766337Y-110976118D01*
X145640484Y-111164471D01*
X145553794Y-111373757D01*
X145509600Y-111595935D01*
X145269600Y-111595935D01*
X145225406Y-111373757D01*
X145138716Y-111164471D01*
X145012863Y-110976118D01*
X144852682Y-110815937D01*
X144664329Y-110690084D01*
X144455043Y-110603394D01*
X144232865Y-110559200D01*
X144006335Y-110559200D01*
X143784157Y-110603394D01*
X143574871Y-110690084D01*
X143386518Y-110815937D01*
X143226337Y-110976118D01*
X143100484Y-111164471D01*
X143013794Y-111373757D01*
X142969600Y-111595935D01*
X133353105Y-111595935D01*
X134626258Y-110322782D01*
X134642474Y-110309474D01*
X134695584Y-110244760D01*
X134735048Y-110170927D01*
X134759350Y-110090814D01*
X134765500Y-110028374D01*
X134765500Y-110028367D01*
X134766784Y-110015330D01*
X134848258Y-109971781D01*
X134927088Y-109907088D01*
X134991781Y-109828258D01*
X135039853Y-109738322D01*
X135069455Y-109640736D01*
X135079451Y-109539250D01*
X135079451Y-109026750D01*
X135069455Y-108925264D01*
X135039853Y-108827678D01*
X134991781Y-108737742D01*
X134927088Y-108658912D01*
X134848258Y-108594219D01*
X134758322Y-108546147D01*
X134660736Y-108516545D01*
X134559250Y-108506549D01*
X134121750Y-108506549D01*
X134020264Y-108516545D01*
X133922678Y-108546147D01*
X133832742Y-108594219D01*
X133753912Y-108658912D01*
X133689219Y-108737742D01*
X133641147Y-108827678D01*
X133611545Y-108925264D01*
X133601549Y-109026750D01*
X133601549Y-109539250D01*
X133611545Y-109640736D01*
X133641147Y-109738322D01*
X133689219Y-109828258D01*
X133753912Y-109907088D01*
X133801126Y-109945834D01*
X129922760Y-113824200D01*
X127662310Y-113824200D01*
X127612716Y-113704471D01*
X127486863Y-113516118D01*
X127326682Y-113355937D01*
X127138329Y-113230084D01*
X126929043Y-113143394D01*
X126706865Y-113099200D01*
X126480335Y-113099200D01*
X126258157Y-113143394D01*
X126048871Y-113230084D01*
X125860518Y-113355937D01*
X125700337Y-113516118D01*
X125574484Y-113704471D01*
X125487794Y-113913757D01*
X125443600Y-114135935D01*
X125203600Y-114135935D01*
X125159406Y-113913757D01*
X125072716Y-113704471D01*
X124946863Y-113516118D01*
X124786682Y-113355937D01*
X124598329Y-113230084D01*
X124389043Y-113143394D01*
X124166865Y-113099200D01*
X123940335Y-113099200D01*
X123718157Y-113143394D01*
X123508871Y-113230084D01*
X123320518Y-113355937D01*
X123160337Y-113516118D01*
X123034484Y-113704471D01*
X122947794Y-113913757D01*
X122903600Y-114135935D01*
X114723000Y-114135935D01*
X114723000Y-111595935D01*
X122903600Y-111595935D01*
X122903600Y-111822465D01*
X122947794Y-112044643D01*
X123034484Y-112253929D01*
X123160337Y-112442282D01*
X123320518Y-112602463D01*
X123508871Y-112728316D01*
X123718157Y-112815006D01*
X123940335Y-112859200D01*
X124166865Y-112859200D01*
X124389043Y-112815006D01*
X124598329Y-112728316D01*
X124786682Y-112602463D01*
X124946863Y-112442282D01*
X125072716Y-112253929D01*
X125159406Y-112044643D01*
X125203600Y-111822465D01*
X125203600Y-111595935D01*
X125443600Y-111595935D01*
X125443600Y-111822465D01*
X125487794Y-112044643D01*
X125574484Y-112253929D01*
X125700337Y-112442282D01*
X125860518Y-112602463D01*
X126048871Y-112728316D01*
X126258157Y-112815006D01*
X126480335Y-112859200D01*
X126706865Y-112859200D01*
X126929043Y-112815006D01*
X127138329Y-112728316D01*
X127326682Y-112602463D01*
X127486863Y-112442282D01*
X127612716Y-112253929D01*
X127699406Y-112044643D01*
X127743600Y-111822465D01*
X127743600Y-111595935D01*
X127699406Y-111373757D01*
X127612716Y-111164471D01*
X127486863Y-110976118D01*
X127326682Y-110815937D01*
X127138329Y-110690084D01*
X126929043Y-110603394D01*
X126706865Y-110559200D01*
X126480335Y-110559200D01*
X126258157Y-110603394D01*
X126048871Y-110690084D01*
X125860518Y-110815937D01*
X125700337Y-110976118D01*
X125574484Y-111164471D01*
X125487794Y-111373757D01*
X125443600Y-111595935D01*
X125203600Y-111595935D01*
X125159406Y-111373757D01*
X125072716Y-111164471D01*
X124946863Y-110976118D01*
X124786682Y-110815937D01*
X124598329Y-110690084D01*
X124389043Y-110603394D01*
X124166865Y-110559200D01*
X123940335Y-110559200D01*
X123718157Y-110603394D01*
X123508871Y-110690084D01*
X123320518Y-110815937D01*
X123160337Y-110976118D01*
X123034484Y-111164471D01*
X122947794Y-111373757D01*
X122903600Y-111595935D01*
X114723000Y-111595935D01*
X114723000Y-109055935D01*
X122903600Y-109055935D01*
X122903600Y-109282465D01*
X122947794Y-109504643D01*
X123034484Y-109713929D01*
X123160337Y-109902282D01*
X123320518Y-110062463D01*
X123508871Y-110188316D01*
X123718157Y-110275006D01*
X123940335Y-110319200D01*
X124166865Y-110319200D01*
X124389043Y-110275006D01*
X124598329Y-110188316D01*
X124786682Y-110062463D01*
X124946863Y-109902282D01*
X125072716Y-109713929D01*
X125159406Y-109504643D01*
X125203600Y-109282465D01*
X125203600Y-109055935D01*
X125443600Y-109055935D01*
X125443600Y-109282465D01*
X125487794Y-109504643D01*
X125574484Y-109713929D01*
X125700337Y-109902282D01*
X125860518Y-110062463D01*
X126048871Y-110188316D01*
X126258157Y-110275006D01*
X126480335Y-110319200D01*
X126706865Y-110319200D01*
X126929043Y-110275006D01*
X127138329Y-110188316D01*
X127326682Y-110062463D01*
X127486863Y-109902282D01*
X127612716Y-109713929D01*
X127699406Y-109504643D01*
X127743600Y-109282465D01*
X127743600Y-109055935D01*
X127699406Y-108833757D01*
X127612716Y-108624471D01*
X127486863Y-108436118D01*
X127326682Y-108275937D01*
X127138329Y-108150084D01*
X126929043Y-108063394D01*
X126706865Y-108019200D01*
X126480335Y-108019200D01*
X126258157Y-108063394D01*
X126048871Y-108150084D01*
X125860518Y-108275937D01*
X125700337Y-108436118D01*
X125574484Y-108624471D01*
X125487794Y-108833757D01*
X125443600Y-109055935D01*
X125203600Y-109055935D01*
X125159406Y-108833757D01*
X125072716Y-108624471D01*
X124946863Y-108436118D01*
X124786682Y-108275937D01*
X124598329Y-108150084D01*
X124389043Y-108063394D01*
X124166865Y-108019200D01*
X123940335Y-108019200D01*
X123718157Y-108063394D01*
X123508871Y-108150084D01*
X123320518Y-108275937D01*
X123160337Y-108436118D01*
X123034484Y-108624471D01*
X122947794Y-108833757D01*
X122903600Y-109055935D01*
X114723000Y-109055935D01*
X114723000Y-106515935D01*
X122903600Y-106515935D01*
X122903600Y-106742465D01*
X122947794Y-106964643D01*
X123034484Y-107173929D01*
X123160337Y-107362282D01*
X123320518Y-107522463D01*
X123508871Y-107648316D01*
X123718157Y-107735006D01*
X123940335Y-107779200D01*
X124166865Y-107779200D01*
X124389043Y-107735006D01*
X124598329Y-107648316D01*
X124786682Y-107522463D01*
X124946863Y-107362282D01*
X125072716Y-107173929D01*
X125159406Y-106964643D01*
X125203600Y-106742465D01*
X125203600Y-106515935D01*
X125443600Y-106515935D01*
X125443600Y-106742465D01*
X125487794Y-106964643D01*
X125574484Y-107173929D01*
X125700337Y-107362282D01*
X125860518Y-107522463D01*
X126048871Y-107648316D01*
X126258157Y-107735006D01*
X126480335Y-107779200D01*
X126706865Y-107779200D01*
X126929043Y-107735006D01*
X127138329Y-107648316D01*
X127326682Y-107522463D01*
X127486863Y-107362282D01*
X127612716Y-107173929D01*
X127699406Y-106964643D01*
X127743600Y-106742465D01*
X127743600Y-106515935D01*
X127715426Y-106374292D01*
X133502000Y-106374292D01*
X133502000Y-106477708D01*
X133522176Y-106579137D01*
X133561751Y-106674681D01*
X133619206Y-106760668D01*
X133692332Y-106833794D01*
X133778319Y-106891249D01*
X133873863Y-106930824D01*
X133944918Y-106944958D01*
X134218001Y-107218041D01*
X134218001Y-107236252D01*
X134178044Y-107269044D01*
X134122211Y-107337076D01*
X134080723Y-107414694D01*
X134055175Y-107498914D01*
X134046549Y-107586500D01*
X134046549Y-107931500D01*
X134055175Y-108019086D01*
X134080723Y-108103306D01*
X134122211Y-108180924D01*
X134178044Y-108248956D01*
X134246076Y-108304789D01*
X134323694Y-108346277D01*
X134407914Y-108371825D01*
X134495500Y-108380451D01*
X134790500Y-108380451D01*
X134878086Y-108371825D01*
X134962306Y-108346277D01*
X135039924Y-108304789D01*
X135107956Y-108248956D01*
X135128000Y-108224533D01*
X135148044Y-108248956D01*
X135216076Y-108304789D01*
X135293694Y-108346277D01*
X135338000Y-108359717D01*
X135338001Y-108651453D01*
X135328912Y-108658912D01*
X135264219Y-108737742D01*
X135216147Y-108827678D01*
X135186545Y-108925264D01*
X135176549Y-109026750D01*
X135176549Y-109539250D01*
X135186545Y-109640736D01*
X135216147Y-109738322D01*
X135264219Y-109828258D01*
X135328912Y-109907088D01*
X135407742Y-109971781D01*
X135497678Y-110019853D01*
X135595264Y-110049455D01*
X135696750Y-110059451D01*
X136134250Y-110059451D01*
X136235736Y-110049455D01*
X136333322Y-110019853D01*
X136423258Y-109971781D01*
X136502088Y-109907088D01*
X136566781Y-109828258D01*
X136614853Y-109738322D01*
X136644455Y-109640736D01*
X136654451Y-109539250D01*
X136654451Y-109055935D01*
X142969600Y-109055935D01*
X142969600Y-109282465D01*
X143013794Y-109504643D01*
X143100484Y-109713929D01*
X143226337Y-109902282D01*
X143386518Y-110062463D01*
X143574871Y-110188316D01*
X143784157Y-110275006D01*
X144006335Y-110319200D01*
X144232865Y-110319200D01*
X144455043Y-110275006D01*
X144664329Y-110188316D01*
X144852682Y-110062463D01*
X145012863Y-109902282D01*
X145138716Y-109713929D01*
X145225406Y-109504643D01*
X145269600Y-109282465D01*
X145269600Y-109055935D01*
X145225406Y-108833757D01*
X145138716Y-108624471D01*
X145012863Y-108436118D01*
X144852682Y-108275937D01*
X144664329Y-108150084D01*
X144455043Y-108063394D01*
X144232865Y-108019200D01*
X144006335Y-108019200D01*
X143784157Y-108063394D01*
X143574871Y-108150084D01*
X143386518Y-108275937D01*
X143226337Y-108436118D01*
X143100484Y-108624471D01*
X143013794Y-108833757D01*
X142969600Y-109055935D01*
X136654451Y-109055935D01*
X136654451Y-109026750D01*
X136644455Y-108925264D01*
X136614853Y-108827678D01*
X136566781Y-108737742D01*
X136502088Y-108658912D01*
X136423258Y-108594219D01*
X136333322Y-108546147D01*
X136235736Y-108516545D01*
X136188000Y-108511843D01*
X136188000Y-108061364D01*
X136200825Y-108019086D01*
X136209451Y-107931500D01*
X136209451Y-107586500D01*
X136200825Y-107498914D01*
X136175277Y-107414694D01*
X136133789Y-107337076D01*
X136077956Y-107269044D01*
X136009924Y-107213211D01*
X135932306Y-107171723D01*
X135848086Y-107146175D01*
X135760500Y-107137549D01*
X135465500Y-107137549D01*
X135377914Y-107146175D01*
X135293694Y-107171723D01*
X135216076Y-107213211D01*
X135148044Y-107269044D01*
X135128000Y-107293467D01*
X135107956Y-107269044D01*
X135068000Y-107236253D01*
X135068000Y-107062874D01*
X135070056Y-107042000D01*
X135061850Y-106958686D01*
X135037548Y-106878573D01*
X135013613Y-106833794D01*
X134998084Y-106804740D01*
X134944974Y-106740026D01*
X134928756Y-106726716D01*
X134545958Y-106343918D01*
X134531824Y-106272863D01*
X134492249Y-106177319D01*
X134434794Y-106091332D01*
X134361668Y-106018206D01*
X134275681Y-105960751D01*
X134180137Y-105921176D01*
X134078708Y-105901000D01*
X133975292Y-105901000D01*
X133873863Y-105921176D01*
X133778319Y-105960751D01*
X133692332Y-106018206D01*
X133619206Y-106091332D01*
X133561751Y-106177319D01*
X133522176Y-106272863D01*
X133502000Y-106374292D01*
X127715426Y-106374292D01*
X127699406Y-106293757D01*
X127612716Y-106084471D01*
X127486863Y-105896118D01*
X127326682Y-105735937D01*
X127138329Y-105610084D01*
X126929043Y-105523394D01*
X126706865Y-105479200D01*
X126480335Y-105479200D01*
X126258157Y-105523394D01*
X126048871Y-105610084D01*
X125860518Y-105735937D01*
X125700337Y-105896118D01*
X125574484Y-106084471D01*
X125487794Y-106293757D01*
X125443600Y-106515935D01*
X125203600Y-106515935D01*
X125159406Y-106293757D01*
X125072716Y-106084471D01*
X124946863Y-105896118D01*
X124786682Y-105735937D01*
X124598329Y-105610084D01*
X124389043Y-105523394D01*
X124166865Y-105479200D01*
X123940335Y-105479200D01*
X123718157Y-105523394D01*
X123508871Y-105610084D01*
X123320518Y-105735937D01*
X123160337Y-105896118D01*
X123034484Y-106084471D01*
X122947794Y-106293757D01*
X122903600Y-106515935D01*
X114723000Y-106515935D01*
X114723000Y-96355935D01*
X122903600Y-96355935D01*
X122903600Y-96582465D01*
X122947794Y-96804643D01*
X123034484Y-97013929D01*
X123160337Y-97202282D01*
X123320518Y-97362463D01*
X123508871Y-97488316D01*
X123718157Y-97575006D01*
X123940335Y-97619200D01*
X124166865Y-97619200D01*
X124389043Y-97575006D01*
X124598329Y-97488316D01*
X124786682Y-97362463D01*
X124946863Y-97202282D01*
X125072716Y-97013929D01*
X125159406Y-96804643D01*
X125195497Y-96623202D01*
X125296710Y-96623202D01*
X125185697Y-96848110D01*
X125212454Y-96936339D01*
X125330127Y-97196811D01*
X125414051Y-97314200D01*
X125344466Y-97314200D01*
X125323599Y-97312145D01*
X125302732Y-97314200D01*
X125302726Y-97314200D01*
X125248698Y-97319521D01*
X125240285Y-97320350D01*
X125215983Y-97327722D01*
X125160173Y-97344652D01*
X125086340Y-97384116D01*
X125021626Y-97437226D01*
X125008321Y-97453438D01*
X124508772Y-97952988D01*
X124389043Y-97903394D01*
X124166865Y-97859200D01*
X123940335Y-97859200D01*
X123718157Y-97903394D01*
X123508871Y-97990084D01*
X123320518Y-98115937D01*
X123160337Y-98276118D01*
X123034484Y-98464471D01*
X122947794Y-98673757D01*
X122903600Y-98895935D01*
X122903600Y-99122465D01*
X122947794Y-99344643D01*
X123034484Y-99553929D01*
X123160337Y-99742282D01*
X123320518Y-99902463D01*
X123508871Y-100028316D01*
X123718157Y-100115006D01*
X123940335Y-100159200D01*
X124166865Y-100159200D01*
X124389043Y-100115006D01*
X124598329Y-100028316D01*
X124786682Y-99902463D01*
X124946863Y-99742282D01*
X125072716Y-99553929D01*
X125159406Y-99344643D01*
X125203600Y-99122465D01*
X125203600Y-98895935D01*
X125159406Y-98673757D01*
X125109812Y-98554028D01*
X125499641Y-98164200D01*
X125812255Y-98164200D01*
X125700337Y-98276118D01*
X125574484Y-98464471D01*
X125487794Y-98673757D01*
X125443600Y-98895935D01*
X125443600Y-99122465D01*
X125487794Y-99344643D01*
X125574484Y-99553929D01*
X125700337Y-99742282D01*
X125812255Y-99854200D01*
X125344466Y-99854200D01*
X125323599Y-99852145D01*
X125302732Y-99854200D01*
X125302726Y-99854200D01*
X125248698Y-99859521D01*
X125240285Y-99860350D01*
X125215983Y-99867722D01*
X125160173Y-99884652D01*
X125086340Y-99924116D01*
X125021626Y-99977226D01*
X125008321Y-99993438D01*
X124617843Y-100383917D01*
X124617838Y-100383921D01*
X124508771Y-100492988D01*
X124389043Y-100443394D01*
X124166865Y-100399200D01*
X123940335Y-100399200D01*
X123718157Y-100443394D01*
X123508871Y-100530084D01*
X123320518Y-100655937D01*
X123160337Y-100816118D01*
X123034484Y-101004471D01*
X122947794Y-101213757D01*
X122903600Y-101435935D01*
X122903600Y-101662465D01*
X122947794Y-101884643D01*
X123034484Y-102093929D01*
X123160337Y-102282282D01*
X123320518Y-102442463D01*
X123508871Y-102568316D01*
X123718157Y-102655006D01*
X123940335Y-102699200D01*
X124166865Y-102699200D01*
X124389043Y-102655006D01*
X124598329Y-102568316D01*
X124786682Y-102442463D01*
X124946863Y-102282282D01*
X125072716Y-102093929D01*
X125159406Y-101884643D01*
X125203600Y-101662465D01*
X125203600Y-101435935D01*
X125159406Y-101213757D01*
X125109812Y-101094029D01*
X125218879Y-100984962D01*
X125218883Y-100984957D01*
X125499641Y-100704200D01*
X125812255Y-100704200D01*
X125700337Y-100816118D01*
X125574484Y-101004471D01*
X125487794Y-101213757D01*
X125443600Y-101435935D01*
X125443600Y-101662465D01*
X125487794Y-101884643D01*
X125574484Y-102093929D01*
X125700337Y-102282282D01*
X125812255Y-102394200D01*
X125344466Y-102394200D01*
X125323599Y-102392145D01*
X125302732Y-102394200D01*
X125302726Y-102394200D01*
X125248698Y-102399521D01*
X125240285Y-102400350D01*
X125215983Y-102407722D01*
X125160173Y-102424652D01*
X125086340Y-102464116D01*
X125021626Y-102517226D01*
X125008321Y-102533438D01*
X124508772Y-103032988D01*
X124389043Y-102983394D01*
X124166865Y-102939200D01*
X123940335Y-102939200D01*
X123718157Y-102983394D01*
X123508871Y-103070084D01*
X123320518Y-103195937D01*
X123160337Y-103356118D01*
X123034484Y-103544471D01*
X122947794Y-103753757D01*
X122903600Y-103975935D01*
X122903600Y-104202465D01*
X122947794Y-104424643D01*
X123034484Y-104633929D01*
X123160337Y-104822282D01*
X123320518Y-104982463D01*
X123508871Y-105108316D01*
X123718157Y-105195006D01*
X123940335Y-105239200D01*
X124166865Y-105239200D01*
X124389043Y-105195006D01*
X124598329Y-105108316D01*
X124786682Y-104982463D01*
X124946863Y-104822282D01*
X125072716Y-104633929D01*
X125159406Y-104424643D01*
X125203600Y-104202465D01*
X125203600Y-103975935D01*
X125159406Y-103753757D01*
X125109812Y-103634028D01*
X125499641Y-103244200D01*
X125812255Y-103244200D01*
X125700337Y-103356118D01*
X125574484Y-103544471D01*
X125487794Y-103753757D01*
X125443600Y-103975935D01*
X125443600Y-104202465D01*
X125487794Y-104424643D01*
X125574484Y-104633929D01*
X125700337Y-104822282D01*
X125860518Y-104982463D01*
X126048871Y-105108316D01*
X126258157Y-105195006D01*
X126480335Y-105239200D01*
X126706865Y-105239200D01*
X126929043Y-105195006D01*
X127138329Y-105108316D01*
X127326682Y-104982463D01*
X127486863Y-104822282D01*
X127612716Y-104633929D01*
X127662310Y-104514200D01*
X129620733Y-104514200D01*
X129641600Y-104516255D01*
X129662467Y-104514200D01*
X129662474Y-104514200D01*
X129724914Y-104508050D01*
X129805027Y-104483748D01*
X129878860Y-104444284D01*
X129943574Y-104391174D01*
X129956884Y-104374956D01*
X135007362Y-99324479D01*
X135023574Y-99311174D01*
X135076684Y-99246460D01*
X135116148Y-99172627D01*
X135140450Y-99092514D01*
X135146600Y-99030074D01*
X135146600Y-99030067D01*
X135148655Y-99009200D01*
X135146600Y-98988333D01*
X135146600Y-86065118D01*
X135164694Y-86038039D01*
X135202385Y-85947045D01*
X135221600Y-85850446D01*
X135221600Y-85751954D01*
X135491600Y-85751954D01*
X135491600Y-85850446D01*
X135510815Y-85947045D01*
X135548506Y-86038039D01*
X135566600Y-86065118D01*
X135566601Y-98988323D01*
X135564545Y-99009200D01*
X135572750Y-99092514D01*
X135594193Y-99163200D01*
X135597053Y-99172627D01*
X135636517Y-99246460D01*
X135664054Y-99280013D01*
X135667386Y-99284073D01*
X135689627Y-99311174D01*
X135705839Y-99324479D01*
X140756321Y-104374962D01*
X140769626Y-104391174D01*
X140834340Y-104444284D01*
X140908173Y-104483748D01*
X140963983Y-104500678D01*
X140988285Y-104508050D01*
X140995927Y-104508803D01*
X141050726Y-104514200D01*
X141050733Y-104514200D01*
X141071600Y-104516255D01*
X141092467Y-104514200D01*
X143050890Y-104514200D01*
X143100484Y-104633929D01*
X143226337Y-104822282D01*
X143386518Y-104982463D01*
X143574871Y-105108316D01*
X143784157Y-105195006D01*
X144006335Y-105239200D01*
X144232865Y-105239200D01*
X144455043Y-105195006D01*
X144664329Y-105108316D01*
X144852682Y-104982463D01*
X145012863Y-104822282D01*
X145138716Y-104633929D01*
X145225406Y-104424643D01*
X145269600Y-104202465D01*
X145269600Y-103975935D01*
X145225406Y-103753757D01*
X145138716Y-103544471D01*
X145012863Y-103356118D01*
X144900945Y-103244200D01*
X145213560Y-103244200D01*
X145603388Y-103634028D01*
X145553794Y-103753757D01*
X145509600Y-103975935D01*
X145509600Y-104202465D01*
X145553794Y-104424643D01*
X145640484Y-104633929D01*
X145766337Y-104822282D01*
X145926518Y-104982463D01*
X146114871Y-105108316D01*
X146324157Y-105195006D01*
X146505598Y-105231097D01*
X146505598Y-105331349D01*
X146280689Y-105221291D01*
X146013300Y-105322265D01*
X145770748Y-105473464D01*
X145562354Y-105669078D01*
X145396127Y-105901589D01*
X145278454Y-106162061D01*
X145251697Y-106250290D01*
X145362710Y-106475198D01*
X145261497Y-106475198D01*
X145225406Y-106293757D01*
X145138716Y-106084471D01*
X145012863Y-105896118D01*
X144852682Y-105735937D01*
X144664329Y-105610084D01*
X144455043Y-105523394D01*
X144232865Y-105479200D01*
X144006335Y-105479200D01*
X143784157Y-105523394D01*
X143574871Y-105610084D01*
X143386518Y-105735937D01*
X143226337Y-105896118D01*
X143100484Y-106084471D01*
X143013794Y-106293757D01*
X142969600Y-106515935D01*
X142969600Y-106742465D01*
X143013794Y-106964643D01*
X143100484Y-107173929D01*
X143226337Y-107362282D01*
X143386518Y-107522463D01*
X143574871Y-107648316D01*
X143784157Y-107735006D01*
X144006335Y-107779200D01*
X144232865Y-107779200D01*
X144455043Y-107735006D01*
X144664329Y-107648316D01*
X144852682Y-107522463D01*
X145012863Y-107362282D01*
X145138716Y-107173929D01*
X145225406Y-106964643D01*
X145261497Y-106783202D01*
X145362710Y-106783202D01*
X145251697Y-107008110D01*
X145278454Y-107096339D01*
X145396127Y-107356811D01*
X145562354Y-107589322D01*
X145770748Y-107784936D01*
X146013300Y-107936135D01*
X146280689Y-108037109D01*
X146505598Y-107927051D01*
X146505598Y-108027303D01*
X146324157Y-108063394D01*
X146114871Y-108150084D01*
X145926518Y-108275937D01*
X145766337Y-108436118D01*
X145640484Y-108624471D01*
X145553794Y-108833757D01*
X145509600Y-109055935D01*
X145509600Y-109282465D01*
X145553794Y-109504643D01*
X145640484Y-109713929D01*
X145766337Y-109902282D01*
X145926518Y-110062463D01*
X146114871Y-110188316D01*
X146324157Y-110275006D01*
X146546335Y-110319200D01*
X146772865Y-110319200D01*
X146995043Y-110275006D01*
X147204329Y-110188316D01*
X147392682Y-110062463D01*
X147552863Y-109902282D01*
X147678716Y-109713929D01*
X147765406Y-109504643D01*
X147809600Y-109282465D01*
X147809600Y-109055935D01*
X147765406Y-108833757D01*
X147678716Y-108624471D01*
X147552863Y-108436118D01*
X147392682Y-108275937D01*
X147204329Y-108150084D01*
X146995043Y-108063394D01*
X146813602Y-108027303D01*
X146813602Y-107927051D01*
X147038511Y-108037109D01*
X147305900Y-107936135D01*
X147548452Y-107784936D01*
X147756846Y-107589322D01*
X147923073Y-107356811D01*
X148040746Y-107096339D01*
X148067503Y-107008110D01*
X147956489Y-106783200D01*
X146813600Y-106783200D01*
X146813600Y-106803200D01*
X146505600Y-106803200D01*
X146505600Y-106783200D01*
X146485600Y-106783200D01*
X146485600Y-106475200D01*
X146505600Y-106475200D01*
X146505600Y-106455200D01*
X146813600Y-106455200D01*
X146813600Y-106475200D01*
X147956489Y-106475200D01*
X148067503Y-106250290D01*
X148040746Y-106162061D01*
X147923073Y-105901589D01*
X147756846Y-105669078D01*
X147548452Y-105473464D01*
X147305900Y-105322265D01*
X147038511Y-105221291D01*
X146813602Y-105331349D01*
X146813602Y-105231097D01*
X146995043Y-105195006D01*
X147204329Y-105108316D01*
X147392682Y-104982463D01*
X147552863Y-104822282D01*
X147678716Y-104633929D01*
X147765406Y-104424643D01*
X147809600Y-104202465D01*
X147809600Y-103975935D01*
X147765406Y-103753757D01*
X147678716Y-103544471D01*
X147552863Y-103356118D01*
X147392682Y-103195937D01*
X147204329Y-103070084D01*
X146995043Y-102983394D01*
X146772865Y-102939200D01*
X146546335Y-102939200D01*
X146324157Y-102983394D01*
X146204428Y-103032988D01*
X145704883Y-102533443D01*
X145691574Y-102517226D01*
X145626860Y-102464116D01*
X145553027Y-102424652D01*
X145472914Y-102400350D01*
X145410474Y-102394200D01*
X145410467Y-102394200D01*
X145389600Y-102392145D01*
X145368733Y-102394200D01*
X144900945Y-102394200D01*
X145012863Y-102282282D01*
X145138716Y-102093929D01*
X145225406Y-101884643D01*
X145269600Y-101662465D01*
X145269600Y-101435935D01*
X145225406Y-101213757D01*
X145138716Y-101004471D01*
X145012863Y-100816118D01*
X144900945Y-100704200D01*
X145213560Y-100704200D01*
X145523840Y-101014481D01*
X145523845Y-101014485D01*
X145603388Y-101094028D01*
X145553794Y-101213757D01*
X145509600Y-101435935D01*
X145509600Y-101662465D01*
X145553794Y-101884643D01*
X145640484Y-102093929D01*
X145766337Y-102282282D01*
X145926518Y-102442463D01*
X146114871Y-102568316D01*
X146324157Y-102655006D01*
X146546335Y-102699200D01*
X146772865Y-102699200D01*
X146995043Y-102655006D01*
X147204329Y-102568316D01*
X147392682Y-102442463D01*
X147552863Y-102282282D01*
X147678716Y-102093929D01*
X147765406Y-101884643D01*
X147809600Y-101662465D01*
X147809600Y-101435935D01*
X147765406Y-101213757D01*
X147678716Y-101004471D01*
X147552863Y-100816118D01*
X147392682Y-100655937D01*
X147204329Y-100530084D01*
X146995043Y-100443394D01*
X146813602Y-100407303D01*
X146813602Y-100307051D01*
X147038511Y-100417109D01*
X147305900Y-100316135D01*
X147548452Y-100164936D01*
X147756846Y-99969322D01*
X147923073Y-99736811D01*
X148040746Y-99476339D01*
X148067503Y-99388110D01*
X147956489Y-99163200D01*
X146813600Y-99163200D01*
X146813600Y-99183200D01*
X146505600Y-99183200D01*
X146505600Y-99163200D01*
X146485600Y-99163200D01*
X146485600Y-98855200D01*
X146505600Y-98855200D01*
X146505600Y-98835200D01*
X146813600Y-98835200D01*
X146813600Y-98855200D01*
X147956489Y-98855200D01*
X148067503Y-98630290D01*
X148040746Y-98542061D01*
X147923073Y-98281589D01*
X147756846Y-98049078D01*
X147548452Y-97853464D01*
X147305900Y-97702265D01*
X147038511Y-97601291D01*
X146813602Y-97711349D01*
X146813602Y-97611097D01*
X146995043Y-97575006D01*
X147204329Y-97488316D01*
X147392682Y-97362463D01*
X147552863Y-97202282D01*
X147678716Y-97013929D01*
X147765406Y-96804643D01*
X147809600Y-96582465D01*
X147809600Y-96355935D01*
X147765406Y-96133757D01*
X147678716Y-95924471D01*
X147552863Y-95736118D01*
X147392682Y-95575937D01*
X147204329Y-95450084D01*
X146995043Y-95363394D01*
X146772865Y-95319200D01*
X146546335Y-95319200D01*
X146324157Y-95363394D01*
X146204428Y-95412988D01*
X146124885Y-95333445D01*
X146124881Y-95333440D01*
X145704883Y-94913443D01*
X145691574Y-94897226D01*
X145626860Y-94844116D01*
X145553027Y-94804652D01*
X145472914Y-94780350D01*
X145410474Y-94774200D01*
X145410467Y-94774200D01*
X145389600Y-94772145D01*
X145368733Y-94774200D01*
X144900945Y-94774200D01*
X145012863Y-94662282D01*
X145138716Y-94473929D01*
X145225406Y-94264643D01*
X145269600Y-94042465D01*
X145269600Y-93815935D01*
X145509600Y-93815935D01*
X145509600Y-94042465D01*
X145553794Y-94264643D01*
X145640484Y-94473929D01*
X145766337Y-94662282D01*
X145926518Y-94822463D01*
X146114871Y-94948316D01*
X146324157Y-95035006D01*
X146546335Y-95079200D01*
X146772865Y-95079200D01*
X146995043Y-95035006D01*
X147204329Y-94948316D01*
X147392682Y-94822463D01*
X147552863Y-94662282D01*
X147678716Y-94473929D01*
X147765406Y-94264643D01*
X147809600Y-94042465D01*
X147809600Y-93815935D01*
X147765406Y-93593757D01*
X147715812Y-93474029D01*
X147732762Y-93457079D01*
X147748974Y-93443774D01*
X147802084Y-93379060D01*
X147827801Y-93330945D01*
X147841548Y-93305228D01*
X147865850Y-93225114D01*
X147871554Y-93167200D01*
X147872000Y-93162674D01*
X147872000Y-93162667D01*
X147874055Y-93141800D01*
X147872000Y-93120933D01*
X147872000Y-86039718D01*
X147890094Y-86012639D01*
X147927785Y-85921645D01*
X147947000Y-85825046D01*
X147947000Y-85726554D01*
X147927785Y-85629955D01*
X147890094Y-85538961D01*
X147835375Y-85457069D01*
X147765731Y-85387425D01*
X147683839Y-85332706D01*
X147592845Y-85295015D01*
X147496246Y-85275800D01*
X147397754Y-85275800D01*
X147301155Y-85295015D01*
X147210161Y-85332706D01*
X147128269Y-85387425D01*
X147058625Y-85457069D01*
X147003906Y-85538961D01*
X146966215Y-85629955D01*
X146947000Y-85726554D01*
X146947000Y-85825046D01*
X146966215Y-85921645D01*
X147003906Y-86012639D01*
X147022000Y-86039718D01*
X147022001Y-92834560D01*
X146995043Y-92823394D01*
X146772865Y-92779200D01*
X146546335Y-92779200D01*
X146324157Y-92823394D01*
X146114871Y-92910084D01*
X145926518Y-93035937D01*
X145766337Y-93196118D01*
X145640484Y-93384471D01*
X145553794Y-93593757D01*
X145509600Y-93815935D01*
X145269600Y-93815935D01*
X145225406Y-93593757D01*
X145175812Y-93474028D01*
X146437362Y-92212479D01*
X146453574Y-92199174D01*
X146506684Y-92134460D01*
X146546148Y-92060627D01*
X146570450Y-91980514D01*
X146576600Y-91918074D01*
X146576600Y-91918067D01*
X146578655Y-91897200D01*
X146576600Y-91876333D01*
X146576600Y-86065118D01*
X146594694Y-86038039D01*
X146632385Y-85947045D01*
X146651600Y-85850446D01*
X146651600Y-85751954D01*
X146632385Y-85655355D01*
X146594694Y-85564361D01*
X146539975Y-85482469D01*
X146470331Y-85412825D01*
X146388439Y-85358106D01*
X146297445Y-85320415D01*
X146200846Y-85301200D01*
X146102354Y-85301200D01*
X146005755Y-85320415D01*
X145914761Y-85358106D01*
X145832869Y-85412825D01*
X145763225Y-85482469D01*
X145708506Y-85564361D01*
X145670815Y-85655355D01*
X145651600Y-85751954D01*
X145651600Y-85850446D01*
X145670815Y-85947045D01*
X145708506Y-86038039D01*
X145726600Y-86065118D01*
X145726601Y-91721158D01*
X144574772Y-92872988D01*
X144455043Y-92823394D01*
X144232865Y-92779200D01*
X144006335Y-92779200D01*
X143784157Y-92823394D01*
X143574871Y-92910084D01*
X143386518Y-93035937D01*
X143274600Y-93147855D01*
X143274600Y-88009240D01*
X144995502Y-86288339D01*
X145027445Y-86281985D01*
X145118439Y-86244294D01*
X145200331Y-86189575D01*
X145269975Y-86119931D01*
X145324694Y-86038039D01*
X145362385Y-85947045D01*
X145381600Y-85850446D01*
X145381600Y-85751954D01*
X145362385Y-85655355D01*
X145324694Y-85564361D01*
X145269975Y-85482469D01*
X145200331Y-85412825D01*
X145118439Y-85358106D01*
X145027445Y-85320415D01*
X144930846Y-85301200D01*
X144832354Y-85301200D01*
X144735755Y-85320415D01*
X144644761Y-85358106D01*
X144562869Y-85412825D01*
X144493225Y-85482469D01*
X144438506Y-85564361D01*
X144400815Y-85655355D01*
X144394461Y-85687298D01*
X144087854Y-85993906D01*
X144117785Y-85921645D01*
X144137000Y-85825046D01*
X144137000Y-85726554D01*
X144117785Y-85629955D01*
X144080094Y-85538961D01*
X144025375Y-85457069D01*
X143955731Y-85387425D01*
X143873839Y-85332706D01*
X143782845Y-85295015D01*
X143686246Y-85275800D01*
X143587754Y-85275800D01*
X143491155Y-85295015D01*
X143400161Y-85332706D01*
X143318269Y-85387425D01*
X143248625Y-85457069D01*
X143193906Y-85538961D01*
X143156215Y-85629955D01*
X143149861Y-85661898D01*
X142856195Y-85955564D01*
X142867000Y-85901246D01*
X142867000Y-85802754D01*
X142847785Y-85706155D01*
X142810094Y-85615161D01*
X142755375Y-85533269D01*
X142685731Y-85463625D01*
X142603839Y-85408906D01*
X142512845Y-85371215D01*
X142416246Y-85352000D01*
X142317754Y-85352000D01*
X142221155Y-85371215D01*
X142130161Y-85408906D01*
X142048269Y-85463625D01*
X141978625Y-85533269D01*
X141923906Y-85615161D01*
X141886215Y-85706155D01*
X141867000Y-85802754D01*
X141867000Y-85901246D01*
X141886215Y-85997845D01*
X141923906Y-86088839D01*
X141978625Y-86170731D01*
X142048269Y-86240375D01*
X142130161Y-86295094D01*
X142221155Y-86332785D01*
X142317754Y-86352000D01*
X142416246Y-86352000D01*
X142470564Y-86341195D01*
X141801843Y-87009917D01*
X141785626Y-87023226D01*
X141732516Y-87087941D01*
X141693052Y-87161774D01*
X141668750Y-87241887D01*
X141662600Y-87304327D01*
X141662600Y-87304333D01*
X141660545Y-87325200D01*
X141662600Y-87346067D01*
X141662601Y-95686323D01*
X141660545Y-95707200D01*
X141668750Y-95790514D01*
X141688755Y-95856460D01*
X141693053Y-95870627D01*
X141732517Y-95944460D01*
X141785627Y-96009174D01*
X141801839Y-96022479D01*
X142534321Y-96754962D01*
X142547626Y-96771174D01*
X142612340Y-96824284D01*
X142641966Y-96840119D01*
X142686172Y-96863748D01*
X142726948Y-96876117D01*
X142766286Y-96888050D01*
X142828726Y-96894200D01*
X142828733Y-96894200D01*
X142849600Y-96896255D01*
X142870467Y-96894200D01*
X143050890Y-96894200D01*
X143100484Y-97013929D01*
X143226337Y-97202282D01*
X143386518Y-97362463D01*
X143574871Y-97488316D01*
X143784157Y-97575006D01*
X144006335Y-97619200D01*
X144232865Y-97619200D01*
X144455043Y-97575006D01*
X144664329Y-97488316D01*
X144852682Y-97362463D01*
X145012863Y-97202282D01*
X145138716Y-97013929D01*
X145225406Y-96804643D01*
X145269600Y-96582465D01*
X145269600Y-96355935D01*
X145225406Y-96133757D01*
X145138716Y-95924471D01*
X145012863Y-95736118D01*
X144900945Y-95624200D01*
X145213560Y-95624200D01*
X145523840Y-95934481D01*
X145523845Y-95934485D01*
X145603388Y-96014028D01*
X145553794Y-96133757D01*
X145509600Y-96355935D01*
X145509600Y-96582465D01*
X145553794Y-96804643D01*
X145640484Y-97013929D01*
X145766337Y-97202282D01*
X145926518Y-97362463D01*
X146114871Y-97488316D01*
X146324157Y-97575006D01*
X146505598Y-97611097D01*
X146505598Y-97711349D01*
X146280689Y-97601291D01*
X146013300Y-97702265D01*
X145770748Y-97853464D01*
X145562354Y-98049078D01*
X145396127Y-98281589D01*
X145278454Y-98542061D01*
X145251697Y-98630290D01*
X145362710Y-98855198D01*
X145261497Y-98855198D01*
X145225406Y-98673757D01*
X145138716Y-98464471D01*
X145012863Y-98276118D01*
X144852682Y-98115937D01*
X144664329Y-97990084D01*
X144455043Y-97903394D01*
X144232865Y-97859200D01*
X144006335Y-97859200D01*
X143784157Y-97903394D01*
X143574871Y-97990084D01*
X143386518Y-98115937D01*
X143226337Y-98276118D01*
X143100484Y-98464471D01*
X143050890Y-98584200D01*
X141755641Y-98584200D01*
X141496600Y-98325160D01*
X141496600Y-86065118D01*
X141514694Y-86038039D01*
X141552385Y-85947045D01*
X141571600Y-85850446D01*
X141571600Y-85751954D01*
X141552385Y-85655355D01*
X141514694Y-85564361D01*
X141459975Y-85482469D01*
X141390331Y-85412825D01*
X141308439Y-85358106D01*
X141217445Y-85320415D01*
X141120846Y-85301200D01*
X141022354Y-85301200D01*
X140925755Y-85320415D01*
X140834761Y-85358106D01*
X140752869Y-85412825D01*
X140683225Y-85482469D01*
X140628506Y-85564361D01*
X140590815Y-85655355D01*
X140571600Y-85751954D01*
X140571600Y-85850446D01*
X140590815Y-85947045D01*
X140628506Y-86038039D01*
X140646600Y-86065118D01*
X140646601Y-98480323D01*
X140644545Y-98501200D01*
X140652750Y-98584514D01*
X140673865Y-98654117D01*
X140677053Y-98664627D01*
X140716517Y-98738460D01*
X140743993Y-98771939D01*
X140747386Y-98776073D01*
X140769627Y-98803174D01*
X140785839Y-98816479D01*
X141264319Y-99294960D01*
X141277626Y-99311174D01*
X141342340Y-99364284D01*
X141416173Y-99403748D01*
X141471983Y-99420678D01*
X141496285Y-99428050D01*
X141504698Y-99428879D01*
X141558726Y-99434200D01*
X141558732Y-99434200D01*
X141579599Y-99436255D01*
X141600466Y-99434200D01*
X143050890Y-99434200D01*
X143100484Y-99553929D01*
X143226337Y-99742282D01*
X143338255Y-99854200D01*
X140993641Y-99854200D01*
X140226600Y-99087160D01*
X140226600Y-86065118D01*
X140244694Y-86038039D01*
X140282385Y-85947045D01*
X140301600Y-85850446D01*
X140301600Y-85751954D01*
X140282385Y-85655355D01*
X140244694Y-85564361D01*
X140189975Y-85482469D01*
X140120331Y-85412825D01*
X140038439Y-85358106D01*
X139947445Y-85320415D01*
X139850846Y-85301200D01*
X139752354Y-85301200D01*
X139655755Y-85320415D01*
X139564761Y-85358106D01*
X139482869Y-85412825D01*
X139413225Y-85482469D01*
X139358506Y-85564361D01*
X139320815Y-85655355D01*
X139301600Y-85751954D01*
X139301600Y-85850446D01*
X139320815Y-85947045D01*
X139358506Y-86038039D01*
X139376600Y-86065118D01*
X139376601Y-99242323D01*
X139374545Y-99263200D01*
X139382750Y-99346514D01*
X139407053Y-99426626D01*
X139407053Y-99426627D01*
X139446517Y-99500460D01*
X139499627Y-99565174D01*
X139515839Y-99578479D01*
X140502319Y-100564960D01*
X140515626Y-100581174D01*
X140580340Y-100634284D01*
X140654173Y-100673748D01*
X140709983Y-100690678D01*
X140734285Y-100698050D01*
X140741927Y-100698803D01*
X140796726Y-100704200D01*
X140796733Y-100704200D01*
X140817600Y-100706255D01*
X140838467Y-100704200D01*
X143338255Y-100704200D01*
X143226337Y-100816118D01*
X143100484Y-101004471D01*
X143050890Y-101124200D01*
X140993641Y-101124200D01*
X138956600Y-99087160D01*
X138956600Y-86065118D01*
X138974694Y-86038039D01*
X139012385Y-85947045D01*
X139031600Y-85850446D01*
X139031600Y-85751954D01*
X139012385Y-85655355D01*
X138974694Y-85564361D01*
X138919975Y-85482469D01*
X138850331Y-85412825D01*
X138768439Y-85358106D01*
X138677445Y-85320415D01*
X138580846Y-85301200D01*
X138482354Y-85301200D01*
X138385755Y-85320415D01*
X138294761Y-85358106D01*
X138212869Y-85412825D01*
X138143225Y-85482469D01*
X138088506Y-85564361D01*
X138050815Y-85655355D01*
X138031600Y-85751954D01*
X138031600Y-85850446D01*
X138050815Y-85947045D01*
X138088506Y-86038039D01*
X138106600Y-86065118D01*
X138106601Y-99242323D01*
X138104545Y-99263200D01*
X138112750Y-99346514D01*
X138137053Y-99426626D01*
X138137053Y-99426627D01*
X138176517Y-99500460D01*
X138229627Y-99565174D01*
X138245839Y-99578479D01*
X140502321Y-101834962D01*
X140515626Y-101851174D01*
X140580340Y-101904284D01*
X140654173Y-101943748D01*
X140709983Y-101960678D01*
X140734285Y-101968050D01*
X140742698Y-101968879D01*
X140796726Y-101974200D01*
X140796732Y-101974200D01*
X140817599Y-101976255D01*
X140838466Y-101974200D01*
X143050890Y-101974200D01*
X143100484Y-102093929D01*
X143226337Y-102282282D01*
X143338255Y-102394200D01*
X140993641Y-102394200D01*
X137686600Y-99087160D01*
X137686600Y-86065118D01*
X137704694Y-86038039D01*
X137742385Y-85947045D01*
X137761600Y-85850446D01*
X137761600Y-85751954D01*
X137742385Y-85655355D01*
X137704694Y-85564361D01*
X137649975Y-85482469D01*
X137580331Y-85412825D01*
X137498439Y-85358106D01*
X137407445Y-85320415D01*
X137310846Y-85301200D01*
X137212354Y-85301200D01*
X137115755Y-85320415D01*
X137024761Y-85358106D01*
X136942869Y-85412825D01*
X136873225Y-85482469D01*
X136818506Y-85564361D01*
X136780815Y-85655355D01*
X136761600Y-85751954D01*
X136761600Y-85850446D01*
X136780815Y-85947045D01*
X136818506Y-86038039D01*
X136836601Y-86065120D01*
X136836600Y-99242333D01*
X136835629Y-99252189D01*
X136416600Y-98833160D01*
X136416600Y-86065118D01*
X136434694Y-86038039D01*
X136472385Y-85947045D01*
X136491600Y-85850446D01*
X136491600Y-85751954D01*
X136472385Y-85655355D01*
X136434694Y-85564361D01*
X136379975Y-85482469D01*
X136310331Y-85412825D01*
X136228439Y-85358106D01*
X136137445Y-85320415D01*
X136040846Y-85301200D01*
X135942354Y-85301200D01*
X135845755Y-85320415D01*
X135754761Y-85358106D01*
X135672869Y-85412825D01*
X135603225Y-85482469D01*
X135548506Y-85564361D01*
X135510815Y-85655355D01*
X135491600Y-85751954D01*
X135221600Y-85751954D01*
X135202385Y-85655355D01*
X135164694Y-85564361D01*
X135109975Y-85482469D01*
X135040331Y-85412825D01*
X134958439Y-85358106D01*
X134867445Y-85320415D01*
X134770846Y-85301200D01*
X134672354Y-85301200D01*
X134575755Y-85320415D01*
X134484761Y-85358106D01*
X134402869Y-85412825D01*
X134333225Y-85482469D01*
X134278506Y-85564361D01*
X134240815Y-85655355D01*
X134221600Y-85751954D01*
X134221600Y-85850446D01*
X134240815Y-85947045D01*
X134278506Y-86038039D01*
X134296600Y-86065118D01*
X134296601Y-98833158D01*
X129465560Y-103664200D01*
X127662310Y-103664200D01*
X127612716Y-103544471D01*
X127486863Y-103356118D01*
X127374945Y-103244200D01*
X129620733Y-103244200D01*
X129641600Y-103246255D01*
X129662467Y-103244200D01*
X129662474Y-103244200D01*
X129724914Y-103238050D01*
X129805027Y-103213748D01*
X129878860Y-103174284D01*
X129943574Y-103121174D01*
X129956884Y-103104957D01*
X133737363Y-99324478D01*
X133753574Y-99311174D01*
X133806684Y-99246460D01*
X133846148Y-99172627D01*
X133870450Y-99092514D01*
X133876600Y-99030074D01*
X133876600Y-99030067D01*
X133878655Y-99009200D01*
X133876600Y-98988333D01*
X133876600Y-86065118D01*
X133894694Y-86038039D01*
X133932385Y-85947045D01*
X133951600Y-85850446D01*
X133951600Y-85751954D01*
X133932385Y-85655355D01*
X133894694Y-85564361D01*
X133839975Y-85482469D01*
X133770331Y-85412825D01*
X133688439Y-85358106D01*
X133597445Y-85320415D01*
X133500846Y-85301200D01*
X133402354Y-85301200D01*
X133305755Y-85320415D01*
X133214761Y-85358106D01*
X133132869Y-85412825D01*
X133063225Y-85482469D01*
X133008506Y-85564361D01*
X132970815Y-85655355D01*
X132951600Y-85751954D01*
X132951600Y-85850446D01*
X132970815Y-85947045D01*
X133008506Y-86038039D01*
X133026601Y-86065120D01*
X133026600Y-98833159D01*
X129465560Y-102394200D01*
X127374945Y-102394200D01*
X127486863Y-102282282D01*
X127612716Y-102093929D01*
X127662310Y-101974200D01*
X129366733Y-101974200D01*
X129387600Y-101976255D01*
X129408467Y-101974200D01*
X129408474Y-101974200D01*
X129470914Y-101968050D01*
X129551027Y-101943748D01*
X129624860Y-101904284D01*
X129689574Y-101851174D01*
X129702883Y-101834957D01*
X132467363Y-99070478D01*
X132483574Y-99057174D01*
X132536684Y-98992460D01*
X132562401Y-98944345D01*
X132576148Y-98918628D01*
X132600450Y-98838514D01*
X132600683Y-98836145D01*
X132606600Y-98776074D01*
X132606600Y-98776067D01*
X132608655Y-98755200D01*
X132606600Y-98734333D01*
X132606600Y-86065118D01*
X132624694Y-86038039D01*
X132662385Y-85947045D01*
X132681600Y-85850446D01*
X132681600Y-85751954D01*
X132662385Y-85655355D01*
X132624694Y-85564361D01*
X132569975Y-85482469D01*
X132500331Y-85412825D01*
X132418439Y-85358106D01*
X132327445Y-85320415D01*
X132230846Y-85301200D01*
X132132354Y-85301200D01*
X132035755Y-85320415D01*
X131944761Y-85358106D01*
X131862869Y-85412825D01*
X131793225Y-85482469D01*
X131738506Y-85564361D01*
X131700815Y-85655355D01*
X131681600Y-85751954D01*
X131681600Y-85850446D01*
X131700815Y-85947045D01*
X131738506Y-86038039D01*
X131756601Y-86065120D01*
X131756600Y-98579159D01*
X129211560Y-101124200D01*
X127662310Y-101124200D01*
X127612716Y-101004471D01*
X127486863Y-100816118D01*
X127374945Y-100704200D01*
X129366733Y-100704200D01*
X129387600Y-100706255D01*
X129408467Y-100704200D01*
X129408474Y-100704200D01*
X129470914Y-100698050D01*
X129551027Y-100673748D01*
X129624860Y-100634284D01*
X129689574Y-100581174D01*
X129702883Y-100564957D01*
X131197362Y-99070479D01*
X131213574Y-99057174D01*
X131235816Y-99030073D01*
X131252946Y-99009200D01*
X131266684Y-98992460D01*
X131306148Y-98918627D01*
X131328248Y-98845773D01*
X131330450Y-98838515D01*
X131331279Y-98830102D01*
X131336600Y-98776074D01*
X131336600Y-98776068D01*
X131338655Y-98755201D01*
X131336600Y-98734334D01*
X131336600Y-86065118D01*
X131354694Y-86038039D01*
X131392385Y-85947045D01*
X131411600Y-85850446D01*
X131411600Y-85751954D01*
X131392385Y-85655355D01*
X131354694Y-85564361D01*
X131299975Y-85482469D01*
X131230331Y-85412825D01*
X131148439Y-85358106D01*
X131057445Y-85320415D01*
X130960846Y-85301200D01*
X130862354Y-85301200D01*
X130765755Y-85320415D01*
X130674761Y-85358106D01*
X130592869Y-85412825D01*
X130523225Y-85482469D01*
X130468506Y-85564361D01*
X130430815Y-85655355D01*
X130411600Y-85751954D01*
X130411600Y-85850446D01*
X130430815Y-85947045D01*
X130468506Y-86038039D01*
X130486600Y-86065118D01*
X130486601Y-98579158D01*
X129211560Y-99854200D01*
X127374945Y-99854200D01*
X127486863Y-99742282D01*
X127612716Y-99553929D01*
X127662310Y-99434200D01*
X128858733Y-99434200D01*
X128879600Y-99436255D01*
X128900467Y-99434200D01*
X128900474Y-99434200D01*
X128962914Y-99428050D01*
X129043027Y-99403748D01*
X129116860Y-99364284D01*
X129181574Y-99311174D01*
X129194883Y-99294957D01*
X129927363Y-98562478D01*
X129943574Y-98549174D01*
X129996684Y-98484460D01*
X130032268Y-98417886D01*
X130036148Y-98410628D01*
X130060450Y-98330514D01*
X130060683Y-98328145D01*
X130066600Y-98268074D01*
X130066600Y-98268067D01*
X130068655Y-98247200D01*
X130066600Y-98226333D01*
X130066600Y-86065118D01*
X130084694Y-86038039D01*
X130122385Y-85947045D01*
X130141600Y-85850446D01*
X130141600Y-85751954D01*
X130122385Y-85655355D01*
X130084694Y-85564361D01*
X130029975Y-85482469D01*
X129960331Y-85412825D01*
X129878439Y-85358106D01*
X129787445Y-85320415D01*
X129690846Y-85301200D01*
X129592354Y-85301200D01*
X129495755Y-85320415D01*
X129404761Y-85358106D01*
X129322869Y-85412825D01*
X129253225Y-85482469D01*
X129198506Y-85564361D01*
X129160815Y-85655355D01*
X129141600Y-85751954D01*
X129141600Y-85850446D01*
X129160815Y-85947045D01*
X129198506Y-86038039D01*
X129216601Y-86065120D01*
X129216601Y-86332748D01*
X129181574Y-86290068D01*
X129165362Y-86276763D01*
X128847481Y-85958883D01*
X128852385Y-85947045D01*
X128871600Y-85850446D01*
X128871600Y-85751954D01*
X128852385Y-85655355D01*
X128814694Y-85564361D01*
X128759975Y-85482469D01*
X128690331Y-85412825D01*
X128608439Y-85358106D01*
X128517445Y-85320415D01*
X128420846Y-85301200D01*
X128322354Y-85301200D01*
X128225755Y-85320415D01*
X128134761Y-85358106D01*
X128052869Y-85412825D01*
X127983225Y-85482469D01*
X127928506Y-85564361D01*
X127890815Y-85655355D01*
X127871600Y-85751954D01*
X127871600Y-85850446D01*
X127890815Y-85947045D01*
X127928506Y-86038039D01*
X127946433Y-86064869D01*
X127944545Y-86084042D01*
X127946600Y-86104909D01*
X127946600Y-86104915D01*
X127948079Y-86119931D01*
X127952750Y-86167356D01*
X127957950Y-86184497D01*
X127977052Y-86247468D01*
X128016516Y-86321301D01*
X128069626Y-86386016D01*
X128085843Y-86399325D01*
X128454601Y-86768084D01*
X128454600Y-93050948D01*
X128453781Y-93050275D01*
X126331600Y-90928095D01*
X126331600Y-85751954D01*
X126326784Y-85727742D01*
X126324365Y-85703183D01*
X126317201Y-85679566D01*
X126312385Y-85655355D01*
X126302940Y-85632552D01*
X126295775Y-85608933D01*
X126284140Y-85587165D01*
X126274694Y-85564361D01*
X126260981Y-85543838D01*
X126249346Y-85522071D01*
X126233687Y-85502991D01*
X126219975Y-85482469D01*
X126202525Y-85465019D01*
X126186864Y-85445936D01*
X126167781Y-85430275D01*
X126150331Y-85412825D01*
X126129809Y-85399113D01*
X126110729Y-85383454D01*
X126088962Y-85371819D01*
X126068439Y-85358106D01*
X126045635Y-85348660D01*
X126023867Y-85337025D01*
X126000248Y-85329860D01*
X125977445Y-85320415D01*
X125953234Y-85315599D01*
X125929617Y-85308435D01*
X125905058Y-85306016D01*
X125880846Y-85301200D01*
X125856160Y-85301200D01*
X125831600Y-85298781D01*
X125807040Y-85301200D01*
X125782354Y-85301200D01*
X125758142Y-85306016D01*
X125733584Y-85308435D01*
X125709969Y-85315599D01*
X125685755Y-85320415D01*
X125662949Y-85329862D01*
X125639334Y-85337025D01*
X125617570Y-85348658D01*
X125594761Y-85358106D01*
X125574234Y-85371822D01*
X125552472Y-85383454D01*
X125533396Y-85399109D01*
X125512869Y-85412825D01*
X125495414Y-85430280D01*
X125476337Y-85445936D01*
X125460681Y-85465013D01*
X125443225Y-85482469D01*
X125429508Y-85502997D01*
X125413855Y-85522071D01*
X125402224Y-85543830D01*
X125388506Y-85564361D01*
X125379057Y-85587174D01*
X125367426Y-85608933D01*
X125360264Y-85632543D01*
X125350815Y-85655355D01*
X125345997Y-85679575D01*
X125338836Y-85703183D01*
X125336418Y-85727732D01*
X125331600Y-85751954D01*
X125331600Y-85850446D01*
X125331601Y-85850451D01*
X125331600Y-91110640D01*
X125329181Y-91135200D01*
X125331600Y-91159759D01*
X125338835Y-91233216D01*
X125367425Y-91327466D01*
X125413854Y-91414329D01*
X125476336Y-91490464D01*
X125495424Y-91506129D01*
X126783797Y-92794503D01*
X126706865Y-92779200D01*
X126480335Y-92779200D01*
X126258157Y-92823394D01*
X126213427Y-92841922D01*
X125061600Y-91690095D01*
X125061600Y-85751954D01*
X125056784Y-85727742D01*
X125054365Y-85703183D01*
X125047201Y-85679566D01*
X125042385Y-85655355D01*
X125032940Y-85632552D01*
X125025775Y-85608933D01*
X125014140Y-85587165D01*
X125004694Y-85564361D01*
X124990981Y-85543838D01*
X124979346Y-85522071D01*
X124963687Y-85502991D01*
X124949975Y-85482469D01*
X124932525Y-85465019D01*
X124916864Y-85445936D01*
X124897781Y-85430275D01*
X124880331Y-85412825D01*
X124859809Y-85399113D01*
X124840729Y-85383454D01*
X124818963Y-85371820D01*
X124798439Y-85358106D01*
X124775631Y-85348659D01*
X124753866Y-85337025D01*
X124730251Y-85329862D01*
X124707445Y-85320415D01*
X124683231Y-85315599D01*
X124659616Y-85308435D01*
X124635058Y-85306016D01*
X124610846Y-85301200D01*
X124586160Y-85301200D01*
X124561600Y-85298781D01*
X124537040Y-85301200D01*
X124512354Y-85301200D01*
X124488142Y-85306016D01*
X124463583Y-85308435D01*
X124439966Y-85315599D01*
X124415755Y-85320415D01*
X124392952Y-85329860D01*
X124369333Y-85337025D01*
X124347565Y-85348660D01*
X124324761Y-85358106D01*
X124304238Y-85371819D01*
X124282471Y-85383454D01*
X124263391Y-85399113D01*
X124242869Y-85412825D01*
X124225419Y-85430275D01*
X124206336Y-85445936D01*
X124190675Y-85465019D01*
X124173225Y-85482469D01*
X124159513Y-85502991D01*
X124143854Y-85522071D01*
X124132220Y-85543837D01*
X124118506Y-85564361D01*
X124109059Y-85587169D01*
X124097425Y-85608934D01*
X124090262Y-85632549D01*
X124080815Y-85655355D01*
X124075999Y-85679569D01*
X124068835Y-85703184D01*
X124066416Y-85727741D01*
X124061600Y-85751954D01*
X124061600Y-85776641D01*
X124061601Y-91872630D01*
X124059181Y-91897200D01*
X124068835Y-91995217D01*
X124088678Y-92060628D01*
X124097426Y-92089467D01*
X124143855Y-92176329D01*
X124206337Y-92252464D01*
X124225419Y-92268124D01*
X125506322Y-93549027D01*
X125487794Y-93593757D01*
X125443600Y-93815935D01*
X125443600Y-94042465D01*
X125487794Y-94264643D01*
X125574484Y-94473929D01*
X125700337Y-94662282D01*
X125737255Y-94699200D01*
X125348157Y-94699200D01*
X125323599Y-94696781D01*
X125299041Y-94699200D01*
X125299040Y-94699200D01*
X125225583Y-94706435D01*
X125131333Y-94735025D01*
X125044471Y-94781454D01*
X124968336Y-94843936D01*
X124952680Y-94863013D01*
X124433772Y-95381922D01*
X124389043Y-95363394D01*
X124166865Y-95319200D01*
X123940335Y-95319200D01*
X123718157Y-95363394D01*
X123508871Y-95450084D01*
X123320518Y-95575937D01*
X123160337Y-95736118D01*
X123034484Y-95924471D01*
X122947794Y-96133757D01*
X122903600Y-96355935D01*
X114723000Y-96355935D01*
X114723000Y-93167200D01*
X122789181Y-93167200D01*
X122798835Y-93265217D01*
X122827426Y-93359467D01*
X122873855Y-93446329D01*
X122936337Y-93522464D01*
X122955419Y-93538124D01*
X122966322Y-93549027D01*
X122947794Y-93593757D01*
X122903600Y-93815935D01*
X122903600Y-94042465D01*
X122947794Y-94264643D01*
X123034484Y-94473929D01*
X123160337Y-94662282D01*
X123320518Y-94822463D01*
X123508871Y-94948316D01*
X123718157Y-95035006D01*
X123940335Y-95079200D01*
X124166865Y-95079200D01*
X124389043Y-95035006D01*
X124598329Y-94948316D01*
X124786682Y-94822463D01*
X124946863Y-94662282D01*
X125072716Y-94473929D01*
X125159406Y-94264643D01*
X125203600Y-94042465D01*
X125203600Y-93815935D01*
X125159406Y-93593757D01*
X125072716Y-93384471D01*
X124946863Y-93196118D01*
X124786682Y-93035937D01*
X124598329Y-92910084D01*
X124389043Y-92823394D01*
X124166865Y-92779200D01*
X123940335Y-92779200D01*
X123791600Y-92808785D01*
X123791600Y-85751954D01*
X123786784Y-85727742D01*
X123784365Y-85703183D01*
X123777201Y-85679566D01*
X123772385Y-85655355D01*
X123762940Y-85632552D01*
X123755775Y-85608933D01*
X123744140Y-85587165D01*
X123734694Y-85564361D01*
X123720981Y-85543838D01*
X123709346Y-85522071D01*
X123693687Y-85502991D01*
X123679975Y-85482469D01*
X123662525Y-85465019D01*
X123646864Y-85445936D01*
X123627781Y-85430275D01*
X123610331Y-85412825D01*
X123589809Y-85399113D01*
X123570729Y-85383454D01*
X123548963Y-85371820D01*
X123528439Y-85358106D01*
X123505631Y-85348659D01*
X123483866Y-85337025D01*
X123460251Y-85329862D01*
X123437445Y-85320415D01*
X123413231Y-85315599D01*
X123389616Y-85308435D01*
X123365058Y-85306016D01*
X123340846Y-85301200D01*
X123316160Y-85301200D01*
X123291600Y-85298781D01*
X123267040Y-85301200D01*
X123242354Y-85301200D01*
X123218142Y-85306016D01*
X123193583Y-85308435D01*
X123169966Y-85315599D01*
X123145755Y-85320415D01*
X123122952Y-85329860D01*
X123099333Y-85337025D01*
X123077565Y-85348660D01*
X123054761Y-85358106D01*
X123034238Y-85371819D01*
X123012471Y-85383454D01*
X122993391Y-85399113D01*
X122972869Y-85412825D01*
X122955419Y-85430275D01*
X122936336Y-85445936D01*
X122920675Y-85465019D01*
X122903225Y-85482469D01*
X122889513Y-85502991D01*
X122873854Y-85522071D01*
X122862220Y-85543837D01*
X122848506Y-85564361D01*
X122839059Y-85587169D01*
X122827425Y-85608934D01*
X122820262Y-85632549D01*
X122810815Y-85655355D01*
X122805999Y-85679569D01*
X122798835Y-85703184D01*
X122796416Y-85727741D01*
X122791600Y-85751954D01*
X122791600Y-85776641D01*
X122791601Y-93142630D01*
X122789181Y-93167200D01*
X114723000Y-93167200D01*
X114723000Y-85799015D01*
X114882672Y-86184497D01*
X115189098Y-86643096D01*
X115579104Y-87033102D01*
X116037703Y-87339528D01*
X116547270Y-87550598D01*
X117088224Y-87658200D01*
X117639776Y-87658200D01*
X118180730Y-87550598D01*
X118690297Y-87339528D01*
X119148896Y-87033102D01*
X119538902Y-86643096D01*
X119845328Y-86184497D01*
X120056398Y-85674930D01*
X120164000Y-85133976D01*
X120164000Y-84582424D01*
X120056398Y-84041470D01*
X120017911Y-83948554D01*
X121572400Y-83948554D01*
X121572400Y-84047046D01*
X121591615Y-84143645D01*
X121629306Y-84234639D01*
X121684025Y-84316531D01*
X121753669Y-84386175D01*
X121835561Y-84440894D01*
X121926555Y-84478585D01*
X122023154Y-84497800D01*
X122121646Y-84497800D01*
X122218245Y-84478585D01*
X122309239Y-84440894D01*
X122391131Y-84386175D01*
X122460775Y-84316531D01*
X122515494Y-84234639D01*
X122553185Y-84143645D01*
X122572400Y-84047046D01*
X122572400Y-83948554D01*
X122553185Y-83851955D01*
X122515494Y-83760961D01*
X122460775Y-83679069D01*
X122391131Y-83609425D01*
X122309239Y-83554706D01*
X122218245Y-83517015D01*
X122121646Y-83497800D01*
X122023154Y-83497800D01*
X121926555Y-83517015D01*
X121835561Y-83554706D01*
X121753669Y-83609425D01*
X121684025Y-83679069D01*
X121629306Y-83760961D01*
X121591615Y-83851955D01*
X121572400Y-83948554D01*
X120017911Y-83948554D01*
X119845328Y-83531903D01*
X119538902Y-83073304D01*
X119148896Y-82683298D01*
X118690297Y-82376872D01*
X118289859Y-82211005D01*
X122874278Y-82211004D01*
X122873906Y-82211561D01*
X122836215Y-82302555D01*
X122817000Y-82399154D01*
X122817000Y-82497646D01*
X122836215Y-82594245D01*
X122873906Y-82685239D01*
X122928625Y-82767131D01*
X122998269Y-82836775D01*
X123080161Y-82891494D01*
X123171155Y-82929185D01*
X123267754Y-82948400D01*
X123366246Y-82948400D01*
X123462845Y-82929185D01*
X123553839Y-82891494D01*
X123635731Y-82836775D01*
X123705375Y-82767131D01*
X123760094Y-82685239D01*
X123797785Y-82594245D01*
X123817000Y-82497646D01*
X123817000Y-82399154D01*
X123797785Y-82302555D01*
X123760094Y-82211561D01*
X123759722Y-82211004D01*
X152440155Y-82210999D01*
X152039703Y-82376872D01*
G37*
X152039703Y-82376872D02*
X151581104Y-82683298D01*
X151191098Y-83073304D01*
X150884672Y-83531903D01*
X150673602Y-84041470D01*
X150566000Y-84582424D01*
X150566000Y-85133976D01*
X150673602Y-85674930D01*
X150884672Y-86184497D01*
X151191098Y-86643096D01*
X151581104Y-87033102D01*
X152039703Y-87339528D01*
X152549270Y-87550598D01*
X153090224Y-87658200D01*
X153641776Y-87658200D01*
X154182730Y-87550598D01*
X154692297Y-87339528D01*
X155150896Y-87033102D01*
X155540902Y-86643096D01*
X155847328Y-86184497D01*
X155973000Y-85881099D01*
X155973001Y-119830304D01*
X155847328Y-119526903D01*
X155540902Y-119068304D01*
X155150896Y-118678298D01*
X154692297Y-118371872D01*
X154182730Y-118160802D01*
X153641776Y-118053200D01*
X153090224Y-118053200D01*
X152549270Y-118160802D01*
X152039703Y-118371872D01*
X151581104Y-118678298D01*
X151191098Y-119068304D01*
X150884672Y-119526903D01*
X150673602Y-120036470D01*
X150566000Y-120577424D01*
X150566000Y-121128976D01*
X150673602Y-121669930D01*
X150884672Y-122179497D01*
X151191098Y-122638096D01*
X151581104Y-123028102D01*
X152039703Y-123334528D01*
X152345033Y-123461000D01*
X151666292Y-123461000D01*
X151628092Y-123337594D01*
X151614920Y-123306259D01*
X151602189Y-123274749D01*
X151599731Y-123270125D01*
X151506907Y-123098449D01*
X151487900Y-123070270D01*
X151469289Y-123041830D01*
X151465980Y-123037772D01*
X151341576Y-122887394D01*
X151317430Y-122863416D01*
X151293679Y-122839163D01*
X151289645Y-122835825D01*
X151138403Y-122712475D01*
X151110090Y-122693664D01*
X151082050Y-122674464D01*
X151077444Y-122671974D01*
X150905121Y-122580348D01*
X150873686Y-122567392D01*
X150842459Y-122554008D01*
X150837457Y-122552459D01*
X150650621Y-122496050D01*
X150617273Y-122489447D01*
X150584035Y-122482382D01*
X150578827Y-122481835D01*
X150384594Y-122462790D01*
X150366419Y-122461000D01*
X148939600Y-122461000D01*
X148939600Y-118746019D01*
X148941414Y-118727600D01*
X148934174Y-118654087D01*
X148912731Y-118583400D01*
X148877909Y-118518253D01*
X148831048Y-118461152D01*
X148773947Y-118414291D01*
X148708800Y-118379469D01*
X148638113Y-118358026D01*
X148583019Y-118352600D01*
X148564600Y-118350786D01*
X148546181Y-118352600D01*
X122294019Y-118352600D01*
X122275600Y-118350786D01*
X122257181Y-118352600D01*
X122202087Y-118358026D01*
X122131400Y-118379469D01*
X122066253Y-118414291D01*
X122009152Y-118461152D01*
X121962291Y-118518253D01*
X121927469Y-118583400D01*
X121906026Y-118654087D01*
X121898786Y-118727600D01*
X121900600Y-118746019D01*
X121900601Y-122459711D01*
X120327525Y-122461018D01*
X120311599Y-122462600D01*
X120307031Y-122462568D01*
X120301820Y-122463078D01*
X120107723Y-122483479D01*
X120074359Y-122490328D01*
X120041045Y-122496683D01*
X120036036Y-122498195D01*
X120036030Y-122498196D01*
X120036024Y-122498198D01*
X119849594Y-122555908D01*
X119818259Y-122569080D01*
X119786749Y-122581811D01*
X119782125Y-122584269D01*
X119610449Y-122677093D01*
X119582270Y-122696100D01*
X119553830Y-122714711D01*
X119549772Y-122718020D01*
X119399394Y-122842424D01*
X119375416Y-122866570D01*
X119351163Y-122890321D01*
X119347825Y-122894355D01*
X119224475Y-123045597D01*
X119205664Y-123073910D01*
X119186464Y-123101950D01*
X119183974Y-123106556D01*
X119092348Y-123278879D01*
X119079392Y-123310314D01*
X119066008Y-123341541D01*
X119064459Y-123346543D01*
X119029902Y-123461000D01*
X118360825Y-123461000D01*
X118690297Y-123324528D01*
X119148896Y-123018102D01*
X119538902Y-122628096D01*
X119845328Y-122169497D01*
X120056398Y-121659930D01*
X120164000Y-121118976D01*
X120164000Y-120567424D01*
X120056398Y-120026470D01*
X119845328Y-119516903D01*
X119538902Y-119058304D01*
X119148896Y-118668298D01*
X118690297Y-118361872D01*
X118180730Y-118150802D01*
X117639776Y-118043200D01*
X117088224Y-118043200D01*
X116547270Y-118150802D01*
X116037703Y-118361872D01*
X115579104Y-118668298D01*
X115189098Y-119058304D01*
X114882672Y-119516903D01*
X114723000Y-119902385D01*
X114723000Y-116675935D01*
X122903600Y-116675935D01*
X122903600Y-116902465D01*
X122947794Y-117124643D01*
X123034484Y-117333929D01*
X123160337Y-117522282D01*
X123320518Y-117682463D01*
X123508871Y-117808316D01*
X123718157Y-117895006D01*
X123940335Y-117939200D01*
X124166865Y-117939200D01*
X124389043Y-117895006D01*
X124598329Y-117808316D01*
X124786682Y-117682463D01*
X124946863Y-117522282D01*
X125072716Y-117333929D01*
X125159406Y-117124643D01*
X125203600Y-116902465D01*
X125203600Y-116675935D01*
X125159406Y-116453757D01*
X125072716Y-116244471D01*
X124946863Y-116056118D01*
X124829945Y-115939200D01*
X125442149Y-115939200D01*
X125442149Y-117639200D01*
X125447941Y-117698010D01*
X125465096Y-117754560D01*
X125492953Y-117806677D01*
X125530442Y-117852358D01*
X125576123Y-117889847D01*
X125628240Y-117917704D01*
X125684790Y-117934859D01*
X125743600Y-117940651D01*
X127443600Y-117940651D01*
X127502410Y-117934859D01*
X127558960Y-117917704D01*
X127611077Y-117889847D01*
X127656758Y-117852358D01*
X127694247Y-117806677D01*
X127722104Y-117754560D01*
X127739259Y-117698010D01*
X127745051Y-117639200D01*
X127745051Y-117168110D01*
X142711697Y-117168110D01*
X142738454Y-117256339D01*
X142856127Y-117516811D01*
X143022354Y-117749322D01*
X143230748Y-117944936D01*
X143473300Y-118096135D01*
X143740689Y-118197109D01*
X143965600Y-118087050D01*
X143965600Y-116943200D01*
X142822711Y-116943200D01*
X142711697Y-117168110D01*
X127745051Y-117168110D01*
X127745051Y-116410290D01*
X142711697Y-116410290D01*
X142822711Y-116635200D01*
X143965600Y-116635200D01*
X143965600Y-116615200D01*
X144273600Y-116615200D01*
X144273600Y-116635200D01*
X144293600Y-116635200D01*
X144293600Y-116943200D01*
X144273600Y-116943200D01*
X144273600Y-118087050D01*
X144498511Y-118197109D01*
X144765900Y-118096135D01*
X145008452Y-117944936D01*
X145216846Y-117749322D01*
X145383073Y-117516811D01*
X145500746Y-117256339D01*
X145508149Y-117231928D01*
X145508149Y-117639200D01*
X145513941Y-117698010D01*
X145531096Y-117754560D01*
X145558953Y-117806677D01*
X145596442Y-117852358D01*
X145642123Y-117889847D01*
X145694240Y-117917704D01*
X145750790Y-117934859D01*
X145809600Y-117940651D01*
X147509600Y-117940651D01*
X147568410Y-117934859D01*
X147624960Y-117917704D01*
X147677077Y-117889847D01*
X147722758Y-117852358D01*
X147760247Y-117806677D01*
X147788104Y-117754560D01*
X147805259Y-117698010D01*
X147811051Y-117639200D01*
X147811051Y-115939200D01*
X147805259Y-115880390D01*
X147788104Y-115823840D01*
X147760247Y-115771723D01*
X147722758Y-115726042D01*
X147677077Y-115688553D01*
X147624960Y-115660696D01*
X147568410Y-115643541D01*
X147509600Y-115637749D01*
X145809600Y-115637749D01*
X145750790Y-115643541D01*
X145694240Y-115660696D01*
X145642123Y-115688553D01*
X145596442Y-115726042D01*
X145558953Y-115771723D01*
X145531096Y-115823840D01*
X145513941Y-115880390D01*
X145508149Y-115939200D01*
X145508149Y-116346472D01*
X145500746Y-116322061D01*
X145383073Y-116061589D01*
X145216846Y-115829078D01*
X145008452Y-115633464D01*
X144765900Y-115482265D01*
X144498511Y-115381291D01*
X144273602Y-115491349D01*
X144273602Y-115391097D01*
X144455043Y-115355006D01*
X144664329Y-115268316D01*
X144852682Y-115142463D01*
X145012863Y-114982282D01*
X145138716Y-114793929D01*
X145225406Y-114584643D01*
X145269600Y-114362465D01*
X145269600Y-114135935D01*
X145509600Y-114135935D01*
X145509600Y-114362465D01*
X145553794Y-114584643D01*
X145640484Y-114793929D01*
X145766337Y-114982282D01*
X145926518Y-115142463D01*
X146114871Y-115268316D01*
X146324157Y-115355006D01*
X146546335Y-115399200D01*
X146772865Y-115399200D01*
X146995043Y-115355006D01*
X147204329Y-115268316D01*
X147392682Y-115142463D01*
X147552863Y-114982282D01*
X147678716Y-114793929D01*
X147765406Y-114584643D01*
X147809600Y-114362465D01*
X147809600Y-114135935D01*
X147765406Y-113913757D01*
X147678716Y-113704471D01*
X147552863Y-113516118D01*
X147392682Y-113355937D01*
X147204329Y-113230084D01*
X146995043Y-113143394D01*
X146772865Y-113099200D01*
X146546335Y-113099200D01*
X146324157Y-113143394D01*
X146114871Y-113230084D01*
X145926518Y-113355937D01*
X145766337Y-113516118D01*
X145640484Y-113704471D01*
X145553794Y-113913757D01*
X145509600Y-114135935D01*
X145269600Y-114135935D01*
X145225406Y-113913757D01*
X145138716Y-113704471D01*
X145012863Y-113516118D01*
X144852682Y-113355937D01*
X144664329Y-113230084D01*
X144455043Y-113143394D01*
X144232865Y-113099200D01*
X144006335Y-113099200D01*
X143784157Y-113143394D01*
X143574871Y-113230084D01*
X143386518Y-113355937D01*
X143226337Y-113516118D01*
X143100484Y-113704471D01*
X143013794Y-113913757D01*
X142969600Y-114135935D01*
X142969600Y-114362465D01*
X143013794Y-114584643D01*
X143100484Y-114793929D01*
X143226337Y-114982282D01*
X143386518Y-115142463D01*
X143574871Y-115268316D01*
X143784157Y-115355006D01*
X143965598Y-115391097D01*
X143965598Y-115491349D01*
X143740689Y-115381291D01*
X143473300Y-115482265D01*
X143230748Y-115633464D01*
X143022354Y-115829078D01*
X142856127Y-116061589D01*
X142738454Y-116322061D01*
X142711697Y-116410290D01*
X127745051Y-116410290D01*
X127745051Y-115939200D01*
X127739259Y-115880390D01*
X127722104Y-115823840D01*
X127694247Y-115771723D01*
X127656758Y-115726042D01*
X127611077Y-115688553D01*
X127558960Y-115660696D01*
X127502410Y-115643541D01*
X127443600Y-115637749D01*
X125743600Y-115637749D01*
X125684790Y-115643541D01*
X125628240Y-115660696D01*
X125576123Y-115688553D01*
X125530442Y-115726042D01*
X125492953Y-115771723D01*
X125465096Y-115823840D01*
X125447941Y-115880390D01*
X125442149Y-115939200D01*
X124829945Y-115939200D01*
X124786682Y-115895937D01*
X124598329Y-115770084D01*
X124389043Y-115683394D01*
X124166865Y-115639200D01*
X123940335Y-115639200D01*
X123718157Y-115683394D01*
X123508871Y-115770084D01*
X123320518Y-115895937D01*
X123160337Y-116056118D01*
X123034484Y-116244471D01*
X122947794Y-116453757D01*
X122903600Y-116675935D01*
X114723000Y-116675935D01*
X114723000Y-114135935D01*
X122903600Y-114135935D01*
X122903600Y-114362465D01*
X122947794Y-114584643D01*
X123034484Y-114793929D01*
X123160337Y-114982282D01*
X123320518Y-115142463D01*
X123508871Y-115268316D01*
X123718157Y-115355006D01*
X123940335Y-115399200D01*
X124166865Y-115399200D01*
X124389043Y-115355006D01*
X124598329Y-115268316D01*
X124786682Y-115142463D01*
X124946863Y-114982282D01*
X125072716Y-114793929D01*
X125159406Y-114584643D01*
X125203600Y-114362465D01*
X125203600Y-114135935D01*
X125443600Y-114135935D01*
X125443600Y-114362465D01*
X125487794Y-114584643D01*
X125574484Y-114793929D01*
X125700337Y-114982282D01*
X125860518Y-115142463D01*
X126048871Y-115268316D01*
X126258157Y-115355006D01*
X126480335Y-115399200D01*
X126706865Y-115399200D01*
X126929043Y-115355006D01*
X127138329Y-115268316D01*
X127326682Y-115142463D01*
X127486863Y-114982282D01*
X127612716Y-114793929D01*
X127662310Y-114674200D01*
X130077933Y-114674200D01*
X130098800Y-114676255D01*
X130119667Y-114674200D01*
X130119674Y-114674200D01*
X130182114Y-114668050D01*
X130262227Y-114643748D01*
X130336060Y-114604284D01*
X130400774Y-114551174D01*
X130414084Y-114534956D01*
X133353105Y-111595935D01*
X142969600Y-111595935D01*
X142969600Y-111822465D01*
X143013794Y-112044643D01*
X143100484Y-112253929D01*
X143226337Y-112442282D01*
X143386518Y-112602463D01*
X143574871Y-112728316D01*
X143784157Y-112815006D01*
X144006335Y-112859200D01*
X144232865Y-112859200D01*
X144455043Y-112815006D01*
X144664329Y-112728316D01*
X144852682Y-112602463D01*
X145012863Y-112442282D01*
X145138716Y-112253929D01*
X145225406Y-112044643D01*
X145269600Y-111822465D01*
X145269600Y-111595935D01*
X145509600Y-111595935D01*
X145509600Y-111822465D01*
X145553794Y-112044643D01*
X145640484Y-112253929D01*
X145766337Y-112442282D01*
X145926518Y-112602463D01*
X146114871Y-112728316D01*
X146324157Y-112815006D01*
X146546335Y-112859200D01*
X146772865Y-112859200D01*
X146995043Y-112815006D01*
X147204329Y-112728316D01*
X147392682Y-112602463D01*
X147552863Y-112442282D01*
X147678716Y-112253929D01*
X147765406Y-112044643D01*
X147809600Y-111822465D01*
X147809600Y-111595935D01*
X147765406Y-111373757D01*
X147678716Y-111164471D01*
X147552863Y-110976118D01*
X147392682Y-110815937D01*
X147204329Y-110690084D01*
X146995043Y-110603394D01*
X146772865Y-110559200D01*
X146546335Y-110559200D01*
X146324157Y-110603394D01*
X146114871Y-110690084D01*
X145926518Y-110815937D01*
X145766337Y-110976118D01*
X145640484Y-111164471D01*
X145553794Y-111373757D01*
X145509600Y-111595935D01*
X145269600Y-111595935D01*
X145225406Y-111373757D01*
X145138716Y-111164471D01*
X145012863Y-110976118D01*
X144852682Y-110815937D01*
X144664329Y-110690084D01*
X144455043Y-110603394D01*
X144232865Y-110559200D01*
X144006335Y-110559200D01*
X143784157Y-110603394D01*
X143574871Y-110690084D01*
X143386518Y-110815937D01*
X143226337Y-110976118D01*
X143100484Y-111164471D01*
X143013794Y-111373757D01*
X142969600Y-111595935D01*
X133353105Y-111595935D01*
X134626258Y-110322782D01*
X134642474Y-110309474D01*
X134695584Y-110244760D01*
X134735048Y-110170927D01*
X134759350Y-110090814D01*
X134765500Y-110028374D01*
X134765500Y-110028367D01*
X134766784Y-110015330D01*
X134848258Y-109971781D01*
X134927088Y-109907088D01*
X134991781Y-109828258D01*
X135039853Y-109738322D01*
X135069455Y-109640736D01*
X135079451Y-109539250D01*
X135079451Y-109026750D01*
X135069455Y-108925264D01*
X135039853Y-108827678D01*
X134991781Y-108737742D01*
X134927088Y-108658912D01*
X134848258Y-108594219D01*
X134758322Y-108546147D01*
X134660736Y-108516545D01*
X134559250Y-108506549D01*
X134121750Y-108506549D01*
X134020264Y-108516545D01*
X133922678Y-108546147D01*
X133832742Y-108594219D01*
X133753912Y-108658912D01*
X133689219Y-108737742D01*
X133641147Y-108827678D01*
X133611545Y-108925264D01*
X133601549Y-109026750D01*
X133601549Y-109539250D01*
X133611545Y-109640736D01*
X133641147Y-109738322D01*
X133689219Y-109828258D01*
X133753912Y-109907088D01*
X133801126Y-109945834D01*
X129922760Y-113824200D01*
X127662310Y-113824200D01*
X127612716Y-113704471D01*
X127486863Y-113516118D01*
X127326682Y-113355937D01*
X127138329Y-113230084D01*
X126929043Y-113143394D01*
X126706865Y-113099200D01*
X126480335Y-113099200D01*
X126258157Y-113143394D01*
X126048871Y-113230084D01*
X125860518Y-113355937D01*
X125700337Y-113516118D01*
X125574484Y-113704471D01*
X125487794Y-113913757D01*
X125443600Y-114135935D01*
X125203600Y-114135935D01*
X125159406Y-113913757D01*
X125072716Y-113704471D01*
X124946863Y-113516118D01*
X124786682Y-113355937D01*
X124598329Y-113230084D01*
X124389043Y-113143394D01*
X124166865Y-113099200D01*
X123940335Y-113099200D01*
X123718157Y-113143394D01*
X123508871Y-113230084D01*
X123320518Y-113355937D01*
X123160337Y-113516118D01*
X123034484Y-113704471D01*
X122947794Y-113913757D01*
X122903600Y-114135935D01*
X114723000Y-114135935D01*
X114723000Y-111595935D01*
X122903600Y-111595935D01*
X122903600Y-111822465D01*
X122947794Y-112044643D01*
X123034484Y-112253929D01*
X123160337Y-112442282D01*
X123320518Y-112602463D01*
X123508871Y-112728316D01*
X123718157Y-112815006D01*
X123940335Y-112859200D01*
X124166865Y-112859200D01*
X124389043Y-112815006D01*
X124598329Y-112728316D01*
X124786682Y-112602463D01*
X124946863Y-112442282D01*
X125072716Y-112253929D01*
X125159406Y-112044643D01*
X125203600Y-111822465D01*
X125203600Y-111595935D01*
X125443600Y-111595935D01*
X125443600Y-111822465D01*
X125487794Y-112044643D01*
X125574484Y-112253929D01*
X125700337Y-112442282D01*
X125860518Y-112602463D01*
X126048871Y-112728316D01*
X126258157Y-112815006D01*
X126480335Y-112859200D01*
X126706865Y-112859200D01*
X126929043Y-112815006D01*
X127138329Y-112728316D01*
X127326682Y-112602463D01*
X127486863Y-112442282D01*
X127612716Y-112253929D01*
X127699406Y-112044643D01*
X127743600Y-111822465D01*
X127743600Y-111595935D01*
X127699406Y-111373757D01*
X127612716Y-111164471D01*
X127486863Y-110976118D01*
X127326682Y-110815937D01*
X127138329Y-110690084D01*
X126929043Y-110603394D01*
X126706865Y-110559200D01*
X126480335Y-110559200D01*
X126258157Y-110603394D01*
X126048871Y-110690084D01*
X125860518Y-110815937D01*
X125700337Y-110976118D01*
X125574484Y-111164471D01*
X125487794Y-111373757D01*
X125443600Y-111595935D01*
X125203600Y-111595935D01*
X125159406Y-111373757D01*
X125072716Y-111164471D01*
X124946863Y-110976118D01*
X124786682Y-110815937D01*
X124598329Y-110690084D01*
X124389043Y-110603394D01*
X124166865Y-110559200D01*
X123940335Y-110559200D01*
X123718157Y-110603394D01*
X123508871Y-110690084D01*
X123320518Y-110815937D01*
X123160337Y-110976118D01*
X123034484Y-111164471D01*
X122947794Y-111373757D01*
X122903600Y-111595935D01*
X114723000Y-111595935D01*
X114723000Y-109055935D01*
X122903600Y-109055935D01*
X122903600Y-109282465D01*
X122947794Y-109504643D01*
X123034484Y-109713929D01*
X123160337Y-109902282D01*
X123320518Y-110062463D01*
X123508871Y-110188316D01*
X123718157Y-110275006D01*
X123940335Y-110319200D01*
X124166865Y-110319200D01*
X124389043Y-110275006D01*
X124598329Y-110188316D01*
X124786682Y-110062463D01*
X124946863Y-109902282D01*
X125072716Y-109713929D01*
X125159406Y-109504643D01*
X125203600Y-109282465D01*
X125203600Y-109055935D01*
X125443600Y-109055935D01*
X125443600Y-109282465D01*
X125487794Y-109504643D01*
X125574484Y-109713929D01*
X125700337Y-109902282D01*
X125860518Y-110062463D01*
X126048871Y-110188316D01*
X126258157Y-110275006D01*
X126480335Y-110319200D01*
X126706865Y-110319200D01*
X126929043Y-110275006D01*
X127138329Y-110188316D01*
X127326682Y-110062463D01*
X127486863Y-109902282D01*
X127612716Y-109713929D01*
X127699406Y-109504643D01*
X127743600Y-109282465D01*
X127743600Y-109055935D01*
X127699406Y-108833757D01*
X127612716Y-108624471D01*
X127486863Y-108436118D01*
X127326682Y-108275937D01*
X127138329Y-108150084D01*
X126929043Y-108063394D01*
X126706865Y-108019200D01*
X126480335Y-108019200D01*
X126258157Y-108063394D01*
X126048871Y-108150084D01*
X125860518Y-108275937D01*
X125700337Y-108436118D01*
X125574484Y-108624471D01*
X125487794Y-108833757D01*
X125443600Y-109055935D01*
X125203600Y-109055935D01*
X125159406Y-108833757D01*
X125072716Y-108624471D01*
X124946863Y-108436118D01*
X124786682Y-108275937D01*
X124598329Y-108150084D01*
X124389043Y-108063394D01*
X124166865Y-108019200D01*
X123940335Y-108019200D01*
X123718157Y-108063394D01*
X123508871Y-108150084D01*
X123320518Y-108275937D01*
X123160337Y-108436118D01*
X123034484Y-108624471D01*
X122947794Y-108833757D01*
X122903600Y-109055935D01*
X114723000Y-109055935D01*
X114723000Y-106515935D01*
X122903600Y-106515935D01*
X122903600Y-106742465D01*
X122947794Y-106964643D01*
X123034484Y-107173929D01*
X123160337Y-107362282D01*
X123320518Y-107522463D01*
X123508871Y-107648316D01*
X123718157Y-107735006D01*
X123940335Y-107779200D01*
X124166865Y-107779200D01*
X124389043Y-107735006D01*
X124598329Y-107648316D01*
X124786682Y-107522463D01*
X124946863Y-107362282D01*
X125072716Y-107173929D01*
X125159406Y-106964643D01*
X125203600Y-106742465D01*
X125203600Y-106515935D01*
X125443600Y-106515935D01*
X125443600Y-106742465D01*
X125487794Y-106964643D01*
X125574484Y-107173929D01*
X125700337Y-107362282D01*
X125860518Y-107522463D01*
X126048871Y-107648316D01*
X126258157Y-107735006D01*
X126480335Y-107779200D01*
X126706865Y-107779200D01*
X126929043Y-107735006D01*
X127138329Y-107648316D01*
X127326682Y-107522463D01*
X127486863Y-107362282D01*
X127612716Y-107173929D01*
X127699406Y-106964643D01*
X127743600Y-106742465D01*
X127743600Y-106515935D01*
X127715426Y-106374292D01*
X133502000Y-106374292D01*
X133502000Y-106477708D01*
X133522176Y-106579137D01*
X133561751Y-106674681D01*
X133619206Y-106760668D01*
X133692332Y-106833794D01*
X133778319Y-106891249D01*
X133873863Y-106930824D01*
X133944918Y-106944958D01*
X134218001Y-107218041D01*
X134218001Y-107236252D01*
X134178044Y-107269044D01*
X134122211Y-107337076D01*
X134080723Y-107414694D01*
X134055175Y-107498914D01*
X134046549Y-107586500D01*
X134046549Y-107931500D01*
X134055175Y-108019086D01*
X134080723Y-108103306D01*
X134122211Y-108180924D01*
X134178044Y-108248956D01*
X134246076Y-108304789D01*
X134323694Y-108346277D01*
X134407914Y-108371825D01*
X134495500Y-108380451D01*
X134790500Y-108380451D01*
X134878086Y-108371825D01*
X134962306Y-108346277D01*
X135039924Y-108304789D01*
X135107956Y-108248956D01*
X135128000Y-108224533D01*
X135148044Y-108248956D01*
X135216076Y-108304789D01*
X135293694Y-108346277D01*
X135338000Y-108359717D01*
X135338001Y-108651453D01*
X135328912Y-108658912D01*
X135264219Y-108737742D01*
X135216147Y-108827678D01*
X135186545Y-108925264D01*
X135176549Y-109026750D01*
X135176549Y-109539250D01*
X135186545Y-109640736D01*
X135216147Y-109738322D01*
X135264219Y-109828258D01*
X135328912Y-109907088D01*
X135407742Y-109971781D01*
X135497678Y-110019853D01*
X135595264Y-110049455D01*
X135696750Y-110059451D01*
X136134250Y-110059451D01*
X136235736Y-110049455D01*
X136333322Y-110019853D01*
X136423258Y-109971781D01*
X136502088Y-109907088D01*
X136566781Y-109828258D01*
X136614853Y-109738322D01*
X136644455Y-109640736D01*
X136654451Y-109539250D01*
X136654451Y-109055935D01*
X142969600Y-109055935D01*
X142969600Y-109282465D01*
X143013794Y-109504643D01*
X143100484Y-109713929D01*
X143226337Y-109902282D01*
X143386518Y-110062463D01*
X143574871Y-110188316D01*
X143784157Y-110275006D01*
X144006335Y-110319200D01*
X144232865Y-110319200D01*
X144455043Y-110275006D01*
X144664329Y-110188316D01*
X144852682Y-110062463D01*
X145012863Y-109902282D01*
X145138716Y-109713929D01*
X145225406Y-109504643D01*
X145269600Y-109282465D01*
X145269600Y-109055935D01*
X145225406Y-108833757D01*
X145138716Y-108624471D01*
X145012863Y-108436118D01*
X144852682Y-108275937D01*
X144664329Y-108150084D01*
X144455043Y-108063394D01*
X144232865Y-108019200D01*
X144006335Y-108019200D01*
X143784157Y-108063394D01*
X143574871Y-108150084D01*
X143386518Y-108275937D01*
X143226337Y-108436118D01*
X143100484Y-108624471D01*
X143013794Y-108833757D01*
X142969600Y-109055935D01*
X136654451Y-109055935D01*
X136654451Y-109026750D01*
X136644455Y-108925264D01*
X136614853Y-108827678D01*
X136566781Y-108737742D01*
X136502088Y-108658912D01*
X136423258Y-108594219D01*
X136333322Y-108546147D01*
X136235736Y-108516545D01*
X136188000Y-108511843D01*
X136188000Y-108061364D01*
X136200825Y-108019086D01*
X136209451Y-107931500D01*
X136209451Y-107586500D01*
X136200825Y-107498914D01*
X136175277Y-107414694D01*
X136133789Y-107337076D01*
X136077956Y-107269044D01*
X136009924Y-107213211D01*
X135932306Y-107171723D01*
X135848086Y-107146175D01*
X135760500Y-107137549D01*
X135465500Y-107137549D01*
X135377914Y-107146175D01*
X135293694Y-107171723D01*
X135216076Y-107213211D01*
X135148044Y-107269044D01*
X135128000Y-107293467D01*
X135107956Y-107269044D01*
X135068000Y-107236253D01*
X135068000Y-107062874D01*
X135070056Y-107042000D01*
X135061850Y-106958686D01*
X135037548Y-106878573D01*
X135013613Y-106833794D01*
X134998084Y-106804740D01*
X134944974Y-106740026D01*
X134928756Y-106726716D01*
X134545958Y-106343918D01*
X134531824Y-106272863D01*
X134492249Y-106177319D01*
X134434794Y-106091332D01*
X134361668Y-106018206D01*
X134275681Y-105960751D01*
X134180137Y-105921176D01*
X134078708Y-105901000D01*
X133975292Y-105901000D01*
X133873863Y-105921176D01*
X133778319Y-105960751D01*
X133692332Y-106018206D01*
X133619206Y-106091332D01*
X133561751Y-106177319D01*
X133522176Y-106272863D01*
X133502000Y-106374292D01*
X127715426Y-106374292D01*
X127699406Y-106293757D01*
X127612716Y-106084471D01*
X127486863Y-105896118D01*
X127326682Y-105735937D01*
X127138329Y-105610084D01*
X126929043Y-105523394D01*
X126706865Y-105479200D01*
X126480335Y-105479200D01*
X126258157Y-105523394D01*
X126048871Y-105610084D01*
X125860518Y-105735937D01*
X125700337Y-105896118D01*
X125574484Y-106084471D01*
X125487794Y-106293757D01*
X125443600Y-106515935D01*
X125203600Y-106515935D01*
X125159406Y-106293757D01*
X125072716Y-106084471D01*
X124946863Y-105896118D01*
X124786682Y-105735937D01*
X124598329Y-105610084D01*
X124389043Y-105523394D01*
X124166865Y-105479200D01*
X123940335Y-105479200D01*
X123718157Y-105523394D01*
X123508871Y-105610084D01*
X123320518Y-105735937D01*
X123160337Y-105896118D01*
X123034484Y-106084471D01*
X122947794Y-106293757D01*
X122903600Y-106515935D01*
X114723000Y-106515935D01*
X114723000Y-96355935D01*
X122903600Y-96355935D01*
X122903600Y-96582465D01*
X122947794Y-96804643D01*
X123034484Y-97013929D01*
X123160337Y-97202282D01*
X123320518Y-97362463D01*
X123508871Y-97488316D01*
X123718157Y-97575006D01*
X123940335Y-97619200D01*
X124166865Y-97619200D01*
X124389043Y-97575006D01*
X124598329Y-97488316D01*
X124786682Y-97362463D01*
X124946863Y-97202282D01*
X125072716Y-97013929D01*
X125159406Y-96804643D01*
X125195497Y-96623202D01*
X125296710Y-96623202D01*
X125185697Y-96848110D01*
X125212454Y-96936339D01*
X125330127Y-97196811D01*
X125414051Y-97314200D01*
X125344466Y-97314200D01*
X125323599Y-97312145D01*
X125302732Y-97314200D01*
X125302726Y-97314200D01*
X125248698Y-97319521D01*
X125240285Y-97320350D01*
X125215983Y-97327722D01*
X125160173Y-97344652D01*
X125086340Y-97384116D01*
X125021626Y-97437226D01*
X125008321Y-97453438D01*
X124508772Y-97952988D01*
X124389043Y-97903394D01*
X124166865Y-97859200D01*
X123940335Y-97859200D01*
X123718157Y-97903394D01*
X123508871Y-97990084D01*
X123320518Y-98115937D01*
X123160337Y-98276118D01*
X123034484Y-98464471D01*
X122947794Y-98673757D01*
X122903600Y-98895935D01*
X122903600Y-99122465D01*
X122947794Y-99344643D01*
X123034484Y-99553929D01*
X123160337Y-99742282D01*
X123320518Y-99902463D01*
X123508871Y-100028316D01*
X123718157Y-100115006D01*
X123940335Y-100159200D01*
X124166865Y-100159200D01*
X124389043Y-100115006D01*
X124598329Y-100028316D01*
X124786682Y-99902463D01*
X124946863Y-99742282D01*
X125072716Y-99553929D01*
X125159406Y-99344643D01*
X125203600Y-99122465D01*
X125203600Y-98895935D01*
X125159406Y-98673757D01*
X125109812Y-98554028D01*
X125499641Y-98164200D01*
X125812255Y-98164200D01*
X125700337Y-98276118D01*
X125574484Y-98464471D01*
X125487794Y-98673757D01*
X125443600Y-98895935D01*
X125443600Y-99122465D01*
X125487794Y-99344643D01*
X125574484Y-99553929D01*
X125700337Y-99742282D01*
X125812255Y-99854200D01*
X125344466Y-99854200D01*
X125323599Y-99852145D01*
X125302732Y-99854200D01*
X125302726Y-99854200D01*
X125248698Y-99859521D01*
X125240285Y-99860350D01*
X125215983Y-99867722D01*
X125160173Y-99884652D01*
X125086340Y-99924116D01*
X125021626Y-99977226D01*
X125008321Y-99993438D01*
X124617843Y-100383917D01*
X124617838Y-100383921D01*
X124508771Y-100492988D01*
X124389043Y-100443394D01*
X124166865Y-100399200D01*
X123940335Y-100399200D01*
X123718157Y-100443394D01*
X123508871Y-100530084D01*
X123320518Y-100655937D01*
X123160337Y-100816118D01*
X123034484Y-101004471D01*
X122947794Y-101213757D01*
X122903600Y-101435935D01*
X122903600Y-101662465D01*
X122947794Y-101884643D01*
X123034484Y-102093929D01*
X123160337Y-102282282D01*
X123320518Y-102442463D01*
X123508871Y-102568316D01*
X123718157Y-102655006D01*
X123940335Y-102699200D01*
X124166865Y-102699200D01*
X124389043Y-102655006D01*
X124598329Y-102568316D01*
X124786682Y-102442463D01*
X124946863Y-102282282D01*
X125072716Y-102093929D01*
X125159406Y-101884643D01*
X125203600Y-101662465D01*
X125203600Y-101435935D01*
X125159406Y-101213757D01*
X125109812Y-101094029D01*
X125218879Y-100984962D01*
X125218883Y-100984957D01*
X125499641Y-100704200D01*
X125812255Y-100704200D01*
X125700337Y-100816118D01*
X125574484Y-101004471D01*
X125487794Y-101213757D01*
X125443600Y-101435935D01*
X125443600Y-101662465D01*
X125487794Y-101884643D01*
X125574484Y-102093929D01*
X125700337Y-102282282D01*
X125812255Y-102394200D01*
X125344466Y-102394200D01*
X125323599Y-102392145D01*
X125302732Y-102394200D01*
X125302726Y-102394200D01*
X125248698Y-102399521D01*
X125240285Y-102400350D01*
X125215983Y-102407722D01*
X125160173Y-102424652D01*
X125086340Y-102464116D01*
X125021626Y-102517226D01*
X125008321Y-102533438D01*
X124508772Y-103032988D01*
X124389043Y-102983394D01*
X124166865Y-102939200D01*
X123940335Y-102939200D01*
X123718157Y-102983394D01*
X123508871Y-103070084D01*
X123320518Y-103195937D01*
X123160337Y-103356118D01*
X123034484Y-103544471D01*
X122947794Y-103753757D01*
X122903600Y-103975935D01*
X122903600Y-104202465D01*
X122947794Y-104424643D01*
X123034484Y-104633929D01*
X123160337Y-104822282D01*
X123320518Y-104982463D01*
X123508871Y-105108316D01*
X123718157Y-105195006D01*
X123940335Y-105239200D01*
X124166865Y-105239200D01*
X124389043Y-105195006D01*
X124598329Y-105108316D01*
X124786682Y-104982463D01*
X124946863Y-104822282D01*
X125072716Y-104633929D01*
X125159406Y-104424643D01*
X125203600Y-104202465D01*
X125203600Y-103975935D01*
X125159406Y-103753757D01*
X125109812Y-103634028D01*
X125499641Y-103244200D01*
X125812255Y-103244200D01*
X125700337Y-103356118D01*
X125574484Y-103544471D01*
X125487794Y-103753757D01*
X125443600Y-103975935D01*
X125443600Y-104202465D01*
X125487794Y-104424643D01*
X125574484Y-104633929D01*
X125700337Y-104822282D01*
X125860518Y-104982463D01*
X126048871Y-105108316D01*
X126258157Y-105195006D01*
X126480335Y-105239200D01*
X126706865Y-105239200D01*
X126929043Y-105195006D01*
X127138329Y-105108316D01*
X127326682Y-104982463D01*
X127486863Y-104822282D01*
X127612716Y-104633929D01*
X127662310Y-104514200D01*
X129620733Y-104514200D01*
X129641600Y-104516255D01*
X129662467Y-104514200D01*
X129662474Y-104514200D01*
X129724914Y-104508050D01*
X129805027Y-104483748D01*
X129878860Y-104444284D01*
X129943574Y-104391174D01*
X129956884Y-104374956D01*
X135007362Y-99324479D01*
X135023574Y-99311174D01*
X135076684Y-99246460D01*
X135116148Y-99172627D01*
X135140450Y-99092514D01*
X135146600Y-99030074D01*
X135146600Y-99030067D01*
X135148655Y-99009200D01*
X135146600Y-98988333D01*
X135146600Y-86065118D01*
X135164694Y-86038039D01*
X135202385Y-85947045D01*
X135221600Y-85850446D01*
X135221600Y-85751954D01*
X135491600Y-85751954D01*
X135491600Y-85850446D01*
X135510815Y-85947045D01*
X135548506Y-86038039D01*
X135566600Y-86065118D01*
X135566601Y-98988323D01*
X135564545Y-99009200D01*
X135572750Y-99092514D01*
X135594193Y-99163200D01*
X135597053Y-99172627D01*
X135636517Y-99246460D01*
X135664054Y-99280013D01*
X135667386Y-99284073D01*
X135689627Y-99311174D01*
X135705839Y-99324479D01*
X140756321Y-104374962D01*
X140769626Y-104391174D01*
X140834340Y-104444284D01*
X140908173Y-104483748D01*
X140963983Y-104500678D01*
X140988285Y-104508050D01*
X140995927Y-104508803D01*
X141050726Y-104514200D01*
X141050733Y-104514200D01*
X141071600Y-104516255D01*
X141092467Y-104514200D01*
X143050890Y-104514200D01*
X143100484Y-104633929D01*
X143226337Y-104822282D01*
X143386518Y-104982463D01*
X143574871Y-105108316D01*
X143784157Y-105195006D01*
X144006335Y-105239200D01*
X144232865Y-105239200D01*
X144455043Y-105195006D01*
X144664329Y-105108316D01*
X144852682Y-104982463D01*
X145012863Y-104822282D01*
X145138716Y-104633929D01*
X145225406Y-104424643D01*
X145269600Y-104202465D01*
X145269600Y-103975935D01*
X145225406Y-103753757D01*
X145138716Y-103544471D01*
X145012863Y-103356118D01*
X144900945Y-103244200D01*
X145213560Y-103244200D01*
X145603388Y-103634028D01*
X145553794Y-103753757D01*
X145509600Y-103975935D01*
X145509600Y-104202465D01*
X145553794Y-104424643D01*
X145640484Y-104633929D01*
X145766337Y-104822282D01*
X145926518Y-104982463D01*
X146114871Y-105108316D01*
X146324157Y-105195006D01*
X146505598Y-105231097D01*
X146505598Y-105331349D01*
X146280689Y-105221291D01*
X146013300Y-105322265D01*
X145770748Y-105473464D01*
X145562354Y-105669078D01*
X145396127Y-105901589D01*
X145278454Y-106162061D01*
X145251697Y-106250290D01*
X145362710Y-106475198D01*
X145261497Y-106475198D01*
X145225406Y-106293757D01*
X145138716Y-106084471D01*
X145012863Y-105896118D01*
X144852682Y-105735937D01*
X144664329Y-105610084D01*
X144455043Y-105523394D01*
X144232865Y-105479200D01*
X144006335Y-105479200D01*
X143784157Y-105523394D01*
X143574871Y-105610084D01*
X143386518Y-105735937D01*
X143226337Y-105896118D01*
X143100484Y-106084471D01*
X143013794Y-106293757D01*
X142969600Y-106515935D01*
X142969600Y-106742465D01*
X143013794Y-106964643D01*
X143100484Y-107173929D01*
X143226337Y-107362282D01*
X143386518Y-107522463D01*
X143574871Y-107648316D01*
X143784157Y-107735006D01*
X144006335Y-107779200D01*
X144232865Y-107779200D01*
X144455043Y-107735006D01*
X144664329Y-107648316D01*
X144852682Y-107522463D01*
X145012863Y-107362282D01*
X145138716Y-107173929D01*
X145225406Y-106964643D01*
X145261497Y-106783202D01*
X145362710Y-106783202D01*
X145251697Y-107008110D01*
X145278454Y-107096339D01*
X145396127Y-107356811D01*
X145562354Y-107589322D01*
X145770748Y-107784936D01*
X146013300Y-107936135D01*
X146280689Y-108037109D01*
X146505598Y-107927051D01*
X146505598Y-108027303D01*
X146324157Y-108063394D01*
X146114871Y-108150084D01*
X145926518Y-108275937D01*
X145766337Y-108436118D01*
X145640484Y-108624471D01*
X145553794Y-108833757D01*
X145509600Y-109055935D01*
X145509600Y-109282465D01*
X145553794Y-109504643D01*
X145640484Y-109713929D01*
X145766337Y-109902282D01*
X145926518Y-110062463D01*
X146114871Y-110188316D01*
X146324157Y-110275006D01*
X146546335Y-110319200D01*
X146772865Y-110319200D01*
X146995043Y-110275006D01*
X147204329Y-110188316D01*
X147392682Y-110062463D01*
X147552863Y-109902282D01*
X147678716Y-109713929D01*
X147765406Y-109504643D01*
X147809600Y-109282465D01*
X147809600Y-109055935D01*
X147765406Y-108833757D01*
X147678716Y-108624471D01*
X147552863Y-108436118D01*
X147392682Y-108275937D01*
X147204329Y-108150084D01*
X146995043Y-108063394D01*
X146813602Y-108027303D01*
X146813602Y-107927051D01*
X147038511Y-108037109D01*
X147305900Y-107936135D01*
X147548452Y-107784936D01*
X147756846Y-107589322D01*
X147923073Y-107356811D01*
X148040746Y-107096339D01*
X148067503Y-107008110D01*
X147956489Y-106783200D01*
X146813600Y-106783200D01*
X146813600Y-106803200D01*
X146505600Y-106803200D01*
X146505600Y-106783200D01*
X146485600Y-106783200D01*
X146485600Y-106475200D01*
X146505600Y-106475200D01*
X146505600Y-106455200D01*
X146813600Y-106455200D01*
X146813600Y-106475200D01*
X147956489Y-106475200D01*
X148067503Y-106250290D01*
X148040746Y-106162061D01*
X147923073Y-105901589D01*
X147756846Y-105669078D01*
X147548452Y-105473464D01*
X147305900Y-105322265D01*
X147038511Y-105221291D01*
X146813602Y-105331349D01*
X146813602Y-105231097D01*
X146995043Y-105195006D01*
X147204329Y-105108316D01*
X147392682Y-104982463D01*
X147552863Y-104822282D01*
X147678716Y-104633929D01*
X147765406Y-104424643D01*
X147809600Y-104202465D01*
X147809600Y-103975935D01*
X147765406Y-103753757D01*
X147678716Y-103544471D01*
X147552863Y-103356118D01*
X147392682Y-103195937D01*
X147204329Y-103070084D01*
X146995043Y-102983394D01*
X146772865Y-102939200D01*
X146546335Y-102939200D01*
X146324157Y-102983394D01*
X146204428Y-103032988D01*
X145704883Y-102533443D01*
X145691574Y-102517226D01*
X145626860Y-102464116D01*
X145553027Y-102424652D01*
X145472914Y-102400350D01*
X145410474Y-102394200D01*
X145410467Y-102394200D01*
X145389600Y-102392145D01*
X145368733Y-102394200D01*
X144900945Y-102394200D01*
X145012863Y-102282282D01*
X145138716Y-102093929D01*
X145225406Y-101884643D01*
X145269600Y-101662465D01*
X145269600Y-101435935D01*
X145225406Y-101213757D01*
X145138716Y-101004471D01*
X145012863Y-100816118D01*
X144900945Y-100704200D01*
X145213560Y-100704200D01*
X145523840Y-101014481D01*
X145523845Y-101014485D01*
X145603388Y-101094028D01*
X145553794Y-101213757D01*
X145509600Y-101435935D01*
X145509600Y-101662465D01*
X145553794Y-101884643D01*
X145640484Y-102093929D01*
X145766337Y-102282282D01*
X145926518Y-102442463D01*
X146114871Y-102568316D01*
X146324157Y-102655006D01*
X146546335Y-102699200D01*
X146772865Y-102699200D01*
X146995043Y-102655006D01*
X147204329Y-102568316D01*
X147392682Y-102442463D01*
X147552863Y-102282282D01*
X147678716Y-102093929D01*
X147765406Y-101884643D01*
X147809600Y-101662465D01*
X147809600Y-101435935D01*
X147765406Y-101213757D01*
X147678716Y-101004471D01*
X147552863Y-100816118D01*
X147392682Y-100655937D01*
X147204329Y-100530084D01*
X146995043Y-100443394D01*
X146813602Y-100407303D01*
X146813602Y-100307051D01*
X147038511Y-100417109D01*
X147305900Y-100316135D01*
X147548452Y-100164936D01*
X147756846Y-99969322D01*
X147923073Y-99736811D01*
X148040746Y-99476339D01*
X148067503Y-99388110D01*
X147956489Y-99163200D01*
X146813600Y-99163200D01*
X146813600Y-99183200D01*
X146505600Y-99183200D01*
X146505600Y-99163200D01*
X146485600Y-99163200D01*
X146485600Y-98855200D01*
X146505600Y-98855200D01*
X146505600Y-98835200D01*
X146813600Y-98835200D01*
X146813600Y-98855200D01*
X147956489Y-98855200D01*
X148067503Y-98630290D01*
X148040746Y-98542061D01*
X147923073Y-98281589D01*
X147756846Y-98049078D01*
X147548452Y-97853464D01*
X147305900Y-97702265D01*
X147038511Y-97601291D01*
X146813602Y-97711349D01*
X146813602Y-97611097D01*
X146995043Y-97575006D01*
X147204329Y-97488316D01*
X147392682Y-97362463D01*
X147552863Y-97202282D01*
X147678716Y-97013929D01*
X147765406Y-96804643D01*
X147809600Y-96582465D01*
X147809600Y-96355935D01*
X147765406Y-96133757D01*
X147678716Y-95924471D01*
X147552863Y-95736118D01*
X147392682Y-95575937D01*
X147204329Y-95450084D01*
X146995043Y-95363394D01*
X146772865Y-95319200D01*
X146546335Y-95319200D01*
X146324157Y-95363394D01*
X146204428Y-95412988D01*
X146124885Y-95333445D01*
X146124881Y-95333440D01*
X145704883Y-94913443D01*
X145691574Y-94897226D01*
X145626860Y-94844116D01*
X145553027Y-94804652D01*
X145472914Y-94780350D01*
X145410474Y-94774200D01*
X145410467Y-94774200D01*
X145389600Y-94772145D01*
X145368733Y-94774200D01*
X144900945Y-94774200D01*
X145012863Y-94662282D01*
X145138716Y-94473929D01*
X145225406Y-94264643D01*
X145269600Y-94042465D01*
X145269600Y-93815935D01*
X145509600Y-93815935D01*
X145509600Y-94042465D01*
X145553794Y-94264643D01*
X145640484Y-94473929D01*
X145766337Y-94662282D01*
X145926518Y-94822463D01*
X146114871Y-94948316D01*
X146324157Y-95035006D01*
X146546335Y-95079200D01*
X146772865Y-95079200D01*
X146995043Y-95035006D01*
X147204329Y-94948316D01*
X147392682Y-94822463D01*
X147552863Y-94662282D01*
X147678716Y-94473929D01*
X147765406Y-94264643D01*
X147809600Y-94042465D01*
X147809600Y-93815935D01*
X147765406Y-93593757D01*
X147715812Y-93474029D01*
X147732762Y-93457079D01*
X147748974Y-93443774D01*
X147802084Y-93379060D01*
X147827801Y-93330945D01*
X147841548Y-93305228D01*
X147865850Y-93225114D01*
X147871554Y-93167200D01*
X147872000Y-93162674D01*
X147872000Y-93162667D01*
X147874055Y-93141800D01*
X147872000Y-93120933D01*
X147872000Y-86039718D01*
X147890094Y-86012639D01*
X147927785Y-85921645D01*
X147947000Y-85825046D01*
X147947000Y-85726554D01*
X147927785Y-85629955D01*
X147890094Y-85538961D01*
X147835375Y-85457069D01*
X147765731Y-85387425D01*
X147683839Y-85332706D01*
X147592845Y-85295015D01*
X147496246Y-85275800D01*
X147397754Y-85275800D01*
X147301155Y-85295015D01*
X147210161Y-85332706D01*
X147128269Y-85387425D01*
X147058625Y-85457069D01*
X147003906Y-85538961D01*
X146966215Y-85629955D01*
X146947000Y-85726554D01*
X146947000Y-85825046D01*
X146966215Y-85921645D01*
X147003906Y-86012639D01*
X147022000Y-86039718D01*
X147022001Y-92834560D01*
X146995043Y-92823394D01*
X146772865Y-92779200D01*
X146546335Y-92779200D01*
X146324157Y-92823394D01*
X146114871Y-92910084D01*
X145926518Y-93035937D01*
X145766337Y-93196118D01*
X145640484Y-93384471D01*
X145553794Y-93593757D01*
X145509600Y-93815935D01*
X145269600Y-93815935D01*
X145225406Y-93593757D01*
X145175812Y-93474028D01*
X146437362Y-92212479D01*
X146453574Y-92199174D01*
X146506684Y-92134460D01*
X146546148Y-92060627D01*
X146570450Y-91980514D01*
X146576600Y-91918074D01*
X146576600Y-91918067D01*
X146578655Y-91897200D01*
X146576600Y-91876333D01*
X146576600Y-86065118D01*
X146594694Y-86038039D01*
X146632385Y-85947045D01*
X146651600Y-85850446D01*
X146651600Y-85751954D01*
X146632385Y-85655355D01*
X146594694Y-85564361D01*
X146539975Y-85482469D01*
X146470331Y-85412825D01*
X146388439Y-85358106D01*
X146297445Y-85320415D01*
X146200846Y-85301200D01*
X146102354Y-85301200D01*
X146005755Y-85320415D01*
X145914761Y-85358106D01*
X145832869Y-85412825D01*
X145763225Y-85482469D01*
X145708506Y-85564361D01*
X145670815Y-85655355D01*
X145651600Y-85751954D01*
X145651600Y-85850446D01*
X145670815Y-85947045D01*
X145708506Y-86038039D01*
X145726600Y-86065118D01*
X145726601Y-91721158D01*
X144574772Y-92872988D01*
X144455043Y-92823394D01*
X144232865Y-92779200D01*
X144006335Y-92779200D01*
X143784157Y-92823394D01*
X143574871Y-92910084D01*
X143386518Y-93035937D01*
X143274600Y-93147855D01*
X143274600Y-88009240D01*
X144995502Y-86288339D01*
X145027445Y-86281985D01*
X145118439Y-86244294D01*
X145200331Y-86189575D01*
X145269975Y-86119931D01*
X145324694Y-86038039D01*
X145362385Y-85947045D01*
X145381600Y-85850446D01*
X145381600Y-85751954D01*
X145362385Y-85655355D01*
X145324694Y-85564361D01*
X145269975Y-85482469D01*
X145200331Y-85412825D01*
X145118439Y-85358106D01*
X145027445Y-85320415D01*
X144930846Y-85301200D01*
X144832354Y-85301200D01*
X144735755Y-85320415D01*
X144644761Y-85358106D01*
X144562869Y-85412825D01*
X144493225Y-85482469D01*
X144438506Y-85564361D01*
X144400815Y-85655355D01*
X144394461Y-85687298D01*
X144087854Y-85993906D01*
X144117785Y-85921645D01*
X144137000Y-85825046D01*
X144137000Y-85726554D01*
X144117785Y-85629955D01*
X144080094Y-85538961D01*
X144025375Y-85457069D01*
X143955731Y-85387425D01*
X143873839Y-85332706D01*
X143782845Y-85295015D01*
X143686246Y-85275800D01*
X143587754Y-85275800D01*
X143491155Y-85295015D01*
X143400161Y-85332706D01*
X143318269Y-85387425D01*
X143248625Y-85457069D01*
X143193906Y-85538961D01*
X143156215Y-85629955D01*
X143149861Y-85661898D01*
X142856195Y-85955564D01*
X142867000Y-85901246D01*
X142867000Y-85802754D01*
X142847785Y-85706155D01*
X142810094Y-85615161D01*
X142755375Y-85533269D01*
X142685731Y-85463625D01*
X142603839Y-85408906D01*
X142512845Y-85371215D01*
X142416246Y-85352000D01*
X142317754Y-85352000D01*
X142221155Y-85371215D01*
X142130161Y-85408906D01*
X142048269Y-85463625D01*
X141978625Y-85533269D01*
X141923906Y-85615161D01*
X141886215Y-85706155D01*
X141867000Y-85802754D01*
X141867000Y-85901246D01*
X141886215Y-85997845D01*
X141923906Y-86088839D01*
X141978625Y-86170731D01*
X142048269Y-86240375D01*
X142130161Y-86295094D01*
X142221155Y-86332785D01*
X142317754Y-86352000D01*
X142416246Y-86352000D01*
X142470564Y-86341195D01*
X141801843Y-87009917D01*
X141785626Y-87023226D01*
X141732516Y-87087941D01*
X141693052Y-87161774D01*
X141668750Y-87241887D01*
X141662600Y-87304327D01*
X141662600Y-87304333D01*
X141660545Y-87325200D01*
X141662600Y-87346067D01*
X141662601Y-95686323D01*
X141660545Y-95707200D01*
X141668750Y-95790514D01*
X141688755Y-95856460D01*
X141693053Y-95870627D01*
X141732517Y-95944460D01*
X141785627Y-96009174D01*
X141801839Y-96022479D01*
X142534321Y-96754962D01*
X142547626Y-96771174D01*
X142612340Y-96824284D01*
X142641966Y-96840119D01*
X142686172Y-96863748D01*
X142726948Y-96876117D01*
X142766286Y-96888050D01*
X142828726Y-96894200D01*
X142828733Y-96894200D01*
X142849600Y-96896255D01*
X142870467Y-96894200D01*
X143050890Y-96894200D01*
X143100484Y-97013929D01*
X143226337Y-97202282D01*
X143386518Y-97362463D01*
X143574871Y-97488316D01*
X143784157Y-97575006D01*
X144006335Y-97619200D01*
X144232865Y-97619200D01*
X144455043Y-97575006D01*
X144664329Y-97488316D01*
X144852682Y-97362463D01*
X145012863Y-97202282D01*
X145138716Y-97013929D01*
X145225406Y-96804643D01*
X145269600Y-96582465D01*
X145269600Y-96355935D01*
X145225406Y-96133757D01*
X145138716Y-95924471D01*
X145012863Y-95736118D01*
X144900945Y-95624200D01*
X145213560Y-95624200D01*
X145523840Y-95934481D01*
X145523845Y-95934485D01*
X145603388Y-96014028D01*
X145553794Y-96133757D01*
X145509600Y-96355935D01*
X145509600Y-96582465D01*
X145553794Y-96804643D01*
X145640484Y-97013929D01*
X145766337Y-97202282D01*
X145926518Y-97362463D01*
X146114871Y-97488316D01*
X146324157Y-97575006D01*
X146505598Y-97611097D01*
X146505598Y-97711349D01*
X146280689Y-97601291D01*
X146013300Y-97702265D01*
X145770748Y-97853464D01*
X145562354Y-98049078D01*
X145396127Y-98281589D01*
X145278454Y-98542061D01*
X145251697Y-98630290D01*
X145362710Y-98855198D01*
X145261497Y-98855198D01*
X145225406Y-98673757D01*
X145138716Y-98464471D01*
X145012863Y-98276118D01*
X144852682Y-98115937D01*
X144664329Y-97990084D01*
X144455043Y-97903394D01*
X144232865Y-97859200D01*
X144006335Y-97859200D01*
X143784157Y-97903394D01*
X143574871Y-97990084D01*
X143386518Y-98115937D01*
X143226337Y-98276118D01*
X143100484Y-98464471D01*
X143050890Y-98584200D01*
X141755641Y-98584200D01*
X141496600Y-98325160D01*
X141496600Y-86065118D01*
X141514694Y-86038039D01*
X141552385Y-85947045D01*
X141571600Y-85850446D01*
X141571600Y-85751954D01*
X141552385Y-85655355D01*
X141514694Y-85564361D01*
X141459975Y-85482469D01*
X141390331Y-85412825D01*
X141308439Y-85358106D01*
X141217445Y-85320415D01*
X141120846Y-85301200D01*
X141022354Y-85301200D01*
X140925755Y-85320415D01*
X140834761Y-85358106D01*
X140752869Y-85412825D01*
X140683225Y-85482469D01*
X140628506Y-85564361D01*
X140590815Y-85655355D01*
X140571600Y-85751954D01*
X140571600Y-85850446D01*
X140590815Y-85947045D01*
X140628506Y-86038039D01*
X140646600Y-86065118D01*
X140646601Y-98480323D01*
X140644545Y-98501200D01*
X140652750Y-98584514D01*
X140673865Y-98654117D01*
X140677053Y-98664627D01*
X140716517Y-98738460D01*
X140743993Y-98771939D01*
X140747386Y-98776073D01*
X140769627Y-98803174D01*
X140785839Y-98816479D01*
X141264319Y-99294960D01*
X141277626Y-99311174D01*
X141342340Y-99364284D01*
X141416173Y-99403748D01*
X141471983Y-99420678D01*
X141496285Y-99428050D01*
X141504698Y-99428879D01*
X141558726Y-99434200D01*
X141558732Y-99434200D01*
X141579599Y-99436255D01*
X141600466Y-99434200D01*
X143050890Y-99434200D01*
X143100484Y-99553929D01*
X143226337Y-99742282D01*
X143338255Y-99854200D01*
X140993641Y-99854200D01*
X140226600Y-99087160D01*
X140226600Y-86065118D01*
X140244694Y-86038039D01*
X140282385Y-85947045D01*
X140301600Y-85850446D01*
X140301600Y-85751954D01*
X140282385Y-85655355D01*
X140244694Y-85564361D01*
X140189975Y-85482469D01*
X140120331Y-85412825D01*
X140038439Y-85358106D01*
X139947445Y-85320415D01*
X139850846Y-85301200D01*
X139752354Y-85301200D01*
X139655755Y-85320415D01*
X139564761Y-85358106D01*
X139482869Y-85412825D01*
X139413225Y-85482469D01*
X139358506Y-85564361D01*
X139320815Y-85655355D01*
X139301600Y-85751954D01*
X139301600Y-85850446D01*
X139320815Y-85947045D01*
X139358506Y-86038039D01*
X139376600Y-86065118D01*
X139376601Y-99242323D01*
X139374545Y-99263200D01*
X139382750Y-99346514D01*
X139407053Y-99426626D01*
X139407053Y-99426627D01*
X139446517Y-99500460D01*
X139499627Y-99565174D01*
X139515839Y-99578479D01*
X140502319Y-100564960D01*
X140515626Y-100581174D01*
X140580340Y-100634284D01*
X140654173Y-100673748D01*
X140709983Y-100690678D01*
X140734285Y-100698050D01*
X140741927Y-100698803D01*
X140796726Y-100704200D01*
X140796733Y-100704200D01*
X140817600Y-100706255D01*
X140838467Y-100704200D01*
X143338255Y-100704200D01*
X143226337Y-100816118D01*
X143100484Y-101004471D01*
X143050890Y-101124200D01*
X140993641Y-101124200D01*
X138956600Y-99087160D01*
X138956600Y-86065118D01*
X138974694Y-86038039D01*
X139012385Y-85947045D01*
X139031600Y-85850446D01*
X139031600Y-85751954D01*
X139012385Y-85655355D01*
X138974694Y-85564361D01*
X138919975Y-85482469D01*
X138850331Y-85412825D01*
X138768439Y-85358106D01*
X138677445Y-85320415D01*
X138580846Y-85301200D01*
X138482354Y-85301200D01*
X138385755Y-85320415D01*
X138294761Y-85358106D01*
X138212869Y-85412825D01*
X138143225Y-85482469D01*
X138088506Y-85564361D01*
X138050815Y-85655355D01*
X138031600Y-85751954D01*
X138031600Y-85850446D01*
X138050815Y-85947045D01*
X138088506Y-86038039D01*
X138106600Y-86065118D01*
X138106601Y-99242323D01*
X138104545Y-99263200D01*
X138112750Y-99346514D01*
X138137053Y-99426626D01*
X138137053Y-99426627D01*
X138176517Y-99500460D01*
X138229627Y-99565174D01*
X138245839Y-99578479D01*
X140502321Y-101834962D01*
X140515626Y-101851174D01*
X140580340Y-101904284D01*
X140654173Y-101943748D01*
X140709983Y-101960678D01*
X140734285Y-101968050D01*
X140742698Y-101968879D01*
X140796726Y-101974200D01*
X140796732Y-101974200D01*
X140817599Y-101976255D01*
X140838466Y-101974200D01*
X143050890Y-101974200D01*
X143100484Y-102093929D01*
X143226337Y-102282282D01*
X143338255Y-102394200D01*
X140993641Y-102394200D01*
X137686600Y-99087160D01*
X137686600Y-86065118D01*
X137704694Y-86038039D01*
X137742385Y-85947045D01*
X137761600Y-85850446D01*
X137761600Y-85751954D01*
X137742385Y-85655355D01*
X137704694Y-85564361D01*
X137649975Y-85482469D01*
X137580331Y-85412825D01*
X137498439Y-85358106D01*
X137407445Y-85320415D01*
X137310846Y-85301200D01*
X137212354Y-85301200D01*
X137115755Y-85320415D01*
X137024761Y-85358106D01*
X136942869Y-85412825D01*
X136873225Y-85482469D01*
X136818506Y-85564361D01*
X136780815Y-85655355D01*
X136761600Y-85751954D01*
X136761600Y-85850446D01*
X136780815Y-85947045D01*
X136818506Y-86038039D01*
X136836601Y-86065120D01*
X136836600Y-99242333D01*
X136835629Y-99252189D01*
X136416600Y-98833160D01*
X136416600Y-86065118D01*
X136434694Y-86038039D01*
X136472385Y-85947045D01*
X136491600Y-85850446D01*
X136491600Y-85751954D01*
X136472385Y-85655355D01*
X136434694Y-85564361D01*
X136379975Y-85482469D01*
X136310331Y-85412825D01*
X136228439Y-85358106D01*
X136137445Y-85320415D01*
X136040846Y-85301200D01*
X135942354Y-85301200D01*
X135845755Y-85320415D01*
X135754761Y-85358106D01*
X135672869Y-85412825D01*
X135603225Y-85482469D01*
X135548506Y-85564361D01*
X135510815Y-85655355D01*
X135491600Y-85751954D01*
X135221600Y-85751954D01*
X135202385Y-85655355D01*
X135164694Y-85564361D01*
X135109975Y-85482469D01*
X135040331Y-85412825D01*
X134958439Y-85358106D01*
X134867445Y-85320415D01*
X134770846Y-85301200D01*
X134672354Y-85301200D01*
X134575755Y-85320415D01*
X134484761Y-85358106D01*
X134402869Y-85412825D01*
X134333225Y-85482469D01*
X134278506Y-85564361D01*
X134240815Y-85655355D01*
X134221600Y-85751954D01*
X134221600Y-85850446D01*
X134240815Y-85947045D01*
X134278506Y-86038039D01*
X134296600Y-86065118D01*
X134296601Y-98833158D01*
X129465560Y-103664200D01*
X127662310Y-103664200D01*
X127612716Y-103544471D01*
X127486863Y-103356118D01*
X127374945Y-103244200D01*
X129620733Y-103244200D01*
X129641600Y-103246255D01*
X129662467Y-103244200D01*
X129662474Y-103244200D01*
X129724914Y-103238050D01*
X129805027Y-103213748D01*
X129878860Y-103174284D01*
X129943574Y-103121174D01*
X129956884Y-103104957D01*
X133737363Y-99324478D01*
X133753574Y-99311174D01*
X133806684Y-99246460D01*
X133846148Y-99172627D01*
X133870450Y-99092514D01*
X133876600Y-99030074D01*
X133876600Y-99030067D01*
X133878655Y-99009200D01*
X133876600Y-98988333D01*
X133876600Y-86065118D01*
X133894694Y-86038039D01*
X133932385Y-85947045D01*
X133951600Y-85850446D01*
X133951600Y-85751954D01*
X133932385Y-85655355D01*
X133894694Y-85564361D01*
X133839975Y-85482469D01*
X133770331Y-85412825D01*
X133688439Y-85358106D01*
X133597445Y-85320415D01*
X133500846Y-85301200D01*
X133402354Y-85301200D01*
X133305755Y-85320415D01*
X133214761Y-85358106D01*
X133132869Y-85412825D01*
X133063225Y-85482469D01*
X133008506Y-85564361D01*
X132970815Y-85655355D01*
X132951600Y-85751954D01*
X132951600Y-85850446D01*
X132970815Y-85947045D01*
X133008506Y-86038039D01*
X133026601Y-86065120D01*
X133026600Y-98833159D01*
X129465560Y-102394200D01*
X127374945Y-102394200D01*
X127486863Y-102282282D01*
X127612716Y-102093929D01*
X127662310Y-101974200D01*
X129366733Y-101974200D01*
X129387600Y-101976255D01*
X129408467Y-101974200D01*
X129408474Y-101974200D01*
X129470914Y-101968050D01*
X129551027Y-101943748D01*
X129624860Y-101904284D01*
X129689574Y-101851174D01*
X129702883Y-101834957D01*
X132467363Y-99070478D01*
X132483574Y-99057174D01*
X132536684Y-98992460D01*
X132562401Y-98944345D01*
X132576148Y-98918628D01*
X132600450Y-98838514D01*
X132600683Y-98836145D01*
X132606600Y-98776074D01*
X132606600Y-98776067D01*
X132608655Y-98755200D01*
X132606600Y-98734333D01*
X132606600Y-86065118D01*
X132624694Y-86038039D01*
X132662385Y-85947045D01*
X132681600Y-85850446D01*
X132681600Y-85751954D01*
X132662385Y-85655355D01*
X132624694Y-85564361D01*
X132569975Y-85482469D01*
X132500331Y-85412825D01*
X132418439Y-85358106D01*
X132327445Y-85320415D01*
X132230846Y-85301200D01*
X132132354Y-85301200D01*
X132035755Y-85320415D01*
X131944761Y-85358106D01*
X131862869Y-85412825D01*
X131793225Y-85482469D01*
X131738506Y-85564361D01*
X131700815Y-85655355D01*
X131681600Y-85751954D01*
X131681600Y-85850446D01*
X131700815Y-85947045D01*
X131738506Y-86038039D01*
X131756601Y-86065120D01*
X131756600Y-98579159D01*
X129211560Y-101124200D01*
X127662310Y-101124200D01*
X127612716Y-101004471D01*
X127486863Y-100816118D01*
X127374945Y-100704200D01*
X129366733Y-100704200D01*
X129387600Y-100706255D01*
X129408467Y-100704200D01*
X129408474Y-100704200D01*
X129470914Y-100698050D01*
X129551027Y-100673748D01*
X129624860Y-100634284D01*
X129689574Y-100581174D01*
X129702883Y-100564957D01*
X131197362Y-99070479D01*
X131213574Y-99057174D01*
X131235816Y-99030073D01*
X131252946Y-99009200D01*
X131266684Y-98992460D01*
X131306148Y-98918627D01*
X131328248Y-98845773D01*
X131330450Y-98838515D01*
X131331279Y-98830102D01*
X131336600Y-98776074D01*
X131336600Y-98776068D01*
X131338655Y-98755201D01*
X131336600Y-98734334D01*
X131336600Y-86065118D01*
X131354694Y-86038039D01*
X131392385Y-85947045D01*
X131411600Y-85850446D01*
X131411600Y-85751954D01*
X131392385Y-85655355D01*
X131354694Y-85564361D01*
X131299975Y-85482469D01*
X131230331Y-85412825D01*
X131148439Y-85358106D01*
X131057445Y-85320415D01*
X130960846Y-85301200D01*
X130862354Y-85301200D01*
X130765755Y-85320415D01*
X130674761Y-85358106D01*
X130592869Y-85412825D01*
X130523225Y-85482469D01*
X130468506Y-85564361D01*
X130430815Y-85655355D01*
X130411600Y-85751954D01*
X130411600Y-85850446D01*
X130430815Y-85947045D01*
X130468506Y-86038039D01*
X130486600Y-86065118D01*
X130486601Y-98579158D01*
X129211560Y-99854200D01*
X127374945Y-99854200D01*
X127486863Y-99742282D01*
X127612716Y-99553929D01*
X127662310Y-99434200D01*
X128858733Y-99434200D01*
X128879600Y-99436255D01*
X128900467Y-99434200D01*
X128900474Y-99434200D01*
X128962914Y-99428050D01*
X129043027Y-99403748D01*
X129116860Y-99364284D01*
X129181574Y-99311174D01*
X129194883Y-99294957D01*
X129927363Y-98562478D01*
X129943574Y-98549174D01*
X129996684Y-98484460D01*
X130032268Y-98417886D01*
X130036148Y-98410628D01*
X130060450Y-98330514D01*
X130060683Y-98328145D01*
X130066600Y-98268074D01*
X130066600Y-98268067D01*
X130068655Y-98247200D01*
X130066600Y-98226333D01*
X130066600Y-86065118D01*
X130084694Y-86038039D01*
X130122385Y-85947045D01*
X130141600Y-85850446D01*
X130141600Y-85751954D01*
X130122385Y-85655355D01*
X130084694Y-85564361D01*
X130029975Y-85482469D01*
X129960331Y-85412825D01*
X129878439Y-85358106D01*
X129787445Y-85320415D01*
X129690846Y-85301200D01*
X129592354Y-85301200D01*
X129495755Y-85320415D01*
X129404761Y-85358106D01*
X129322869Y-85412825D01*
X129253225Y-85482469D01*
X129198506Y-85564361D01*
X129160815Y-85655355D01*
X129141600Y-85751954D01*
X129141600Y-85850446D01*
X129160815Y-85947045D01*
X129198506Y-86038039D01*
X129216601Y-86065120D01*
X129216601Y-86332748D01*
X129181574Y-86290068D01*
X129165362Y-86276763D01*
X128847481Y-85958883D01*
X128852385Y-85947045D01*
X128871600Y-85850446D01*
X128871600Y-85751954D01*
X128852385Y-85655355D01*
X128814694Y-85564361D01*
X128759975Y-85482469D01*
X128690331Y-85412825D01*
X128608439Y-85358106D01*
X128517445Y-85320415D01*
X128420846Y-85301200D01*
X128322354Y-85301200D01*
X128225755Y-85320415D01*
X128134761Y-85358106D01*
X128052869Y-85412825D01*
X127983225Y-85482469D01*
X127928506Y-85564361D01*
X127890815Y-85655355D01*
X127871600Y-85751954D01*
X127871600Y-85850446D01*
X127890815Y-85947045D01*
X127928506Y-86038039D01*
X127946433Y-86064869D01*
X127944545Y-86084042D01*
X127946600Y-86104909D01*
X127946600Y-86104915D01*
X127948079Y-86119931D01*
X127952750Y-86167356D01*
X127957950Y-86184497D01*
X127977052Y-86247468D01*
X128016516Y-86321301D01*
X128069626Y-86386016D01*
X128085843Y-86399325D01*
X128454601Y-86768084D01*
X128454600Y-93050948D01*
X128453781Y-93050275D01*
X126331600Y-90928095D01*
X126331600Y-85751954D01*
X126326784Y-85727742D01*
X126324365Y-85703183D01*
X126317201Y-85679566D01*
X126312385Y-85655355D01*
X126302940Y-85632552D01*
X126295775Y-85608933D01*
X126284140Y-85587165D01*
X126274694Y-85564361D01*
X126260981Y-85543838D01*
X126249346Y-85522071D01*
X126233687Y-85502991D01*
X126219975Y-85482469D01*
X126202525Y-85465019D01*
X126186864Y-85445936D01*
X126167781Y-85430275D01*
X126150331Y-85412825D01*
X126129809Y-85399113D01*
X126110729Y-85383454D01*
X126088962Y-85371819D01*
X126068439Y-85358106D01*
X126045635Y-85348660D01*
X126023867Y-85337025D01*
X126000248Y-85329860D01*
X125977445Y-85320415D01*
X125953234Y-85315599D01*
X125929617Y-85308435D01*
X125905058Y-85306016D01*
X125880846Y-85301200D01*
X125856160Y-85301200D01*
X125831600Y-85298781D01*
X125807040Y-85301200D01*
X125782354Y-85301200D01*
X125758142Y-85306016D01*
X125733584Y-85308435D01*
X125709969Y-85315599D01*
X125685755Y-85320415D01*
X125662949Y-85329862D01*
X125639334Y-85337025D01*
X125617570Y-85348658D01*
X125594761Y-85358106D01*
X125574234Y-85371822D01*
X125552472Y-85383454D01*
X125533396Y-85399109D01*
X125512869Y-85412825D01*
X125495414Y-85430280D01*
X125476337Y-85445936D01*
X125460681Y-85465013D01*
X125443225Y-85482469D01*
X125429508Y-85502997D01*
X125413855Y-85522071D01*
X125402224Y-85543830D01*
X125388506Y-85564361D01*
X125379057Y-85587174D01*
X125367426Y-85608933D01*
X125360264Y-85632543D01*
X125350815Y-85655355D01*
X125345997Y-85679575D01*
X125338836Y-85703183D01*
X125336418Y-85727732D01*
X125331600Y-85751954D01*
X125331600Y-85850446D01*
X125331601Y-85850451D01*
X125331600Y-91110640D01*
X125329181Y-91135200D01*
X125331600Y-91159759D01*
X125338835Y-91233216D01*
X125367425Y-91327466D01*
X125413854Y-91414329D01*
X125476336Y-91490464D01*
X125495424Y-91506129D01*
X126783797Y-92794503D01*
X126706865Y-92779200D01*
X126480335Y-92779200D01*
X126258157Y-92823394D01*
X126213427Y-92841922D01*
X125061600Y-91690095D01*
X125061600Y-85751954D01*
X125056784Y-85727742D01*
X125054365Y-85703183D01*
X125047201Y-85679566D01*
X125042385Y-85655355D01*
X125032940Y-85632552D01*
X125025775Y-85608933D01*
X125014140Y-85587165D01*
X125004694Y-85564361D01*
X124990981Y-85543838D01*
X124979346Y-85522071D01*
X124963687Y-85502991D01*
X124949975Y-85482469D01*
X124932525Y-85465019D01*
X124916864Y-85445936D01*
X124897781Y-85430275D01*
X124880331Y-85412825D01*
X124859809Y-85399113D01*
X124840729Y-85383454D01*
X124818963Y-85371820D01*
X124798439Y-85358106D01*
X124775631Y-85348659D01*
X124753866Y-85337025D01*
X124730251Y-85329862D01*
X124707445Y-85320415D01*
X124683231Y-85315599D01*
X124659616Y-85308435D01*
X124635058Y-85306016D01*
X124610846Y-85301200D01*
X124586160Y-85301200D01*
X124561600Y-85298781D01*
X124537040Y-85301200D01*
X124512354Y-85301200D01*
X124488142Y-85306016D01*
X124463583Y-85308435D01*
X124439966Y-85315599D01*
X124415755Y-85320415D01*
X124392952Y-85329860D01*
X124369333Y-85337025D01*
X124347565Y-85348660D01*
X124324761Y-85358106D01*
X124304238Y-85371819D01*
X124282471Y-85383454D01*
X124263391Y-85399113D01*
X124242869Y-85412825D01*
X124225419Y-85430275D01*
X124206336Y-85445936D01*
X124190675Y-85465019D01*
X124173225Y-85482469D01*
X124159513Y-85502991D01*
X124143854Y-85522071D01*
X124132220Y-85543837D01*
X124118506Y-85564361D01*
X124109059Y-85587169D01*
X124097425Y-85608934D01*
X124090262Y-85632549D01*
X124080815Y-85655355D01*
X124075999Y-85679569D01*
X124068835Y-85703184D01*
X124066416Y-85727741D01*
X124061600Y-85751954D01*
X124061600Y-85776641D01*
X124061601Y-91872630D01*
X124059181Y-91897200D01*
X124068835Y-91995217D01*
X124088678Y-92060628D01*
X124097426Y-92089467D01*
X124143855Y-92176329D01*
X124206337Y-92252464D01*
X124225419Y-92268124D01*
X125506322Y-93549027D01*
X125487794Y-93593757D01*
X125443600Y-93815935D01*
X125443600Y-94042465D01*
X125487794Y-94264643D01*
X125574484Y-94473929D01*
X125700337Y-94662282D01*
X125737255Y-94699200D01*
X125348157Y-94699200D01*
X125323599Y-94696781D01*
X125299041Y-94699200D01*
X125299040Y-94699200D01*
X125225583Y-94706435D01*
X125131333Y-94735025D01*
X125044471Y-94781454D01*
X124968336Y-94843936D01*
X124952680Y-94863013D01*
X124433772Y-95381922D01*
X124389043Y-95363394D01*
X124166865Y-95319200D01*
X123940335Y-95319200D01*
X123718157Y-95363394D01*
X123508871Y-95450084D01*
X123320518Y-95575937D01*
X123160337Y-95736118D01*
X123034484Y-95924471D01*
X122947794Y-96133757D01*
X122903600Y-96355935D01*
X114723000Y-96355935D01*
X114723000Y-93167200D01*
X122789181Y-93167200D01*
X122798835Y-93265217D01*
X122827426Y-93359467D01*
X122873855Y-93446329D01*
X122936337Y-93522464D01*
X122955419Y-93538124D01*
X122966322Y-93549027D01*
X122947794Y-93593757D01*
X122903600Y-93815935D01*
X122903600Y-94042465D01*
X122947794Y-94264643D01*
X123034484Y-94473929D01*
X123160337Y-94662282D01*
X123320518Y-94822463D01*
X123508871Y-94948316D01*
X123718157Y-95035006D01*
X123940335Y-95079200D01*
X124166865Y-95079200D01*
X124389043Y-95035006D01*
X124598329Y-94948316D01*
X124786682Y-94822463D01*
X124946863Y-94662282D01*
X125072716Y-94473929D01*
X125159406Y-94264643D01*
X125203600Y-94042465D01*
X125203600Y-93815935D01*
X125159406Y-93593757D01*
X125072716Y-93384471D01*
X124946863Y-93196118D01*
X124786682Y-93035937D01*
X124598329Y-92910084D01*
X124389043Y-92823394D01*
X124166865Y-92779200D01*
X123940335Y-92779200D01*
X123791600Y-92808785D01*
X123791600Y-85751954D01*
X123786784Y-85727742D01*
X123784365Y-85703183D01*
X123777201Y-85679566D01*
X123772385Y-85655355D01*
X123762940Y-85632552D01*
X123755775Y-85608933D01*
X123744140Y-85587165D01*
X123734694Y-85564361D01*
X123720981Y-85543838D01*
X123709346Y-85522071D01*
X123693687Y-85502991D01*
X123679975Y-85482469D01*
X123662525Y-85465019D01*
X123646864Y-85445936D01*
X123627781Y-85430275D01*
X123610331Y-85412825D01*
X123589809Y-85399113D01*
X123570729Y-85383454D01*
X123548963Y-85371820D01*
X123528439Y-85358106D01*
X123505631Y-85348659D01*
X123483866Y-85337025D01*
X123460251Y-85329862D01*
X123437445Y-85320415D01*
X123413231Y-85315599D01*
X123389616Y-85308435D01*
X123365058Y-85306016D01*
X123340846Y-85301200D01*
X123316160Y-85301200D01*
X123291600Y-85298781D01*
X123267040Y-85301200D01*
X123242354Y-85301200D01*
X123218142Y-85306016D01*
X123193583Y-85308435D01*
X123169966Y-85315599D01*
X123145755Y-85320415D01*
X123122952Y-85329860D01*
X123099333Y-85337025D01*
X123077565Y-85348660D01*
X123054761Y-85358106D01*
X123034238Y-85371819D01*
X123012471Y-85383454D01*
X122993391Y-85399113D01*
X122972869Y-85412825D01*
X122955419Y-85430275D01*
X122936336Y-85445936D01*
X122920675Y-85465019D01*
X122903225Y-85482469D01*
X122889513Y-85502991D01*
X122873854Y-85522071D01*
X122862220Y-85543837D01*
X122848506Y-85564361D01*
X122839059Y-85587169D01*
X122827425Y-85608934D01*
X122820262Y-85632549D01*
X122810815Y-85655355D01*
X122805999Y-85679569D01*
X122798835Y-85703184D01*
X122796416Y-85727741D01*
X122791600Y-85751954D01*
X122791600Y-85776641D01*
X122791601Y-93142630D01*
X122789181Y-93167200D01*
X114723000Y-93167200D01*
X114723000Y-85799015D01*
X114882672Y-86184497D01*
X115189098Y-86643096D01*
X115579104Y-87033102D01*
X116037703Y-87339528D01*
X116547270Y-87550598D01*
X117088224Y-87658200D01*
X117639776Y-87658200D01*
X118180730Y-87550598D01*
X118690297Y-87339528D01*
X119148896Y-87033102D01*
X119538902Y-86643096D01*
X119845328Y-86184497D01*
X120056398Y-85674930D01*
X120164000Y-85133976D01*
X120164000Y-84582424D01*
X120056398Y-84041470D01*
X120017911Y-83948554D01*
X121572400Y-83948554D01*
X121572400Y-84047046D01*
X121591615Y-84143645D01*
X121629306Y-84234639D01*
X121684025Y-84316531D01*
X121753669Y-84386175D01*
X121835561Y-84440894D01*
X121926555Y-84478585D01*
X122023154Y-84497800D01*
X122121646Y-84497800D01*
X122218245Y-84478585D01*
X122309239Y-84440894D01*
X122391131Y-84386175D01*
X122460775Y-84316531D01*
X122515494Y-84234639D01*
X122553185Y-84143645D01*
X122572400Y-84047046D01*
X122572400Y-83948554D01*
X122553185Y-83851955D01*
X122515494Y-83760961D01*
X122460775Y-83679069D01*
X122391131Y-83609425D01*
X122309239Y-83554706D01*
X122218245Y-83517015D01*
X122121646Y-83497800D01*
X122023154Y-83497800D01*
X121926555Y-83517015D01*
X121835561Y-83554706D01*
X121753669Y-83609425D01*
X121684025Y-83679069D01*
X121629306Y-83760961D01*
X121591615Y-83851955D01*
X121572400Y-83948554D01*
X120017911Y-83948554D01*
X119845328Y-83531903D01*
X119538902Y-83073304D01*
X119148896Y-82683298D01*
X118690297Y-82376872D01*
X118289859Y-82211005D01*
X122874278Y-82211004D01*
X122873906Y-82211561D01*
X122836215Y-82302555D01*
X122817000Y-82399154D01*
X122817000Y-82497646D01*
X122836215Y-82594245D01*
X122873906Y-82685239D01*
X122928625Y-82767131D01*
X122998269Y-82836775D01*
X123080161Y-82891494D01*
X123171155Y-82929185D01*
X123267754Y-82948400D01*
X123366246Y-82948400D01*
X123462845Y-82929185D01*
X123553839Y-82891494D01*
X123635731Y-82836775D01*
X123705375Y-82767131D01*
X123760094Y-82685239D01*
X123797785Y-82594245D01*
X123817000Y-82497646D01*
X123817000Y-82399154D01*
X123797785Y-82302555D01*
X123760094Y-82211561D01*
X123759722Y-82211004D01*
X152440155Y-82210999D01*
X152039703Y-82376872D01*
G36*
X128454600Y-97055159D02*
G01*
X128195560Y-97314200D01*
X127773149Y-97314200D01*
X127857073Y-97196811D01*
X127974746Y-96936339D01*
X128001503Y-96848110D01*
X127890489Y-96623200D01*
X126747600Y-96623200D01*
X126747600Y-96643200D01*
X126439600Y-96643200D01*
X126439600Y-96623200D01*
X126419600Y-96623200D01*
X126419600Y-96315200D01*
X126439600Y-96315200D01*
X126439600Y-96295200D01*
X126747600Y-96295200D01*
X126747600Y-96315200D01*
X127890489Y-96315200D01*
X128001503Y-96090290D01*
X127974746Y-96002061D01*
X127857073Y-95741589D01*
X127717507Y-95546370D01*
X127726529Y-95535376D01*
X128453787Y-94808120D01*
X128454600Y-94807453D01*
X128454600Y-97055159D01*
G37*
X128454600Y-97055159D02*
X128195560Y-97314200D01*
X127773149Y-97314200D01*
X127857073Y-97196811D01*
X127974746Y-96936339D01*
X128001503Y-96848110D01*
X127890489Y-96623200D01*
X126747600Y-96623200D01*
X126747600Y-96643200D01*
X126439600Y-96643200D01*
X126439600Y-96623200D01*
X126419600Y-96623200D01*
X126419600Y-96315200D01*
X126439600Y-96315200D01*
X126439600Y-96295200D01*
X126747600Y-96295200D01*
X126747600Y-96315200D01*
X127890489Y-96315200D01*
X128001503Y-96090290D01*
X127974746Y-96002061D01*
X127857073Y-95741589D01*
X127717507Y-95546370D01*
X127726529Y-95535376D01*
X128453787Y-94808120D01*
X128454600Y-94807453D01*
X128454600Y-97055159D01*
M02*
