G04 #@! TF.GenerationSoftware,KiCad,Pcbnew,(5.1.6)-1*
G04 #@! TF.CreationDate,2020-10-15T11:20:42+02:00*
G04 #@! TF.ProjectId,DynOSSAT-EDU-HeaderAdapter,44796e4f-5353-4415-942d-4544552d4865,rev?*
G04 #@! TF.SameCoordinates,Original*
G04 #@! TF.FileFunction,Paste,Bot*
G04 #@! TF.FilePolarity,Positive*
%FSLAX46Y46*%
G04 Gerber Fmt 4.6, Leading zero omitted, Abs format (unit mm)*
G04 Created by KiCad (PCBNEW (5.1.6)-1) date 2020-10-15 11:20:42*
%MOMM*%
%LPD*%
G01*
G04 APERTURE LIST*
%ADD10R,0.750000X2.100000*%
G04 APERTURE END LIST*
D10*
X123317000Y-87601200D03*
X123317000Y-84001200D03*
X124587000Y-87601200D03*
X124587000Y-84001200D03*
X125857000Y-87601200D03*
X125857000Y-84001200D03*
X127127000Y-87601200D03*
X127127000Y-84001200D03*
X128397000Y-87601200D03*
X128397000Y-84001200D03*
X129667000Y-87601200D03*
X129667000Y-84001200D03*
X130937000Y-87601200D03*
X130937000Y-84001200D03*
X132207000Y-87601200D03*
X132207000Y-84001200D03*
X133477000Y-87601200D03*
X133477000Y-84001200D03*
X134747000Y-87601200D03*
X134747000Y-84001200D03*
X136017000Y-87601200D03*
X136017000Y-84001200D03*
X137287000Y-87601200D03*
X137287000Y-84001200D03*
X138557000Y-87601200D03*
X138557000Y-84001200D03*
X139827000Y-87601200D03*
X139827000Y-84001200D03*
X141097000Y-87601200D03*
X141097000Y-84001200D03*
X142367000Y-87601200D03*
X142367000Y-84001200D03*
X143637000Y-87601200D03*
X143637000Y-84001200D03*
X144907000Y-87601200D03*
X144907000Y-84001200D03*
X146177000Y-87601200D03*
X146177000Y-84001200D03*
X147447000Y-87601200D03*
X147447000Y-84001200D03*
M02*
