G04 #@! TF.GenerationSoftware,KiCad,Pcbnew,(5.1.6)-1*
G04 #@! TF.CreationDate,2020-11-06T20:31:42+01:00*
G04 #@! TF.ProjectId,DynOSSAT-EDU-HeaderAdapter,44796e4f-5353-4415-942d-4544552d4865,rev?*
G04 #@! TF.SameCoordinates,Original*
G04 #@! TF.FileFunction,Other,Fab,Bot*
%FSLAX46Y46*%
G04 Gerber Fmt 4.6, Leading zero omitted, Abs format (unit mm)*
G04 Created by KiCad (PCBNEW (5.1.6)-1) date 2020-11-06 20:31:42*
%MOMM*%
%LPD*%
G01*
G04 APERTURE LIST*
%ADD10C,0.100000*%
%ADD11C,0.150000*%
G04 APERTURE END LIST*
D10*
X147647000Y-88356200D02*
X147647000Y-87071200D01*
X147247000Y-88356200D02*
X147647000Y-88356200D01*
X147247000Y-87071200D02*
X147247000Y-88356200D01*
X147647000Y-83246200D02*
X147247000Y-83246200D01*
X147647000Y-84531200D02*
X147647000Y-83246200D01*
X147247000Y-83246200D02*
X147247000Y-84531200D01*
X146377000Y-88356200D02*
X146377000Y-87071200D01*
X145977000Y-88356200D02*
X146377000Y-88356200D01*
X145977000Y-87071200D02*
X145977000Y-88356200D01*
X146377000Y-83246200D02*
X145977000Y-83246200D01*
X146377000Y-84531200D02*
X146377000Y-83246200D01*
X145977000Y-83246200D02*
X145977000Y-84531200D01*
X145107000Y-88356200D02*
X145107000Y-87071200D01*
X144707000Y-88356200D02*
X145107000Y-88356200D01*
X144707000Y-87071200D02*
X144707000Y-88356200D01*
X145107000Y-83246200D02*
X144707000Y-83246200D01*
X145107000Y-84531200D02*
X145107000Y-83246200D01*
X144707000Y-83246200D02*
X144707000Y-84531200D01*
X143837000Y-88356200D02*
X143837000Y-87071200D01*
X143437000Y-88356200D02*
X143837000Y-88356200D01*
X143437000Y-87071200D02*
X143437000Y-88356200D01*
X143837000Y-83246200D02*
X143437000Y-83246200D01*
X143837000Y-84531200D02*
X143837000Y-83246200D01*
X143437000Y-83246200D02*
X143437000Y-84531200D01*
X142567000Y-88356200D02*
X142567000Y-87071200D01*
X142167000Y-88356200D02*
X142567000Y-88356200D01*
X142167000Y-87071200D02*
X142167000Y-88356200D01*
X142567000Y-83246200D02*
X142167000Y-83246200D01*
X142567000Y-84531200D02*
X142567000Y-83246200D01*
X142167000Y-83246200D02*
X142167000Y-84531200D01*
X141297000Y-88356200D02*
X141297000Y-87071200D01*
X140897000Y-88356200D02*
X141297000Y-88356200D01*
X140897000Y-87071200D02*
X140897000Y-88356200D01*
X141297000Y-83246200D02*
X140897000Y-83246200D01*
X141297000Y-84531200D02*
X141297000Y-83246200D01*
X140897000Y-83246200D02*
X140897000Y-84531200D01*
X140027000Y-88356200D02*
X140027000Y-87071200D01*
X139627000Y-88356200D02*
X140027000Y-88356200D01*
X139627000Y-87071200D02*
X139627000Y-88356200D01*
X140027000Y-83246200D02*
X139627000Y-83246200D01*
X140027000Y-84531200D02*
X140027000Y-83246200D01*
X139627000Y-83246200D02*
X139627000Y-84531200D01*
X138757000Y-88356200D02*
X138757000Y-87071200D01*
X138357000Y-88356200D02*
X138757000Y-88356200D01*
X138357000Y-87071200D02*
X138357000Y-88356200D01*
X138757000Y-83246200D02*
X138357000Y-83246200D01*
X138757000Y-84531200D02*
X138757000Y-83246200D01*
X138357000Y-83246200D02*
X138357000Y-84531200D01*
X137487000Y-88356200D02*
X137487000Y-87071200D01*
X137087000Y-88356200D02*
X137487000Y-88356200D01*
X137087000Y-87071200D02*
X137087000Y-88356200D01*
X137487000Y-83246200D02*
X137087000Y-83246200D01*
X137487000Y-84531200D02*
X137487000Y-83246200D01*
X137087000Y-83246200D02*
X137087000Y-84531200D01*
X136217000Y-88356200D02*
X136217000Y-87071200D01*
X135817000Y-88356200D02*
X136217000Y-88356200D01*
X135817000Y-87071200D02*
X135817000Y-88356200D01*
X136217000Y-83246200D02*
X135817000Y-83246200D01*
X136217000Y-84531200D02*
X136217000Y-83246200D01*
X135817000Y-83246200D02*
X135817000Y-84531200D01*
X134947000Y-88356200D02*
X134947000Y-87071200D01*
X134547000Y-88356200D02*
X134947000Y-88356200D01*
X134547000Y-87071200D02*
X134547000Y-88356200D01*
X134947000Y-83246200D02*
X134547000Y-83246200D01*
X134947000Y-84531200D02*
X134947000Y-83246200D01*
X134547000Y-83246200D02*
X134547000Y-84531200D01*
X133677000Y-88356200D02*
X133677000Y-87071200D01*
X133277000Y-88356200D02*
X133677000Y-88356200D01*
X133277000Y-87071200D02*
X133277000Y-88356200D01*
X133677000Y-83246200D02*
X133277000Y-83246200D01*
X133677000Y-84531200D02*
X133677000Y-83246200D01*
X133277000Y-83246200D02*
X133277000Y-84531200D01*
X132407000Y-88356200D02*
X132407000Y-87071200D01*
X132007000Y-88356200D02*
X132407000Y-88356200D01*
X132007000Y-87071200D02*
X132007000Y-88356200D01*
X132407000Y-83246200D02*
X132007000Y-83246200D01*
X132407000Y-84531200D02*
X132407000Y-83246200D01*
X132007000Y-83246200D02*
X132007000Y-84531200D01*
X131137000Y-88356200D02*
X131137000Y-87071200D01*
X130737000Y-88356200D02*
X131137000Y-88356200D01*
X130737000Y-87071200D02*
X130737000Y-88356200D01*
X131137000Y-83246200D02*
X130737000Y-83246200D01*
X131137000Y-84531200D02*
X131137000Y-83246200D01*
X130737000Y-83246200D02*
X130737000Y-84531200D01*
X129867000Y-88356200D02*
X129867000Y-87071200D01*
X129467000Y-88356200D02*
X129867000Y-88356200D01*
X129467000Y-87071200D02*
X129467000Y-88356200D01*
X129867000Y-83246200D02*
X129467000Y-83246200D01*
X129867000Y-84531200D02*
X129867000Y-83246200D01*
X129467000Y-83246200D02*
X129467000Y-84531200D01*
X128597000Y-88356200D02*
X128597000Y-87071200D01*
X128197000Y-88356200D02*
X128597000Y-88356200D01*
X128197000Y-87071200D02*
X128197000Y-88356200D01*
X128597000Y-83246200D02*
X128197000Y-83246200D01*
X128597000Y-84531200D02*
X128597000Y-83246200D01*
X128197000Y-83246200D02*
X128197000Y-84531200D01*
X127327000Y-88356200D02*
X127327000Y-87071200D01*
X126927000Y-88356200D02*
X127327000Y-88356200D01*
X126927000Y-87071200D02*
X126927000Y-88356200D01*
X127327000Y-83246200D02*
X126927000Y-83246200D01*
X127327000Y-84531200D02*
X127327000Y-83246200D01*
X126927000Y-83246200D02*
X126927000Y-84531200D01*
X126057000Y-88356200D02*
X126057000Y-87071200D01*
X125657000Y-88356200D02*
X126057000Y-88356200D01*
X125657000Y-87071200D02*
X125657000Y-88356200D01*
X126057000Y-83246200D02*
X125657000Y-83246200D01*
X126057000Y-84531200D02*
X126057000Y-83246200D01*
X125657000Y-83246200D02*
X125657000Y-84531200D01*
X124787000Y-88356200D02*
X124787000Y-87071200D01*
X124387000Y-88356200D02*
X124787000Y-88356200D01*
X124387000Y-87071200D02*
X124387000Y-88356200D01*
X124787000Y-83246200D02*
X124387000Y-83246200D01*
X124787000Y-84531200D02*
X124787000Y-83246200D01*
X124387000Y-83246200D02*
X124387000Y-84531200D01*
X123517000Y-88356200D02*
X123517000Y-87071200D01*
X123117000Y-88356200D02*
X123517000Y-88356200D01*
X123117000Y-87071200D02*
X123117000Y-88356200D01*
X123517000Y-83246200D02*
X123117000Y-83246200D01*
X123517000Y-84531200D02*
X123517000Y-83246200D01*
X123117000Y-83246200D02*
X123117000Y-84531200D01*
X148082000Y-84531200D02*
X122682000Y-84531200D01*
X148082000Y-87071200D02*
X148082000Y-84531200D01*
X123317000Y-87071200D02*
X148082000Y-87071200D01*
X122682000Y-86436200D02*
X123317000Y-87071200D01*
X122682000Y-84531200D02*
X122682000Y-86436200D01*
D11*
X149939142Y-78158342D02*
X149986761Y-78110723D01*
X150034380Y-77967866D01*
X150034380Y-77872628D01*
X149986761Y-77729771D01*
X149891523Y-77634533D01*
X149796285Y-77586914D01*
X149605809Y-77539295D01*
X149462952Y-77539295D01*
X149272476Y-77586914D01*
X149177238Y-77634533D01*
X149082000Y-77729771D01*
X149034380Y-77872628D01*
X149034380Y-77967866D01*
X149082000Y-78110723D01*
X149129619Y-78158342D01*
X150034380Y-78729771D02*
X149986761Y-78634533D01*
X149939142Y-78586914D01*
X149843904Y-78539295D01*
X149558190Y-78539295D01*
X149462952Y-78586914D01*
X149415333Y-78634533D01*
X149367714Y-78729771D01*
X149367714Y-78872628D01*
X149415333Y-78967866D01*
X149462952Y-79015485D01*
X149558190Y-79063104D01*
X149843904Y-79063104D01*
X149939142Y-79015485D01*
X149986761Y-78967866D01*
X150034380Y-78872628D01*
X150034380Y-78729771D01*
X149367714Y-79491676D02*
X150034380Y-79491676D01*
X149462952Y-79491676D02*
X149415333Y-79539295D01*
X149367714Y-79634533D01*
X149367714Y-79777390D01*
X149415333Y-79872628D01*
X149510571Y-79920247D01*
X150034380Y-79920247D01*
X149367714Y-80396438D02*
X150034380Y-80396438D01*
X149462952Y-80396438D02*
X149415333Y-80444057D01*
X149367714Y-80539295D01*
X149367714Y-80682152D01*
X149415333Y-80777390D01*
X149510571Y-80825009D01*
X150034380Y-80825009D01*
X150129619Y-81063104D02*
X150129619Y-81825009D01*
X149034380Y-82253580D02*
X149034380Y-82348819D01*
X149082000Y-82444057D01*
X149129619Y-82491676D01*
X149224857Y-82539295D01*
X149415333Y-82586914D01*
X149653428Y-82586914D01*
X149843904Y-82539295D01*
X149939142Y-82491676D01*
X149986761Y-82444057D01*
X150034380Y-82348819D01*
X150034380Y-82253580D01*
X149986761Y-82158342D01*
X149939142Y-82110723D01*
X149843904Y-82063104D01*
X149653428Y-82015485D01*
X149415333Y-82015485D01*
X149224857Y-82063104D01*
X149129619Y-82110723D01*
X149082000Y-82158342D01*
X149034380Y-82253580D01*
X149129619Y-82967866D02*
X149082000Y-83015485D01*
X149034380Y-83110723D01*
X149034380Y-83348819D01*
X149082000Y-83444057D01*
X149129619Y-83491676D01*
X149224857Y-83539295D01*
X149320095Y-83539295D01*
X149462952Y-83491676D01*
X150034380Y-82920247D01*
X150034380Y-83539295D01*
X150034380Y-83872628D02*
X149367714Y-84396438D01*
X149367714Y-83872628D02*
X150034380Y-84396438D01*
X149129619Y-84729771D02*
X149082000Y-84777390D01*
X149034380Y-84872628D01*
X149034380Y-85110723D01*
X149082000Y-85205961D01*
X149129619Y-85253580D01*
X149224857Y-85301200D01*
X149320095Y-85301200D01*
X149462952Y-85253580D01*
X150034380Y-84682152D01*
X150034380Y-85301200D01*
X149034380Y-85920247D02*
X149034380Y-86015485D01*
X149082000Y-86110723D01*
X149129619Y-86158342D01*
X149224857Y-86205961D01*
X149415333Y-86253580D01*
X149653428Y-86253580D01*
X149843904Y-86205961D01*
X149939142Y-86158342D01*
X149986761Y-86110723D01*
X150034380Y-86015485D01*
X150034380Y-85920247D01*
X149986761Y-85825009D01*
X149939142Y-85777390D01*
X149843904Y-85729771D01*
X149653428Y-85682152D01*
X149415333Y-85682152D01*
X149224857Y-85729771D01*
X149129619Y-85777390D01*
X149082000Y-85825009D01*
X149034380Y-85920247D01*
X150129619Y-86444057D02*
X150129619Y-87205961D01*
X149034380Y-87634533D02*
X149034380Y-87825009D01*
X149082000Y-87920247D01*
X149177238Y-88015485D01*
X149367714Y-88063104D01*
X149701047Y-88063104D01*
X149891523Y-88015485D01*
X149986761Y-87920247D01*
X150034380Y-87825009D01*
X150034380Y-87634533D01*
X149986761Y-87539295D01*
X149891523Y-87444057D01*
X149701047Y-87396438D01*
X149367714Y-87396438D01*
X149177238Y-87444057D01*
X149082000Y-87539295D01*
X149034380Y-87634533D01*
X150034380Y-88920247D02*
X149034380Y-88920247D01*
X149986761Y-88920247D02*
X150034380Y-88825009D01*
X150034380Y-88634533D01*
X149986761Y-88539295D01*
X149939142Y-88491676D01*
X149843904Y-88444057D01*
X149558190Y-88444057D01*
X149462952Y-88491676D01*
X149415333Y-88539295D01*
X149367714Y-88634533D01*
X149367714Y-88825009D01*
X149415333Y-88920247D01*
X150034380Y-89825009D02*
X149034380Y-89825009D01*
X149986761Y-89825009D02*
X150034380Y-89729771D01*
X150034380Y-89539295D01*
X149986761Y-89444057D01*
X149939142Y-89396438D01*
X149843904Y-89348819D01*
X149558190Y-89348819D01*
X149462952Y-89396438D01*
X149415333Y-89444057D01*
X149367714Y-89539295D01*
X149367714Y-89729771D01*
X149415333Y-89825009D01*
X150129619Y-90063104D02*
X150129619Y-90825009D01*
X149510571Y-91063104D02*
X149510571Y-91396438D01*
X150034380Y-91539295D02*
X150034380Y-91063104D01*
X149034380Y-91063104D01*
X149034380Y-91539295D01*
X149367714Y-91872628D02*
X150034380Y-92110723D01*
X149367714Y-92348819D01*
X149986761Y-93110723D02*
X150034380Y-93015485D01*
X150034380Y-92825009D01*
X149986761Y-92729771D01*
X149891523Y-92682152D01*
X149510571Y-92682152D01*
X149415333Y-92729771D01*
X149367714Y-92825009D01*
X149367714Y-93015485D01*
X149415333Y-93110723D01*
X149510571Y-93158342D01*
X149605809Y-93158342D01*
X149701047Y-92682152D01*
X149367714Y-93586914D02*
X150034380Y-93586914D01*
X149462952Y-93586914D02*
X149415333Y-93634533D01*
X149367714Y-93729771D01*
X149367714Y-93872628D01*
X149415333Y-93967866D01*
X149510571Y-94015485D01*
X150034380Y-94015485D01*
X121338933Y-83221580D02*
X121338933Y-83935866D01*
X121386552Y-84078723D01*
X121481790Y-84173961D01*
X121624647Y-84221580D01*
X121719885Y-84221580D01*
X120338933Y-84221580D02*
X120910361Y-84221580D01*
X120624647Y-84221580D02*
X120624647Y-83221580D01*
X120719885Y-83364438D01*
X120815123Y-83459676D01*
X120910361Y-83507295D01*
M02*
